G04 #@! TF.FileFunction,Paste,Top*
%FSLAX46Y46*%
G04 Gerber Fmt 4.6, Leading zero omitted, Abs format (unit mm)*
G04 Created by KiCad (PCBNEW 4.0.1-stable) date 5/9/2016 12:51:22 AM*
%MOMM*%
G01*
G04 APERTURE LIST*
%ADD10C,0.100000*%
%ADD11R,1.060000X0.650000*%
%ADD12R,1.524000X2.032000*%
%ADD13R,1.500000X0.450000*%
%ADD14R,1.450000X0.450000*%
%ADD15R,1.200000X0.280000*%
%ADD16R,0.280000X1.200000*%
%ADD17R,1.000000X0.900000*%
G04 APERTURE END LIST*
D10*
D11*
X101008000Y-174752000D03*
X101008000Y-175702000D03*
X101008000Y-176652000D03*
X103208000Y-176652000D03*
X103208000Y-174752000D03*
D12*
X117602000Y-154940000D03*
X120142000Y-154940000D03*
X122682000Y-154940000D03*
X125222000Y-154940000D03*
X125222000Y-147320000D03*
X122682000Y-147320000D03*
X120142000Y-147320000D03*
X117602000Y-147320000D03*
X91948000Y-155448000D03*
X94488000Y-155448000D03*
X97028000Y-155448000D03*
X99568000Y-155448000D03*
X99568000Y-147828000D03*
X97028000Y-147828000D03*
X94488000Y-147828000D03*
X91948000Y-147828000D03*
X94488000Y-143764000D03*
X97028000Y-143764000D03*
X99568000Y-143764000D03*
X102108000Y-143764000D03*
X102108000Y-136144000D03*
X99568000Y-136144000D03*
X97028000Y-136144000D03*
X94488000Y-136144000D03*
D13*
X110432000Y-173138000D03*
X110432000Y-173788000D03*
X110432000Y-174438000D03*
X110432000Y-175088000D03*
X110432000Y-175738000D03*
X110432000Y-176388000D03*
X110432000Y-177038000D03*
X110432000Y-177688000D03*
X116332000Y-177688000D03*
X116332000Y-177038000D03*
X116332000Y-176388000D03*
X116332000Y-175738000D03*
X116332000Y-175088000D03*
X116332000Y-174438000D03*
X116332000Y-173788000D03*
X116332000Y-173138000D03*
D14*
X130048000Y-150674000D03*
X130048000Y-151324000D03*
X130048000Y-151974000D03*
X130048000Y-152624000D03*
X130048000Y-153274000D03*
X130048000Y-153924000D03*
X130048000Y-154574000D03*
X135948000Y-154574000D03*
X135948000Y-153924000D03*
X135948000Y-153274000D03*
X135948000Y-152624000D03*
X135948000Y-151974000D03*
X135948000Y-151324000D03*
X135948000Y-150674000D03*
D15*
X105716000Y-148872000D03*
X105716000Y-149372000D03*
X105716000Y-149872000D03*
X105716000Y-150372000D03*
X105716000Y-150872000D03*
X105716000Y-151372000D03*
X105716000Y-151872000D03*
X105716000Y-152372000D03*
D16*
X107216000Y-153872000D03*
X107716000Y-153872000D03*
X108216000Y-153872000D03*
X108716000Y-153872000D03*
X109216000Y-153872000D03*
X109716000Y-153872000D03*
X110216000Y-153872000D03*
X110716000Y-153872000D03*
D15*
X112216000Y-152372000D03*
X112216000Y-151872000D03*
X112216000Y-151372000D03*
X112216000Y-150872000D03*
X112216000Y-150372000D03*
X112216000Y-149872000D03*
X112216000Y-149372000D03*
X112216000Y-148872000D03*
D16*
X110716000Y-147372000D03*
X110216000Y-147372000D03*
X109716000Y-147372000D03*
X109216000Y-147372000D03*
X108716000Y-147372000D03*
X108216000Y-147372000D03*
X107716000Y-147372000D03*
X107216000Y-147372000D03*
D17*
X112359000Y-168669000D03*
X114209000Y-168669000D03*
X114209000Y-167119000D03*
X112359000Y-167119000D03*
M02*
