M48
;DRILL file {KiCad 4.0.1-stable} date 5/9/2016 2:00:32 PM
;FORMAT={-:-/ absolute / inch / decimal}
FMAT,2
INCH,TZ
T1C0.012
T2C0.039
T3C0.040
T4C0.087
%
G90
G05
M72
T1
X3.6694Y-5.6946
X3.7302Y-6.2256
X3.7616Y-5.5912
X3.93Y-6.81
X3.9344Y-6.9476
X3.98Y-6.76
X3.9922Y-6.0796
X4.0517Y-5.5582
X4.0627Y-6.9174
X4.0653Y-6.5817
X4.0909Y-6.3766
X4.1049Y-6.946
X4.14Y-6.78
X4.2075Y-5.9736
X4.2197Y-6.3102
X4.2211Y-6.2216
X4.2605Y-6.1081
X4.2686Y-6.8676
X4.2826Y-5.9835
X4.2998Y-5.7575
X4.3036Y-5.8652
X4.3036Y-7.0487
X4.316Y-6.
X4.3525Y-5.5109
X4.3712Y-5.8964
X4.3804Y-6.4251
X4.4623Y-5.9488
X4.4785Y-6.6829
X4.5688Y-6.1197
X4.6287Y-7.1454
X4.6548Y-6.9947
X4.6847Y-5.9272
X4.71Y-6.82
X4.9569Y-6.203
X4.9721Y-6.5304
X4.9754Y-6.4688
X4.9866Y-6.7201
X5.053Y-5.9243
X5.0606Y-6.2958
X5.0672Y-6.2232
X5.0938Y-6.1853
X5.1352Y-6.1279
X5.1376Y-6.2043
X5.1698Y-6.0228
X5.1741Y-5.9323
X5.1913Y-6.1787
X5.1946Y-6.0471
X5.2192Y-5.8792
X5.2915Y-5.9916
X5.3009Y-6.1897
X5.3575Y-6.1157
X5.3835Y-6.1376
X5.4543Y-6.6525
T2
X4.3216Y-5.6369
X4.42Y-5.6369
X5.0016Y-5.6369
X5.1Y-5.6369
T3
X3.61Y-6.31
X3.61Y-6.41
X3.61Y-6.51
X3.61Y-6.61
X3.61Y-6.71
X3.61Y-6.81
X3.61Y-6.91
X3.61Y-7.01
X3.61Y-7.11
X3.61Y-7.21
X3.71Y-6.31
X3.71Y-6.41
X3.71Y-6.51
X3.71Y-6.61
X3.71Y-6.71
X3.71Y-6.81
X3.71Y-6.91
X3.71Y-7.01
X3.71Y-7.11
X3.71Y-7.21
X5.31Y-6.31
X5.31Y-6.41
X5.31Y-6.51
X5.31Y-6.61
X5.31Y-6.71
X5.31Y-6.81
X5.31Y-6.91
X5.31Y-7.01
X5.31Y-7.11
X5.31Y-7.21
X5.41Y-6.31
X5.41Y-6.41
X5.41Y-6.51
X5.41Y-6.61
X5.41Y-6.71
X5.41Y-6.81
X5.41Y-6.91
X5.41Y-7.01
X5.41Y-7.11
X5.41Y-7.21
T4
X4.2193Y-5.469
X4.6208Y-5.469
X4.8993Y-5.469
X5.3008Y-5.469
T0
M30
