G04 #@! TF.FileFunction,Copper,L2,Bot,Signal*
%FSLAX46Y46*%
G04 Gerber Fmt 4.6, Leading zero omitted, Abs format (unit mm)*
G04 Created by KiCad (PCBNEW 4.0.1-stable) date 5/9/2016 2:00:35 PM*
%MOMM*%
G01*
G04 APERTURE LIST*
%ADD10C,0.100000*%
%ADD11R,1.727200X1.727200*%
%ADD12O,1.727200X1.727200*%
%ADD13R,1.250000X1.000000*%
%ADD14R,1.000000X1.250000*%
%ADD15O,3.500120X5.001260*%
%ADD16C,1.600200*%
%ADD17R,1.300000X0.700000*%
%ADD18R,0.700000X1.300000*%
%ADD19C,0.609600*%
%ADD20C,0.279400*%
%ADD21C,0.254000*%
G04 APERTURE END LIST*
D10*
D11*
X91694000Y-160274000D03*
D12*
X94234000Y-160274000D03*
X91694000Y-162814000D03*
X94234000Y-162814000D03*
X91694000Y-165354000D03*
X94234000Y-165354000D03*
X91694000Y-167894000D03*
X94234000Y-167894000D03*
X91694000Y-170434000D03*
X94234000Y-170434000D03*
X91694000Y-172974000D03*
X94234000Y-172974000D03*
X91694000Y-175514000D03*
X94234000Y-175514000D03*
X91694000Y-178054000D03*
X94234000Y-178054000D03*
X91694000Y-180594000D03*
X94234000Y-180594000D03*
X91694000Y-183134000D03*
X94234000Y-183134000D03*
X134874000Y-175514000D03*
X134874000Y-178054000D03*
X134874000Y-172974000D03*
X137414000Y-172974000D03*
X137414000Y-178054000D03*
X137414000Y-175514000D03*
X134874000Y-170434000D03*
X134874000Y-167894000D03*
X137414000Y-167894000D03*
X137414000Y-170434000D03*
X137414000Y-165354000D03*
X134874000Y-165354000D03*
D11*
X134874000Y-160274000D03*
D12*
X137414000Y-162814000D03*
X134874000Y-162814000D03*
X137414000Y-160274000D03*
X134874000Y-183134000D03*
X137414000Y-183134000D03*
X137414000Y-180594000D03*
X134874000Y-180594000D03*
D13*
X98044000Y-176514000D03*
X98044000Y-174514000D03*
X97536000Y-150400000D03*
X97536000Y-152400000D03*
X126238000Y-150384000D03*
X126238000Y-152384000D03*
D14*
X100568000Y-139700000D03*
X98568000Y-139700000D03*
D13*
X113792000Y-176260000D03*
X113792000Y-174260000D03*
X106426000Y-176006000D03*
X106426000Y-174006000D03*
D14*
X105934000Y-179324000D03*
X107934000Y-179324000D03*
D13*
X125984000Y-175768000D03*
X125984000Y-177768000D03*
X120396000Y-175784000D03*
X120396000Y-177784000D03*
X120396000Y-152384000D03*
X120396000Y-150384000D03*
X91948000Y-152638000D03*
X91948000Y-150638000D03*
X102616000Y-146574000D03*
X102616000Y-148574000D03*
D14*
X110617000Y-164338000D03*
X112617000Y-164338000D03*
X123730000Y-167386000D03*
X125730000Y-167386000D03*
X123412000Y-171958000D03*
X121412000Y-171958000D03*
X127984000Y-162814000D03*
X125984000Y-162814000D03*
X134890000Y-145542000D03*
X136890000Y-145542000D03*
D13*
X131064000Y-169926000D03*
X131064000Y-171926000D03*
D14*
X114649000Y-161671000D03*
X112649000Y-161671000D03*
X132048000Y-166878000D03*
X130048000Y-166878000D03*
X118094000Y-144272000D03*
X116094000Y-144272000D03*
X108331000Y-159258000D03*
X110331000Y-159258000D03*
X102521000Y-159639000D03*
X104521000Y-159639000D03*
D13*
X98044000Y-166640000D03*
X98044000Y-168640000D03*
D14*
X105950000Y-163322000D03*
X107950000Y-163322000D03*
X131064000Y-180594000D03*
X129064000Y-180594000D03*
X131318000Y-183642000D03*
X129318000Y-183642000D03*
D15*
X107170220Y-138912600D03*
X117368320Y-138912600D03*
D16*
X112268000Y-143177260D03*
X109768640Y-143177260D03*
D15*
X124442220Y-138912600D03*
X134640320Y-138912600D03*
D16*
X129540000Y-143177260D03*
X127040640Y-143177260D03*
D17*
X103378000Y-152400000D03*
X103378000Y-154300000D03*
D18*
X127442000Y-158750000D03*
X125542000Y-158750000D03*
D17*
X102616000Y-138242000D03*
X102616000Y-140142000D03*
D18*
X103190000Y-182118000D03*
X105090000Y-182118000D03*
X119446000Y-182118000D03*
X121346000Y-182118000D03*
D17*
X109220000Y-184084000D03*
X109220000Y-182184000D03*
X115570000Y-184084000D03*
X115570000Y-182184000D03*
X99314000Y-182184000D03*
X99314000Y-184084000D03*
X125730000Y-183830000D03*
X125730000Y-181930000D03*
D18*
X90998000Y-138938000D03*
X92898000Y-138938000D03*
X94808000Y-139700000D03*
X96708000Y-139700000D03*
D17*
X91694000Y-142052000D03*
X91694000Y-143952000D03*
D18*
X132014000Y-158750000D03*
X130114000Y-158750000D03*
X107376000Y-144272000D03*
X105476000Y-144272000D03*
D17*
X132842000Y-150688000D03*
X132842000Y-152588000D03*
X129286000Y-175580000D03*
X129286000Y-177480000D03*
D18*
X128016000Y-171958000D03*
X126116000Y-171958000D03*
X133416000Y-148336000D03*
X135316000Y-148336000D03*
X129352000Y-139446000D03*
X131252000Y-139446000D03*
D17*
X137922000Y-157480000D03*
X137922000Y-155580000D03*
D18*
X119126000Y-159385000D03*
X117226000Y-159385000D03*
D17*
X118110000Y-162560000D03*
X118110000Y-164460000D03*
D18*
X135504000Y-157226000D03*
X133604000Y-157226000D03*
X121798000Y-162814000D03*
X123698000Y-162814000D03*
D17*
X123190000Y-158308000D03*
X123190000Y-160208000D03*
D18*
X131252000Y-148082000D03*
X129352000Y-148082000D03*
X106426000Y-168910000D03*
X104526000Y-168910000D03*
X99944000Y-159893000D03*
X98044000Y-159893000D03*
X121285000Y-167132000D03*
X119385000Y-167132000D03*
D17*
X103378000Y-164404000D03*
X103378000Y-166304000D03*
D18*
X112268000Y-138811000D03*
X110368000Y-138811000D03*
D19*
X118230800Y-177666400D03*
X110553100Y-139976200D03*
X107216000Y-158029900D03*
X99933900Y-176468200D03*
X118992400Y-150551300D03*
X111260900Y-163198200D03*
X101092000Y-171704000D03*
X105156000Y-172212000D03*
X99822000Y-172974000D03*
X119634000Y-173228000D03*
X103193800Y-175702000D03*
X103907800Y-161965400D03*
X103258100Y-167176400D03*
X113343600Y-151099400D03*
X136079500Y-155338300D03*
X134404500Y-152186600D03*
X111029300Y-149768600D03*
X113754500Y-169746600D03*
X108422200Y-174438000D03*
X138540100Y-168974300D03*
X131313400Y-152979600D03*
X128706100Y-158069300D03*
X109310600Y-148977300D03*
X108779300Y-151980000D03*
X106871500Y-151729800D03*
X93202600Y-144643800D03*
X101401800Y-154422000D03*
X125905700Y-157555000D03*
X102912800Y-141178300D03*
X94746700Y-158131100D03*
X95544500Y-142017100D03*
X116047500Y-155440100D03*
X128346300Y-150478200D03*
X128538300Y-159913300D03*
X126374800Y-164308400D03*
X104265300Y-176429000D03*
X109216000Y-146241400D03*
X108215900Y-155145000D03*
X107179400Y-160278200D03*
X109311400Y-179037500D03*
X117570000Y-181492200D03*
X131942200Y-153595200D03*
X130495500Y-157589400D03*
X131421000Y-150681100D03*
X126660600Y-170691800D03*
X134644000Y-157218500D03*
X136741600Y-155895000D03*
X130434400Y-155648300D03*
X129383100Y-157107100D03*
X131858400Y-156939100D03*
X126290900Y-165872800D03*
X132566700Y-149330900D03*
X109626900Y-152400400D03*
D20*
X127238800Y-177480000D02*
X126950800Y-177768000D01*
X129286000Y-177480000D02*
X127238800Y-177480000D01*
X125984000Y-177768000D02*
X126950800Y-177768000D01*
X131318000Y-181814800D02*
X131064000Y-181560800D01*
X131318000Y-183642000D02*
X131318000Y-181814800D01*
X131064000Y-181077400D02*
X131064000Y-181560800D01*
X131064000Y-181077400D02*
X131064000Y-180594000D01*
X130741400Y-179627200D02*
X129286000Y-178171800D01*
X131064000Y-179627200D02*
X130741400Y-179627200D01*
X129286000Y-177480000D02*
X129286000Y-178171800D01*
X131064000Y-180594000D02*
X131064000Y-179627200D01*
X125984000Y-177768000D02*
X125017200Y-177768000D01*
X118348400Y-177784000D02*
X118230800Y-177666400D01*
X120396000Y-177784000D02*
X118348400Y-177784000D01*
X120396000Y-177784000D02*
X121362800Y-177784000D01*
X121285000Y-167132000D02*
X121285000Y-167627900D01*
X123730000Y-167386000D02*
X122888200Y-167386000D01*
X125017200Y-177768000D02*
X123198000Y-177768000D01*
X121378800Y-177768000D02*
X121362800Y-177784000D01*
X123198000Y-177768000D02*
X121378800Y-177768000D01*
X123198000Y-177768000D02*
X123198000Y-171958000D01*
X123412000Y-171958000D02*
X123198000Y-171958000D01*
X123198000Y-171958000D02*
X122570200Y-171958000D01*
X110379700Y-139802800D02*
X110553100Y-139976200D01*
X110368000Y-139802800D02*
X110379700Y-139802800D01*
X110368000Y-138811000D02*
X110368000Y-139802800D01*
X122570200Y-171480800D02*
X122570200Y-171958000D01*
X121353600Y-170264200D02*
X122570200Y-171480800D01*
X121353600Y-170264200D02*
X121353600Y-167627900D01*
X121285000Y-167627900D02*
X121353600Y-167627900D01*
X122646300Y-167627900D02*
X122888200Y-167386000D01*
X121353600Y-167627900D02*
X122646300Y-167627900D01*
X91694000Y-160274000D02*
X92899400Y-160274000D01*
X98044000Y-159893000D02*
X97352200Y-159893000D01*
X101803600Y-170399600D02*
X98044000Y-166640000D01*
X121218200Y-170399600D02*
X101803600Y-170399600D01*
X121353600Y-170264200D02*
X121218200Y-170399600D01*
X95765500Y-163519700D02*
X95765500Y-161479700D01*
X98044000Y-165798200D02*
X95765500Y-163519700D01*
X93728400Y-161479700D02*
X95765500Y-161479700D01*
X92899400Y-160650700D02*
X93728400Y-161479700D01*
X92899400Y-160274000D02*
X92899400Y-160650700D01*
X95765500Y-161479700D02*
X97352200Y-159893000D01*
X98044000Y-166640000D02*
X98044000Y-165798200D01*
X108331000Y-159258000D02*
X108331000Y-158291200D01*
X99056600Y-176468200D02*
X99010800Y-176514000D01*
X99933900Y-176468200D02*
X99056600Y-176468200D01*
X98044000Y-176514000D02*
X99010800Y-176514000D01*
X94234000Y-160274000D02*
X94234000Y-159068600D01*
X91948000Y-150638000D02*
X92914800Y-150638000D01*
X96435100Y-150638000D02*
X92914800Y-150638000D01*
X96435100Y-149863700D02*
X96435100Y-150638000D01*
X97724800Y-148574000D02*
X96435100Y-149863700D01*
X102616000Y-148574000D02*
X97724800Y-148574000D01*
X108069700Y-158029900D02*
X107216000Y-158029900D01*
X108331000Y-158291200D02*
X108069700Y-158029900D01*
X96435100Y-150907400D02*
X96435100Y-150638000D01*
X96769600Y-151241900D02*
X96435100Y-150907400D01*
X98010300Y-151241900D02*
X96769600Y-151241900D01*
X98531100Y-151762700D02*
X98010300Y-151241900D01*
X98531100Y-155261200D02*
X98531100Y-151762700D01*
X94723700Y-159068600D02*
X98531100Y-155261200D01*
X94234000Y-159068600D02*
X94723700Y-159068600D01*
X120396000Y-150384000D02*
X119429200Y-150384000D01*
X119261900Y-150551300D02*
X118992400Y-150551300D01*
X119429200Y-150384000D02*
X119261900Y-150551300D01*
X110617000Y-164338000D02*
X110617000Y-163371200D01*
X111087900Y-163371200D02*
X111260900Y-163198200D01*
X110617000Y-163371200D02*
X111087900Y-163371200D01*
X108331000Y-160268300D02*
X108331000Y-159258000D01*
X111260900Y-163198200D02*
X108331000Y-160268300D01*
X98044000Y-171704000D02*
X101092000Y-171704000D01*
X100584000Y-172212000D02*
X105156000Y-172212000D01*
X99822000Y-172974000D02*
X100584000Y-172212000D01*
X120570200Y-173228000D02*
X119634000Y-173228000D01*
X134640300Y-138912600D02*
X132548400Y-138912600D01*
X96708000Y-139700000D02*
X98568000Y-139700000D01*
X118094000Y-144272000D02*
X118935800Y-144272000D01*
X129318000Y-183642000D02*
X129318000Y-182675200D01*
X102521000Y-159639000D02*
X103362800Y-159639000D01*
X110361000Y-160224800D02*
X111807200Y-161671000D01*
X110331000Y-160224800D02*
X110361000Y-160224800D01*
X132015000Y-140667000D02*
X132015000Y-139446000D01*
X136048200Y-144700200D02*
X132015000Y-140667000D01*
X136048200Y-145542000D02*
X136048200Y-144700200D01*
X131252000Y-139446000D02*
X132015000Y-139446000D01*
X132015000Y-139446000D02*
X132548400Y-138912600D01*
X136890000Y-145542000D02*
X136048200Y-145542000D01*
X110331000Y-159258000D02*
X110331000Y-160224800D01*
X106426000Y-176006000D02*
X106426000Y-176847800D01*
X117368300Y-138912600D02*
X119460200Y-138912600D01*
X130560200Y-139100100D02*
X130560200Y-139446000D01*
X129914200Y-138454100D02*
X130560200Y-139100100D01*
X126992600Y-138454100D02*
X129914200Y-138454100D01*
X126534100Y-138912600D02*
X126992600Y-138454100D01*
X124442200Y-138912600D02*
X126534100Y-138912600D01*
X131252000Y-139446000D02*
X130560200Y-139446000D01*
X126238000Y-152384000D02*
X126238000Y-152804900D01*
X126238000Y-152804900D02*
X126238000Y-153225800D01*
X121783700Y-152804900D02*
X121362800Y-152384000D01*
X126238000Y-152804900D02*
X121783700Y-152804900D01*
X120396000Y-152384000D02*
X121362800Y-152384000D01*
X98568000Y-139700000D02*
X98988900Y-139700000D01*
X102616000Y-146574000D02*
X102616000Y-145732200D01*
X98865300Y-142105100D02*
X98988900Y-142105100D01*
X90981100Y-149989300D02*
X98865300Y-142105100D01*
X90981100Y-151389500D02*
X90981100Y-149989300D01*
X91948000Y-152356400D02*
X90981100Y-151389500D01*
X98988900Y-139700000D02*
X98988900Y-142105100D01*
X98988900Y-142105100D02*
X102616000Y-145732200D01*
X98044000Y-174514000D02*
X98044000Y-171704000D01*
X98044000Y-171704000D02*
X98044000Y-168640000D01*
X98044000Y-174514000D02*
X99010800Y-174514000D01*
X100198800Y-175702000D02*
X103193800Y-175702000D01*
X99010800Y-174514000D02*
X100198800Y-175702000D01*
X106426000Y-176006000D02*
X105459200Y-176006000D01*
X113792000Y-176260000D02*
X114758800Y-176260000D01*
X129064000Y-182421200D02*
X129064000Y-180594000D01*
X129318000Y-182675200D02*
X129064000Y-182421200D01*
X129064000Y-180594000D02*
X128222200Y-180594000D01*
X126534100Y-142670800D02*
X126534100Y-138912600D01*
X127040600Y-143177300D02*
X126534100Y-142670800D01*
X124442200Y-138912600D02*
X122350300Y-138912600D01*
X120929100Y-140333800D02*
X122350300Y-138912600D01*
X120881400Y-140333800D02*
X120929100Y-140333800D01*
X120881400Y-142326400D02*
X120881400Y-140333800D01*
X118935800Y-144272000D02*
X120881400Y-142326400D01*
X120881400Y-140333800D02*
X119460200Y-138912600D01*
X91948000Y-152497200D02*
X91948000Y-152356400D01*
X96472000Y-152497200D02*
X96569200Y-152400000D01*
X91948000Y-152497200D02*
X96472000Y-152497200D01*
X97536000Y-152400000D02*
X96569200Y-152400000D01*
X105155200Y-175702000D02*
X103193800Y-175702000D01*
X105459200Y-176006000D02*
X105155200Y-175702000D01*
X125984000Y-173081800D02*
X125984000Y-175768000D01*
X126116000Y-172949800D02*
X125984000Y-173081800D01*
X112649000Y-161671000D02*
X111807200Y-161671000D01*
X126116000Y-171958000D02*
X126116000Y-172949800D01*
X126116000Y-171958000D02*
X126116000Y-171099100D01*
X112617000Y-164338000D02*
X113458800Y-164338000D01*
X131590100Y-171084200D02*
X131064000Y-171084200D01*
X132222100Y-170452200D02*
X131590100Y-171084200D01*
X132222100Y-168756200D02*
X132222100Y-170452200D01*
X134354300Y-166624000D02*
X132222100Y-168756200D01*
X135315300Y-166624000D02*
X134354300Y-166624000D01*
X136208600Y-165730700D02*
X135315300Y-166624000D01*
X136208600Y-162308000D02*
X136208600Y-165730700D01*
X137037200Y-161479400D02*
X136208600Y-162308000D01*
X137414000Y-161479400D02*
X137037200Y-161479400D01*
X137414000Y-160274000D02*
X137414000Y-161479400D01*
X131064000Y-171926000D02*
X131064000Y-171084200D01*
X125730000Y-167386000D02*
X126571800Y-167386000D01*
X129934700Y-170416500D02*
X129934700Y-167474700D01*
X130602400Y-171084200D02*
X129934700Y-170416500D01*
X131064000Y-171084200D02*
X130602400Y-171084200D01*
X129934700Y-167474700D02*
X130048000Y-167361400D01*
X125730000Y-167386000D02*
X125730000Y-168352800D01*
X97517900Y-167798200D02*
X98044000Y-167798200D01*
X95439400Y-165719700D02*
X97517900Y-167798200D01*
X95439400Y-164848000D02*
X95439400Y-165719700D01*
X94610800Y-164019400D02*
X95439400Y-164848000D01*
X94234000Y-164019400D02*
X94610800Y-164019400D01*
X94234000Y-162814000D02*
X94234000Y-164019400D01*
X125730000Y-170713100D02*
X125730000Y-168352800D01*
X126116000Y-171099100D02*
X125730000Y-170713100D01*
X91948000Y-152567600D02*
X91948000Y-152497200D01*
X112538000Y-178355800D02*
X113792000Y-177101800D01*
X107934000Y-178355800D02*
X112538000Y-178355800D01*
X107934000Y-179324000D02*
X107934000Y-178355800D01*
X107934000Y-178355800D02*
X106426000Y-176847800D01*
X113792000Y-176260000D02*
X113792000Y-177101800D01*
X120396000Y-175784000D02*
X119429200Y-175784000D01*
X120244000Y-180594000D02*
X128222200Y-180594000D01*
X117567600Y-177917600D02*
X120244000Y-180594000D01*
X117567600Y-176260000D02*
X117567600Y-177917600D01*
X114758800Y-176260000D02*
X117567600Y-176260000D01*
X118953200Y-176260000D02*
X119429200Y-175784000D01*
X117567600Y-176260000D02*
X118953200Y-176260000D01*
X120570200Y-174768000D02*
X120396000Y-174942200D01*
X120570200Y-171958000D02*
X120570200Y-173228000D01*
X120570200Y-173228000D02*
X120570200Y-174768000D01*
X121412000Y-171958000D02*
X120570200Y-171958000D01*
X120396000Y-175784000D02*
X120396000Y-174942200D01*
X98044000Y-168640000D02*
X98044000Y-167798200D01*
X125984000Y-162814000D02*
X125142200Y-162814000D01*
X130048000Y-167119700D02*
X130048000Y-167361400D01*
X91948000Y-152567600D02*
X91948000Y-152638000D01*
X130048000Y-167119700D02*
X130048000Y-166878000D01*
X125984000Y-162814000D02*
X126825800Y-162814000D01*
X126825800Y-163520300D02*
X126825800Y-162814000D01*
X127251700Y-163946200D02*
X126825800Y-163520300D01*
X127251700Y-167386000D02*
X127251700Y-163946200D01*
X127340400Y-167474700D02*
X127251700Y-167386000D01*
X129934700Y-167474700D02*
X127340400Y-167474700D01*
X127251700Y-167386000D02*
X126571800Y-167386000D01*
X103362800Y-161420400D02*
X103907800Y-161965400D01*
X103362800Y-159639000D02*
X103362800Y-161420400D01*
X103907800Y-162121600D02*
X103907800Y-161965400D01*
X105108200Y-163322000D02*
X103907800Y-162121600D01*
X98988900Y-139617200D02*
X98988900Y-139700000D01*
X101071300Y-137534800D02*
X98988900Y-139617200D01*
X103700500Y-137534800D02*
X101071300Y-137534800D01*
X105078300Y-138912600D02*
X103700500Y-137534800D01*
X107170200Y-138912600D02*
X105078300Y-138912600D01*
X113458800Y-164338000D02*
X113984600Y-163812200D01*
X125142200Y-162919200D02*
X125142200Y-162814000D01*
X124247700Y-163813700D02*
X125142200Y-162919200D01*
X121253200Y-163813700D02*
X124247700Y-163813700D01*
X120726000Y-163286500D02*
X121253200Y-163813700D01*
X114510300Y-163286500D02*
X120726000Y-163286500D01*
X113984600Y-163812200D02*
X114510300Y-163286500D01*
X112810200Y-162637800D02*
X112649000Y-162637800D01*
X113984600Y-163812200D02*
X112810200Y-162637800D01*
X112649000Y-161671000D02*
X112649000Y-162637800D01*
X105536000Y-163322000D02*
X105108200Y-163322000D01*
X105536000Y-163322000D02*
X105950000Y-163322000D01*
X111775200Y-164864100D02*
X111775200Y-164338000D01*
X111331600Y-165307700D02*
X111775200Y-164864100D01*
X108251400Y-165307700D02*
X111331600Y-165307700D01*
X106791800Y-163848100D02*
X108251400Y-165307700D01*
X106791800Y-163322000D02*
X106791800Y-163848100D01*
X105950000Y-163322000D02*
X106791800Y-163322000D01*
X112617000Y-164338000D02*
X111775200Y-164338000D01*
X136890000Y-150615600D02*
X136890000Y-145542000D01*
X133263700Y-154241900D02*
X136890000Y-150615600D01*
X127254100Y-154241900D02*
X133263700Y-154241900D01*
X126238000Y-153225800D02*
X127254100Y-154241900D01*
X103378000Y-166304000D02*
X103378000Y-166995800D01*
X103378000Y-167056500D02*
X103258100Y-167176400D01*
X103378000Y-166995800D02*
X103378000Y-167056500D01*
X117090900Y-154846700D02*
X113343600Y-151099400D01*
X135587900Y-154846700D02*
X117090900Y-154846700D01*
X136079500Y-155338300D02*
X135587900Y-154846700D01*
X112115200Y-148586200D02*
X111029300Y-149672100D01*
X124097300Y-148586200D02*
X112115200Y-148586200D01*
X125593400Y-147090100D02*
X124097300Y-148586200D01*
X129845500Y-147090100D02*
X125593400Y-147090100D01*
X130394800Y-147639400D02*
X129845500Y-147090100D01*
X130394800Y-150625600D02*
X130394800Y-147639400D01*
X131665400Y-151896200D02*
X130394800Y-150625600D01*
X134114100Y-151896200D02*
X131665400Y-151896200D01*
X134404500Y-152186600D02*
X134114100Y-151896200D01*
X110981100Y-149623900D02*
X111029300Y-149672100D01*
X109042800Y-149623900D02*
X110981100Y-149623900D01*
X108523200Y-149104300D02*
X109042800Y-149623900D01*
X108523200Y-146002700D02*
X108523200Y-149104300D01*
X109858000Y-144667900D02*
X108523200Y-146002700D01*
X109930700Y-144667900D02*
X109858000Y-144667900D01*
X111018300Y-143580300D02*
X109930700Y-144667900D01*
X111018300Y-142216800D02*
X111018300Y-143580300D01*
X112268000Y-140967100D02*
X111018300Y-142216800D01*
X112268000Y-138811000D02*
X112268000Y-140967100D01*
X111029300Y-149672100D02*
X111029300Y-149768600D01*
X113599200Y-169901900D02*
X113754500Y-169746600D01*
X104022000Y-169901900D02*
X113599200Y-169901900D01*
X99944000Y-165823900D02*
X104022000Y-169901900D01*
X99944000Y-159893000D02*
X99944000Y-165823900D01*
X120076800Y-166786100D02*
X120076800Y-167132000D01*
X120722700Y-166140200D02*
X120076800Y-166786100D01*
X124094200Y-166140200D02*
X120722700Y-166140200D01*
X124888100Y-166934100D02*
X124094200Y-166140200D01*
X124888100Y-176305000D02*
X124888100Y-166934100D01*
X125351100Y-176768000D02*
X124888100Y-176305000D01*
X130093500Y-176768000D02*
X125351100Y-176768000D01*
X133668600Y-180343100D02*
X130093500Y-176768000D01*
X133668600Y-181100000D02*
X133668600Y-180343100D01*
X134497200Y-181928600D02*
X133668600Y-181100000D01*
X134874000Y-181928600D02*
X134497200Y-181928600D01*
X134874000Y-183134000D02*
X134874000Y-181928600D01*
X119385000Y-167132000D02*
X120076800Y-167132000D01*
X106426000Y-174006000D02*
X107392800Y-174006000D01*
X113792000Y-174260000D02*
X112825200Y-174260000D01*
X107824800Y-174438000D02*
X108422200Y-174438000D01*
X107392800Y-174006000D02*
X107824800Y-174438000D01*
X112647200Y-174438000D02*
X112825200Y-174260000D01*
X108422200Y-174438000D02*
X112647200Y-174438000D01*
X125817100Y-184608900D02*
X125730000Y-184521800D01*
X135114100Y-184608900D02*
X125817100Y-184608900D01*
X136144000Y-183579000D02*
X135114100Y-184608900D01*
X136144000Y-169989800D02*
X136144000Y-183579000D01*
X136905300Y-169228500D02*
X136144000Y-169989800D01*
X138285900Y-169228500D02*
X136905300Y-169228500D01*
X138540100Y-168974300D02*
X138285900Y-169228500D01*
X125730000Y-183830000D02*
X125730000Y-184175900D01*
X125730000Y-184175900D02*
X125730000Y-184521800D01*
X116653700Y-184175900D02*
X116561800Y-184084000D01*
X125730000Y-184175900D02*
X116653700Y-184175900D01*
X115570000Y-184084000D02*
X116561800Y-184084000D01*
X129352000Y-151018200D02*
X129352000Y-148082000D01*
X131313400Y-152979600D02*
X129352000Y-151018200D01*
X127984000Y-162814000D02*
X128825800Y-162814000D01*
X131064000Y-165052200D02*
X131064000Y-169926000D01*
X128825800Y-162814000D02*
X131064000Y-165052200D01*
X127984000Y-162814000D02*
X127984000Y-161847200D01*
X130114000Y-158750000D02*
X129422200Y-158750000D01*
X129422200Y-160409000D02*
X129422200Y-158750000D01*
X127984000Y-161847200D02*
X129422200Y-160409000D01*
X128741500Y-158069300D02*
X129422200Y-158750000D01*
X128706100Y-158069300D02*
X128741500Y-158069300D01*
X128394900Y-157758100D02*
X128706100Y-158069300D01*
X126935700Y-157758100D02*
X128394900Y-157758100D01*
X126616700Y-158077100D02*
X126935700Y-157758100D01*
X126616700Y-159158600D02*
X126616700Y-158077100D01*
X125567300Y-160208000D02*
X126616700Y-159158600D01*
X123190000Y-160208000D02*
X125567300Y-160208000D01*
X135316000Y-148336000D02*
X135316000Y-147344200D01*
X134890000Y-145542000D02*
X134890000Y-146585300D01*
X134890000Y-146918200D02*
X135316000Y-147344200D01*
X134890000Y-146585300D02*
X134890000Y-146918200D01*
X111438500Y-146849400D02*
X109310600Y-148977300D01*
X118695000Y-146849400D02*
X111438500Y-146849400D01*
X118959100Y-146585300D02*
X118695000Y-146849400D01*
X134890000Y-146585300D02*
X118959100Y-146585300D01*
X117226000Y-159385000D02*
X116534200Y-159385000D01*
X116534200Y-159385000D02*
X114649000Y-159385000D01*
X114649000Y-156453600D02*
X114649000Y-159385000D01*
X109937200Y-151741800D02*
X114649000Y-156453600D01*
X109017500Y-151741800D02*
X109937200Y-151741800D01*
X108779300Y-151980000D02*
X109017500Y-151741800D01*
X114649000Y-159385000D02*
X114649000Y-161671000D01*
X133604000Y-157226000D02*
X133258100Y-157226000D01*
X133258100Y-166509700D02*
X132889800Y-166878000D01*
X133258100Y-157226000D02*
X133258100Y-166509700D01*
X132048000Y-166878000D02*
X132889800Y-166878000D01*
X107353000Y-151248300D02*
X106871500Y-151729800D01*
X110232400Y-151248300D02*
X107353000Y-151248300D01*
X115070900Y-156086800D02*
X110232400Y-151248300D01*
X116315500Y-156086800D02*
X115070900Y-156086800D01*
X116497600Y-155904700D02*
X116315500Y-156086800D01*
X129776400Y-155904700D02*
X116497600Y-155904700D01*
X130166600Y-156294900D02*
X129776400Y-155904700D01*
X130702300Y-156294900D02*
X130166600Y-156294900D01*
X130705900Y-156291300D02*
X130702300Y-156294900D01*
X132323400Y-156291300D02*
X130705900Y-156291300D01*
X133258100Y-157226000D02*
X132323400Y-156291300D01*
X91694000Y-143952000D02*
X91694000Y-144643800D01*
X91694000Y-144643800D02*
X93202600Y-144643800D01*
X112977900Y-142467400D02*
X112268000Y-143177300D01*
X112977900Y-137986000D02*
X112977900Y-142467400D01*
X111048800Y-136056900D02*
X112977900Y-137986000D01*
X98810100Y-136056900D02*
X111048800Y-136056900D01*
X96016100Y-138850900D02*
X98810100Y-136056900D01*
X96016100Y-141370400D02*
X96016100Y-138850900D01*
X96194400Y-141548700D02*
X96016100Y-141370400D01*
X96194400Y-142346900D02*
X96194400Y-141548700D01*
X93897500Y-144643800D02*
X96194400Y-142346900D01*
X93202600Y-144643800D02*
X93897500Y-144643800D01*
X129540000Y-140625800D02*
X129352000Y-140437800D01*
X129540000Y-143177300D02*
X129540000Y-140625800D01*
X129352000Y-139446000D02*
X129352000Y-140437800D01*
X102264200Y-154422000D02*
X102386200Y-154300000D01*
X101401800Y-154422000D02*
X102264200Y-154422000D01*
X103378000Y-154300000D02*
X102386200Y-154300000D01*
X125702500Y-157758200D02*
X125542000Y-157758200D01*
X125905700Y-157555000D02*
X125702500Y-157758200D01*
X125542000Y-158750000D02*
X125542000Y-157758200D01*
X102616000Y-140881500D02*
X102912800Y-141178300D01*
X102616000Y-140142000D02*
X102616000Y-140881500D01*
X90998000Y-140664200D02*
X90998000Y-138938000D01*
X91694000Y-141360200D02*
X90998000Y-140664200D01*
X91694000Y-142052000D02*
X91694000Y-141360200D01*
X99314000Y-184084000D02*
X99314000Y-183738100D01*
X107882300Y-183738100D02*
X108228200Y-184084000D01*
X99314000Y-183738100D02*
X107882300Y-183738100D01*
X109220000Y-184084000D02*
X108228200Y-184084000D01*
X91694000Y-142052000D02*
X91694000Y-142743800D01*
X94746700Y-158131100D02*
X90488500Y-158131100D01*
X90488500Y-143603400D02*
X90488500Y-158131100D01*
X91348100Y-142743800D02*
X90488500Y-143603400D01*
X91694000Y-142743800D02*
X91348100Y-142743800D01*
X97007500Y-181431600D02*
X99314000Y-183738100D01*
X97007500Y-168931000D02*
X97007500Y-181431600D01*
X94733400Y-166656900D02*
X97007500Y-168931000D01*
X93825600Y-166656900D02*
X94733400Y-166656900D01*
X93028500Y-165859800D02*
X93825600Y-166656900D01*
X93028500Y-162405000D02*
X93028500Y-165859800D01*
X92167500Y-161544000D02*
X93028500Y-162405000D01*
X90707400Y-161544000D02*
X92167500Y-161544000D01*
X90488500Y-161325100D02*
X90707400Y-161544000D01*
X90488500Y-158131100D02*
X90488500Y-161325100D01*
X92898000Y-138938000D02*
X93589800Y-138938000D01*
X94808000Y-141280600D02*
X94808000Y-139700000D01*
X95544500Y-142017100D02*
X94808000Y-141280600D01*
X94116200Y-139464400D02*
X93589800Y-138938000D01*
X94116200Y-139700000D02*
X94116200Y-139464400D01*
X94808000Y-139700000D02*
X94116200Y-139700000D01*
X101624200Y-139485600D02*
X101409800Y-139700000D01*
X101624200Y-138242000D02*
X101624200Y-139485600D01*
X102616000Y-138242000D02*
X101624200Y-138242000D01*
X100568000Y-139700000D02*
X101409800Y-139700000D01*
X101409800Y-140897600D02*
X101409800Y-139700000D01*
X104784200Y-144272000D02*
X101409800Y-140897600D01*
X105476000Y-144272000D02*
X105130100Y-144272000D01*
X105130100Y-144272000D02*
X104784200Y-144272000D01*
X105130100Y-147073200D02*
X105130100Y-144272000D01*
X108823700Y-150766800D02*
X105130100Y-147073200D01*
X110431900Y-150766800D02*
X108823700Y-150766800D01*
X115105200Y-155440100D02*
X110431900Y-150766800D01*
X116047500Y-155440100D02*
X115105200Y-155440100D01*
X126238000Y-150384000D02*
X127204800Y-150384000D01*
X127299000Y-150478200D02*
X128346300Y-150478200D01*
X127204800Y-150384000D02*
X127299000Y-150478200D01*
X128366800Y-159741800D02*
X127442000Y-159741800D01*
X128538300Y-159913300D02*
X128366800Y-159741800D01*
X127442000Y-158750000D02*
X127442000Y-159741800D01*
X124389800Y-162794000D02*
X127442000Y-159741800D01*
X124389800Y-162814000D02*
X124389800Y-162794000D01*
X123698000Y-162814000D02*
X124389800Y-162814000D01*
X104526000Y-168910000D02*
X105217800Y-168910000D01*
X103378000Y-152400000D02*
X102386200Y-152400000D01*
X97536000Y-150400000D02*
X98502800Y-150400000D01*
X101444500Y-153341700D02*
X98502800Y-150400000D01*
X101444500Y-153341700D02*
X102386200Y-152400000D01*
X113036300Y-166635000D02*
X105217800Y-166635000D01*
X115903200Y-163768100D02*
X113036300Y-166635000D01*
X119984600Y-163768100D02*
X115903200Y-163768100D01*
X120524900Y-164308400D02*
X119984600Y-163768100D01*
X126374800Y-164308400D02*
X120524900Y-164308400D01*
X105217800Y-168910000D02*
X105217800Y-166635000D01*
X100684700Y-154101500D02*
X101444500Y-153341700D01*
X100684700Y-163209400D02*
X100684700Y-154101500D01*
X103087400Y-165612100D02*
X100684700Y-163209400D01*
X104194900Y-165612100D02*
X103087400Y-165612100D01*
X105217800Y-166635000D02*
X104194900Y-165612100D01*
X105934000Y-179324000D02*
X105092200Y-179324000D01*
X104265400Y-176429000D02*
X104265300Y-176429000D01*
X104265400Y-178497200D02*
X104265400Y-176429000D01*
X105092200Y-179324000D02*
X104265400Y-178497200D01*
X116094000Y-144272000D02*
X115252200Y-144272000D01*
X113282800Y-146241400D02*
X109216000Y-146241400D01*
X115252200Y-144272000D02*
X113282800Y-146241400D01*
X104688700Y-158672200D02*
X104521000Y-158672200D01*
X108215900Y-155145000D02*
X104688700Y-158672200D01*
X104521000Y-159639000D02*
X104521000Y-158672200D01*
X107950000Y-161048800D02*
X107179400Y-160278200D01*
X107950000Y-163322000D02*
X107950000Y-161048800D01*
X100371800Y-182118000D02*
X103190000Y-182118000D01*
X100305800Y-182184000D02*
X100371800Y-182118000D01*
X99314000Y-182184000D02*
X100305800Y-182184000D01*
X105090000Y-182118000D02*
X105781800Y-182118000D01*
X108162200Y-182118000D02*
X105781800Y-182118000D01*
X108228200Y-182184000D02*
X108162200Y-182118000D01*
X109220000Y-182184000D02*
X108228200Y-182184000D01*
X109311400Y-181400800D02*
X109220000Y-181492200D01*
X109311400Y-179037500D02*
X109311400Y-181400800D01*
X109220000Y-182184000D02*
X109220000Y-181492200D01*
X115570000Y-182184000D02*
X115570000Y-181492200D01*
X119446000Y-182118000D02*
X118754200Y-182118000D01*
X115570000Y-181492200D02*
X117570000Y-181492200D01*
X118128400Y-181492200D02*
X118754200Y-182118000D01*
X117570000Y-181492200D02*
X118128400Y-181492200D01*
X124550200Y-182118000D02*
X121346000Y-182118000D01*
X124738200Y-181930000D02*
X124550200Y-182118000D01*
X125730000Y-181930000D02*
X124738200Y-181930000D01*
X132257600Y-153279800D02*
X132842000Y-153279800D01*
X131942200Y-153595200D02*
X132257600Y-153279800D01*
X132842000Y-152588000D02*
X132842000Y-153279800D01*
X131322200Y-158416100D02*
X131322200Y-158750000D01*
X130495500Y-157589400D02*
X131322200Y-158416100D01*
X132014000Y-158750000D02*
X131322200Y-158750000D01*
X107376000Y-148638100D02*
X107376000Y-144272000D01*
X108843300Y-150105400D02*
X107376000Y-148638100D01*
X110451500Y-150105400D02*
X108843300Y-150105400D01*
X110798900Y-150452800D02*
X110451500Y-150105400D01*
X113611500Y-150452800D02*
X110798900Y-150452800D01*
X114384600Y-151225900D02*
X113611500Y-150452800D01*
X128288700Y-151225900D02*
X114384600Y-151225900D01*
X130693700Y-153630900D02*
X128288700Y-151225900D01*
X131906500Y-153630900D02*
X130693700Y-153630900D01*
X131942200Y-153595200D02*
X131906500Y-153630900D01*
X133416000Y-149422200D02*
X132842000Y-149996200D01*
X133416000Y-148336000D02*
X133416000Y-149422200D01*
X132842000Y-150688000D02*
X132842000Y-149996200D01*
X132842000Y-150688000D02*
X131850200Y-150688000D01*
X131843300Y-150681100D02*
X131421000Y-150681100D01*
X131850200Y-150688000D02*
X131843300Y-150681100D01*
X129286000Y-175580000D02*
X129286000Y-174888200D01*
X128016000Y-173618200D02*
X128016000Y-171958000D01*
X129286000Y-174888200D02*
X128016000Y-173618200D01*
X128016000Y-171958000D02*
X127324200Y-171958000D01*
X127324200Y-171355400D02*
X126660600Y-170691800D01*
X127324200Y-171958000D02*
X127324200Y-171355400D01*
X136676200Y-157226000D02*
X136930200Y-157480000D01*
X135504000Y-157226000D02*
X136676200Y-157226000D01*
X137922000Y-157480000D02*
X136930200Y-157480000D01*
X135504000Y-157226000D02*
X134812200Y-157226000D01*
X134804700Y-157218500D02*
X134644000Y-157218500D01*
X134812200Y-157226000D02*
X134804700Y-157218500D01*
X137922000Y-155580000D02*
X136930200Y-155580000D01*
X121798000Y-162814000D02*
X121798000Y-161822200D01*
X136741600Y-155768600D02*
X136741600Y-155895000D01*
X136930200Y-155580000D02*
X136741600Y-155768600D01*
X121798000Y-158708200D02*
X121798000Y-161822200D01*
X122198200Y-158308000D02*
X121798000Y-158708200D01*
X123190000Y-158308000D02*
X122198200Y-158308000D01*
X123190000Y-158308000D02*
X123190000Y-157616200D01*
X136651600Y-155985000D02*
X136741600Y-155895000D01*
X133321500Y-155985000D02*
X136651600Y-155985000D01*
X132984800Y-155648300D02*
X133321500Y-155985000D01*
X130434400Y-155648300D02*
X132984800Y-155648300D01*
X129184400Y-156908400D02*
X129383100Y-157107100D01*
X123897800Y-156908400D02*
X129184400Y-156908400D01*
X123190000Y-157616200D02*
X123897800Y-156908400D01*
X118110000Y-162560000D02*
X118110000Y-161868200D01*
X119126000Y-160852200D02*
X119126000Y-159385000D01*
X118110000Y-161868200D02*
X119126000Y-160852200D01*
X119126000Y-159385000D02*
X119817800Y-159385000D01*
X130129800Y-156939100D02*
X131858400Y-156939100D01*
X129617600Y-156426900D02*
X130129800Y-156939100D01*
X122775900Y-156426900D02*
X129617600Y-156426900D01*
X119817800Y-159385000D02*
X122775900Y-156426900D01*
X118110000Y-164460000D02*
X118110000Y-165151800D01*
X125569900Y-165151800D02*
X118110000Y-165151800D01*
X126290900Y-165872800D02*
X125569900Y-165151800D01*
X114351800Y-168910000D02*
X107117800Y-168910000D01*
X118110000Y-165151800D02*
X114351800Y-168910000D01*
X106426000Y-168910000D02*
X107117800Y-168910000D01*
X131943800Y-148708000D02*
X132566700Y-149330900D01*
X131943800Y-148082000D02*
X131943800Y-148708000D01*
X131252000Y-148082000D02*
X131943800Y-148082000D01*
X103378000Y-164404000D02*
X103378000Y-163712200D01*
X109315600Y-152711700D02*
X109626900Y-152400400D01*
X107772400Y-152711700D02*
X109315600Y-152711700D01*
X101650100Y-158834000D02*
X107772400Y-152711700D01*
X101650100Y-161984300D02*
X101650100Y-158834000D01*
X103378000Y-163712200D02*
X101650100Y-161984300D01*
D21*
G36*
X98171000Y-168513000D02*
X98191000Y-168513000D01*
X98191000Y-168767000D01*
X98171000Y-168767000D01*
X98171000Y-169616250D01*
X98329750Y-169775000D01*
X98795310Y-169775000D01*
X99028699Y-169678327D01*
X99207327Y-169499698D01*
X99304000Y-169266309D01*
X99304000Y-168995592D01*
X101255802Y-170947393D01*
X101255804Y-170947396D01*
X101480726Y-171097683D01*
X101507135Y-171115329D01*
X101803600Y-171174300D01*
X120290416Y-171174300D01*
X120277000Y-171206690D01*
X120277000Y-171672250D01*
X120435750Y-171831000D01*
X121285000Y-171831000D01*
X121285000Y-171811000D01*
X121539000Y-171811000D01*
X121539000Y-171831000D01*
X121559000Y-171831000D01*
X121559000Y-172085000D01*
X121539000Y-172085000D01*
X121539000Y-173059250D01*
X121697750Y-173218000D01*
X122038309Y-173218000D01*
X122271698Y-173121327D01*
X122412936Y-172980090D01*
X122423300Y-172996196D01*
X122423300Y-176993300D01*
X121588524Y-176993300D01*
X121485090Y-176832559D01*
X121416994Y-176786031D01*
X121559327Y-176643698D01*
X121656000Y-176410309D01*
X121656000Y-176069750D01*
X121497250Y-175911000D01*
X120523000Y-175911000D01*
X120523000Y-175931000D01*
X120269000Y-175931000D01*
X120269000Y-175911000D01*
X119294750Y-175911000D01*
X119136000Y-176069750D01*
X119136000Y-176410309D01*
X119232673Y-176643698D01*
X119373910Y-176784936D01*
X119319559Y-176819910D01*
X119190154Y-177009300D01*
X118902766Y-177009300D01*
X118763849Y-176870141D01*
X118418558Y-176726763D01*
X118044682Y-176726437D01*
X117699141Y-176869212D01*
X117434541Y-177133351D01*
X117291163Y-177478642D01*
X117290837Y-177852518D01*
X117433612Y-178198059D01*
X117697751Y-178462659D01*
X118043042Y-178606037D01*
X118416918Y-178606363D01*
X118532271Y-178558700D01*
X119193180Y-178558700D01*
X119306910Y-178735441D01*
X119519110Y-178880431D01*
X119771000Y-178931440D01*
X121021000Y-178931440D01*
X121256317Y-178887162D01*
X121472441Y-178748090D01*
X121612778Y-178542700D01*
X124781180Y-178542700D01*
X124894910Y-178719441D01*
X125107110Y-178864431D01*
X125359000Y-178915440D01*
X126609000Y-178915440D01*
X126844317Y-178871162D01*
X127060441Y-178732090D01*
X127205431Y-178519890D01*
X127211305Y-178490882D01*
X127247265Y-178483729D01*
X127498596Y-178315796D01*
X127559692Y-178254700D01*
X128154703Y-178254700D01*
X128171910Y-178281441D01*
X128384110Y-178426431D01*
X128569414Y-178463956D01*
X128570271Y-178468265D01*
X128724442Y-178699000D01*
X128738204Y-178719596D01*
X129352608Y-179334000D01*
X129349750Y-179334000D01*
X129191000Y-179492750D01*
X129191000Y-180467000D01*
X129211000Y-180467000D01*
X129211000Y-180721000D01*
X129191000Y-180721000D01*
X129191000Y-181695250D01*
X129349750Y-181854000D01*
X129690309Y-181854000D01*
X129923698Y-181757327D01*
X130064936Y-181616090D01*
X130099910Y-181670441D01*
X130312110Y-181815431D01*
X130341118Y-181821305D01*
X130348271Y-181857265D01*
X130396871Y-181930000D01*
X130516204Y-182108596D01*
X130543300Y-182135692D01*
X130543300Y-182439180D01*
X130366559Y-182552910D01*
X130320031Y-182621006D01*
X130177698Y-182478673D01*
X129944309Y-182382000D01*
X129603750Y-182382000D01*
X129445000Y-182540750D01*
X129445000Y-183515000D01*
X129465000Y-183515000D01*
X129465000Y-183769000D01*
X129445000Y-183769000D01*
X129445000Y-183789000D01*
X129191000Y-183789000D01*
X129191000Y-183769000D01*
X128341750Y-183769000D01*
X128276550Y-183834200D01*
X127027440Y-183834200D01*
X127027440Y-183480000D01*
X126983162Y-183244683D01*
X126844090Y-183028559D01*
X126642312Y-182890690D01*
X128183000Y-182890690D01*
X128183000Y-183356250D01*
X128341750Y-183515000D01*
X129191000Y-183515000D01*
X129191000Y-182540750D01*
X129032250Y-182382000D01*
X128691691Y-182382000D01*
X128458302Y-182478673D01*
X128279673Y-182657301D01*
X128183000Y-182890690D01*
X126642312Y-182890690D01*
X126631890Y-182883569D01*
X126618803Y-182880919D01*
X126831441Y-182744090D01*
X126976431Y-182531890D01*
X127027440Y-182280000D01*
X127027440Y-181580000D01*
X126983162Y-181344683D01*
X126844090Y-181128559D01*
X126631890Y-180983569D01*
X126380000Y-180932560D01*
X125080000Y-180932560D01*
X124844683Y-180976838D01*
X124628559Y-181115910D01*
X124580166Y-181186735D01*
X124441735Y-181214271D01*
X124248628Y-181343300D01*
X122319976Y-181343300D01*
X122299162Y-181232683D01*
X122160090Y-181016559D01*
X121959864Y-180879750D01*
X127929000Y-180879750D01*
X127929000Y-181345310D01*
X128025673Y-181578699D01*
X128204302Y-181757327D01*
X128437691Y-181854000D01*
X128778250Y-181854000D01*
X128937000Y-181695250D01*
X128937000Y-180721000D01*
X128087750Y-180721000D01*
X127929000Y-180879750D01*
X121959864Y-180879750D01*
X121947890Y-180871569D01*
X121696000Y-180820560D01*
X120996000Y-180820560D01*
X120760683Y-180864838D01*
X120544559Y-181003910D01*
X120399569Y-181216110D01*
X120396919Y-181229197D01*
X120260090Y-181016559D01*
X120047890Y-180871569D01*
X119796000Y-180820560D01*
X119096000Y-180820560D01*
X118860683Y-180864838D01*
X118700016Y-180968224D01*
X118676196Y-180944404D01*
X118585501Y-180883804D01*
X118424865Y-180776471D01*
X118375677Y-180766687D01*
X118128400Y-180717499D01*
X118128395Y-180717500D01*
X118124570Y-180717500D01*
X118103049Y-180695941D01*
X117757758Y-180552563D01*
X117383882Y-180552237D01*
X117038341Y-180695012D01*
X117015814Y-180717500D01*
X115570000Y-180717500D01*
X115273535Y-180776471D01*
X115022204Y-180944404D01*
X114854271Y-181195735D01*
X114853611Y-181199052D01*
X114684683Y-181230838D01*
X114468559Y-181369910D01*
X114323569Y-181582110D01*
X114272560Y-181834000D01*
X114272560Y-182534000D01*
X114316838Y-182769317D01*
X114455910Y-182985441D01*
X114668110Y-183130431D01*
X114681197Y-183133081D01*
X114468559Y-183269910D01*
X114323569Y-183482110D01*
X114272560Y-183734000D01*
X114272560Y-184434000D01*
X114316838Y-184669317D01*
X114343017Y-184710000D01*
X110449957Y-184710000D01*
X110466431Y-184685890D01*
X110517440Y-184434000D01*
X110517440Y-183734000D01*
X110473162Y-183498683D01*
X110334090Y-183282559D01*
X110121890Y-183137569D01*
X110108803Y-183134919D01*
X110321441Y-182998090D01*
X110466431Y-182785890D01*
X110517440Y-182534000D01*
X110517440Y-181834000D01*
X110473162Y-181598683D01*
X110334090Y-181382559D01*
X110121890Y-181237569D01*
X110086100Y-181230321D01*
X110086100Y-179842690D01*
X127929000Y-179842690D01*
X127929000Y-180308250D01*
X128087750Y-180467000D01*
X128937000Y-180467000D01*
X128937000Y-179492750D01*
X128778250Y-179334000D01*
X128437691Y-179334000D01*
X128204302Y-179430673D01*
X128025673Y-179609301D01*
X127929000Y-179842690D01*
X110086100Y-179842690D01*
X110086100Y-179592070D01*
X110107659Y-179570549D01*
X110251037Y-179225258D01*
X110251363Y-178851382D01*
X110108588Y-178505841D01*
X109844449Y-178241241D01*
X109499158Y-178097863D01*
X109125282Y-178097537D01*
X108845971Y-178212946D01*
X108793698Y-178160673D01*
X108560309Y-178064000D01*
X108219750Y-178064000D01*
X108061000Y-178222750D01*
X108061000Y-179197000D01*
X108081000Y-179197000D01*
X108081000Y-179451000D01*
X108061000Y-179451000D01*
X108061000Y-180425250D01*
X108219750Y-180584000D01*
X108536700Y-180584000D01*
X108536700Y-181147201D01*
X108504271Y-181195735D01*
X108503611Y-181199052D01*
X108334683Y-181230838D01*
X108159912Y-181343300D01*
X106063976Y-181343300D01*
X106043162Y-181232683D01*
X105904090Y-181016559D01*
X105691890Y-180871569D01*
X105440000Y-180820560D01*
X104740000Y-180820560D01*
X104504683Y-180864838D01*
X104288559Y-181003910D01*
X104143569Y-181216110D01*
X104140919Y-181229197D01*
X104004090Y-181016559D01*
X103791890Y-180871569D01*
X103540000Y-180820560D01*
X102840000Y-180820560D01*
X102604683Y-180864838D01*
X102388559Y-181003910D01*
X102243569Y-181216110D01*
X102217812Y-181343300D01*
X100371800Y-181343300D01*
X100370896Y-181343480D01*
X100215890Y-181237569D01*
X99964000Y-181186560D01*
X98664000Y-181186560D01*
X98428683Y-181230838D01*
X98212559Y-181369910D01*
X98143083Y-181471591D01*
X97782200Y-181110708D01*
X97782200Y-177661440D01*
X98669000Y-177661440D01*
X98904317Y-177617162D01*
X99120441Y-177478090D01*
X99265431Y-177265890D01*
X99270087Y-177242900D01*
X99379330Y-177242900D01*
X99400851Y-177264459D01*
X99746142Y-177407837D01*
X100120018Y-177408163D01*
X100465559Y-177265388D01*
X100730159Y-177001249D01*
X100873537Y-176655958D01*
X100873572Y-176615118D01*
X103325337Y-176615118D01*
X103468112Y-176960659D01*
X103490700Y-176983286D01*
X103490700Y-178497195D01*
X103490699Y-178497200D01*
X103516616Y-178627489D01*
X103549671Y-178793665D01*
X103717604Y-179044996D01*
X104544402Y-179871793D01*
X104544404Y-179871796D01*
X104795735Y-180039729D01*
X104803939Y-180041361D01*
X104830838Y-180184317D01*
X104969910Y-180400441D01*
X105182110Y-180545431D01*
X105434000Y-180596440D01*
X106434000Y-180596440D01*
X106669317Y-180552162D01*
X106885441Y-180413090D01*
X106931969Y-180344994D01*
X107074302Y-180487327D01*
X107307691Y-180584000D01*
X107648250Y-180584000D01*
X107807000Y-180425250D01*
X107807000Y-179451000D01*
X107787000Y-179451000D01*
X107787000Y-179197000D01*
X107807000Y-179197000D01*
X107807000Y-178222750D01*
X107648250Y-178064000D01*
X107307691Y-178064000D01*
X107074302Y-178160673D01*
X106933064Y-178301910D01*
X106898090Y-178247559D01*
X106685890Y-178102569D01*
X106434000Y-178051560D01*
X105434000Y-178051560D01*
X105198683Y-178095838D01*
X105053228Y-178189436D01*
X105040100Y-178176308D01*
X105040100Y-176983471D01*
X105061559Y-176962049D01*
X105182220Y-176671467D01*
X105262673Y-176865698D01*
X105441301Y-177044327D01*
X105674690Y-177141000D01*
X106140250Y-177141000D01*
X106299000Y-176982250D01*
X106299000Y-176133000D01*
X106553000Y-176133000D01*
X106553000Y-176982250D01*
X106711750Y-177141000D01*
X107177310Y-177141000D01*
X107410699Y-177044327D01*
X107589327Y-176865698D01*
X107686000Y-176632309D01*
X107686000Y-176545750D01*
X112532000Y-176545750D01*
X112532000Y-176886309D01*
X112628673Y-177119698D01*
X112807301Y-177298327D01*
X113040690Y-177395000D01*
X113506250Y-177395000D01*
X113665000Y-177236250D01*
X113665000Y-176387000D01*
X113919000Y-176387000D01*
X113919000Y-177236250D01*
X114077750Y-177395000D01*
X114543310Y-177395000D01*
X114776699Y-177298327D01*
X114955327Y-177119698D01*
X115052000Y-176886309D01*
X115052000Y-176545750D01*
X114893250Y-176387000D01*
X113919000Y-176387000D01*
X113665000Y-176387000D01*
X112690750Y-176387000D01*
X112532000Y-176545750D01*
X107686000Y-176545750D01*
X107686000Y-176291750D01*
X107527250Y-176133000D01*
X106553000Y-176133000D01*
X106299000Y-176133000D01*
X105324750Y-176133000D01*
X105205255Y-176252495D01*
X105205263Y-176242882D01*
X105062488Y-175897341D01*
X104798349Y-175632741D01*
X104453058Y-175489363D01*
X104079182Y-175489037D01*
X103733641Y-175631812D01*
X103469041Y-175895951D01*
X103325663Y-176241242D01*
X103325337Y-176615118D01*
X100873572Y-176615118D01*
X100873863Y-176282082D01*
X100731088Y-175936541D01*
X100466949Y-175671941D01*
X100121658Y-175528563D01*
X99747782Y-175528237D01*
X99402241Y-175671012D01*
X99379714Y-175693500D01*
X99217348Y-175693500D01*
X99133090Y-175562559D01*
X99064994Y-175516031D01*
X99207327Y-175373698D01*
X99304000Y-175140309D01*
X99304000Y-174799750D01*
X99145250Y-174641000D01*
X98171000Y-174641000D01*
X98171000Y-174661000D01*
X97917000Y-174661000D01*
X97917000Y-174641000D01*
X97897000Y-174641000D01*
X97897000Y-174387000D01*
X97917000Y-174387000D01*
X97917000Y-173537750D01*
X98171000Y-173537750D01*
X98171000Y-174387000D01*
X99145250Y-174387000D01*
X99304000Y-174228250D01*
X99304000Y-173887691D01*
X99207327Y-173654302D01*
X99059026Y-173506000D01*
X105153560Y-173506000D01*
X105153560Y-174506000D01*
X105197838Y-174741317D01*
X105336910Y-174957441D01*
X105405006Y-175003969D01*
X105262673Y-175146302D01*
X105166000Y-175379691D01*
X105166000Y-175720250D01*
X105324750Y-175879000D01*
X106299000Y-175879000D01*
X106299000Y-175859000D01*
X106553000Y-175859000D01*
X106553000Y-175879000D01*
X107527250Y-175879000D01*
X107686000Y-175720250D01*
X107686000Y-175379691D01*
X107598156Y-175167617D01*
X107824800Y-175212700D01*
X107867630Y-175212700D01*
X107889151Y-175234259D01*
X108234442Y-175377637D01*
X108608318Y-175377963D01*
X108953859Y-175235188D01*
X108976386Y-175212700D01*
X112647195Y-175212700D01*
X112647200Y-175212701D01*
X112697307Y-175202734D01*
X112702910Y-175211441D01*
X112771006Y-175257969D01*
X112628673Y-175400302D01*
X112532000Y-175633691D01*
X112532000Y-175974250D01*
X112690750Y-176133000D01*
X113665000Y-176133000D01*
X113665000Y-176113000D01*
X113919000Y-176113000D01*
X113919000Y-176133000D01*
X114893250Y-176133000D01*
X115052000Y-175974250D01*
X115052000Y-175633691D01*
X114955327Y-175400302D01*
X114814090Y-175259064D01*
X114868441Y-175224090D01*
X114913809Y-175157691D01*
X119136000Y-175157691D01*
X119136000Y-175498250D01*
X119294750Y-175657000D01*
X120269000Y-175657000D01*
X120269000Y-174807750D01*
X120523000Y-174807750D01*
X120523000Y-175657000D01*
X121497250Y-175657000D01*
X121656000Y-175498250D01*
X121656000Y-175157691D01*
X121559327Y-174924302D01*
X121380699Y-174745673D01*
X121147310Y-174649000D01*
X120681750Y-174649000D01*
X120523000Y-174807750D01*
X120269000Y-174807750D01*
X120110250Y-174649000D01*
X119644690Y-174649000D01*
X119411301Y-174745673D01*
X119232673Y-174924302D01*
X119136000Y-175157691D01*
X114913809Y-175157691D01*
X115013431Y-175011890D01*
X115064440Y-174760000D01*
X115064440Y-173760000D01*
X115020162Y-173524683D01*
X114881090Y-173308559D01*
X114668890Y-173163569D01*
X114417000Y-173112560D01*
X113167000Y-173112560D01*
X112931683Y-173156838D01*
X112715559Y-173295910D01*
X112570569Y-173508110D01*
X112564695Y-173537118D01*
X112528735Y-173544271D01*
X112350594Y-173663300D01*
X108976770Y-173663300D01*
X108955249Y-173641741D01*
X108609958Y-173498363D01*
X108236082Y-173498037D01*
X108055177Y-173572786D01*
X107940596Y-173458204D01*
X107822058Y-173379000D01*
X107689265Y-173290271D01*
X107656626Y-173283779D01*
X107654162Y-173270683D01*
X107515090Y-173054559D01*
X107302890Y-172909569D01*
X107051000Y-172858560D01*
X105801000Y-172858560D01*
X105565683Y-172902838D01*
X105349559Y-173041910D01*
X105204569Y-173254110D01*
X105153560Y-173506000D01*
X99059026Y-173506000D01*
X99028699Y-173475673D01*
X98795310Y-173379000D01*
X98329750Y-173379000D01*
X98171000Y-173537750D01*
X97917000Y-173537750D01*
X97782200Y-173402950D01*
X97782200Y-172243750D01*
X120277000Y-172243750D01*
X120277000Y-172709310D01*
X120373673Y-172942699D01*
X120552302Y-173121327D01*
X120785691Y-173218000D01*
X121126250Y-173218000D01*
X121285000Y-173059250D01*
X121285000Y-172085000D01*
X120435750Y-172085000D01*
X120277000Y-172243750D01*
X97782200Y-172243750D01*
X97782200Y-169751050D01*
X97917000Y-169616250D01*
X97917000Y-168767000D01*
X97897000Y-168767000D01*
X97897000Y-168513000D01*
X97917000Y-168513000D01*
X97917000Y-168493000D01*
X98171000Y-168493000D01*
X98171000Y-168513000D01*
X98171000Y-168513000D01*
G37*
X98171000Y-168513000D02*
X98191000Y-168513000D01*
X98191000Y-168767000D01*
X98171000Y-168767000D01*
X98171000Y-169616250D01*
X98329750Y-169775000D01*
X98795310Y-169775000D01*
X99028699Y-169678327D01*
X99207327Y-169499698D01*
X99304000Y-169266309D01*
X99304000Y-168995592D01*
X101255802Y-170947393D01*
X101255804Y-170947396D01*
X101480726Y-171097683D01*
X101507135Y-171115329D01*
X101803600Y-171174300D01*
X120290416Y-171174300D01*
X120277000Y-171206690D01*
X120277000Y-171672250D01*
X120435750Y-171831000D01*
X121285000Y-171831000D01*
X121285000Y-171811000D01*
X121539000Y-171811000D01*
X121539000Y-171831000D01*
X121559000Y-171831000D01*
X121559000Y-172085000D01*
X121539000Y-172085000D01*
X121539000Y-173059250D01*
X121697750Y-173218000D01*
X122038309Y-173218000D01*
X122271698Y-173121327D01*
X122412936Y-172980090D01*
X122423300Y-172996196D01*
X122423300Y-176993300D01*
X121588524Y-176993300D01*
X121485090Y-176832559D01*
X121416994Y-176786031D01*
X121559327Y-176643698D01*
X121656000Y-176410309D01*
X121656000Y-176069750D01*
X121497250Y-175911000D01*
X120523000Y-175911000D01*
X120523000Y-175931000D01*
X120269000Y-175931000D01*
X120269000Y-175911000D01*
X119294750Y-175911000D01*
X119136000Y-176069750D01*
X119136000Y-176410309D01*
X119232673Y-176643698D01*
X119373910Y-176784936D01*
X119319559Y-176819910D01*
X119190154Y-177009300D01*
X118902766Y-177009300D01*
X118763849Y-176870141D01*
X118418558Y-176726763D01*
X118044682Y-176726437D01*
X117699141Y-176869212D01*
X117434541Y-177133351D01*
X117291163Y-177478642D01*
X117290837Y-177852518D01*
X117433612Y-178198059D01*
X117697751Y-178462659D01*
X118043042Y-178606037D01*
X118416918Y-178606363D01*
X118532271Y-178558700D01*
X119193180Y-178558700D01*
X119306910Y-178735441D01*
X119519110Y-178880431D01*
X119771000Y-178931440D01*
X121021000Y-178931440D01*
X121256317Y-178887162D01*
X121472441Y-178748090D01*
X121612778Y-178542700D01*
X124781180Y-178542700D01*
X124894910Y-178719441D01*
X125107110Y-178864431D01*
X125359000Y-178915440D01*
X126609000Y-178915440D01*
X126844317Y-178871162D01*
X127060441Y-178732090D01*
X127205431Y-178519890D01*
X127211305Y-178490882D01*
X127247265Y-178483729D01*
X127498596Y-178315796D01*
X127559692Y-178254700D01*
X128154703Y-178254700D01*
X128171910Y-178281441D01*
X128384110Y-178426431D01*
X128569414Y-178463956D01*
X128570271Y-178468265D01*
X128724442Y-178699000D01*
X128738204Y-178719596D01*
X129352608Y-179334000D01*
X129349750Y-179334000D01*
X129191000Y-179492750D01*
X129191000Y-180467000D01*
X129211000Y-180467000D01*
X129211000Y-180721000D01*
X129191000Y-180721000D01*
X129191000Y-181695250D01*
X129349750Y-181854000D01*
X129690309Y-181854000D01*
X129923698Y-181757327D01*
X130064936Y-181616090D01*
X130099910Y-181670441D01*
X130312110Y-181815431D01*
X130341118Y-181821305D01*
X130348271Y-181857265D01*
X130396871Y-181930000D01*
X130516204Y-182108596D01*
X130543300Y-182135692D01*
X130543300Y-182439180D01*
X130366559Y-182552910D01*
X130320031Y-182621006D01*
X130177698Y-182478673D01*
X129944309Y-182382000D01*
X129603750Y-182382000D01*
X129445000Y-182540750D01*
X129445000Y-183515000D01*
X129465000Y-183515000D01*
X129465000Y-183769000D01*
X129445000Y-183769000D01*
X129445000Y-183789000D01*
X129191000Y-183789000D01*
X129191000Y-183769000D01*
X128341750Y-183769000D01*
X128276550Y-183834200D01*
X127027440Y-183834200D01*
X127027440Y-183480000D01*
X126983162Y-183244683D01*
X126844090Y-183028559D01*
X126642312Y-182890690D01*
X128183000Y-182890690D01*
X128183000Y-183356250D01*
X128341750Y-183515000D01*
X129191000Y-183515000D01*
X129191000Y-182540750D01*
X129032250Y-182382000D01*
X128691691Y-182382000D01*
X128458302Y-182478673D01*
X128279673Y-182657301D01*
X128183000Y-182890690D01*
X126642312Y-182890690D01*
X126631890Y-182883569D01*
X126618803Y-182880919D01*
X126831441Y-182744090D01*
X126976431Y-182531890D01*
X127027440Y-182280000D01*
X127027440Y-181580000D01*
X126983162Y-181344683D01*
X126844090Y-181128559D01*
X126631890Y-180983569D01*
X126380000Y-180932560D01*
X125080000Y-180932560D01*
X124844683Y-180976838D01*
X124628559Y-181115910D01*
X124580166Y-181186735D01*
X124441735Y-181214271D01*
X124248628Y-181343300D01*
X122319976Y-181343300D01*
X122299162Y-181232683D01*
X122160090Y-181016559D01*
X121959864Y-180879750D01*
X127929000Y-180879750D01*
X127929000Y-181345310D01*
X128025673Y-181578699D01*
X128204302Y-181757327D01*
X128437691Y-181854000D01*
X128778250Y-181854000D01*
X128937000Y-181695250D01*
X128937000Y-180721000D01*
X128087750Y-180721000D01*
X127929000Y-180879750D01*
X121959864Y-180879750D01*
X121947890Y-180871569D01*
X121696000Y-180820560D01*
X120996000Y-180820560D01*
X120760683Y-180864838D01*
X120544559Y-181003910D01*
X120399569Y-181216110D01*
X120396919Y-181229197D01*
X120260090Y-181016559D01*
X120047890Y-180871569D01*
X119796000Y-180820560D01*
X119096000Y-180820560D01*
X118860683Y-180864838D01*
X118700016Y-180968224D01*
X118676196Y-180944404D01*
X118585501Y-180883804D01*
X118424865Y-180776471D01*
X118375677Y-180766687D01*
X118128400Y-180717499D01*
X118128395Y-180717500D01*
X118124570Y-180717500D01*
X118103049Y-180695941D01*
X117757758Y-180552563D01*
X117383882Y-180552237D01*
X117038341Y-180695012D01*
X117015814Y-180717500D01*
X115570000Y-180717500D01*
X115273535Y-180776471D01*
X115022204Y-180944404D01*
X114854271Y-181195735D01*
X114853611Y-181199052D01*
X114684683Y-181230838D01*
X114468559Y-181369910D01*
X114323569Y-181582110D01*
X114272560Y-181834000D01*
X114272560Y-182534000D01*
X114316838Y-182769317D01*
X114455910Y-182985441D01*
X114668110Y-183130431D01*
X114681197Y-183133081D01*
X114468559Y-183269910D01*
X114323569Y-183482110D01*
X114272560Y-183734000D01*
X114272560Y-184434000D01*
X114316838Y-184669317D01*
X114343017Y-184710000D01*
X110449957Y-184710000D01*
X110466431Y-184685890D01*
X110517440Y-184434000D01*
X110517440Y-183734000D01*
X110473162Y-183498683D01*
X110334090Y-183282559D01*
X110121890Y-183137569D01*
X110108803Y-183134919D01*
X110321441Y-182998090D01*
X110466431Y-182785890D01*
X110517440Y-182534000D01*
X110517440Y-181834000D01*
X110473162Y-181598683D01*
X110334090Y-181382559D01*
X110121890Y-181237569D01*
X110086100Y-181230321D01*
X110086100Y-179842690D01*
X127929000Y-179842690D01*
X127929000Y-180308250D01*
X128087750Y-180467000D01*
X128937000Y-180467000D01*
X128937000Y-179492750D01*
X128778250Y-179334000D01*
X128437691Y-179334000D01*
X128204302Y-179430673D01*
X128025673Y-179609301D01*
X127929000Y-179842690D01*
X110086100Y-179842690D01*
X110086100Y-179592070D01*
X110107659Y-179570549D01*
X110251037Y-179225258D01*
X110251363Y-178851382D01*
X110108588Y-178505841D01*
X109844449Y-178241241D01*
X109499158Y-178097863D01*
X109125282Y-178097537D01*
X108845971Y-178212946D01*
X108793698Y-178160673D01*
X108560309Y-178064000D01*
X108219750Y-178064000D01*
X108061000Y-178222750D01*
X108061000Y-179197000D01*
X108081000Y-179197000D01*
X108081000Y-179451000D01*
X108061000Y-179451000D01*
X108061000Y-180425250D01*
X108219750Y-180584000D01*
X108536700Y-180584000D01*
X108536700Y-181147201D01*
X108504271Y-181195735D01*
X108503611Y-181199052D01*
X108334683Y-181230838D01*
X108159912Y-181343300D01*
X106063976Y-181343300D01*
X106043162Y-181232683D01*
X105904090Y-181016559D01*
X105691890Y-180871569D01*
X105440000Y-180820560D01*
X104740000Y-180820560D01*
X104504683Y-180864838D01*
X104288559Y-181003910D01*
X104143569Y-181216110D01*
X104140919Y-181229197D01*
X104004090Y-181016559D01*
X103791890Y-180871569D01*
X103540000Y-180820560D01*
X102840000Y-180820560D01*
X102604683Y-180864838D01*
X102388559Y-181003910D01*
X102243569Y-181216110D01*
X102217812Y-181343300D01*
X100371800Y-181343300D01*
X100370896Y-181343480D01*
X100215890Y-181237569D01*
X99964000Y-181186560D01*
X98664000Y-181186560D01*
X98428683Y-181230838D01*
X98212559Y-181369910D01*
X98143083Y-181471591D01*
X97782200Y-181110708D01*
X97782200Y-177661440D01*
X98669000Y-177661440D01*
X98904317Y-177617162D01*
X99120441Y-177478090D01*
X99265431Y-177265890D01*
X99270087Y-177242900D01*
X99379330Y-177242900D01*
X99400851Y-177264459D01*
X99746142Y-177407837D01*
X100120018Y-177408163D01*
X100465559Y-177265388D01*
X100730159Y-177001249D01*
X100873537Y-176655958D01*
X100873572Y-176615118D01*
X103325337Y-176615118D01*
X103468112Y-176960659D01*
X103490700Y-176983286D01*
X103490700Y-178497195D01*
X103490699Y-178497200D01*
X103516616Y-178627489D01*
X103549671Y-178793665D01*
X103717604Y-179044996D01*
X104544402Y-179871793D01*
X104544404Y-179871796D01*
X104795735Y-180039729D01*
X104803939Y-180041361D01*
X104830838Y-180184317D01*
X104969910Y-180400441D01*
X105182110Y-180545431D01*
X105434000Y-180596440D01*
X106434000Y-180596440D01*
X106669317Y-180552162D01*
X106885441Y-180413090D01*
X106931969Y-180344994D01*
X107074302Y-180487327D01*
X107307691Y-180584000D01*
X107648250Y-180584000D01*
X107807000Y-180425250D01*
X107807000Y-179451000D01*
X107787000Y-179451000D01*
X107787000Y-179197000D01*
X107807000Y-179197000D01*
X107807000Y-178222750D01*
X107648250Y-178064000D01*
X107307691Y-178064000D01*
X107074302Y-178160673D01*
X106933064Y-178301910D01*
X106898090Y-178247559D01*
X106685890Y-178102569D01*
X106434000Y-178051560D01*
X105434000Y-178051560D01*
X105198683Y-178095838D01*
X105053228Y-178189436D01*
X105040100Y-178176308D01*
X105040100Y-176983471D01*
X105061559Y-176962049D01*
X105182220Y-176671467D01*
X105262673Y-176865698D01*
X105441301Y-177044327D01*
X105674690Y-177141000D01*
X106140250Y-177141000D01*
X106299000Y-176982250D01*
X106299000Y-176133000D01*
X106553000Y-176133000D01*
X106553000Y-176982250D01*
X106711750Y-177141000D01*
X107177310Y-177141000D01*
X107410699Y-177044327D01*
X107589327Y-176865698D01*
X107686000Y-176632309D01*
X107686000Y-176545750D01*
X112532000Y-176545750D01*
X112532000Y-176886309D01*
X112628673Y-177119698D01*
X112807301Y-177298327D01*
X113040690Y-177395000D01*
X113506250Y-177395000D01*
X113665000Y-177236250D01*
X113665000Y-176387000D01*
X113919000Y-176387000D01*
X113919000Y-177236250D01*
X114077750Y-177395000D01*
X114543310Y-177395000D01*
X114776699Y-177298327D01*
X114955327Y-177119698D01*
X115052000Y-176886309D01*
X115052000Y-176545750D01*
X114893250Y-176387000D01*
X113919000Y-176387000D01*
X113665000Y-176387000D01*
X112690750Y-176387000D01*
X112532000Y-176545750D01*
X107686000Y-176545750D01*
X107686000Y-176291750D01*
X107527250Y-176133000D01*
X106553000Y-176133000D01*
X106299000Y-176133000D01*
X105324750Y-176133000D01*
X105205255Y-176252495D01*
X105205263Y-176242882D01*
X105062488Y-175897341D01*
X104798349Y-175632741D01*
X104453058Y-175489363D01*
X104079182Y-175489037D01*
X103733641Y-175631812D01*
X103469041Y-175895951D01*
X103325663Y-176241242D01*
X103325337Y-176615118D01*
X100873572Y-176615118D01*
X100873863Y-176282082D01*
X100731088Y-175936541D01*
X100466949Y-175671941D01*
X100121658Y-175528563D01*
X99747782Y-175528237D01*
X99402241Y-175671012D01*
X99379714Y-175693500D01*
X99217348Y-175693500D01*
X99133090Y-175562559D01*
X99064994Y-175516031D01*
X99207327Y-175373698D01*
X99304000Y-175140309D01*
X99304000Y-174799750D01*
X99145250Y-174641000D01*
X98171000Y-174641000D01*
X98171000Y-174661000D01*
X97917000Y-174661000D01*
X97917000Y-174641000D01*
X97897000Y-174641000D01*
X97897000Y-174387000D01*
X97917000Y-174387000D01*
X97917000Y-173537750D01*
X98171000Y-173537750D01*
X98171000Y-174387000D01*
X99145250Y-174387000D01*
X99304000Y-174228250D01*
X99304000Y-173887691D01*
X99207327Y-173654302D01*
X99059026Y-173506000D01*
X105153560Y-173506000D01*
X105153560Y-174506000D01*
X105197838Y-174741317D01*
X105336910Y-174957441D01*
X105405006Y-175003969D01*
X105262673Y-175146302D01*
X105166000Y-175379691D01*
X105166000Y-175720250D01*
X105324750Y-175879000D01*
X106299000Y-175879000D01*
X106299000Y-175859000D01*
X106553000Y-175859000D01*
X106553000Y-175879000D01*
X107527250Y-175879000D01*
X107686000Y-175720250D01*
X107686000Y-175379691D01*
X107598156Y-175167617D01*
X107824800Y-175212700D01*
X107867630Y-175212700D01*
X107889151Y-175234259D01*
X108234442Y-175377637D01*
X108608318Y-175377963D01*
X108953859Y-175235188D01*
X108976386Y-175212700D01*
X112647195Y-175212700D01*
X112647200Y-175212701D01*
X112697307Y-175202734D01*
X112702910Y-175211441D01*
X112771006Y-175257969D01*
X112628673Y-175400302D01*
X112532000Y-175633691D01*
X112532000Y-175974250D01*
X112690750Y-176133000D01*
X113665000Y-176133000D01*
X113665000Y-176113000D01*
X113919000Y-176113000D01*
X113919000Y-176133000D01*
X114893250Y-176133000D01*
X115052000Y-175974250D01*
X115052000Y-175633691D01*
X114955327Y-175400302D01*
X114814090Y-175259064D01*
X114868441Y-175224090D01*
X114913809Y-175157691D01*
X119136000Y-175157691D01*
X119136000Y-175498250D01*
X119294750Y-175657000D01*
X120269000Y-175657000D01*
X120269000Y-174807750D01*
X120523000Y-174807750D01*
X120523000Y-175657000D01*
X121497250Y-175657000D01*
X121656000Y-175498250D01*
X121656000Y-175157691D01*
X121559327Y-174924302D01*
X121380699Y-174745673D01*
X121147310Y-174649000D01*
X120681750Y-174649000D01*
X120523000Y-174807750D01*
X120269000Y-174807750D01*
X120110250Y-174649000D01*
X119644690Y-174649000D01*
X119411301Y-174745673D01*
X119232673Y-174924302D01*
X119136000Y-175157691D01*
X114913809Y-175157691D01*
X115013431Y-175011890D01*
X115064440Y-174760000D01*
X115064440Y-173760000D01*
X115020162Y-173524683D01*
X114881090Y-173308559D01*
X114668890Y-173163569D01*
X114417000Y-173112560D01*
X113167000Y-173112560D01*
X112931683Y-173156838D01*
X112715559Y-173295910D01*
X112570569Y-173508110D01*
X112564695Y-173537118D01*
X112528735Y-173544271D01*
X112350594Y-173663300D01*
X108976770Y-173663300D01*
X108955249Y-173641741D01*
X108609958Y-173498363D01*
X108236082Y-173498037D01*
X108055177Y-173572786D01*
X107940596Y-173458204D01*
X107822058Y-173379000D01*
X107689265Y-173290271D01*
X107656626Y-173283779D01*
X107654162Y-173270683D01*
X107515090Y-173054559D01*
X107302890Y-172909569D01*
X107051000Y-172858560D01*
X105801000Y-172858560D01*
X105565683Y-172902838D01*
X105349559Y-173041910D01*
X105204569Y-173254110D01*
X105153560Y-173506000D01*
X99059026Y-173506000D01*
X99028699Y-173475673D01*
X98795310Y-173379000D01*
X98329750Y-173379000D01*
X98171000Y-173537750D01*
X97917000Y-173537750D01*
X97782200Y-173402950D01*
X97782200Y-172243750D01*
X120277000Y-172243750D01*
X120277000Y-172709310D01*
X120373673Y-172942699D01*
X120552302Y-173121327D01*
X120785691Y-173218000D01*
X121126250Y-173218000D01*
X121285000Y-173059250D01*
X121285000Y-172085000D01*
X120435750Y-172085000D01*
X120277000Y-172243750D01*
X97782200Y-172243750D01*
X97782200Y-169751050D01*
X97917000Y-169616250D01*
X97917000Y-168767000D01*
X97897000Y-168767000D01*
X97897000Y-168513000D01*
X97917000Y-168513000D01*
X97917000Y-168493000D01*
X98171000Y-168493000D01*
X98171000Y-168513000D01*
G36*
X130289300Y-165373091D02*
X130289300Y-165662450D01*
X130175000Y-165776750D01*
X130175000Y-166751000D01*
X130195000Y-166751000D01*
X130195000Y-167005000D01*
X130175000Y-167005000D01*
X130175000Y-167979250D01*
X130289300Y-168093550D01*
X130289300Y-168806728D01*
X130203683Y-168822838D01*
X129987559Y-168961910D01*
X129842569Y-169174110D01*
X129791560Y-169426000D01*
X129791560Y-170426000D01*
X129835838Y-170661317D01*
X129974910Y-170877441D01*
X130043006Y-170923969D01*
X129900673Y-171066302D01*
X129804000Y-171299691D01*
X129804000Y-171640250D01*
X129962750Y-171799000D01*
X130937000Y-171799000D01*
X130937000Y-171779000D01*
X131191000Y-171779000D01*
X131191000Y-171799000D01*
X132165250Y-171799000D01*
X132324000Y-171640250D01*
X132324000Y-171299691D01*
X132227327Y-171066302D01*
X132086090Y-170925064D01*
X132140441Y-170890090D01*
X132285431Y-170677890D01*
X132336440Y-170426000D01*
X132336440Y-169426000D01*
X132292162Y-169190683D01*
X132153090Y-168974559D01*
X131940890Y-168829569D01*
X131838700Y-168808875D01*
X131838700Y-168150440D01*
X132548000Y-168150440D01*
X132783317Y-168106162D01*
X132999441Y-167967090D01*
X133144431Y-167754890D01*
X133176681Y-167595635D01*
X133186265Y-167593729D01*
X133437596Y-167425796D01*
X133439564Y-167423828D01*
X133346041Y-167894000D01*
X133460115Y-168467489D01*
X133784971Y-168953670D01*
X134099752Y-169164000D01*
X133784971Y-169374330D01*
X133460115Y-169860511D01*
X133346041Y-170434000D01*
X133460115Y-171007489D01*
X133784971Y-171493670D01*
X134099752Y-171704000D01*
X133784971Y-171914330D01*
X133460115Y-172400511D01*
X133346041Y-172974000D01*
X133460115Y-173547489D01*
X133784971Y-174033670D01*
X134099752Y-174244000D01*
X133784971Y-174454330D01*
X133460115Y-174940511D01*
X133346041Y-175514000D01*
X133460115Y-176087489D01*
X133784971Y-176573670D01*
X134099752Y-176784000D01*
X133784971Y-176994330D01*
X133460115Y-177480511D01*
X133346041Y-178054000D01*
X133460115Y-178627489D01*
X133784971Y-179113670D01*
X134099752Y-179324000D01*
X133887149Y-179466057D01*
X130641296Y-176220204D01*
X130637302Y-176217535D01*
X130538572Y-176151566D01*
X130583440Y-175930000D01*
X130583440Y-175230000D01*
X130539162Y-174994683D01*
X130400090Y-174778559D01*
X130187890Y-174633569D01*
X130002586Y-174596044D01*
X130001729Y-174591735D01*
X129833796Y-174340404D01*
X129833793Y-174340402D01*
X128790700Y-173297308D01*
X128790700Y-173089297D01*
X128817441Y-173072090D01*
X128962431Y-172859890D01*
X129013440Y-172608000D01*
X129013440Y-172211750D01*
X129804000Y-172211750D01*
X129804000Y-172552309D01*
X129900673Y-172785698D01*
X130079301Y-172964327D01*
X130312690Y-173061000D01*
X130778250Y-173061000D01*
X130937000Y-172902250D01*
X130937000Y-172053000D01*
X131191000Y-172053000D01*
X131191000Y-172902250D01*
X131349750Y-173061000D01*
X131815310Y-173061000D01*
X132048699Y-172964327D01*
X132227327Y-172785698D01*
X132324000Y-172552309D01*
X132324000Y-172211750D01*
X132165250Y-172053000D01*
X131191000Y-172053000D01*
X130937000Y-172053000D01*
X129962750Y-172053000D01*
X129804000Y-172211750D01*
X129013440Y-172211750D01*
X129013440Y-171308000D01*
X128969162Y-171072683D01*
X128830090Y-170856559D01*
X128617890Y-170711569D01*
X128366000Y-170660560D01*
X127724952Y-170660560D01*
X127600536Y-170536144D01*
X127600563Y-170505682D01*
X127457788Y-170160141D01*
X127193649Y-169895541D01*
X126848358Y-169752163D01*
X126474482Y-169751837D01*
X126128941Y-169894612D01*
X125864341Y-170158751D01*
X125720963Y-170504042D01*
X125720816Y-170673000D01*
X125662800Y-170673000D01*
X125662800Y-167513000D01*
X125857000Y-167513000D01*
X125857000Y-168487250D01*
X126015750Y-168646000D01*
X126356309Y-168646000D01*
X126589698Y-168549327D01*
X126768327Y-168370699D01*
X126865000Y-168137310D01*
X126865000Y-167671750D01*
X126706250Y-167513000D01*
X125857000Y-167513000D01*
X125662800Y-167513000D01*
X125662800Y-167239000D01*
X125857000Y-167239000D01*
X125857000Y-167259000D01*
X126706250Y-167259000D01*
X126801500Y-167163750D01*
X128913000Y-167163750D01*
X128913000Y-167629310D01*
X129009673Y-167862699D01*
X129188302Y-168041327D01*
X129421691Y-168138000D01*
X129762250Y-168138000D01*
X129921000Y-167979250D01*
X129921000Y-167005000D01*
X129071750Y-167005000D01*
X128913000Y-167163750D01*
X126801500Y-167163750D01*
X126865000Y-167100250D01*
X126865000Y-166634690D01*
X126862928Y-166629689D01*
X127087159Y-166405849D01*
X127203076Y-166126690D01*
X128913000Y-166126690D01*
X128913000Y-166592250D01*
X129071750Y-166751000D01*
X129921000Y-166751000D01*
X129921000Y-165776750D01*
X129762250Y-165618000D01*
X129421691Y-165618000D01*
X129188302Y-165714673D01*
X129009673Y-165893301D01*
X128913000Y-166126690D01*
X127203076Y-166126690D01*
X127230537Y-166060558D01*
X127230863Y-165686682D01*
X127088088Y-165341141D01*
X126868573Y-165121242D01*
X126906459Y-165105588D01*
X127171059Y-164841449D01*
X127314437Y-164496158D01*
X127314763Y-164122282D01*
X127283147Y-164045766D01*
X127484000Y-164086440D01*
X128484000Y-164086440D01*
X128719317Y-164042162D01*
X128864772Y-163948564D01*
X130289300Y-165373091D01*
X130289300Y-165373091D01*
G37*
X130289300Y-165373091D02*
X130289300Y-165662450D01*
X130175000Y-165776750D01*
X130175000Y-166751000D01*
X130195000Y-166751000D01*
X130195000Y-167005000D01*
X130175000Y-167005000D01*
X130175000Y-167979250D01*
X130289300Y-168093550D01*
X130289300Y-168806728D01*
X130203683Y-168822838D01*
X129987559Y-168961910D01*
X129842569Y-169174110D01*
X129791560Y-169426000D01*
X129791560Y-170426000D01*
X129835838Y-170661317D01*
X129974910Y-170877441D01*
X130043006Y-170923969D01*
X129900673Y-171066302D01*
X129804000Y-171299691D01*
X129804000Y-171640250D01*
X129962750Y-171799000D01*
X130937000Y-171799000D01*
X130937000Y-171779000D01*
X131191000Y-171779000D01*
X131191000Y-171799000D01*
X132165250Y-171799000D01*
X132324000Y-171640250D01*
X132324000Y-171299691D01*
X132227327Y-171066302D01*
X132086090Y-170925064D01*
X132140441Y-170890090D01*
X132285431Y-170677890D01*
X132336440Y-170426000D01*
X132336440Y-169426000D01*
X132292162Y-169190683D01*
X132153090Y-168974559D01*
X131940890Y-168829569D01*
X131838700Y-168808875D01*
X131838700Y-168150440D01*
X132548000Y-168150440D01*
X132783317Y-168106162D01*
X132999441Y-167967090D01*
X133144431Y-167754890D01*
X133176681Y-167595635D01*
X133186265Y-167593729D01*
X133437596Y-167425796D01*
X133439564Y-167423828D01*
X133346041Y-167894000D01*
X133460115Y-168467489D01*
X133784971Y-168953670D01*
X134099752Y-169164000D01*
X133784971Y-169374330D01*
X133460115Y-169860511D01*
X133346041Y-170434000D01*
X133460115Y-171007489D01*
X133784971Y-171493670D01*
X134099752Y-171704000D01*
X133784971Y-171914330D01*
X133460115Y-172400511D01*
X133346041Y-172974000D01*
X133460115Y-173547489D01*
X133784971Y-174033670D01*
X134099752Y-174244000D01*
X133784971Y-174454330D01*
X133460115Y-174940511D01*
X133346041Y-175514000D01*
X133460115Y-176087489D01*
X133784971Y-176573670D01*
X134099752Y-176784000D01*
X133784971Y-176994330D01*
X133460115Y-177480511D01*
X133346041Y-178054000D01*
X133460115Y-178627489D01*
X133784971Y-179113670D01*
X134099752Y-179324000D01*
X133887149Y-179466057D01*
X130641296Y-176220204D01*
X130637302Y-176217535D01*
X130538572Y-176151566D01*
X130583440Y-175930000D01*
X130583440Y-175230000D01*
X130539162Y-174994683D01*
X130400090Y-174778559D01*
X130187890Y-174633569D01*
X130002586Y-174596044D01*
X130001729Y-174591735D01*
X129833796Y-174340404D01*
X129833793Y-174340402D01*
X128790700Y-173297308D01*
X128790700Y-173089297D01*
X128817441Y-173072090D01*
X128962431Y-172859890D01*
X129013440Y-172608000D01*
X129013440Y-172211750D01*
X129804000Y-172211750D01*
X129804000Y-172552309D01*
X129900673Y-172785698D01*
X130079301Y-172964327D01*
X130312690Y-173061000D01*
X130778250Y-173061000D01*
X130937000Y-172902250D01*
X130937000Y-172053000D01*
X131191000Y-172053000D01*
X131191000Y-172902250D01*
X131349750Y-173061000D01*
X131815310Y-173061000D01*
X132048699Y-172964327D01*
X132227327Y-172785698D01*
X132324000Y-172552309D01*
X132324000Y-172211750D01*
X132165250Y-172053000D01*
X131191000Y-172053000D01*
X130937000Y-172053000D01*
X129962750Y-172053000D01*
X129804000Y-172211750D01*
X129013440Y-172211750D01*
X129013440Y-171308000D01*
X128969162Y-171072683D01*
X128830090Y-170856559D01*
X128617890Y-170711569D01*
X128366000Y-170660560D01*
X127724952Y-170660560D01*
X127600536Y-170536144D01*
X127600563Y-170505682D01*
X127457788Y-170160141D01*
X127193649Y-169895541D01*
X126848358Y-169752163D01*
X126474482Y-169751837D01*
X126128941Y-169894612D01*
X125864341Y-170158751D01*
X125720963Y-170504042D01*
X125720816Y-170673000D01*
X125662800Y-170673000D01*
X125662800Y-167513000D01*
X125857000Y-167513000D01*
X125857000Y-168487250D01*
X126015750Y-168646000D01*
X126356309Y-168646000D01*
X126589698Y-168549327D01*
X126768327Y-168370699D01*
X126865000Y-168137310D01*
X126865000Y-167671750D01*
X126706250Y-167513000D01*
X125857000Y-167513000D01*
X125662800Y-167513000D01*
X125662800Y-167239000D01*
X125857000Y-167239000D01*
X125857000Y-167259000D01*
X126706250Y-167259000D01*
X126801500Y-167163750D01*
X128913000Y-167163750D01*
X128913000Y-167629310D01*
X129009673Y-167862699D01*
X129188302Y-168041327D01*
X129421691Y-168138000D01*
X129762250Y-168138000D01*
X129921000Y-167979250D01*
X129921000Y-167005000D01*
X129071750Y-167005000D01*
X128913000Y-167163750D01*
X126801500Y-167163750D01*
X126865000Y-167100250D01*
X126865000Y-166634690D01*
X126862928Y-166629689D01*
X127087159Y-166405849D01*
X127203076Y-166126690D01*
X128913000Y-166126690D01*
X128913000Y-166592250D01*
X129071750Y-166751000D01*
X129921000Y-166751000D01*
X129921000Y-165776750D01*
X129762250Y-165618000D01*
X129421691Y-165618000D01*
X129188302Y-165714673D01*
X129009673Y-165893301D01*
X128913000Y-166126690D01*
X127203076Y-166126690D01*
X127230537Y-166060558D01*
X127230863Y-165686682D01*
X127088088Y-165341141D01*
X126868573Y-165121242D01*
X126906459Y-165105588D01*
X127171059Y-164841449D01*
X127314437Y-164496158D01*
X127314763Y-164122282D01*
X127283147Y-164045766D01*
X127484000Y-164086440D01*
X128484000Y-164086440D01*
X128719317Y-164042162D01*
X128864772Y-163948564D01*
X130289300Y-165373091D01*
G36*
X126243000Y-171831000D02*
X126263000Y-171831000D01*
X126263000Y-172085000D01*
X126243000Y-172085000D01*
X126243000Y-173084250D01*
X126401750Y-173243000D01*
X126592309Y-173243000D01*
X126825698Y-173146327D01*
X127004327Y-172967699D01*
X127060654Y-172831713D01*
X127062838Y-172843317D01*
X127201910Y-173059441D01*
X127241300Y-173086355D01*
X127241300Y-173618195D01*
X127241299Y-173618200D01*
X127262001Y-173722271D01*
X127300271Y-173914665D01*
X127468204Y-174165996D01*
X128137294Y-174835085D01*
X128039569Y-174978110D01*
X127988560Y-175230000D01*
X127988560Y-175930000D01*
X128000471Y-175993300D01*
X127183550Y-175993300D01*
X127085250Y-175895000D01*
X126111000Y-175895000D01*
X126111000Y-175915000D01*
X125857000Y-175915000D01*
X125857000Y-175895000D01*
X125837000Y-175895000D01*
X125837000Y-175641000D01*
X125857000Y-175641000D01*
X125857000Y-174791750D01*
X126111000Y-174791750D01*
X126111000Y-175641000D01*
X127085250Y-175641000D01*
X127244000Y-175482250D01*
X127244000Y-175141691D01*
X127147327Y-174908302D01*
X126968699Y-174729673D01*
X126735310Y-174633000D01*
X126269750Y-174633000D01*
X126111000Y-174791750D01*
X125857000Y-174791750D01*
X125698250Y-174633000D01*
X125662800Y-174633000D01*
X125662800Y-173243000D01*
X125830250Y-173243000D01*
X125989000Y-173084250D01*
X125989000Y-172085000D01*
X125969000Y-172085000D01*
X125969000Y-171831000D01*
X125989000Y-171831000D01*
X125989000Y-171811000D01*
X126243000Y-171811000D01*
X126243000Y-171831000D01*
X126243000Y-171831000D01*
G37*
X126243000Y-171831000D02*
X126263000Y-171831000D01*
X126263000Y-172085000D01*
X126243000Y-172085000D01*
X126243000Y-173084250D01*
X126401750Y-173243000D01*
X126592309Y-173243000D01*
X126825698Y-173146327D01*
X127004327Y-172967699D01*
X127060654Y-172831713D01*
X127062838Y-172843317D01*
X127201910Y-173059441D01*
X127241300Y-173086355D01*
X127241300Y-173618195D01*
X127241299Y-173618200D01*
X127262001Y-173722271D01*
X127300271Y-173914665D01*
X127468204Y-174165996D01*
X128137294Y-174835085D01*
X128039569Y-174978110D01*
X127988560Y-175230000D01*
X127988560Y-175930000D01*
X128000471Y-175993300D01*
X127183550Y-175993300D01*
X127085250Y-175895000D01*
X126111000Y-175895000D01*
X126111000Y-175915000D01*
X125857000Y-175915000D01*
X125857000Y-175895000D01*
X125837000Y-175895000D01*
X125837000Y-175641000D01*
X125857000Y-175641000D01*
X125857000Y-174791750D01*
X126111000Y-174791750D01*
X126111000Y-175641000D01*
X127085250Y-175641000D01*
X127244000Y-175482250D01*
X127244000Y-175141691D01*
X127147327Y-174908302D01*
X126968699Y-174729673D01*
X126735310Y-174633000D01*
X126269750Y-174633000D01*
X126111000Y-174791750D01*
X125857000Y-174791750D01*
X125698250Y-174633000D01*
X125662800Y-174633000D01*
X125662800Y-173243000D01*
X125830250Y-173243000D01*
X125989000Y-173084250D01*
X125989000Y-172085000D01*
X125969000Y-172085000D01*
X125969000Y-171831000D01*
X125989000Y-171831000D01*
X125989000Y-171811000D01*
X126243000Y-171811000D01*
X126243000Y-171831000D01*
G36*
X113874300Y-156774491D02*
X113874300Y-160468180D01*
X113697559Y-160581910D01*
X113651031Y-160650006D01*
X113508698Y-160507673D01*
X113275309Y-160411000D01*
X112934750Y-160411000D01*
X112776000Y-160569750D01*
X112776000Y-161544000D01*
X112796000Y-161544000D01*
X112796000Y-161798000D01*
X112776000Y-161798000D01*
X112776000Y-162772250D01*
X112934750Y-162931000D01*
X113275309Y-162931000D01*
X113508698Y-162834327D01*
X113649936Y-162693090D01*
X113684910Y-162747441D01*
X113897110Y-162892431D01*
X114149000Y-162943440D01*
X115149000Y-162943440D01*
X115384317Y-162899162D01*
X115600441Y-162760090D01*
X115745431Y-162547890D01*
X115796440Y-162296000D01*
X115796440Y-161046000D01*
X115752162Y-160810683D01*
X115613090Y-160594559D01*
X115423700Y-160465154D01*
X115423700Y-160159700D01*
X116252024Y-160159700D01*
X116272838Y-160270317D01*
X116411910Y-160486441D01*
X116624110Y-160631431D01*
X116876000Y-160682440D01*
X117576000Y-160682440D01*
X117811317Y-160638162D01*
X118027441Y-160499090D01*
X118172431Y-160286890D01*
X118175081Y-160273803D01*
X118311910Y-160486441D01*
X118351300Y-160513355D01*
X118351300Y-160531308D01*
X117562204Y-161320404D01*
X117394271Y-161571735D01*
X117394271Y-161571736D01*
X117393611Y-161575052D01*
X117224683Y-161606838D01*
X117008559Y-161745910D01*
X116863569Y-161958110D01*
X116812560Y-162210000D01*
X116812560Y-162910000D01*
X116828253Y-162993400D01*
X115903205Y-162993400D01*
X115903200Y-162993399D01*
X115655923Y-163042587D01*
X115606735Y-163052371D01*
X115426161Y-163173026D01*
X115355404Y-163220304D01*
X113752000Y-164823708D01*
X113752000Y-164623750D01*
X113593250Y-164465000D01*
X112744000Y-164465000D01*
X112744000Y-165439250D01*
X112902750Y-165598000D01*
X112977708Y-165598000D01*
X112715408Y-165860300D01*
X105538692Y-165860300D01*
X104742696Y-165064304D01*
X104682571Y-165024130D01*
X104628107Y-164987738D01*
X104675440Y-164754000D01*
X104675440Y-164054000D01*
X104631162Y-163818683D01*
X104495431Y-163607750D01*
X104815000Y-163607750D01*
X104815000Y-164073310D01*
X104911673Y-164306699D01*
X105090302Y-164485327D01*
X105323691Y-164582000D01*
X105664250Y-164582000D01*
X105823000Y-164423250D01*
X105823000Y-163449000D01*
X104973750Y-163449000D01*
X104815000Y-163607750D01*
X104495431Y-163607750D01*
X104492090Y-163602559D01*
X104279890Y-163457569D01*
X104094587Y-163420044D01*
X104093730Y-163415736D01*
X104031098Y-163322000D01*
X103925796Y-163164404D01*
X103925793Y-163164402D01*
X103332082Y-162570690D01*
X104815000Y-162570690D01*
X104815000Y-163036250D01*
X104973750Y-163195000D01*
X105823000Y-163195000D01*
X105823000Y-162220750D01*
X105664250Y-162062000D01*
X105323691Y-162062000D01*
X105090302Y-162158673D01*
X104911673Y-162337301D01*
X104815000Y-162570690D01*
X103332082Y-162570690D01*
X102424800Y-161663408D01*
X102424800Y-159492000D01*
X102648000Y-159492000D01*
X102648000Y-159512000D01*
X102668000Y-159512000D01*
X102668000Y-159766000D01*
X102648000Y-159766000D01*
X102648000Y-160740250D01*
X102806750Y-160899000D01*
X103147309Y-160899000D01*
X103380698Y-160802327D01*
X103521936Y-160661090D01*
X103556910Y-160715441D01*
X103769110Y-160860431D01*
X104021000Y-160911440D01*
X105021000Y-160911440D01*
X105256317Y-160867162D01*
X105472441Y-160728090D01*
X105617431Y-160515890D01*
X105668440Y-160264000D01*
X105668440Y-159014000D01*
X105632658Y-158823834D01*
X106276068Y-158180424D01*
X106276037Y-158216018D01*
X106418812Y-158561559D01*
X106682951Y-158826159D01*
X107028242Y-158969537D01*
X107183560Y-158969672D01*
X107183560Y-159338403D01*
X106993282Y-159338237D01*
X106647741Y-159481012D01*
X106383141Y-159745151D01*
X106239763Y-160090442D01*
X106239437Y-160464318D01*
X106382212Y-160809859D01*
X106646351Y-161074459D01*
X106991642Y-161217837D01*
X107023473Y-161217865D01*
X107175300Y-161369692D01*
X107175300Y-162119180D01*
X106998559Y-162232910D01*
X106952031Y-162301006D01*
X106809698Y-162158673D01*
X106576309Y-162062000D01*
X106235750Y-162062000D01*
X106077000Y-162220750D01*
X106077000Y-163195000D01*
X106097000Y-163195000D01*
X106097000Y-163449000D01*
X106077000Y-163449000D01*
X106077000Y-164423250D01*
X106235750Y-164582000D01*
X106576309Y-164582000D01*
X106809698Y-164485327D01*
X106950936Y-164344090D01*
X106985910Y-164398441D01*
X107198110Y-164543431D01*
X107450000Y-164594440D01*
X108450000Y-164594440D01*
X108685317Y-164550162D01*
X108901441Y-164411090D01*
X109046431Y-164198890D01*
X109097440Y-163947000D01*
X109097440Y-162697000D01*
X109053162Y-162461683D01*
X108914090Y-162245559D01*
X108724700Y-162116154D01*
X108724700Y-161757592D01*
X109957576Y-162990468D01*
X109901271Y-163074735D01*
X109894779Y-163107374D01*
X109881683Y-163109838D01*
X109665559Y-163248910D01*
X109520569Y-163461110D01*
X109469560Y-163713000D01*
X109469560Y-164963000D01*
X109513838Y-165198317D01*
X109652910Y-165414441D01*
X109865110Y-165559431D01*
X110117000Y-165610440D01*
X111117000Y-165610440D01*
X111352317Y-165566162D01*
X111568441Y-165427090D01*
X111614969Y-165358994D01*
X111757302Y-165501327D01*
X111990691Y-165598000D01*
X112331250Y-165598000D01*
X112490000Y-165439250D01*
X112490000Y-164465000D01*
X112470000Y-164465000D01*
X112470000Y-164211000D01*
X112490000Y-164211000D01*
X112490000Y-163236750D01*
X112744000Y-163236750D01*
X112744000Y-164211000D01*
X113593250Y-164211000D01*
X113752000Y-164052250D01*
X113752000Y-163586690D01*
X113655327Y-163353301D01*
X113476698Y-163174673D01*
X113243309Y-163078000D01*
X112902750Y-163078000D01*
X112744000Y-163236750D01*
X112490000Y-163236750D01*
X112331250Y-163078000D01*
X112200806Y-163078000D01*
X112200863Y-163012082D01*
X112167361Y-162931000D01*
X112363250Y-162931000D01*
X112522000Y-162772250D01*
X112522000Y-161798000D01*
X111672750Y-161798000D01*
X111514000Y-161956750D01*
X111514000Y-162285695D01*
X111448658Y-162258563D01*
X111416826Y-162258535D01*
X110077981Y-160919690D01*
X111514000Y-160919690D01*
X111514000Y-161385250D01*
X111672750Y-161544000D01*
X112522000Y-161544000D01*
X112522000Y-160569750D01*
X112363250Y-160411000D01*
X112022691Y-160411000D01*
X111789302Y-160507673D01*
X111610673Y-160686301D01*
X111514000Y-160919690D01*
X110077981Y-160919690D01*
X109656210Y-160497919D01*
X109704691Y-160518000D01*
X110045250Y-160518000D01*
X110204000Y-160359250D01*
X110204000Y-159385000D01*
X110458000Y-159385000D01*
X110458000Y-160359250D01*
X110616750Y-160518000D01*
X110957309Y-160518000D01*
X111190698Y-160421327D01*
X111369327Y-160242699D01*
X111466000Y-160009310D01*
X111466000Y-159543750D01*
X111307250Y-159385000D01*
X110458000Y-159385000D01*
X110204000Y-159385000D01*
X110184000Y-159385000D01*
X110184000Y-159131000D01*
X110204000Y-159131000D01*
X110204000Y-158156750D01*
X110458000Y-158156750D01*
X110458000Y-159131000D01*
X111307250Y-159131000D01*
X111466000Y-158972250D01*
X111466000Y-158506690D01*
X111369327Y-158273301D01*
X111190698Y-158094673D01*
X110957309Y-157998000D01*
X110616750Y-157998000D01*
X110458000Y-158156750D01*
X110204000Y-158156750D01*
X110045250Y-157998000D01*
X109704691Y-157998000D01*
X109471302Y-158094673D01*
X109330064Y-158235910D01*
X109295090Y-158181559D01*
X109082890Y-158036569D01*
X109053882Y-158030695D01*
X109047916Y-158000701D01*
X109046729Y-157994735D01*
X108878796Y-157743404D01*
X108617496Y-157482104D01*
X108517622Y-157415371D01*
X108366165Y-157314171D01*
X108306989Y-157302400D01*
X108069700Y-157255199D01*
X108069695Y-157255200D01*
X107770570Y-157255200D01*
X107749049Y-157233641D01*
X107403758Y-157090263D01*
X107366262Y-157090230D01*
X108371556Y-156084936D01*
X108402018Y-156084963D01*
X108747559Y-155942188D01*
X109012159Y-155678049D01*
X109155537Y-155332758D01*
X109155863Y-154958882D01*
X109013088Y-154613341D01*
X108748949Y-154348741D01*
X108403658Y-154205363D01*
X108029782Y-154205037D01*
X107684241Y-154347812D01*
X107419641Y-154611951D01*
X107276263Y-154957242D01*
X107276235Y-154989073D01*
X104329770Y-157935538D01*
X104224535Y-157956471D01*
X103973204Y-158124404D01*
X103805271Y-158375735D01*
X103798779Y-158408374D01*
X103785683Y-158410838D01*
X103569559Y-158549910D01*
X103523031Y-158618006D01*
X103380698Y-158475673D01*
X103185056Y-158394635D01*
X108093291Y-153486400D01*
X109315595Y-153486400D01*
X109315600Y-153486401D01*
X109562877Y-153437213D01*
X109612065Y-153427429D01*
X109742461Y-153340301D01*
X109813018Y-153340363D01*
X110158559Y-153197588D01*
X110228038Y-153128230D01*
X113874300Y-156774491D01*
X113874300Y-156774491D01*
G37*
X113874300Y-156774491D02*
X113874300Y-160468180D01*
X113697559Y-160581910D01*
X113651031Y-160650006D01*
X113508698Y-160507673D01*
X113275309Y-160411000D01*
X112934750Y-160411000D01*
X112776000Y-160569750D01*
X112776000Y-161544000D01*
X112796000Y-161544000D01*
X112796000Y-161798000D01*
X112776000Y-161798000D01*
X112776000Y-162772250D01*
X112934750Y-162931000D01*
X113275309Y-162931000D01*
X113508698Y-162834327D01*
X113649936Y-162693090D01*
X113684910Y-162747441D01*
X113897110Y-162892431D01*
X114149000Y-162943440D01*
X115149000Y-162943440D01*
X115384317Y-162899162D01*
X115600441Y-162760090D01*
X115745431Y-162547890D01*
X115796440Y-162296000D01*
X115796440Y-161046000D01*
X115752162Y-160810683D01*
X115613090Y-160594559D01*
X115423700Y-160465154D01*
X115423700Y-160159700D01*
X116252024Y-160159700D01*
X116272838Y-160270317D01*
X116411910Y-160486441D01*
X116624110Y-160631431D01*
X116876000Y-160682440D01*
X117576000Y-160682440D01*
X117811317Y-160638162D01*
X118027441Y-160499090D01*
X118172431Y-160286890D01*
X118175081Y-160273803D01*
X118311910Y-160486441D01*
X118351300Y-160513355D01*
X118351300Y-160531308D01*
X117562204Y-161320404D01*
X117394271Y-161571735D01*
X117394271Y-161571736D01*
X117393611Y-161575052D01*
X117224683Y-161606838D01*
X117008559Y-161745910D01*
X116863569Y-161958110D01*
X116812560Y-162210000D01*
X116812560Y-162910000D01*
X116828253Y-162993400D01*
X115903205Y-162993400D01*
X115903200Y-162993399D01*
X115655923Y-163042587D01*
X115606735Y-163052371D01*
X115426161Y-163173026D01*
X115355404Y-163220304D01*
X113752000Y-164823708D01*
X113752000Y-164623750D01*
X113593250Y-164465000D01*
X112744000Y-164465000D01*
X112744000Y-165439250D01*
X112902750Y-165598000D01*
X112977708Y-165598000D01*
X112715408Y-165860300D01*
X105538692Y-165860300D01*
X104742696Y-165064304D01*
X104682571Y-165024130D01*
X104628107Y-164987738D01*
X104675440Y-164754000D01*
X104675440Y-164054000D01*
X104631162Y-163818683D01*
X104495431Y-163607750D01*
X104815000Y-163607750D01*
X104815000Y-164073310D01*
X104911673Y-164306699D01*
X105090302Y-164485327D01*
X105323691Y-164582000D01*
X105664250Y-164582000D01*
X105823000Y-164423250D01*
X105823000Y-163449000D01*
X104973750Y-163449000D01*
X104815000Y-163607750D01*
X104495431Y-163607750D01*
X104492090Y-163602559D01*
X104279890Y-163457569D01*
X104094587Y-163420044D01*
X104093730Y-163415736D01*
X104031098Y-163322000D01*
X103925796Y-163164404D01*
X103925793Y-163164402D01*
X103332082Y-162570690D01*
X104815000Y-162570690D01*
X104815000Y-163036250D01*
X104973750Y-163195000D01*
X105823000Y-163195000D01*
X105823000Y-162220750D01*
X105664250Y-162062000D01*
X105323691Y-162062000D01*
X105090302Y-162158673D01*
X104911673Y-162337301D01*
X104815000Y-162570690D01*
X103332082Y-162570690D01*
X102424800Y-161663408D01*
X102424800Y-159492000D01*
X102648000Y-159492000D01*
X102648000Y-159512000D01*
X102668000Y-159512000D01*
X102668000Y-159766000D01*
X102648000Y-159766000D01*
X102648000Y-160740250D01*
X102806750Y-160899000D01*
X103147309Y-160899000D01*
X103380698Y-160802327D01*
X103521936Y-160661090D01*
X103556910Y-160715441D01*
X103769110Y-160860431D01*
X104021000Y-160911440D01*
X105021000Y-160911440D01*
X105256317Y-160867162D01*
X105472441Y-160728090D01*
X105617431Y-160515890D01*
X105668440Y-160264000D01*
X105668440Y-159014000D01*
X105632658Y-158823834D01*
X106276068Y-158180424D01*
X106276037Y-158216018D01*
X106418812Y-158561559D01*
X106682951Y-158826159D01*
X107028242Y-158969537D01*
X107183560Y-158969672D01*
X107183560Y-159338403D01*
X106993282Y-159338237D01*
X106647741Y-159481012D01*
X106383141Y-159745151D01*
X106239763Y-160090442D01*
X106239437Y-160464318D01*
X106382212Y-160809859D01*
X106646351Y-161074459D01*
X106991642Y-161217837D01*
X107023473Y-161217865D01*
X107175300Y-161369692D01*
X107175300Y-162119180D01*
X106998559Y-162232910D01*
X106952031Y-162301006D01*
X106809698Y-162158673D01*
X106576309Y-162062000D01*
X106235750Y-162062000D01*
X106077000Y-162220750D01*
X106077000Y-163195000D01*
X106097000Y-163195000D01*
X106097000Y-163449000D01*
X106077000Y-163449000D01*
X106077000Y-164423250D01*
X106235750Y-164582000D01*
X106576309Y-164582000D01*
X106809698Y-164485327D01*
X106950936Y-164344090D01*
X106985910Y-164398441D01*
X107198110Y-164543431D01*
X107450000Y-164594440D01*
X108450000Y-164594440D01*
X108685317Y-164550162D01*
X108901441Y-164411090D01*
X109046431Y-164198890D01*
X109097440Y-163947000D01*
X109097440Y-162697000D01*
X109053162Y-162461683D01*
X108914090Y-162245559D01*
X108724700Y-162116154D01*
X108724700Y-161757592D01*
X109957576Y-162990468D01*
X109901271Y-163074735D01*
X109894779Y-163107374D01*
X109881683Y-163109838D01*
X109665559Y-163248910D01*
X109520569Y-163461110D01*
X109469560Y-163713000D01*
X109469560Y-164963000D01*
X109513838Y-165198317D01*
X109652910Y-165414441D01*
X109865110Y-165559431D01*
X110117000Y-165610440D01*
X111117000Y-165610440D01*
X111352317Y-165566162D01*
X111568441Y-165427090D01*
X111614969Y-165358994D01*
X111757302Y-165501327D01*
X111990691Y-165598000D01*
X112331250Y-165598000D01*
X112490000Y-165439250D01*
X112490000Y-164465000D01*
X112470000Y-164465000D01*
X112470000Y-164211000D01*
X112490000Y-164211000D01*
X112490000Y-163236750D01*
X112744000Y-163236750D01*
X112744000Y-164211000D01*
X113593250Y-164211000D01*
X113752000Y-164052250D01*
X113752000Y-163586690D01*
X113655327Y-163353301D01*
X113476698Y-163174673D01*
X113243309Y-163078000D01*
X112902750Y-163078000D01*
X112744000Y-163236750D01*
X112490000Y-163236750D01*
X112331250Y-163078000D01*
X112200806Y-163078000D01*
X112200863Y-163012082D01*
X112167361Y-162931000D01*
X112363250Y-162931000D01*
X112522000Y-162772250D01*
X112522000Y-161798000D01*
X111672750Y-161798000D01*
X111514000Y-161956750D01*
X111514000Y-162285695D01*
X111448658Y-162258563D01*
X111416826Y-162258535D01*
X110077981Y-160919690D01*
X111514000Y-160919690D01*
X111514000Y-161385250D01*
X111672750Y-161544000D01*
X112522000Y-161544000D01*
X112522000Y-160569750D01*
X112363250Y-160411000D01*
X112022691Y-160411000D01*
X111789302Y-160507673D01*
X111610673Y-160686301D01*
X111514000Y-160919690D01*
X110077981Y-160919690D01*
X109656210Y-160497919D01*
X109704691Y-160518000D01*
X110045250Y-160518000D01*
X110204000Y-160359250D01*
X110204000Y-159385000D01*
X110458000Y-159385000D01*
X110458000Y-160359250D01*
X110616750Y-160518000D01*
X110957309Y-160518000D01*
X111190698Y-160421327D01*
X111369327Y-160242699D01*
X111466000Y-160009310D01*
X111466000Y-159543750D01*
X111307250Y-159385000D01*
X110458000Y-159385000D01*
X110204000Y-159385000D01*
X110184000Y-159385000D01*
X110184000Y-159131000D01*
X110204000Y-159131000D01*
X110204000Y-158156750D01*
X110458000Y-158156750D01*
X110458000Y-159131000D01*
X111307250Y-159131000D01*
X111466000Y-158972250D01*
X111466000Y-158506690D01*
X111369327Y-158273301D01*
X111190698Y-158094673D01*
X110957309Y-157998000D01*
X110616750Y-157998000D01*
X110458000Y-158156750D01*
X110204000Y-158156750D01*
X110045250Y-157998000D01*
X109704691Y-157998000D01*
X109471302Y-158094673D01*
X109330064Y-158235910D01*
X109295090Y-158181559D01*
X109082890Y-158036569D01*
X109053882Y-158030695D01*
X109047916Y-158000701D01*
X109046729Y-157994735D01*
X108878796Y-157743404D01*
X108617496Y-157482104D01*
X108517622Y-157415371D01*
X108366165Y-157314171D01*
X108306989Y-157302400D01*
X108069700Y-157255199D01*
X108069695Y-157255200D01*
X107770570Y-157255200D01*
X107749049Y-157233641D01*
X107403758Y-157090263D01*
X107366262Y-157090230D01*
X108371556Y-156084936D01*
X108402018Y-156084963D01*
X108747559Y-155942188D01*
X109012159Y-155678049D01*
X109155537Y-155332758D01*
X109155863Y-154958882D01*
X109013088Y-154613341D01*
X108748949Y-154348741D01*
X108403658Y-154205363D01*
X108029782Y-154205037D01*
X107684241Y-154347812D01*
X107419641Y-154611951D01*
X107276263Y-154957242D01*
X107276235Y-154989073D01*
X104329770Y-157935538D01*
X104224535Y-157956471D01*
X103973204Y-158124404D01*
X103805271Y-158375735D01*
X103798779Y-158408374D01*
X103785683Y-158410838D01*
X103569559Y-158549910D01*
X103523031Y-158618006D01*
X103380698Y-158475673D01*
X103185056Y-158394635D01*
X108093291Y-153486400D01*
X109315595Y-153486400D01*
X109315600Y-153486401D01*
X109562877Y-153437213D01*
X109612065Y-153427429D01*
X109742461Y-153340301D01*
X109813018Y-153340363D01*
X110158559Y-153197588D01*
X110228038Y-153128230D01*
X113874300Y-156774491D01*
G36*
X121023300Y-161682703D02*
X120996559Y-161699910D01*
X120851569Y-161912110D01*
X120800560Y-162164000D01*
X120800560Y-163464000D01*
X120806231Y-163494140D01*
X120532396Y-163220304D01*
X120461639Y-163173026D01*
X120281065Y-163052371D01*
X120231877Y-163042587D01*
X119984600Y-162993399D01*
X119984595Y-162993400D01*
X119390551Y-162993400D01*
X119407440Y-162910000D01*
X119407440Y-162210000D01*
X119363162Y-161974683D01*
X119259776Y-161814016D01*
X119673796Y-161399996D01*
X119683649Y-161385250D01*
X119841729Y-161148665D01*
X119861594Y-161048800D01*
X119900701Y-160852200D01*
X119900700Y-160852195D01*
X119900700Y-160516297D01*
X119927441Y-160499090D01*
X120072431Y-160286890D01*
X120109956Y-160101586D01*
X120114265Y-160100729D01*
X120365596Y-159932796D01*
X121023300Y-159275092D01*
X121023300Y-161682703D01*
X121023300Y-161682703D01*
G37*
X121023300Y-161682703D02*
X120996559Y-161699910D01*
X120851569Y-161912110D01*
X120800560Y-162164000D01*
X120800560Y-163464000D01*
X120806231Y-163494140D01*
X120532396Y-163220304D01*
X120461639Y-163173026D01*
X120281065Y-163052371D01*
X120231877Y-163042587D01*
X119984600Y-162993399D01*
X119984595Y-162993400D01*
X119390551Y-162993400D01*
X119407440Y-162910000D01*
X119407440Y-162210000D01*
X119363162Y-161974683D01*
X119259776Y-161814016D01*
X119673796Y-161399996D01*
X119683649Y-161385250D01*
X119841729Y-161148665D01*
X119861594Y-161048800D01*
X119900701Y-160852200D01*
X119900700Y-160852195D01*
X119900700Y-160516297D01*
X119927441Y-160499090D01*
X120072431Y-160286890D01*
X120109956Y-160101586D01*
X120114265Y-160100729D01*
X120365596Y-159932796D01*
X121023300Y-159275092D01*
X121023300Y-161682703D01*
G36*
X126111000Y-162687000D02*
X126131000Y-162687000D01*
X126131000Y-162941000D01*
X126111000Y-162941000D01*
X126111000Y-162961000D01*
X125857000Y-162961000D01*
X125857000Y-162941000D01*
X125837000Y-162941000D01*
X125837000Y-162687000D01*
X125857000Y-162687000D01*
X125857000Y-162667000D01*
X126111000Y-162667000D01*
X126111000Y-162687000D01*
X126111000Y-162687000D01*
G37*
X126111000Y-162687000D02*
X126131000Y-162687000D01*
X126131000Y-162941000D01*
X126111000Y-162941000D01*
X126111000Y-162961000D01*
X125857000Y-162961000D01*
X125857000Y-162941000D01*
X125837000Y-162941000D01*
X125837000Y-162687000D01*
X125857000Y-162687000D01*
X125857000Y-162667000D01*
X126111000Y-162667000D01*
X126111000Y-162687000D01*
G36*
X94361000Y-162687000D02*
X94381000Y-162687000D01*
X94381000Y-162941000D01*
X94361000Y-162941000D01*
X94361000Y-162961000D01*
X94107000Y-162961000D01*
X94107000Y-162941000D01*
X94087000Y-162941000D01*
X94087000Y-162687000D01*
X94107000Y-162687000D01*
X94107000Y-162667000D01*
X94361000Y-162667000D01*
X94361000Y-162687000D01*
X94361000Y-162687000D01*
G37*
X94361000Y-162687000D02*
X94381000Y-162687000D01*
X94381000Y-162941000D01*
X94361000Y-162941000D01*
X94361000Y-162961000D01*
X94107000Y-162961000D01*
X94107000Y-162941000D01*
X94087000Y-162941000D01*
X94087000Y-162687000D01*
X94107000Y-162687000D01*
X94107000Y-162667000D01*
X94361000Y-162667000D01*
X94361000Y-162687000D01*
G36*
X136612528Y-158181559D02*
X136633735Y-158195729D01*
X136770226Y-158222879D01*
X136807910Y-158281441D01*
X137020110Y-158426431D01*
X137272000Y-158477440D01*
X138482000Y-158477440D01*
X138482000Y-159263846D01*
X138302490Y-159067179D01*
X137773027Y-158819032D01*
X137541000Y-158939531D01*
X137541000Y-160147000D01*
X137561000Y-160147000D01*
X137561000Y-160401000D01*
X137541000Y-160401000D01*
X137541000Y-160421000D01*
X137287000Y-160421000D01*
X137287000Y-160401000D01*
X137267000Y-160401000D01*
X137267000Y-160147000D01*
X137287000Y-160147000D01*
X137287000Y-158939531D01*
X137054973Y-158819032D01*
X136525510Y-159067179D01*
X136355505Y-159253433D01*
X136340762Y-159175083D01*
X136201690Y-158958959D01*
X135989490Y-158813969D01*
X135737600Y-158762960D01*
X134032800Y-158762960D01*
X134032800Y-158508613D01*
X134189317Y-158479162D01*
X134405441Y-158340090D01*
X134529720Y-158158201D01*
X134581036Y-158158246D01*
X134689910Y-158327441D01*
X134902110Y-158472431D01*
X135154000Y-158523440D01*
X135854000Y-158523440D01*
X136089317Y-158479162D01*
X136305441Y-158340090D01*
X136450431Y-158127890D01*
X136460177Y-158079762D01*
X136612528Y-158181559D01*
X136612528Y-158181559D01*
G37*
X136612528Y-158181559D02*
X136633735Y-158195729D01*
X136770226Y-158222879D01*
X136807910Y-158281441D01*
X137020110Y-158426431D01*
X137272000Y-158477440D01*
X138482000Y-158477440D01*
X138482000Y-159263846D01*
X138302490Y-159067179D01*
X137773027Y-158819032D01*
X137541000Y-158939531D01*
X137541000Y-160147000D01*
X137561000Y-160147000D01*
X137561000Y-160401000D01*
X137541000Y-160401000D01*
X137541000Y-160421000D01*
X137287000Y-160421000D01*
X137287000Y-160401000D01*
X137267000Y-160401000D01*
X137267000Y-160147000D01*
X137287000Y-160147000D01*
X137287000Y-158939531D01*
X137054973Y-158819032D01*
X136525510Y-159067179D01*
X136355505Y-159253433D01*
X136340762Y-159175083D01*
X136201690Y-158958959D01*
X135989490Y-158813969D01*
X135737600Y-158762960D01*
X134032800Y-158762960D01*
X134032800Y-158508613D01*
X134189317Y-158479162D01*
X134405441Y-158340090D01*
X134529720Y-158158201D01*
X134581036Y-158158246D01*
X134689910Y-158327441D01*
X134902110Y-158472431D01*
X135154000Y-158523440D01*
X135854000Y-158523440D01*
X136089317Y-158479162D01*
X136305441Y-158340090D01*
X136450431Y-158127890D01*
X136460177Y-158079762D01*
X136612528Y-158181559D01*
G36*
X95866293Y-151423750D02*
X95887304Y-151455196D01*
X96221802Y-151789693D01*
X96221804Y-151789696D01*
X96276000Y-151825908D01*
X96276000Y-152114250D01*
X96434750Y-152273000D01*
X97409000Y-152273000D01*
X97409000Y-152253000D01*
X97663000Y-152253000D01*
X97663000Y-152273000D01*
X97683000Y-152273000D01*
X97683000Y-152527000D01*
X97663000Y-152527000D01*
X97663000Y-153376250D01*
X97756400Y-153469650D01*
X97756400Y-154940309D01*
X95320772Y-157375936D01*
X95279749Y-157334841D01*
X94934458Y-157191463D01*
X94560582Y-157191137D01*
X94215041Y-157333912D01*
X94192514Y-157356400D01*
X91263200Y-157356400D01*
X91263200Y-153773000D01*
X91662250Y-153773000D01*
X91821000Y-153614250D01*
X91821000Y-152765000D01*
X92075000Y-152765000D01*
X92075000Y-153614250D01*
X92233750Y-153773000D01*
X92699310Y-153773000D01*
X92932699Y-153676327D01*
X93111327Y-153497698D01*
X93208000Y-153264309D01*
X93208000Y-152923750D01*
X93049250Y-152765000D01*
X92075000Y-152765000D01*
X91821000Y-152765000D01*
X91801000Y-152765000D01*
X91801000Y-152685750D01*
X96276000Y-152685750D01*
X96276000Y-153026309D01*
X96372673Y-153259698D01*
X96551301Y-153438327D01*
X96784690Y-153535000D01*
X97250250Y-153535000D01*
X97409000Y-153376250D01*
X97409000Y-152527000D01*
X96434750Y-152527000D01*
X96276000Y-152685750D01*
X91801000Y-152685750D01*
X91801000Y-152511000D01*
X91821000Y-152511000D01*
X91821000Y-152491000D01*
X92075000Y-152491000D01*
X92075000Y-152511000D01*
X93049250Y-152511000D01*
X93208000Y-152352250D01*
X93208000Y-152011691D01*
X93111327Y-151778302D01*
X92970090Y-151637064D01*
X93024441Y-151602090D01*
X93153846Y-151412700D01*
X95858909Y-151412700D01*
X95866293Y-151423750D01*
X95866293Y-151423750D01*
G37*
X95866293Y-151423750D02*
X95887304Y-151455196D01*
X96221802Y-151789693D01*
X96221804Y-151789696D01*
X96276000Y-151825908D01*
X96276000Y-152114250D01*
X96434750Y-152273000D01*
X97409000Y-152273000D01*
X97409000Y-152253000D01*
X97663000Y-152253000D01*
X97663000Y-152273000D01*
X97683000Y-152273000D01*
X97683000Y-152527000D01*
X97663000Y-152527000D01*
X97663000Y-153376250D01*
X97756400Y-153469650D01*
X97756400Y-154940309D01*
X95320772Y-157375936D01*
X95279749Y-157334841D01*
X94934458Y-157191463D01*
X94560582Y-157191137D01*
X94215041Y-157333912D01*
X94192514Y-157356400D01*
X91263200Y-157356400D01*
X91263200Y-153773000D01*
X91662250Y-153773000D01*
X91821000Y-153614250D01*
X91821000Y-152765000D01*
X92075000Y-152765000D01*
X92075000Y-153614250D01*
X92233750Y-153773000D01*
X92699310Y-153773000D01*
X92932699Y-153676327D01*
X93111327Y-153497698D01*
X93208000Y-153264309D01*
X93208000Y-152923750D01*
X93049250Y-152765000D01*
X92075000Y-152765000D01*
X91821000Y-152765000D01*
X91801000Y-152765000D01*
X91801000Y-152685750D01*
X96276000Y-152685750D01*
X96276000Y-153026309D01*
X96372673Y-153259698D01*
X96551301Y-153438327D01*
X96784690Y-153535000D01*
X97250250Y-153535000D01*
X97409000Y-153376250D01*
X97409000Y-152527000D01*
X96434750Y-152527000D01*
X96276000Y-152685750D01*
X91801000Y-152685750D01*
X91801000Y-152511000D01*
X91821000Y-152511000D01*
X91821000Y-152491000D01*
X92075000Y-152491000D01*
X92075000Y-152511000D01*
X93049250Y-152511000D01*
X93208000Y-152352250D01*
X93208000Y-152011691D01*
X93111327Y-151778302D01*
X92970090Y-151637064D01*
X93024441Y-151602090D01*
X93153846Y-151412700D01*
X95858909Y-151412700D01*
X95866293Y-151423750D01*
G36*
X116572930Y-135909921D02*
X115771631Y-136385735D01*
X115213413Y-137131974D01*
X114983260Y-138035030D01*
X114983260Y-138785600D01*
X117241320Y-138785600D01*
X117241320Y-138765600D01*
X117495320Y-138765600D01*
X117495320Y-138785600D01*
X119753380Y-138785600D01*
X119753380Y-138035030D01*
X119523227Y-137131974D01*
X118965009Y-136385735D01*
X118163710Y-135909921D01*
X117897618Y-135838000D01*
X123912922Y-135838000D01*
X123646830Y-135909921D01*
X122845531Y-136385735D01*
X122287313Y-137131974D01*
X122057160Y-138035030D01*
X122057160Y-138785600D01*
X124315220Y-138785600D01*
X124315220Y-138765600D01*
X124569220Y-138765600D01*
X124569220Y-138785600D01*
X126827280Y-138785600D01*
X126827280Y-138035030D01*
X126597127Y-137131974D01*
X126038909Y-136385735D01*
X125237610Y-135909921D01*
X124971518Y-135838000D01*
X134111022Y-135838000D01*
X133844930Y-135909921D01*
X133043631Y-136385735D01*
X132485413Y-137131974D01*
X132255260Y-138035030D01*
X132255260Y-138785600D01*
X134513320Y-138785600D01*
X134513320Y-138765600D01*
X134767320Y-138765600D01*
X134767320Y-138785600D01*
X137025380Y-138785600D01*
X137025380Y-138035030D01*
X136795227Y-137131974D01*
X136237009Y-136385735D01*
X135435710Y-135909921D01*
X135169618Y-135838000D01*
X138482000Y-135838000D01*
X138482000Y-154582560D01*
X137272000Y-154582560D01*
X137036683Y-154626838D01*
X136829978Y-154759849D01*
X136612549Y-154542041D01*
X136267258Y-154398663D01*
X136235427Y-154398635D01*
X136135696Y-154298904D01*
X135995213Y-154205037D01*
X135884365Y-154130971D01*
X135835177Y-154121187D01*
X135587900Y-154071999D01*
X135587895Y-154072000D01*
X132761816Y-154072000D01*
X132769082Y-154054500D01*
X132842000Y-154054500D01*
X133138465Y-153995529D01*
X133389796Y-153827596D01*
X133557729Y-153576265D01*
X133558389Y-153572948D01*
X133727317Y-153541162D01*
X133943441Y-153402090D01*
X134088431Y-153189890D01*
X134110274Y-153082027D01*
X134216742Y-153126237D01*
X134590618Y-153126563D01*
X134936159Y-152983788D01*
X135200759Y-152719649D01*
X135344137Y-152374358D01*
X135344463Y-152000482D01*
X135201688Y-151654941D01*
X134937549Y-151390341D01*
X134592258Y-151246963D01*
X134509971Y-151246891D01*
X134410565Y-151180471D01*
X134350529Y-151168529D01*
X134122205Y-151123111D01*
X134139440Y-151038000D01*
X134139440Y-150338000D01*
X134095162Y-150102683D01*
X133987221Y-149934938D01*
X134093018Y-149776600D01*
X134131730Y-149718664D01*
X134180414Y-149473916D01*
X134217441Y-149450090D01*
X134362431Y-149237890D01*
X134365081Y-149224803D01*
X134501910Y-149437441D01*
X134714110Y-149582431D01*
X134966000Y-149633440D01*
X135666000Y-149633440D01*
X135901317Y-149589162D01*
X136117441Y-149450090D01*
X136262431Y-149237890D01*
X136313440Y-148986000D01*
X136313440Y-147686000D01*
X136269162Y-147450683D01*
X136130090Y-147234559D01*
X136059265Y-147186167D01*
X136031729Y-147047736D01*
X136031729Y-147047735D01*
X135863796Y-146796404D01*
X135754456Y-146687064D01*
X135841441Y-146631090D01*
X135887969Y-146562994D01*
X136030302Y-146705327D01*
X136263691Y-146802000D01*
X136604250Y-146802000D01*
X136763000Y-146643250D01*
X136763000Y-145669000D01*
X137017000Y-145669000D01*
X137017000Y-146643250D01*
X137175750Y-146802000D01*
X137516309Y-146802000D01*
X137749698Y-146705327D01*
X137928327Y-146526699D01*
X138025000Y-146293310D01*
X138025000Y-145827750D01*
X137866250Y-145669000D01*
X137017000Y-145669000D01*
X136763000Y-145669000D01*
X136743000Y-145669000D01*
X136743000Y-145415000D01*
X136763000Y-145415000D01*
X136763000Y-144440750D01*
X137017000Y-144440750D01*
X137017000Y-145415000D01*
X137866250Y-145415000D01*
X138025000Y-145256250D01*
X138025000Y-144790690D01*
X137928327Y-144557301D01*
X137749698Y-144378673D01*
X137516309Y-144282000D01*
X137175750Y-144282000D01*
X137017000Y-144440750D01*
X136763000Y-144440750D01*
X136604250Y-144282000D01*
X136263691Y-144282000D01*
X136030302Y-144378673D01*
X135889064Y-144519910D01*
X135854090Y-144465559D01*
X135641890Y-144320569D01*
X135390000Y-144269560D01*
X134390000Y-144269560D01*
X134154683Y-144313838D01*
X133938559Y-144452910D01*
X133793569Y-144665110D01*
X133742560Y-144917000D01*
X133742560Y-145810600D01*
X118959105Y-145810600D01*
X118959100Y-145810599D01*
X118711823Y-145859787D01*
X118662635Y-145869571D01*
X118411304Y-146037504D01*
X118411302Y-146037507D01*
X118374109Y-146074700D01*
X114545092Y-146074700D01*
X115213937Y-145405854D01*
X115342110Y-145493431D01*
X115594000Y-145544440D01*
X116594000Y-145544440D01*
X116829317Y-145500162D01*
X117045441Y-145361090D01*
X117091969Y-145292994D01*
X117234302Y-145435327D01*
X117467691Y-145532000D01*
X117808250Y-145532000D01*
X117967000Y-145373250D01*
X117967000Y-144399000D01*
X118221000Y-144399000D01*
X118221000Y-145373250D01*
X118379750Y-145532000D01*
X118720309Y-145532000D01*
X118953698Y-145435327D01*
X119132327Y-145256699D01*
X119229000Y-145023310D01*
X119229000Y-144557750D01*
X119070250Y-144399000D01*
X118221000Y-144399000D01*
X117967000Y-144399000D01*
X117947000Y-144399000D01*
X117947000Y-144185077D01*
X126212428Y-144185077D01*
X126286575Y-144431207D01*
X126823840Y-144624324D01*
X127394110Y-144597139D01*
X127794705Y-144431207D01*
X127868852Y-144185077D01*
X127040640Y-143356865D01*
X126212428Y-144185077D01*
X117947000Y-144185077D01*
X117947000Y-144145000D01*
X117967000Y-144145000D01*
X117967000Y-143170750D01*
X118221000Y-143170750D01*
X118221000Y-144145000D01*
X119070250Y-144145000D01*
X119229000Y-143986250D01*
X119229000Y-143520690D01*
X119132327Y-143287301D01*
X118953698Y-143108673D01*
X118720309Y-143012000D01*
X118379750Y-143012000D01*
X118221000Y-143170750D01*
X117967000Y-143170750D01*
X117808250Y-143012000D01*
X117467691Y-143012000D01*
X117234302Y-143108673D01*
X117093064Y-143249910D01*
X117058090Y-143195559D01*
X116845890Y-143050569D01*
X116594000Y-142999560D01*
X115594000Y-142999560D01*
X115358683Y-143043838D01*
X115142559Y-143182910D01*
X114997569Y-143395110D01*
X114965319Y-143554365D01*
X114955735Y-143556271D01*
X114704404Y-143724204D01*
X114704402Y-143724207D01*
X112961908Y-145466700D01*
X110154791Y-145466700D01*
X110259402Y-145362089D01*
X110478496Y-145215696D01*
X111377588Y-144316603D01*
X111454020Y-144393169D01*
X111981289Y-144612110D01*
X112552207Y-144612608D01*
X113079857Y-144394588D01*
X113483909Y-143991240D01*
X113702850Y-143463971D01*
X113703289Y-142960460D01*
X125593576Y-142960460D01*
X125620761Y-143530730D01*
X125786693Y-143931325D01*
X126032823Y-144005472D01*
X126861035Y-143177260D01*
X127220245Y-143177260D01*
X128048457Y-144005472D01*
X128294587Y-143931325D01*
X128296544Y-143925881D01*
X128322672Y-143989117D01*
X128726020Y-144393169D01*
X129253289Y-144612110D01*
X129824207Y-144612608D01*
X130351857Y-144394588D01*
X130755909Y-143991240D01*
X130974850Y-143463971D01*
X130975348Y-142893053D01*
X130757328Y-142365403D01*
X130353980Y-141961351D01*
X130314700Y-141945041D01*
X130314700Y-140625800D01*
X130268216Y-140392111D01*
X130298431Y-140347890D01*
X130305191Y-140314510D01*
X130363673Y-140455699D01*
X130542302Y-140634327D01*
X130775691Y-140731000D01*
X130966250Y-140731000D01*
X131125000Y-140572250D01*
X131125000Y-139573000D01*
X131379000Y-139573000D01*
X131379000Y-140572250D01*
X131537750Y-140731000D01*
X131728309Y-140731000D01*
X131961698Y-140634327D01*
X132140327Y-140455699D01*
X132237000Y-140222310D01*
X132237000Y-139731750D01*
X132078250Y-139573000D01*
X131379000Y-139573000D01*
X131125000Y-139573000D01*
X131105000Y-139573000D01*
X131105000Y-139319000D01*
X131125000Y-139319000D01*
X131125000Y-138319750D01*
X131379000Y-138319750D01*
X131379000Y-139319000D01*
X132078250Y-139319000D01*
X132237000Y-139160250D01*
X132237000Y-139039600D01*
X132255260Y-139039600D01*
X132255260Y-139790170D01*
X132485413Y-140693226D01*
X133043631Y-141439465D01*
X133844930Y-141915279D01*
X134142307Y-141995656D01*
X134513320Y-141885855D01*
X134513320Y-139039600D01*
X134767320Y-139039600D01*
X134767320Y-141885855D01*
X135138333Y-141995656D01*
X135435710Y-141915279D01*
X136237009Y-141439465D01*
X136795227Y-140693226D01*
X137025380Y-139790170D01*
X137025380Y-139039600D01*
X134767320Y-139039600D01*
X134513320Y-139039600D01*
X132255260Y-139039600D01*
X132237000Y-139039600D01*
X132237000Y-138669690D01*
X132140327Y-138436301D01*
X131961698Y-138257673D01*
X131728309Y-138161000D01*
X131537750Y-138161000D01*
X131379000Y-138319750D01*
X131125000Y-138319750D01*
X130966250Y-138161000D01*
X130775691Y-138161000D01*
X130542302Y-138257673D01*
X130363673Y-138436301D01*
X130307346Y-138572287D01*
X130305162Y-138560683D01*
X130166090Y-138344559D01*
X129953890Y-138199569D01*
X129702000Y-138148560D01*
X129002000Y-138148560D01*
X128766683Y-138192838D01*
X128550559Y-138331910D01*
X128405569Y-138544110D01*
X128354560Y-138796000D01*
X128354560Y-140096000D01*
X128398838Y-140331317D01*
X128537910Y-140547441D01*
X128608735Y-140595833D01*
X128616392Y-140634327D01*
X128636271Y-140734265D01*
X128765300Y-140927372D01*
X128765300Y-141944579D01*
X128728143Y-141959932D01*
X128324091Y-142363280D01*
X128296897Y-142428771D01*
X128294587Y-142423195D01*
X128048457Y-142349048D01*
X127220245Y-143177260D01*
X126861035Y-143177260D01*
X126032823Y-142349048D01*
X125786693Y-142423195D01*
X125593576Y-142960460D01*
X113703289Y-142960460D01*
X113703348Y-142893053D01*
X113666651Y-142804240D01*
X113693629Y-142763865D01*
X113752600Y-142467400D01*
X113752600Y-142169443D01*
X126212428Y-142169443D01*
X127040640Y-142997655D01*
X127868852Y-142169443D01*
X127794705Y-141923313D01*
X127257440Y-141730196D01*
X126687170Y-141757381D01*
X126286575Y-141923313D01*
X126212428Y-142169443D01*
X113752600Y-142169443D01*
X113752600Y-139039600D01*
X114983260Y-139039600D01*
X114983260Y-139790170D01*
X115213413Y-140693226D01*
X115771631Y-141439465D01*
X116572930Y-141915279D01*
X116870307Y-141995656D01*
X117241320Y-141885855D01*
X117241320Y-139039600D01*
X117495320Y-139039600D01*
X117495320Y-141885855D01*
X117866333Y-141995656D01*
X118163710Y-141915279D01*
X118965009Y-141439465D01*
X119523227Y-140693226D01*
X119753380Y-139790170D01*
X119753380Y-139039600D01*
X122057160Y-139039600D01*
X122057160Y-139790170D01*
X122287313Y-140693226D01*
X122845531Y-141439465D01*
X123646830Y-141915279D01*
X123944207Y-141995656D01*
X124315220Y-141885855D01*
X124315220Y-139039600D01*
X124569220Y-139039600D01*
X124569220Y-141885855D01*
X124940233Y-141995656D01*
X125237610Y-141915279D01*
X126038909Y-141439465D01*
X126597127Y-140693226D01*
X126827280Y-139790170D01*
X126827280Y-139039600D01*
X124569220Y-139039600D01*
X124315220Y-139039600D01*
X122057160Y-139039600D01*
X119753380Y-139039600D01*
X117495320Y-139039600D01*
X117241320Y-139039600D01*
X114983260Y-139039600D01*
X113752600Y-139039600D01*
X113752600Y-137986000D01*
X113693629Y-137689535D01*
X113525696Y-137438204D01*
X113525693Y-137438202D01*
X111925492Y-135838000D01*
X116839022Y-135838000D01*
X116572930Y-135909921D01*
X116572930Y-135909921D01*
G37*
X116572930Y-135909921D02*
X115771631Y-136385735D01*
X115213413Y-137131974D01*
X114983260Y-138035030D01*
X114983260Y-138785600D01*
X117241320Y-138785600D01*
X117241320Y-138765600D01*
X117495320Y-138765600D01*
X117495320Y-138785600D01*
X119753380Y-138785600D01*
X119753380Y-138035030D01*
X119523227Y-137131974D01*
X118965009Y-136385735D01*
X118163710Y-135909921D01*
X117897618Y-135838000D01*
X123912922Y-135838000D01*
X123646830Y-135909921D01*
X122845531Y-136385735D01*
X122287313Y-137131974D01*
X122057160Y-138035030D01*
X122057160Y-138785600D01*
X124315220Y-138785600D01*
X124315220Y-138765600D01*
X124569220Y-138765600D01*
X124569220Y-138785600D01*
X126827280Y-138785600D01*
X126827280Y-138035030D01*
X126597127Y-137131974D01*
X126038909Y-136385735D01*
X125237610Y-135909921D01*
X124971518Y-135838000D01*
X134111022Y-135838000D01*
X133844930Y-135909921D01*
X133043631Y-136385735D01*
X132485413Y-137131974D01*
X132255260Y-138035030D01*
X132255260Y-138785600D01*
X134513320Y-138785600D01*
X134513320Y-138765600D01*
X134767320Y-138765600D01*
X134767320Y-138785600D01*
X137025380Y-138785600D01*
X137025380Y-138035030D01*
X136795227Y-137131974D01*
X136237009Y-136385735D01*
X135435710Y-135909921D01*
X135169618Y-135838000D01*
X138482000Y-135838000D01*
X138482000Y-154582560D01*
X137272000Y-154582560D01*
X137036683Y-154626838D01*
X136829978Y-154759849D01*
X136612549Y-154542041D01*
X136267258Y-154398663D01*
X136235427Y-154398635D01*
X136135696Y-154298904D01*
X135995213Y-154205037D01*
X135884365Y-154130971D01*
X135835177Y-154121187D01*
X135587900Y-154071999D01*
X135587895Y-154072000D01*
X132761816Y-154072000D01*
X132769082Y-154054500D01*
X132842000Y-154054500D01*
X133138465Y-153995529D01*
X133389796Y-153827596D01*
X133557729Y-153576265D01*
X133558389Y-153572948D01*
X133727317Y-153541162D01*
X133943441Y-153402090D01*
X134088431Y-153189890D01*
X134110274Y-153082027D01*
X134216742Y-153126237D01*
X134590618Y-153126563D01*
X134936159Y-152983788D01*
X135200759Y-152719649D01*
X135344137Y-152374358D01*
X135344463Y-152000482D01*
X135201688Y-151654941D01*
X134937549Y-151390341D01*
X134592258Y-151246963D01*
X134509971Y-151246891D01*
X134410565Y-151180471D01*
X134350529Y-151168529D01*
X134122205Y-151123111D01*
X134139440Y-151038000D01*
X134139440Y-150338000D01*
X134095162Y-150102683D01*
X133987221Y-149934938D01*
X134093018Y-149776600D01*
X134131730Y-149718664D01*
X134180414Y-149473916D01*
X134217441Y-149450090D01*
X134362431Y-149237890D01*
X134365081Y-149224803D01*
X134501910Y-149437441D01*
X134714110Y-149582431D01*
X134966000Y-149633440D01*
X135666000Y-149633440D01*
X135901317Y-149589162D01*
X136117441Y-149450090D01*
X136262431Y-149237890D01*
X136313440Y-148986000D01*
X136313440Y-147686000D01*
X136269162Y-147450683D01*
X136130090Y-147234559D01*
X136059265Y-147186167D01*
X136031729Y-147047736D01*
X136031729Y-147047735D01*
X135863796Y-146796404D01*
X135754456Y-146687064D01*
X135841441Y-146631090D01*
X135887969Y-146562994D01*
X136030302Y-146705327D01*
X136263691Y-146802000D01*
X136604250Y-146802000D01*
X136763000Y-146643250D01*
X136763000Y-145669000D01*
X137017000Y-145669000D01*
X137017000Y-146643250D01*
X137175750Y-146802000D01*
X137516309Y-146802000D01*
X137749698Y-146705327D01*
X137928327Y-146526699D01*
X138025000Y-146293310D01*
X138025000Y-145827750D01*
X137866250Y-145669000D01*
X137017000Y-145669000D01*
X136763000Y-145669000D01*
X136743000Y-145669000D01*
X136743000Y-145415000D01*
X136763000Y-145415000D01*
X136763000Y-144440750D01*
X137017000Y-144440750D01*
X137017000Y-145415000D01*
X137866250Y-145415000D01*
X138025000Y-145256250D01*
X138025000Y-144790690D01*
X137928327Y-144557301D01*
X137749698Y-144378673D01*
X137516309Y-144282000D01*
X137175750Y-144282000D01*
X137017000Y-144440750D01*
X136763000Y-144440750D01*
X136604250Y-144282000D01*
X136263691Y-144282000D01*
X136030302Y-144378673D01*
X135889064Y-144519910D01*
X135854090Y-144465559D01*
X135641890Y-144320569D01*
X135390000Y-144269560D01*
X134390000Y-144269560D01*
X134154683Y-144313838D01*
X133938559Y-144452910D01*
X133793569Y-144665110D01*
X133742560Y-144917000D01*
X133742560Y-145810600D01*
X118959105Y-145810600D01*
X118959100Y-145810599D01*
X118711823Y-145859787D01*
X118662635Y-145869571D01*
X118411304Y-146037504D01*
X118411302Y-146037507D01*
X118374109Y-146074700D01*
X114545092Y-146074700D01*
X115213937Y-145405854D01*
X115342110Y-145493431D01*
X115594000Y-145544440D01*
X116594000Y-145544440D01*
X116829317Y-145500162D01*
X117045441Y-145361090D01*
X117091969Y-145292994D01*
X117234302Y-145435327D01*
X117467691Y-145532000D01*
X117808250Y-145532000D01*
X117967000Y-145373250D01*
X117967000Y-144399000D01*
X118221000Y-144399000D01*
X118221000Y-145373250D01*
X118379750Y-145532000D01*
X118720309Y-145532000D01*
X118953698Y-145435327D01*
X119132327Y-145256699D01*
X119229000Y-145023310D01*
X119229000Y-144557750D01*
X119070250Y-144399000D01*
X118221000Y-144399000D01*
X117967000Y-144399000D01*
X117947000Y-144399000D01*
X117947000Y-144185077D01*
X126212428Y-144185077D01*
X126286575Y-144431207D01*
X126823840Y-144624324D01*
X127394110Y-144597139D01*
X127794705Y-144431207D01*
X127868852Y-144185077D01*
X127040640Y-143356865D01*
X126212428Y-144185077D01*
X117947000Y-144185077D01*
X117947000Y-144145000D01*
X117967000Y-144145000D01*
X117967000Y-143170750D01*
X118221000Y-143170750D01*
X118221000Y-144145000D01*
X119070250Y-144145000D01*
X119229000Y-143986250D01*
X119229000Y-143520690D01*
X119132327Y-143287301D01*
X118953698Y-143108673D01*
X118720309Y-143012000D01*
X118379750Y-143012000D01*
X118221000Y-143170750D01*
X117967000Y-143170750D01*
X117808250Y-143012000D01*
X117467691Y-143012000D01*
X117234302Y-143108673D01*
X117093064Y-143249910D01*
X117058090Y-143195559D01*
X116845890Y-143050569D01*
X116594000Y-142999560D01*
X115594000Y-142999560D01*
X115358683Y-143043838D01*
X115142559Y-143182910D01*
X114997569Y-143395110D01*
X114965319Y-143554365D01*
X114955735Y-143556271D01*
X114704404Y-143724204D01*
X114704402Y-143724207D01*
X112961908Y-145466700D01*
X110154791Y-145466700D01*
X110259402Y-145362089D01*
X110478496Y-145215696D01*
X111377588Y-144316603D01*
X111454020Y-144393169D01*
X111981289Y-144612110D01*
X112552207Y-144612608D01*
X113079857Y-144394588D01*
X113483909Y-143991240D01*
X113702850Y-143463971D01*
X113703289Y-142960460D01*
X125593576Y-142960460D01*
X125620761Y-143530730D01*
X125786693Y-143931325D01*
X126032823Y-144005472D01*
X126861035Y-143177260D01*
X127220245Y-143177260D01*
X128048457Y-144005472D01*
X128294587Y-143931325D01*
X128296544Y-143925881D01*
X128322672Y-143989117D01*
X128726020Y-144393169D01*
X129253289Y-144612110D01*
X129824207Y-144612608D01*
X130351857Y-144394588D01*
X130755909Y-143991240D01*
X130974850Y-143463971D01*
X130975348Y-142893053D01*
X130757328Y-142365403D01*
X130353980Y-141961351D01*
X130314700Y-141945041D01*
X130314700Y-140625800D01*
X130268216Y-140392111D01*
X130298431Y-140347890D01*
X130305191Y-140314510D01*
X130363673Y-140455699D01*
X130542302Y-140634327D01*
X130775691Y-140731000D01*
X130966250Y-140731000D01*
X131125000Y-140572250D01*
X131125000Y-139573000D01*
X131379000Y-139573000D01*
X131379000Y-140572250D01*
X131537750Y-140731000D01*
X131728309Y-140731000D01*
X131961698Y-140634327D01*
X132140327Y-140455699D01*
X132237000Y-140222310D01*
X132237000Y-139731750D01*
X132078250Y-139573000D01*
X131379000Y-139573000D01*
X131125000Y-139573000D01*
X131105000Y-139573000D01*
X131105000Y-139319000D01*
X131125000Y-139319000D01*
X131125000Y-138319750D01*
X131379000Y-138319750D01*
X131379000Y-139319000D01*
X132078250Y-139319000D01*
X132237000Y-139160250D01*
X132237000Y-139039600D01*
X132255260Y-139039600D01*
X132255260Y-139790170D01*
X132485413Y-140693226D01*
X133043631Y-141439465D01*
X133844930Y-141915279D01*
X134142307Y-141995656D01*
X134513320Y-141885855D01*
X134513320Y-139039600D01*
X134767320Y-139039600D01*
X134767320Y-141885855D01*
X135138333Y-141995656D01*
X135435710Y-141915279D01*
X136237009Y-141439465D01*
X136795227Y-140693226D01*
X137025380Y-139790170D01*
X137025380Y-139039600D01*
X134767320Y-139039600D01*
X134513320Y-139039600D01*
X132255260Y-139039600D01*
X132237000Y-139039600D01*
X132237000Y-138669690D01*
X132140327Y-138436301D01*
X131961698Y-138257673D01*
X131728309Y-138161000D01*
X131537750Y-138161000D01*
X131379000Y-138319750D01*
X131125000Y-138319750D01*
X130966250Y-138161000D01*
X130775691Y-138161000D01*
X130542302Y-138257673D01*
X130363673Y-138436301D01*
X130307346Y-138572287D01*
X130305162Y-138560683D01*
X130166090Y-138344559D01*
X129953890Y-138199569D01*
X129702000Y-138148560D01*
X129002000Y-138148560D01*
X128766683Y-138192838D01*
X128550559Y-138331910D01*
X128405569Y-138544110D01*
X128354560Y-138796000D01*
X128354560Y-140096000D01*
X128398838Y-140331317D01*
X128537910Y-140547441D01*
X128608735Y-140595833D01*
X128616392Y-140634327D01*
X128636271Y-140734265D01*
X128765300Y-140927372D01*
X128765300Y-141944579D01*
X128728143Y-141959932D01*
X128324091Y-142363280D01*
X128296897Y-142428771D01*
X128294587Y-142423195D01*
X128048457Y-142349048D01*
X127220245Y-143177260D01*
X126861035Y-143177260D01*
X126032823Y-142349048D01*
X125786693Y-142423195D01*
X125593576Y-142960460D01*
X113703289Y-142960460D01*
X113703348Y-142893053D01*
X113666651Y-142804240D01*
X113693629Y-142763865D01*
X113752600Y-142467400D01*
X113752600Y-142169443D01*
X126212428Y-142169443D01*
X127040640Y-142997655D01*
X127868852Y-142169443D01*
X127794705Y-141923313D01*
X127257440Y-141730196D01*
X126687170Y-141757381D01*
X126286575Y-141923313D01*
X126212428Y-142169443D01*
X113752600Y-142169443D01*
X113752600Y-139039600D01*
X114983260Y-139039600D01*
X114983260Y-139790170D01*
X115213413Y-140693226D01*
X115771631Y-141439465D01*
X116572930Y-141915279D01*
X116870307Y-141995656D01*
X117241320Y-141885855D01*
X117241320Y-139039600D01*
X117495320Y-139039600D01*
X117495320Y-141885855D01*
X117866333Y-141995656D01*
X118163710Y-141915279D01*
X118965009Y-141439465D01*
X119523227Y-140693226D01*
X119753380Y-139790170D01*
X119753380Y-139039600D01*
X122057160Y-139039600D01*
X122057160Y-139790170D01*
X122287313Y-140693226D01*
X122845531Y-141439465D01*
X123646830Y-141915279D01*
X123944207Y-141995656D01*
X124315220Y-141885855D01*
X124315220Y-139039600D01*
X124569220Y-139039600D01*
X124569220Y-141885855D01*
X124940233Y-141995656D01*
X125237610Y-141915279D01*
X126038909Y-141439465D01*
X126597127Y-140693226D01*
X126827280Y-139790170D01*
X126827280Y-139039600D01*
X124569220Y-139039600D01*
X124315220Y-139039600D01*
X122057160Y-139039600D01*
X119753380Y-139039600D01*
X117495320Y-139039600D01*
X117241320Y-139039600D01*
X114983260Y-139039600D01*
X113752600Y-139039600D01*
X113752600Y-137986000D01*
X113693629Y-137689535D01*
X113525696Y-137438204D01*
X113525693Y-137438202D01*
X111925492Y-135838000D01*
X116839022Y-135838000D01*
X116572930Y-135909921D01*
G36*
X105015313Y-137131974D02*
X104785160Y-138035030D01*
X104785160Y-138785600D01*
X107043220Y-138785600D01*
X107043220Y-138765600D01*
X107297220Y-138765600D01*
X107297220Y-138785600D01*
X107317220Y-138785600D01*
X107317220Y-139039600D01*
X107297220Y-139039600D01*
X107297220Y-141885855D01*
X107668233Y-141995656D01*
X107965610Y-141915279D01*
X108766909Y-141439465D01*
X109325127Y-140693226D01*
X109532570Y-139879278D01*
X109553910Y-139912441D01*
X109613319Y-139953034D01*
X109613137Y-140162318D01*
X109755912Y-140507859D01*
X110020051Y-140772459D01*
X110365342Y-140915837D01*
X110739218Y-140916163D01*
X111084759Y-140773388D01*
X111349359Y-140509249D01*
X111492737Y-140163958D01*
X111492933Y-139939104D01*
X111493300Y-139939355D01*
X111493300Y-140646209D01*
X110470504Y-141669004D01*
X110343598Y-141858934D01*
X109985440Y-141730196D01*
X109415170Y-141757381D01*
X109014575Y-141923313D01*
X108940428Y-142169443D01*
X109768640Y-142997655D01*
X109782783Y-142983513D01*
X109962388Y-143163118D01*
X109948245Y-143177260D01*
X109962388Y-143191403D01*
X109782783Y-143371008D01*
X109768640Y-143356865D01*
X108940428Y-144185077D01*
X109010993Y-144419316D01*
X108339193Y-145091115D01*
X108373440Y-144922000D01*
X108373440Y-143622000D01*
X108362514Y-143563932D01*
X108514693Y-143931325D01*
X108760823Y-144005472D01*
X109589035Y-143177260D01*
X108760823Y-142349048D01*
X108514693Y-142423195D01*
X108321576Y-142960460D01*
X108346214Y-143477308D01*
X108329162Y-143386683D01*
X108190090Y-143170559D01*
X107977890Y-143025569D01*
X107726000Y-142974560D01*
X107026000Y-142974560D01*
X106790683Y-143018838D01*
X106574559Y-143157910D01*
X106429569Y-143370110D01*
X106426919Y-143383197D01*
X106290090Y-143170559D01*
X106077890Y-143025569D01*
X105826000Y-142974560D01*
X105126000Y-142974560D01*
X104890683Y-143018838D01*
X104730016Y-143122225D01*
X103513930Y-141906138D01*
X103709059Y-141711349D01*
X103852437Y-141366058D01*
X103852763Y-140992182D01*
X103792475Y-140846274D01*
X103862431Y-140743890D01*
X103913440Y-140492000D01*
X103913440Y-139792000D01*
X103869162Y-139556683D01*
X103730090Y-139340559D01*
X103517890Y-139195569D01*
X103504803Y-139192919D01*
X103717441Y-139056090D01*
X103728708Y-139039600D01*
X104785160Y-139039600D01*
X104785160Y-139790170D01*
X105015313Y-140693226D01*
X105573531Y-141439465D01*
X106374830Y-141915279D01*
X106672207Y-141995656D01*
X107043220Y-141885855D01*
X107043220Y-139039600D01*
X104785160Y-139039600D01*
X103728708Y-139039600D01*
X103862431Y-138843890D01*
X103913440Y-138592000D01*
X103913440Y-137892000D01*
X103869162Y-137656683D01*
X103730090Y-137440559D01*
X103517890Y-137295569D01*
X103266000Y-137244560D01*
X101966000Y-137244560D01*
X101730683Y-137288838D01*
X101514559Y-137427910D01*
X101466166Y-137498735D01*
X101327735Y-137526271D01*
X101076404Y-137694204D01*
X100908471Y-137945535D01*
X100849500Y-138242000D01*
X100849500Y-138427560D01*
X100068000Y-138427560D01*
X99832683Y-138471838D01*
X99616559Y-138610910D01*
X99570031Y-138679006D01*
X99427698Y-138536673D01*
X99194309Y-138440000D01*
X98853750Y-138440000D01*
X98695000Y-138598750D01*
X98695000Y-139573000D01*
X98715000Y-139573000D01*
X98715000Y-139827000D01*
X98695000Y-139827000D01*
X98695000Y-140801250D01*
X98853750Y-140960000D01*
X99194309Y-140960000D01*
X99427698Y-140863327D01*
X99568936Y-140722090D01*
X99603910Y-140776441D01*
X99816110Y-140921431D01*
X100068000Y-140972440D01*
X100649986Y-140972440D01*
X100670812Y-141077137D01*
X100694071Y-141194065D01*
X100811894Y-141370400D01*
X100862004Y-141445396D01*
X104236402Y-144819793D01*
X104236404Y-144819796D01*
X104355400Y-144899306D01*
X104355400Y-147073195D01*
X104355399Y-147073200D01*
X104400718Y-147301029D01*
X104414371Y-147369665D01*
X104542417Y-147561300D01*
X104582304Y-147620996D01*
X107434909Y-150473600D01*
X107353005Y-150473600D01*
X107353000Y-150473599D01*
X107105723Y-150522787D01*
X107056535Y-150532571D01*
X106876006Y-150653196D01*
X106805204Y-150700504D01*
X106715844Y-150789864D01*
X106685382Y-150789837D01*
X106339841Y-150932612D01*
X106075241Y-151196751D01*
X105931863Y-151542042D01*
X105931537Y-151915918D01*
X106074312Y-152261459D01*
X106338451Y-152526059D01*
X106683742Y-152669437D01*
X106719041Y-152669468D01*
X104659425Y-154729083D01*
X104675440Y-154650000D01*
X104675440Y-153950000D01*
X104631162Y-153714683D01*
X104492090Y-153498559D01*
X104279890Y-153353569D01*
X104266803Y-153350919D01*
X104479441Y-153214090D01*
X104624431Y-153001890D01*
X104675440Y-152750000D01*
X104675440Y-152050000D01*
X104631162Y-151814683D01*
X104492090Y-151598559D01*
X104279890Y-151453569D01*
X104028000Y-151402560D01*
X102728000Y-151402560D01*
X102492683Y-151446838D01*
X102276559Y-151585910D01*
X102228167Y-151656735D01*
X102138923Y-151674487D01*
X102089735Y-151684271D01*
X101838404Y-151852204D01*
X101444500Y-152246108D01*
X99050596Y-149852204D01*
X98985839Y-149808935D01*
X98799265Y-149684271D01*
X98766626Y-149677779D01*
X98764162Y-149664683D01*
X98625090Y-149448559D01*
X98478941Y-149348700D01*
X101413180Y-149348700D01*
X101526910Y-149525441D01*
X101739110Y-149670431D01*
X101991000Y-149721440D01*
X103241000Y-149721440D01*
X103476317Y-149677162D01*
X103692441Y-149538090D01*
X103837431Y-149325890D01*
X103888440Y-149074000D01*
X103888440Y-148074000D01*
X103844162Y-147838683D01*
X103705090Y-147622559D01*
X103636994Y-147576031D01*
X103779327Y-147433698D01*
X103876000Y-147200309D01*
X103876000Y-146859750D01*
X103717250Y-146701000D01*
X102743000Y-146701000D01*
X102743000Y-146721000D01*
X102489000Y-146721000D01*
X102489000Y-146701000D01*
X101514750Y-146701000D01*
X101356000Y-146859750D01*
X101356000Y-147200309D01*
X101452673Y-147433698D01*
X101593910Y-147574936D01*
X101539559Y-147609910D01*
X101410154Y-147799300D01*
X97724800Y-147799300D01*
X97428335Y-147858271D01*
X97177004Y-148026204D01*
X97177002Y-148026207D01*
X95887304Y-149315904D01*
X95719371Y-149567235D01*
X95711004Y-149609299D01*
X95660479Y-149863300D01*
X93150820Y-149863300D01*
X93037090Y-149686559D01*
X92824890Y-149541569D01*
X92573000Y-149490560D01*
X91323000Y-149490560D01*
X91263200Y-149501812D01*
X91263200Y-145947691D01*
X101356000Y-145947691D01*
X101356000Y-146288250D01*
X101514750Y-146447000D01*
X102489000Y-146447000D01*
X102489000Y-145597750D01*
X102743000Y-145597750D01*
X102743000Y-146447000D01*
X103717250Y-146447000D01*
X103876000Y-146288250D01*
X103876000Y-145947691D01*
X103779327Y-145714302D01*
X103600699Y-145535673D01*
X103367310Y-145439000D01*
X102901750Y-145439000D01*
X102743000Y-145597750D01*
X102489000Y-145597750D01*
X102330250Y-145439000D01*
X101864690Y-145439000D01*
X101631301Y-145535673D01*
X101452673Y-145714302D01*
X101356000Y-145947691D01*
X91263200Y-145947691D01*
X91263200Y-145269770D01*
X91397535Y-145359529D01*
X91694000Y-145418500D01*
X92648030Y-145418500D01*
X92669551Y-145440059D01*
X93014842Y-145583437D01*
X93388718Y-145583763D01*
X93734259Y-145440988D01*
X93756786Y-145418500D01*
X93897495Y-145418500D01*
X93897500Y-145418501D01*
X94186117Y-145361090D01*
X94193965Y-145359529D01*
X94445296Y-145191596D01*
X96742196Y-142894696D01*
X96910129Y-142643365D01*
X96969100Y-142346900D01*
X96969100Y-141548700D01*
X96910129Y-141252235D01*
X96790800Y-141073645D01*
X96790800Y-140985000D01*
X96835002Y-140985000D01*
X96835002Y-140826252D01*
X96993750Y-140985000D01*
X97184309Y-140985000D01*
X97417698Y-140888327D01*
X97575500Y-140730526D01*
X97708302Y-140863327D01*
X97941691Y-140960000D01*
X98282250Y-140960000D01*
X98441000Y-140801250D01*
X98441000Y-139827000D01*
X97591750Y-139827000D01*
X97563000Y-139855750D01*
X97534250Y-139827000D01*
X96835000Y-139827000D01*
X96835000Y-139847000D01*
X96790800Y-139847000D01*
X96790800Y-139553000D01*
X96835000Y-139553000D01*
X96835000Y-139573000D01*
X97534250Y-139573000D01*
X97563000Y-139544250D01*
X97591750Y-139573000D01*
X98441000Y-139573000D01*
X98441000Y-138598750D01*
X98282250Y-138440000D01*
X97941691Y-138440000D01*
X97708302Y-138536673D01*
X97575500Y-138669474D01*
X97434308Y-138528283D01*
X99130991Y-136831600D01*
X105240005Y-136831600D01*
X105015313Y-137131974D01*
X105015313Y-137131974D01*
G37*
X105015313Y-137131974D02*
X104785160Y-138035030D01*
X104785160Y-138785600D01*
X107043220Y-138785600D01*
X107043220Y-138765600D01*
X107297220Y-138765600D01*
X107297220Y-138785600D01*
X107317220Y-138785600D01*
X107317220Y-139039600D01*
X107297220Y-139039600D01*
X107297220Y-141885855D01*
X107668233Y-141995656D01*
X107965610Y-141915279D01*
X108766909Y-141439465D01*
X109325127Y-140693226D01*
X109532570Y-139879278D01*
X109553910Y-139912441D01*
X109613319Y-139953034D01*
X109613137Y-140162318D01*
X109755912Y-140507859D01*
X110020051Y-140772459D01*
X110365342Y-140915837D01*
X110739218Y-140916163D01*
X111084759Y-140773388D01*
X111349359Y-140509249D01*
X111492737Y-140163958D01*
X111492933Y-139939104D01*
X111493300Y-139939355D01*
X111493300Y-140646209D01*
X110470504Y-141669004D01*
X110343598Y-141858934D01*
X109985440Y-141730196D01*
X109415170Y-141757381D01*
X109014575Y-141923313D01*
X108940428Y-142169443D01*
X109768640Y-142997655D01*
X109782783Y-142983513D01*
X109962388Y-143163118D01*
X109948245Y-143177260D01*
X109962388Y-143191403D01*
X109782783Y-143371008D01*
X109768640Y-143356865D01*
X108940428Y-144185077D01*
X109010993Y-144419316D01*
X108339193Y-145091115D01*
X108373440Y-144922000D01*
X108373440Y-143622000D01*
X108362514Y-143563932D01*
X108514693Y-143931325D01*
X108760823Y-144005472D01*
X109589035Y-143177260D01*
X108760823Y-142349048D01*
X108514693Y-142423195D01*
X108321576Y-142960460D01*
X108346214Y-143477308D01*
X108329162Y-143386683D01*
X108190090Y-143170559D01*
X107977890Y-143025569D01*
X107726000Y-142974560D01*
X107026000Y-142974560D01*
X106790683Y-143018838D01*
X106574559Y-143157910D01*
X106429569Y-143370110D01*
X106426919Y-143383197D01*
X106290090Y-143170559D01*
X106077890Y-143025569D01*
X105826000Y-142974560D01*
X105126000Y-142974560D01*
X104890683Y-143018838D01*
X104730016Y-143122225D01*
X103513930Y-141906138D01*
X103709059Y-141711349D01*
X103852437Y-141366058D01*
X103852763Y-140992182D01*
X103792475Y-140846274D01*
X103862431Y-140743890D01*
X103913440Y-140492000D01*
X103913440Y-139792000D01*
X103869162Y-139556683D01*
X103730090Y-139340559D01*
X103517890Y-139195569D01*
X103504803Y-139192919D01*
X103717441Y-139056090D01*
X103728708Y-139039600D01*
X104785160Y-139039600D01*
X104785160Y-139790170D01*
X105015313Y-140693226D01*
X105573531Y-141439465D01*
X106374830Y-141915279D01*
X106672207Y-141995656D01*
X107043220Y-141885855D01*
X107043220Y-139039600D01*
X104785160Y-139039600D01*
X103728708Y-139039600D01*
X103862431Y-138843890D01*
X103913440Y-138592000D01*
X103913440Y-137892000D01*
X103869162Y-137656683D01*
X103730090Y-137440559D01*
X103517890Y-137295569D01*
X103266000Y-137244560D01*
X101966000Y-137244560D01*
X101730683Y-137288838D01*
X101514559Y-137427910D01*
X101466166Y-137498735D01*
X101327735Y-137526271D01*
X101076404Y-137694204D01*
X100908471Y-137945535D01*
X100849500Y-138242000D01*
X100849500Y-138427560D01*
X100068000Y-138427560D01*
X99832683Y-138471838D01*
X99616559Y-138610910D01*
X99570031Y-138679006D01*
X99427698Y-138536673D01*
X99194309Y-138440000D01*
X98853750Y-138440000D01*
X98695000Y-138598750D01*
X98695000Y-139573000D01*
X98715000Y-139573000D01*
X98715000Y-139827000D01*
X98695000Y-139827000D01*
X98695000Y-140801250D01*
X98853750Y-140960000D01*
X99194309Y-140960000D01*
X99427698Y-140863327D01*
X99568936Y-140722090D01*
X99603910Y-140776441D01*
X99816110Y-140921431D01*
X100068000Y-140972440D01*
X100649986Y-140972440D01*
X100670812Y-141077137D01*
X100694071Y-141194065D01*
X100811894Y-141370400D01*
X100862004Y-141445396D01*
X104236402Y-144819793D01*
X104236404Y-144819796D01*
X104355400Y-144899306D01*
X104355400Y-147073195D01*
X104355399Y-147073200D01*
X104400718Y-147301029D01*
X104414371Y-147369665D01*
X104542417Y-147561300D01*
X104582304Y-147620996D01*
X107434909Y-150473600D01*
X107353005Y-150473600D01*
X107353000Y-150473599D01*
X107105723Y-150522787D01*
X107056535Y-150532571D01*
X106876006Y-150653196D01*
X106805204Y-150700504D01*
X106715844Y-150789864D01*
X106685382Y-150789837D01*
X106339841Y-150932612D01*
X106075241Y-151196751D01*
X105931863Y-151542042D01*
X105931537Y-151915918D01*
X106074312Y-152261459D01*
X106338451Y-152526059D01*
X106683742Y-152669437D01*
X106719041Y-152669468D01*
X104659425Y-154729083D01*
X104675440Y-154650000D01*
X104675440Y-153950000D01*
X104631162Y-153714683D01*
X104492090Y-153498559D01*
X104279890Y-153353569D01*
X104266803Y-153350919D01*
X104479441Y-153214090D01*
X104624431Y-153001890D01*
X104675440Y-152750000D01*
X104675440Y-152050000D01*
X104631162Y-151814683D01*
X104492090Y-151598559D01*
X104279890Y-151453569D01*
X104028000Y-151402560D01*
X102728000Y-151402560D01*
X102492683Y-151446838D01*
X102276559Y-151585910D01*
X102228167Y-151656735D01*
X102138923Y-151674487D01*
X102089735Y-151684271D01*
X101838404Y-151852204D01*
X101444500Y-152246108D01*
X99050596Y-149852204D01*
X98985839Y-149808935D01*
X98799265Y-149684271D01*
X98766626Y-149677779D01*
X98764162Y-149664683D01*
X98625090Y-149448559D01*
X98478941Y-149348700D01*
X101413180Y-149348700D01*
X101526910Y-149525441D01*
X101739110Y-149670431D01*
X101991000Y-149721440D01*
X103241000Y-149721440D01*
X103476317Y-149677162D01*
X103692441Y-149538090D01*
X103837431Y-149325890D01*
X103888440Y-149074000D01*
X103888440Y-148074000D01*
X103844162Y-147838683D01*
X103705090Y-147622559D01*
X103636994Y-147576031D01*
X103779327Y-147433698D01*
X103876000Y-147200309D01*
X103876000Y-146859750D01*
X103717250Y-146701000D01*
X102743000Y-146701000D01*
X102743000Y-146721000D01*
X102489000Y-146721000D01*
X102489000Y-146701000D01*
X101514750Y-146701000D01*
X101356000Y-146859750D01*
X101356000Y-147200309D01*
X101452673Y-147433698D01*
X101593910Y-147574936D01*
X101539559Y-147609910D01*
X101410154Y-147799300D01*
X97724800Y-147799300D01*
X97428335Y-147858271D01*
X97177004Y-148026204D01*
X97177002Y-148026207D01*
X95887304Y-149315904D01*
X95719371Y-149567235D01*
X95711004Y-149609299D01*
X95660479Y-149863300D01*
X93150820Y-149863300D01*
X93037090Y-149686559D01*
X92824890Y-149541569D01*
X92573000Y-149490560D01*
X91323000Y-149490560D01*
X91263200Y-149501812D01*
X91263200Y-145947691D01*
X101356000Y-145947691D01*
X101356000Y-146288250D01*
X101514750Y-146447000D01*
X102489000Y-146447000D01*
X102489000Y-145597750D01*
X102743000Y-145597750D01*
X102743000Y-146447000D01*
X103717250Y-146447000D01*
X103876000Y-146288250D01*
X103876000Y-145947691D01*
X103779327Y-145714302D01*
X103600699Y-145535673D01*
X103367310Y-145439000D01*
X102901750Y-145439000D01*
X102743000Y-145597750D01*
X102489000Y-145597750D01*
X102330250Y-145439000D01*
X101864690Y-145439000D01*
X101631301Y-145535673D01*
X101452673Y-145714302D01*
X101356000Y-145947691D01*
X91263200Y-145947691D01*
X91263200Y-145269770D01*
X91397535Y-145359529D01*
X91694000Y-145418500D01*
X92648030Y-145418500D01*
X92669551Y-145440059D01*
X93014842Y-145583437D01*
X93388718Y-145583763D01*
X93734259Y-145440988D01*
X93756786Y-145418500D01*
X93897495Y-145418500D01*
X93897500Y-145418501D01*
X94186117Y-145361090D01*
X94193965Y-145359529D01*
X94445296Y-145191596D01*
X96742196Y-142894696D01*
X96910129Y-142643365D01*
X96969100Y-142346900D01*
X96969100Y-141548700D01*
X96910129Y-141252235D01*
X96790800Y-141073645D01*
X96790800Y-140985000D01*
X96835002Y-140985000D01*
X96835002Y-140826252D01*
X96993750Y-140985000D01*
X97184309Y-140985000D01*
X97417698Y-140888327D01*
X97575500Y-140730526D01*
X97708302Y-140863327D01*
X97941691Y-140960000D01*
X98282250Y-140960000D01*
X98441000Y-140801250D01*
X98441000Y-139827000D01*
X97591750Y-139827000D01*
X97563000Y-139855750D01*
X97534250Y-139827000D01*
X96835000Y-139827000D01*
X96835000Y-139847000D01*
X96790800Y-139847000D01*
X96790800Y-139553000D01*
X96835000Y-139553000D01*
X96835000Y-139573000D01*
X97534250Y-139573000D01*
X97563000Y-139544250D01*
X97591750Y-139573000D01*
X98441000Y-139573000D01*
X98441000Y-138598750D01*
X98282250Y-138440000D01*
X97941691Y-138440000D01*
X97708302Y-138536673D01*
X97575500Y-138669474D01*
X97434308Y-138528283D01*
X99130991Y-136831600D01*
X105240005Y-136831600D01*
X105015313Y-137131974D01*
G36*
X119136000Y-152098250D02*
X119294750Y-152257000D01*
X120269000Y-152257000D01*
X120269000Y-152237000D01*
X120523000Y-152237000D01*
X120523000Y-152257000D01*
X121497250Y-152257000D01*
X121656000Y-152098250D01*
X121656000Y-152000600D01*
X124978000Y-152000600D01*
X124978000Y-152098250D01*
X125136750Y-152257000D01*
X126111000Y-152257000D01*
X126111000Y-152237000D01*
X126365000Y-152237000D01*
X126365000Y-152257000D01*
X127339250Y-152257000D01*
X127498000Y-152098250D01*
X127498000Y-152000600D01*
X127967808Y-152000600D01*
X130039209Y-154072000D01*
X117411791Y-154072000D01*
X116009542Y-152669750D01*
X119136000Y-152669750D01*
X119136000Y-153010309D01*
X119232673Y-153243698D01*
X119411301Y-153422327D01*
X119644690Y-153519000D01*
X120110250Y-153519000D01*
X120269000Y-153360250D01*
X120269000Y-152511000D01*
X120523000Y-152511000D01*
X120523000Y-153360250D01*
X120681750Y-153519000D01*
X121147310Y-153519000D01*
X121380699Y-153422327D01*
X121559327Y-153243698D01*
X121656000Y-153010309D01*
X121656000Y-152669750D01*
X124978000Y-152669750D01*
X124978000Y-153010309D01*
X125074673Y-153243698D01*
X125253301Y-153422327D01*
X125486690Y-153519000D01*
X125952250Y-153519000D01*
X126111000Y-153360250D01*
X126111000Y-152511000D01*
X126365000Y-152511000D01*
X126365000Y-153360250D01*
X126523750Y-153519000D01*
X126989310Y-153519000D01*
X127222699Y-153422327D01*
X127401327Y-153243698D01*
X127498000Y-153010309D01*
X127498000Y-152669750D01*
X127339250Y-152511000D01*
X126365000Y-152511000D01*
X126111000Y-152511000D01*
X125136750Y-152511000D01*
X124978000Y-152669750D01*
X121656000Y-152669750D01*
X121497250Y-152511000D01*
X120523000Y-152511000D01*
X120269000Y-152511000D01*
X119294750Y-152511000D01*
X119136000Y-152669750D01*
X116009542Y-152669750D01*
X115340392Y-152000600D01*
X119136000Y-152000600D01*
X119136000Y-152098250D01*
X119136000Y-152098250D01*
G37*
X119136000Y-152098250D02*
X119294750Y-152257000D01*
X120269000Y-152257000D01*
X120269000Y-152237000D01*
X120523000Y-152237000D01*
X120523000Y-152257000D01*
X121497250Y-152257000D01*
X121656000Y-152098250D01*
X121656000Y-152000600D01*
X124978000Y-152000600D01*
X124978000Y-152098250D01*
X125136750Y-152257000D01*
X126111000Y-152257000D01*
X126111000Y-152237000D01*
X126365000Y-152237000D01*
X126365000Y-152257000D01*
X127339250Y-152257000D01*
X127498000Y-152098250D01*
X127498000Y-152000600D01*
X127967808Y-152000600D01*
X130039209Y-154072000D01*
X117411791Y-154072000D01*
X116009542Y-152669750D01*
X119136000Y-152669750D01*
X119136000Y-153010309D01*
X119232673Y-153243698D01*
X119411301Y-153422327D01*
X119644690Y-153519000D01*
X120110250Y-153519000D01*
X120269000Y-153360250D01*
X120269000Y-152511000D01*
X120523000Y-152511000D01*
X120523000Y-153360250D01*
X120681750Y-153519000D01*
X121147310Y-153519000D01*
X121380699Y-153422327D01*
X121559327Y-153243698D01*
X121656000Y-153010309D01*
X121656000Y-152669750D01*
X124978000Y-152669750D01*
X124978000Y-153010309D01*
X125074673Y-153243698D01*
X125253301Y-153422327D01*
X125486690Y-153519000D01*
X125952250Y-153519000D01*
X126111000Y-153360250D01*
X126111000Y-152511000D01*
X126365000Y-152511000D01*
X126365000Y-153360250D01*
X126523750Y-153519000D01*
X126989310Y-153519000D01*
X127222699Y-153422327D01*
X127401327Y-153243698D01*
X127498000Y-153010309D01*
X127498000Y-152669750D01*
X127339250Y-152511000D01*
X126365000Y-152511000D01*
X126111000Y-152511000D01*
X125136750Y-152511000D01*
X124978000Y-152669750D01*
X121656000Y-152669750D01*
X121497250Y-152511000D01*
X120523000Y-152511000D01*
X120269000Y-152511000D01*
X119294750Y-152511000D01*
X119136000Y-152669750D01*
X116009542Y-152669750D01*
X115340392Y-152000600D01*
X119136000Y-152000600D01*
X119136000Y-152098250D01*
M02*
