G04 #@! TF.FileFunction,Legend,Top*
%FSLAX46Y46*%
G04 Gerber Fmt 4.6, Leading zero omitted, Abs format (unit mm)*
G04 Created by KiCad (PCBNEW 4.0.1-stable) date 5/9/2016 2:00:35 PM*
%MOMM*%
G01*
G04 APERTURE LIST*
%ADD10C,0.100000*%
%ADD11C,0.150000*%
G04 APERTURE END LIST*
D10*
D11*
X133604000Y-185039000D02*
X133604000Y-161544000D01*
X138684000Y-185039000D02*
X133604000Y-185039000D01*
X138684000Y-159004000D02*
X138684000Y-185039000D01*
X90424000Y-185039000D02*
X90424000Y-161544000D01*
X95504000Y-185039000D02*
X90424000Y-185039000D01*
X95504000Y-159004000D02*
X95504000Y-185039000D01*
X95504000Y-159004000D02*
X92964000Y-159004000D01*
X91694000Y-158724000D02*
X90144000Y-158724000D01*
X92964000Y-159004000D02*
X92964000Y-161544000D01*
X92964000Y-161544000D02*
X90424000Y-161544000D01*
X90144000Y-158724000D02*
X90144000Y-160274000D01*
X138684000Y-159004000D02*
X136144000Y-159004000D01*
X136144000Y-159004000D02*
X136144000Y-161544000D01*
X133324000Y-158724000D02*
X133324000Y-160274000D01*
X134874000Y-158724000D02*
X133324000Y-158724000D01*
X136144000Y-161544000D02*
X133604000Y-161544000D01*
X138684000Y-159004000D02*
X138684000Y-185039000D01*
X138684000Y-159004000D02*
X136144000Y-159004000D01*
X133604000Y-185039000D02*
X133604000Y-161544000D01*
X138684000Y-185039000D02*
X133604000Y-185039000D01*
X133324000Y-158724000D02*
X133324000Y-160274000D01*
X134874000Y-158724000D02*
X133324000Y-158724000D01*
X136144000Y-161544000D02*
X133604000Y-161544000D01*
X136144000Y-159004000D02*
X136144000Y-161544000D01*
X106768900Y-126375160D02*
X117767100Y-125575060D01*
X106768900Y-127175260D02*
X117767100Y-126375160D01*
X106768900Y-127975360D02*
X117767100Y-127175260D01*
X106768900Y-128775460D02*
X117767100Y-127975360D01*
X106768900Y-129575560D02*
X117767100Y-128775460D01*
X106768900Y-130375660D02*
X117767100Y-129575560D01*
X113268760Y-115476020D02*
G75*
G03X113268760Y-115476020I-1000760J0D01*
G01*
X117068600Y-123477020D02*
X117068600Y-111475520D01*
X117068600Y-111475520D02*
X107467400Y-111475520D01*
X107467400Y-111475520D02*
X107467400Y-123477020D01*
X117767100Y-130975100D02*
X117767100Y-123477020D01*
X117767100Y-123477020D02*
X106768900Y-123477020D01*
X106768900Y-123477020D02*
X106768900Y-130975100D01*
X104467660Y-145376900D02*
X120068340Y-145376900D01*
X120068340Y-145376900D02*
X120068340Y-130975100D01*
X120068340Y-130975100D02*
X104467660Y-130975100D01*
X104467660Y-130975100D02*
X104467660Y-145376900D01*
X124040900Y-126375160D02*
X135039100Y-125575060D01*
X124040900Y-127175260D02*
X135039100Y-126375160D01*
X124040900Y-127975360D02*
X135039100Y-127175260D01*
X124040900Y-128775460D02*
X135039100Y-127975360D01*
X124040900Y-129575560D02*
X135039100Y-128775460D01*
X124040900Y-130375660D02*
X135039100Y-129575560D01*
X130540760Y-115476020D02*
G75*
G03X130540760Y-115476020I-1000760J0D01*
G01*
X134340600Y-123477020D02*
X134340600Y-111475520D01*
X134340600Y-111475520D02*
X124739400Y-111475520D01*
X124739400Y-111475520D02*
X124739400Y-123477020D01*
X135039100Y-130975100D02*
X135039100Y-123477020D01*
X135039100Y-123477020D02*
X124040900Y-123477020D01*
X124040900Y-123477020D02*
X124040900Y-130975100D01*
X121739660Y-145376900D02*
X137340340Y-145376900D01*
X137340340Y-145376900D02*
X137340340Y-130975100D01*
X137340340Y-130975100D02*
X121739660Y-130975100D01*
X121739660Y-130975100D02*
X121739660Y-145376900D01*
X101908000Y-174002000D02*
G75*
G03X101908000Y-174002000I-100000J0D01*
G01*
X102358000Y-174252000D02*
X101858000Y-174252000D01*
X102358000Y-177152000D02*
X102358000Y-174252000D01*
X101858000Y-177152000D02*
X102358000Y-177152000D01*
X101858000Y-174252000D02*
X101858000Y-177152000D01*
X116332000Y-148590000D02*
X116332000Y-153670000D01*
X116332000Y-153670000D02*
X126492000Y-153670000D01*
X126492000Y-153670000D02*
X126492000Y-148590000D01*
X126492000Y-148590000D02*
X116332000Y-148590000D01*
X116332000Y-149860000D02*
X117602000Y-149860000D01*
X117602000Y-149860000D02*
X117602000Y-152400000D01*
X117602000Y-152400000D02*
X116332000Y-152400000D01*
X91694000Y-149606000D02*
X91694000Y-154686000D01*
X91694000Y-154686000D02*
X101854000Y-154686000D01*
X101854000Y-154686000D02*
X101854000Y-149606000D01*
X101854000Y-149606000D02*
X91694000Y-149606000D01*
X91694000Y-150876000D02*
X92964000Y-150876000D01*
X92964000Y-150876000D02*
X92964000Y-153416000D01*
X92964000Y-153416000D02*
X91694000Y-153416000D01*
X93218000Y-138430000D02*
X93218000Y-143510000D01*
X93218000Y-143510000D02*
X103378000Y-143510000D01*
X103378000Y-143510000D02*
X103378000Y-138430000D01*
X103378000Y-138430000D02*
X93218000Y-138430000D01*
X93218000Y-139700000D02*
X94488000Y-139700000D01*
X94488000Y-139700000D02*
X94488000Y-142240000D01*
X94488000Y-142240000D02*
X93218000Y-142240000D01*
X111182000Y-178138000D02*
X115582000Y-178138000D01*
X109607000Y-172688000D02*
X115582000Y-172688000D01*
X130673000Y-149999000D02*
X130673000Y-150224000D01*
X135323000Y-149999000D02*
X135323000Y-150224000D01*
X135323000Y-155249000D02*
X135323000Y-155024000D01*
X130673000Y-155249000D02*
X130673000Y-155024000D01*
X130673000Y-149999000D02*
X135323000Y-149999000D01*
X130673000Y-155249000D02*
X135323000Y-155249000D01*
X130673000Y-150224000D02*
X129323000Y-150224000D01*
X106341000Y-147997000D02*
X106341000Y-148507000D01*
X111591000Y-147997000D02*
X111591000Y-148507000D01*
X111591000Y-153247000D02*
X111591000Y-152737000D01*
X106341000Y-153247000D02*
X106341000Y-152737000D01*
X106341000Y-147997000D02*
X106851000Y-147997000D01*
X106341000Y-153247000D02*
X106851000Y-153247000D01*
X111591000Y-153247000D02*
X111081000Y-153247000D01*
X111591000Y-147997000D02*
X111081000Y-147997000D01*
X106341000Y-148507000D02*
X105116000Y-148507000D01*
X111934000Y-167994000D02*
X111684000Y-167994000D01*
X113084000Y-168994000D02*
X113084000Y-169294000D01*
X113484000Y-168994000D02*
X113084000Y-168994000D01*
X113084000Y-166794000D02*
X113484000Y-166794000D01*
X114634000Y-167994000D02*
X114634000Y-167794000D01*
X111934000Y-167994000D02*
X111934000Y-167794000D01*
X111609239Y-164012571D02*
X111752096Y-164060190D01*
X111799715Y-164107810D01*
X111847334Y-164203048D01*
X111847334Y-164345905D01*
X111799715Y-164441143D01*
X111752096Y-164488762D01*
X111656858Y-164536381D01*
X111275905Y-164536381D01*
X111275905Y-163536381D01*
X111609239Y-163536381D01*
X111704477Y-163584000D01*
X111752096Y-163631619D01*
X111799715Y-163726857D01*
X111799715Y-163822095D01*
X111752096Y-163917333D01*
X111704477Y-163964952D01*
X111609239Y-164012571D01*
X111275905Y-164012571D01*
X112799715Y-164536381D02*
X112228286Y-164536381D01*
X112514000Y-164536381D02*
X112514000Y-163536381D01*
X112418762Y-163679238D01*
X112323524Y-163774476D01*
X112228286Y-163822095D01*
X112037905Y-148280381D02*
X112037905Y-147280381D01*
X112418858Y-147280381D01*
X112514096Y-147328000D01*
X112561715Y-147375619D01*
X112609334Y-147470857D01*
X112609334Y-147613714D01*
X112561715Y-147708952D01*
X112514096Y-147756571D01*
X112418858Y-147804190D01*
X112037905Y-147804190D01*
X113561715Y-148280381D02*
X112990286Y-148280381D01*
X113276000Y-148280381D02*
X113276000Y-147280381D01*
X113180762Y-147423238D01*
X113085524Y-147518476D01*
X112990286Y-147566095D01*
X129309905Y-148280381D02*
X129309905Y-147280381D01*
X129690858Y-147280381D01*
X129786096Y-147328000D01*
X129833715Y-147375619D01*
X129881334Y-147470857D01*
X129881334Y-147613714D01*
X129833715Y-147708952D01*
X129786096Y-147756571D01*
X129690858Y-147804190D01*
X129309905Y-147804190D01*
X130262286Y-147375619D02*
X130309905Y-147328000D01*
X130405143Y-147280381D01*
X130643239Y-147280381D01*
X130738477Y-147328000D01*
X130786096Y-147375619D01*
X130833715Y-147470857D01*
X130833715Y-147566095D01*
X130786096Y-147708952D01*
X130214667Y-148280381D01*
X130833715Y-148280381D01*
X101296095Y-172604381D02*
X101296095Y-173413905D01*
X101343714Y-173509143D01*
X101391333Y-173556762D01*
X101486571Y-173604381D01*
X101677048Y-173604381D01*
X101772286Y-173556762D01*
X101819905Y-173509143D01*
X101867524Y-173413905D01*
X101867524Y-172604381D01*
X102867524Y-173604381D02*
X102296095Y-173604381D01*
X102581809Y-173604381D02*
X102581809Y-172604381D01*
X102486571Y-172747238D01*
X102391333Y-172842476D01*
X102296095Y-172890095D01*
X121031095Y-149439381D02*
X121031095Y-150248905D01*
X121078714Y-150344143D01*
X121126333Y-150391762D01*
X121221571Y-150439381D01*
X121412048Y-150439381D01*
X121507286Y-150391762D01*
X121554905Y-150344143D01*
X121602524Y-150248905D01*
X121602524Y-149439381D01*
X122031095Y-149534619D02*
X122078714Y-149487000D01*
X122173952Y-149439381D01*
X122412048Y-149439381D01*
X122507286Y-149487000D01*
X122554905Y-149534619D01*
X122602524Y-149629857D01*
X122602524Y-149725095D01*
X122554905Y-149867952D01*
X121983476Y-150439381D01*
X122602524Y-150439381D01*
X96393095Y-150455381D02*
X96393095Y-151264905D01*
X96440714Y-151360143D01*
X96488333Y-151407762D01*
X96583571Y-151455381D01*
X96774048Y-151455381D01*
X96869286Y-151407762D01*
X96916905Y-151360143D01*
X96964524Y-151264905D01*
X96964524Y-150455381D01*
X97345476Y-150455381D02*
X97964524Y-150455381D01*
X97631190Y-150836333D01*
X97774048Y-150836333D01*
X97869286Y-150883952D01*
X97916905Y-150931571D01*
X97964524Y-151026810D01*
X97964524Y-151264905D01*
X97916905Y-151360143D01*
X97869286Y-151407762D01*
X97774048Y-151455381D01*
X97488333Y-151455381D01*
X97393095Y-151407762D01*
X97345476Y-151360143D01*
X97917095Y-139279381D02*
X97917095Y-140088905D01*
X97964714Y-140184143D01*
X98012333Y-140231762D01*
X98107571Y-140279381D01*
X98298048Y-140279381D01*
X98393286Y-140231762D01*
X98440905Y-140184143D01*
X98488524Y-140088905D01*
X98488524Y-139279381D01*
X99393286Y-139612714D02*
X99393286Y-140279381D01*
X99155190Y-139231762D02*
X98917095Y-139946048D01*
X99536143Y-139946048D01*
X112620095Y-171315381D02*
X112620095Y-172124905D01*
X112667714Y-172220143D01*
X112715333Y-172267762D01*
X112810571Y-172315381D01*
X113001048Y-172315381D01*
X113096286Y-172267762D01*
X113143905Y-172220143D01*
X113191524Y-172124905D01*
X113191524Y-171315381D01*
X114143905Y-171315381D02*
X113667714Y-171315381D01*
X113620095Y-171791571D01*
X113667714Y-171743952D01*
X113762952Y-171696333D01*
X114001048Y-171696333D01*
X114096286Y-171743952D01*
X114143905Y-171791571D01*
X114191524Y-171886810D01*
X114191524Y-172124905D01*
X114143905Y-172220143D01*
X114096286Y-172267762D01*
X114001048Y-172315381D01*
X113762952Y-172315381D01*
X113667714Y-172267762D01*
X113620095Y-172220143D01*
X132236095Y-148526381D02*
X132236095Y-149335905D01*
X132283714Y-149431143D01*
X132331333Y-149478762D01*
X132426571Y-149526381D01*
X132617048Y-149526381D01*
X132712286Y-149478762D01*
X132759905Y-149431143D01*
X132807524Y-149335905D01*
X132807524Y-148526381D01*
X133712286Y-148526381D02*
X133521809Y-148526381D01*
X133426571Y-148574000D01*
X133378952Y-148621619D01*
X133283714Y-148764476D01*
X133236095Y-148954952D01*
X133236095Y-149335905D01*
X133283714Y-149431143D01*
X133331333Y-149478762D01*
X133426571Y-149526381D01*
X133617048Y-149526381D01*
X133712286Y-149478762D01*
X133759905Y-149431143D01*
X133807524Y-149335905D01*
X133807524Y-149097810D01*
X133759905Y-149002571D01*
X133712286Y-148954952D01*
X133617048Y-148907333D01*
X133426571Y-148907333D01*
X133331333Y-148954952D01*
X133283714Y-149002571D01*
X133236095Y-149097810D01*
X108204095Y-145224381D02*
X108204095Y-146033905D01*
X108251714Y-146129143D01*
X108299333Y-146176762D01*
X108394571Y-146224381D01*
X108585048Y-146224381D01*
X108680286Y-146176762D01*
X108727905Y-146129143D01*
X108775524Y-146033905D01*
X108775524Y-145224381D01*
X109156476Y-145224381D02*
X109823143Y-145224381D01*
X109394571Y-146224381D01*
X112807809Y-164870190D02*
X112807809Y-165346381D01*
X112474476Y-164346381D02*
X112807809Y-164870190D01*
X113141143Y-164346381D01*
X113998286Y-165346381D02*
X113426857Y-165346381D01*
X113712571Y-165346381D02*
X113712571Y-164346381D01*
X113617333Y-164489238D01*
X113522095Y-164584476D01*
X113426857Y-164632095D01*
X99337905Y-159996381D02*
X99337905Y-158996381D01*
X99718858Y-158996381D01*
X99814096Y-159044000D01*
X99861715Y-159091619D01*
X99909334Y-159186857D01*
X99909334Y-159329714D01*
X99861715Y-159424952D01*
X99814096Y-159472571D01*
X99718858Y-159520190D01*
X99337905Y-159520190D01*
X100242667Y-158996381D02*
X100861715Y-158996381D01*
X100528381Y-159377333D01*
X100671239Y-159377333D01*
X100766477Y-159424952D01*
X100814096Y-159472571D01*
X100861715Y-159567810D01*
X100861715Y-159805905D01*
X100814096Y-159901143D01*
X100766477Y-159948762D01*
X100671239Y-159996381D01*
X100385524Y-159996381D01*
X100290286Y-159948762D01*
X100242667Y-159901143D01*
X99337905Y-179300381D02*
X99337905Y-178300381D01*
X99718858Y-178300381D01*
X99814096Y-178348000D01*
X99861715Y-178395619D01*
X99909334Y-178490857D01*
X99909334Y-178633714D01*
X99861715Y-178728952D01*
X99814096Y-178776571D01*
X99718858Y-178824190D01*
X99337905Y-178824190D01*
X100766477Y-178633714D02*
X100766477Y-179300381D01*
X100528381Y-178252762D02*
X100290286Y-178967048D01*
X100909334Y-178967048D01*
X99337905Y-165584381D02*
X99337905Y-164584381D01*
X99718858Y-164584381D01*
X99814096Y-164632000D01*
X99861715Y-164679619D01*
X99909334Y-164774857D01*
X99909334Y-164917714D01*
X99861715Y-165012952D01*
X99814096Y-165060571D01*
X99718858Y-165108190D01*
X99337905Y-165108190D01*
X100814096Y-164584381D02*
X100337905Y-164584381D01*
X100290286Y-165060571D01*
X100337905Y-165012952D01*
X100433143Y-164965333D01*
X100671239Y-164965333D01*
X100766477Y-165012952D01*
X100814096Y-165060571D01*
X100861715Y-165155810D01*
X100861715Y-165393905D01*
X100814096Y-165489143D01*
X100766477Y-165536762D01*
X100671239Y-165584381D01*
X100433143Y-165584381D01*
X100337905Y-165536762D01*
X100290286Y-165489143D01*
X120165905Y-159996381D02*
X120165905Y-158996381D01*
X120546858Y-158996381D01*
X120642096Y-159044000D01*
X120689715Y-159091619D01*
X120737334Y-159186857D01*
X120737334Y-159329714D01*
X120689715Y-159424952D01*
X120642096Y-159472571D01*
X120546858Y-159520190D01*
X120165905Y-159520190D01*
X121594477Y-158996381D02*
X121404000Y-158996381D01*
X121308762Y-159044000D01*
X121261143Y-159091619D01*
X121165905Y-159234476D01*
X121118286Y-159424952D01*
X121118286Y-159805905D01*
X121165905Y-159901143D01*
X121213524Y-159948762D01*
X121308762Y-159996381D01*
X121499239Y-159996381D01*
X121594477Y-159948762D01*
X121642096Y-159901143D01*
X121689715Y-159805905D01*
X121689715Y-159567810D01*
X121642096Y-159472571D01*
X121594477Y-159424952D01*
X121499239Y-159377333D01*
X121308762Y-159377333D01*
X121213524Y-159424952D01*
X121165905Y-159472571D01*
X121118286Y-159567810D01*
X127277905Y-159996381D02*
X127277905Y-158996381D01*
X127658858Y-158996381D01*
X127754096Y-159044000D01*
X127801715Y-159091619D01*
X127849334Y-159186857D01*
X127849334Y-159329714D01*
X127801715Y-159424952D01*
X127754096Y-159472571D01*
X127658858Y-159520190D01*
X127277905Y-159520190D01*
X128182667Y-158996381D02*
X128849334Y-158996381D01*
X128420762Y-159996381D01*
X106195905Y-159996381D02*
X106195905Y-158996381D01*
X106576858Y-158996381D01*
X106672096Y-159044000D01*
X106719715Y-159091619D01*
X106767334Y-159186857D01*
X106767334Y-159329714D01*
X106719715Y-159424952D01*
X106672096Y-159472571D01*
X106576858Y-159520190D01*
X106195905Y-159520190D01*
X107338762Y-159424952D02*
X107243524Y-159377333D01*
X107195905Y-159329714D01*
X107148286Y-159234476D01*
X107148286Y-159186857D01*
X107195905Y-159091619D01*
X107243524Y-159044000D01*
X107338762Y-158996381D01*
X107529239Y-158996381D01*
X107624477Y-159044000D01*
X107672096Y-159091619D01*
X107719715Y-159186857D01*
X107719715Y-159234476D01*
X107672096Y-159329714D01*
X107624477Y-159377333D01*
X107529239Y-159424952D01*
X107338762Y-159424952D01*
X107243524Y-159472571D01*
X107195905Y-159520190D01*
X107148286Y-159615429D01*
X107148286Y-159805905D01*
X107195905Y-159901143D01*
X107243524Y-159948762D01*
X107338762Y-159996381D01*
X107529239Y-159996381D01*
X107624477Y-159948762D01*
X107672096Y-159901143D01*
X107719715Y-159805905D01*
X107719715Y-159615429D01*
X107672096Y-159520190D01*
X107624477Y-159472571D01*
X107529239Y-159424952D01*
X120419905Y-166092381D02*
X120419905Y-165092381D01*
X120800858Y-165092381D01*
X120896096Y-165140000D01*
X120943715Y-165187619D01*
X120991334Y-165282857D01*
X120991334Y-165425714D01*
X120943715Y-165520952D01*
X120896096Y-165568571D01*
X120800858Y-165616190D01*
X120419905Y-165616190D01*
X121467524Y-166092381D02*
X121658000Y-166092381D01*
X121753239Y-166044762D01*
X121800858Y-165997143D01*
X121896096Y-165854286D01*
X121943715Y-165663810D01*
X121943715Y-165282857D01*
X121896096Y-165187619D01*
X121848477Y-165140000D01*
X121753239Y-165092381D01*
X121562762Y-165092381D01*
X121467524Y-165140000D01*
X121419905Y-165187619D01*
X121372286Y-165282857D01*
X121372286Y-165520952D01*
X121419905Y-165616190D01*
X121467524Y-165663810D01*
X121562762Y-165711429D01*
X121753239Y-165711429D01*
X121848477Y-165663810D01*
X121896096Y-165616190D01*
X121943715Y-165520952D01*
X126801714Y-165838381D02*
X126801714Y-164838381D01*
X127182667Y-164838381D01*
X127277905Y-164886000D01*
X127325524Y-164933619D01*
X127373143Y-165028857D01*
X127373143Y-165171714D01*
X127325524Y-165266952D01*
X127277905Y-165314571D01*
X127182667Y-165362190D01*
X126801714Y-165362190D01*
X128325524Y-165838381D02*
X127754095Y-165838381D01*
X128039809Y-165838381D02*
X128039809Y-164838381D01*
X127944571Y-164981238D01*
X127849333Y-165076476D01*
X127754095Y-165124095D01*
X128944571Y-164838381D02*
X129039810Y-164838381D01*
X129135048Y-164886000D01*
X129182667Y-164933619D01*
X129230286Y-165028857D01*
X129277905Y-165219333D01*
X129277905Y-165457429D01*
X129230286Y-165647905D01*
X129182667Y-165743143D01*
X129135048Y-165790762D01*
X129039810Y-165838381D01*
X128944571Y-165838381D01*
X128849333Y-165790762D01*
X128801714Y-165743143D01*
X128754095Y-165647905D01*
X128706476Y-165457429D01*
X128706476Y-165219333D01*
X128754095Y-165028857D01*
X128801714Y-164933619D01*
X128849333Y-164886000D01*
X128944571Y-164838381D01*
X124261714Y-179554381D02*
X124261714Y-178554381D01*
X124642667Y-178554381D01*
X124737905Y-178602000D01*
X124785524Y-178649619D01*
X124833143Y-178744857D01*
X124833143Y-178887714D01*
X124785524Y-178982952D01*
X124737905Y-179030571D01*
X124642667Y-179078190D01*
X124261714Y-179078190D01*
X125785524Y-179554381D02*
X125214095Y-179554381D01*
X125499809Y-179554381D02*
X125499809Y-178554381D01*
X125404571Y-178697238D01*
X125309333Y-178792476D01*
X125214095Y-178840095D01*
X126737905Y-179554381D02*
X126166476Y-179554381D01*
X126452190Y-179554381D02*
X126452190Y-178554381D01*
X126356952Y-178697238D01*
X126261714Y-178792476D01*
X126166476Y-178840095D01*
X112577714Y-159996381D02*
X112577714Y-158996381D01*
X112958667Y-158996381D01*
X113053905Y-159044000D01*
X113101524Y-159091619D01*
X113149143Y-159186857D01*
X113149143Y-159329714D01*
X113101524Y-159424952D01*
X113053905Y-159472571D01*
X112958667Y-159520190D01*
X112577714Y-159520190D01*
X114101524Y-159996381D02*
X113530095Y-159996381D01*
X113815809Y-159996381D02*
X113815809Y-158996381D01*
X113720571Y-159139238D01*
X113625333Y-159234476D01*
X113530095Y-159282095D01*
X114482476Y-159091619D02*
X114530095Y-159044000D01*
X114625333Y-158996381D01*
X114863429Y-158996381D01*
X114958667Y-159044000D01*
X115006286Y-159091619D01*
X115053905Y-159186857D01*
X115053905Y-159282095D01*
X115006286Y-159424952D01*
X114434857Y-159996381D01*
X115053905Y-159996381D01*
M02*
