M48
;DRILL file {KiCad 4.0.1-stable} date 5/9/2016 12:51:17 AM
;FORMAT={-:-/ absolute / inch / decimal}
FMAT,2
INCH,TZ
T1C0.016
T2C0.039
T3C0.040
T4C0.087
%
G90
G05
M72
T1
X3.6693Y-5.6668
X3.6772Y-6.05
X3.7728Y-5.512
X3.8137Y-7.1345
X3.8558Y-7.02
X3.8994Y-6.295
X3.9038Y-6.032
X3.91Y-6.74
X3.9163Y-6.9595
X4.0079Y-6.0745
X4.02Y-6.9192
X4.0243Y-6.5531
X4.0349Y-5.5539
X4.0826Y-6.9893
X4.09Y-5.644
X4.1932Y-5.8271
X4.2137Y-5.9206
X4.2345Y-6.8598
X4.2509Y-5.879
X4.2688Y-6.1024
X4.2728Y-5.5758
X4.2958Y-5.9781
X4.2998Y-5.7426
X4.3054Y-7.1364
X4.3077Y-6.1025
X4.374Y-5.5484
X4.4201Y-6.6983
X4.4617Y-5.9508
X4.6Y-7.07
X4.61Y-6.7248
X4.6179Y-6.1608
X4.63Y-5.8881
X4.6498Y-6.9994
X4.6762Y-7.1291
X4.6913Y-6.6273
X4.882Y-6.485
X4.89Y-5.66
X4.9368Y-6.204
X4.9971Y-6.0564
X5.0676Y-6.6706
X5.0717Y-5.9588
X5.0925Y-6.289
X5.1225Y-6.1149
X5.1685Y-5.9325
X5.1844Y-5.8829
X5.186Y-6.8233
X5.2792Y-5.9489
X5.3689Y-6.19
X5.3847Y-6.1208
T2
X4.3216Y-5.6369
X4.42Y-5.6369
X5.0016Y-5.6369
X5.1Y-5.6369
T3
X3.61Y-6.31
X3.61Y-6.41
X3.61Y-6.51
X3.61Y-6.61
X3.61Y-6.71
X3.61Y-6.81
X3.61Y-6.91
X3.61Y-7.01
X3.61Y-7.11
X3.61Y-7.21
X3.71Y-6.31
X3.71Y-6.41
X3.71Y-6.51
X3.71Y-6.61
X3.71Y-6.71
X3.71Y-6.81
X3.71Y-6.91
X3.71Y-7.01
X3.71Y-7.11
X3.71Y-7.21
X5.31Y-6.31
X5.31Y-6.41
X5.31Y-6.51
X5.31Y-6.61
X5.31Y-6.71
X5.31Y-6.81
X5.31Y-6.91
X5.31Y-7.01
X5.31Y-7.11
X5.31Y-7.21
X5.41Y-6.31
X5.41Y-6.41
X5.41Y-6.51
X5.41Y-6.61
X5.41Y-6.71
X5.41Y-6.81
X5.41Y-6.91
X5.41Y-7.01
X5.41Y-7.11
X5.41Y-7.21
T4
X4.2193Y-5.469
X4.6208Y-5.469
X4.8993Y-5.469
X5.3008Y-5.469
T0
M30
