M48
;DRILL file {KiCad 4.0.1-stable} date Tuesday, May 10, 2016 'PMt' 01:50:25 PM
;FORMAT={-:-/ absolute / inch / decimal}
FMAT,2
INCH,TZ
T1C0.012
T2C0.039
T3C0.040
T4C0.087
%
G90
G05
M72
T1
X3.7648Y-6.5313
X3.8003Y-5.7805
X3.8451Y-5.5978
X3.9355Y-6.9369
X3.9818Y-5.636
X4.0177Y-6.0748
X4.075Y-6.8009
X4.097Y-6.999
X4.2031Y-6.0856
X4.2077Y-6.0396
X4.2332Y-6.2281
X4.2475Y-6.1836
X4.2518Y-6.8676
X4.2703Y-5.8247
X4.2806Y-5.7568
X4.3054Y-7.1384
X4.3145Y-6.1961
X4.338Y-5.7781
X4.34Y-7.06
X4.3499Y-6.0446
X4.411Y-5.6064
X4.4313Y-6.9188
X4.461Y-6.5463
X4.4642Y-6.0218
X4.5651Y-7.1233
X4.5661Y-5.8863
X4.5945Y-5.642
X4.6483Y-5.9601
X4.668Y-6.9979
X4.7Y-6.82
X4.7013Y-6.4786
X4.8139Y-5.9978
X4.8746Y-6.1352
X4.9049Y-6.41
X4.9264Y-6.4502
X4.955Y-6.0615
X4.98Y-6.269
X5.072Y-6.1361
X5.087Y-6.7368
X5.1122Y-6.1697
X5.1161Y-6.3002
X5.1161Y-6.41
X5.1515Y-5.9677
X5.155Y-5.9291
X5.1702Y-5.8783
X5.2955Y-6.1845
X5.3852Y-6.0869
T2
X4.3216Y-5.6679
X4.42Y-5.6679
X5.0016Y-5.6679
X5.1Y-5.6679
T3
X3.61Y-6.31
X3.61Y-6.41
X3.61Y-6.51
X3.61Y-6.61
X3.61Y-6.71
X3.61Y-6.81
X3.61Y-6.91
X3.61Y-7.01
X3.61Y-7.11
X3.61Y-7.21
X3.71Y-6.31
X3.71Y-6.41
X3.71Y-6.51
X3.71Y-6.61
X3.71Y-6.71
X3.71Y-6.81
X3.71Y-6.91
X3.71Y-7.01
X3.71Y-7.11
X3.71Y-7.21
X5.31Y-6.31
X5.31Y-6.41
X5.31Y-6.51
X5.31Y-6.61
X5.31Y-6.71
X5.31Y-6.81
X5.31Y-6.91
X5.31Y-7.01
X5.31Y-7.11
X5.31Y-7.21
X5.41Y-6.31
X5.41Y-6.41
X5.41Y-6.51
X5.41Y-6.61
X5.41Y-6.71
X5.41Y-6.81
X5.41Y-6.91
X5.41Y-7.01
X5.41Y-7.11
X5.41Y-7.21
T4
X4.2193Y-5.5
X4.6208Y-5.5
X4.8993Y-5.5
X5.3008Y-5.5
T0
M30
