G04 #@! TF.FileFunction,Copper,L2,Bot,Signal*
%FSLAX46Y46*%
G04 Gerber Fmt 4.6, Leading zero omitted, Abs format (unit mm)*
G04 Created by KiCad (PCBNEW 4.0.1-stable) date 5/9/2016 12:51:21 AM*
%MOMM*%
G01*
G04 APERTURE LIST*
%ADD10C,0.100000*%
%ADD11R,1.727200X1.727200*%
%ADD12O,1.727200X1.727200*%
%ADD13R,1.250000X1.000000*%
%ADD14R,1.000000X1.250000*%
%ADD15O,3.500120X5.001260*%
%ADD16C,1.600200*%
%ADD17R,1.300000X0.700000*%
%ADD18R,0.700000X1.300000*%
%ADD19C,0.600000*%
%ADD20C,0.250000*%
%ADD21C,0.254000*%
G04 APERTURE END LIST*
D10*
D11*
X91694000Y-160274000D03*
D12*
X94234000Y-160274000D03*
X91694000Y-162814000D03*
X94234000Y-162814000D03*
X91694000Y-165354000D03*
X94234000Y-165354000D03*
X91694000Y-167894000D03*
X94234000Y-167894000D03*
X91694000Y-170434000D03*
X94234000Y-170434000D03*
X91694000Y-172974000D03*
X94234000Y-172974000D03*
X91694000Y-175514000D03*
X94234000Y-175514000D03*
X91694000Y-178054000D03*
X94234000Y-178054000D03*
X91694000Y-180594000D03*
X94234000Y-180594000D03*
X91694000Y-183134000D03*
X94234000Y-183134000D03*
X134874000Y-175514000D03*
X134874000Y-178054000D03*
X134874000Y-172974000D03*
X137414000Y-172974000D03*
X137414000Y-178054000D03*
X137414000Y-175514000D03*
X134874000Y-170434000D03*
X134874000Y-167894000D03*
X137414000Y-167894000D03*
X137414000Y-170434000D03*
X137414000Y-165354000D03*
X134874000Y-165354000D03*
D11*
X134874000Y-160274000D03*
D12*
X137414000Y-162814000D03*
X134874000Y-162814000D03*
X137414000Y-160274000D03*
X134874000Y-183134000D03*
X137414000Y-183134000D03*
X137414000Y-180594000D03*
X134874000Y-180594000D03*
D13*
X98044000Y-176514000D03*
X98044000Y-174514000D03*
X97536000Y-150400000D03*
X97536000Y-152400000D03*
X126238000Y-150384000D03*
X126238000Y-152384000D03*
D14*
X100568000Y-139700000D03*
X98568000Y-139700000D03*
D13*
X113792000Y-176260000D03*
X113792000Y-174260000D03*
X106426000Y-176006000D03*
X106426000Y-174006000D03*
D14*
X105934000Y-179324000D03*
X107934000Y-179324000D03*
D13*
X125984000Y-175768000D03*
X125984000Y-177768000D03*
X120396000Y-175784000D03*
X120396000Y-177784000D03*
X120396000Y-152384000D03*
X120396000Y-150384000D03*
X91948000Y-152638000D03*
X91948000Y-150638000D03*
X102616000Y-146574000D03*
X102616000Y-148574000D03*
D14*
X110617000Y-164338000D03*
X112617000Y-164338000D03*
X123730000Y-167386000D03*
X125730000Y-167386000D03*
X123412000Y-171958000D03*
X121412000Y-171958000D03*
X127984000Y-162814000D03*
X125984000Y-162814000D03*
X134890000Y-145542000D03*
X136890000Y-145542000D03*
D13*
X131064000Y-169926000D03*
X131064000Y-171926000D03*
D14*
X114649000Y-161671000D03*
X112649000Y-161671000D03*
X132048000Y-166878000D03*
X130048000Y-166878000D03*
X118094000Y-144272000D03*
X116094000Y-144272000D03*
X108331000Y-159258000D03*
X110331000Y-159258000D03*
X102521000Y-159639000D03*
X104521000Y-159639000D03*
D13*
X98044000Y-166640000D03*
X98044000Y-168640000D03*
D14*
X105950000Y-163322000D03*
X107950000Y-163322000D03*
X131064000Y-180594000D03*
X129064000Y-180594000D03*
X131318000Y-183642000D03*
X129318000Y-183642000D03*
D15*
X107170220Y-138912600D03*
X117368320Y-138912600D03*
D16*
X112268000Y-143177260D03*
X109768640Y-143177260D03*
D15*
X124442220Y-138912600D03*
X134640320Y-138912600D03*
D16*
X129540000Y-143177260D03*
X127040640Y-143177260D03*
D17*
X103378000Y-152400000D03*
X103378000Y-154300000D03*
D18*
X127442000Y-158750000D03*
X125542000Y-158750000D03*
D17*
X102616000Y-138242000D03*
X102616000Y-140142000D03*
D18*
X103190000Y-182118000D03*
X105090000Y-182118000D03*
X119446000Y-182118000D03*
X121346000Y-182118000D03*
D17*
X109220000Y-184084000D03*
X109220000Y-182184000D03*
X115570000Y-184084000D03*
X115570000Y-182184000D03*
X99314000Y-182184000D03*
X99314000Y-184084000D03*
X125730000Y-183830000D03*
X125730000Y-181930000D03*
D18*
X90998000Y-138938000D03*
X92898000Y-138938000D03*
X94808000Y-139700000D03*
X96708000Y-139700000D03*
D17*
X91694000Y-142052000D03*
X91694000Y-143952000D03*
D18*
X132014000Y-158750000D03*
X130114000Y-158750000D03*
X107376000Y-144272000D03*
X105476000Y-144272000D03*
D17*
X132842000Y-150688000D03*
X132842000Y-152588000D03*
X129286000Y-175580000D03*
X129286000Y-177480000D03*
D18*
X128016000Y-171958000D03*
X126116000Y-171958000D03*
X133416000Y-148336000D03*
X135316000Y-148336000D03*
X129352000Y-139446000D03*
X131252000Y-139446000D03*
D17*
X137922000Y-157480000D03*
X137922000Y-155580000D03*
D18*
X119126000Y-159385000D03*
X117226000Y-159385000D03*
D17*
X118110000Y-162560000D03*
X118110000Y-164460000D03*
D18*
X135504000Y-157226000D03*
X133604000Y-157226000D03*
X121798000Y-162814000D03*
X123698000Y-162814000D03*
D17*
X123190000Y-158308000D03*
X123190000Y-160208000D03*
D18*
X131252000Y-148082000D03*
X129352000Y-148082000D03*
X106426000Y-168910000D03*
X104526000Y-168910000D03*
X99944000Y-159893000D03*
X98044000Y-159893000D03*
X121285000Y-167132000D03*
X119385000Y-167132000D03*
D17*
X103378000Y-164404000D03*
X103378000Y-166304000D03*
D18*
X112268000Y-138811000D03*
X110368000Y-138811000D03*
D19*
X117094000Y-170808900D03*
X118105200Y-177784000D03*
X99045800Y-159893000D03*
X108528500Y-141625800D03*
X97937600Y-178308000D03*
X128820300Y-151353700D03*
X117602000Y-149558700D03*
X99473300Y-176772300D03*
X99314000Y-171196000D03*
X116840000Y-179578000D03*
X102108000Y-175747600D03*
X99157100Y-153213500D03*
X102217200Y-166449200D03*
X113328300Y-151151000D03*
X117295100Y-156485400D03*
X111099900Y-140928900D03*
X112271800Y-170137000D03*
X119159600Y-168332700D03*
X107555100Y-174239500D03*
X131723900Y-173313000D03*
X130110600Y-155317700D03*
X106507100Y-148007600D03*
X107027700Y-150383200D03*
X107973100Y-149327300D03*
X93400700Y-153670000D03*
X93200900Y-143935800D03*
X124206000Y-143764000D03*
X101801600Y-154292200D03*
X125393900Y-157582400D03*
X102487600Y-141068300D03*
X96868200Y-181216100D03*
X95828000Y-140005000D03*
X103886000Y-143357300D03*
X103699100Y-177528700D03*
X109216000Y-145861600D03*
X108427000Y-155001200D03*
X109414500Y-155004700D03*
X109356700Y-181263400D03*
X118775200Y-181078300D03*
X134091100Y-151101400D03*
X131280300Y-150686400D03*
X128717700Y-169432700D03*
X136370800Y-157226000D03*
X136770300Y-155467400D03*
X129348700Y-159740800D03*
X126925300Y-153833400D03*
X131682800Y-149426200D03*
X124002800Y-164717800D03*
X109113700Y-151843000D03*
D20*
X117094000Y-170808900D02*
X117971800Y-170808900D01*
X102212900Y-170808900D02*
X117094000Y-170808900D01*
X131318000Y-181798300D02*
X131064000Y-181544300D01*
X131318000Y-183642000D02*
X131318000Y-181798300D01*
X131064000Y-181069100D02*
X131064000Y-181544300D01*
X131064000Y-181069100D02*
X131064000Y-180594000D01*
X130774400Y-179643700D02*
X129286000Y-178155300D01*
X131064000Y-179643700D02*
X130774400Y-179643700D01*
X131064000Y-180594000D02*
X131064000Y-179643700D01*
X120374700Y-177784000D02*
X119445700Y-177784000D01*
X98719300Y-159893000D02*
X99045800Y-159893000D01*
X120374700Y-177784000D02*
X120396000Y-177784000D01*
X120396000Y-177784000D02*
X121346300Y-177784000D01*
X125984000Y-177768000D02*
X125033700Y-177768000D01*
X129286000Y-177480000D02*
X129286000Y-177817600D01*
X129286000Y-177817600D02*
X129286000Y-178155300D01*
X126983900Y-177817600D02*
X126934300Y-177768000D01*
X129286000Y-177817600D02*
X126983900Y-177817600D01*
X125984000Y-177768000D02*
X126934300Y-177768000D01*
X123730000Y-167386000D02*
X122904700Y-167386000D01*
X121285000Y-167132000D02*
X121285000Y-167495700D01*
X121285000Y-167495700D02*
X121285000Y-167619600D01*
X122671100Y-170266800D02*
X122671100Y-167619600D01*
X123412000Y-171007700D02*
X122671100Y-170266800D01*
X121285000Y-167619600D02*
X122671100Y-167619600D01*
X122671100Y-167619600D02*
X122904700Y-167386000D01*
X98381700Y-159893000D02*
X98719300Y-159893000D01*
X123412000Y-171595400D02*
X123412000Y-171007700D01*
X122023700Y-177106600D02*
X123412000Y-177106600D01*
X121346300Y-177784000D02*
X122023700Y-177106600D01*
X124372300Y-177106600D02*
X125033700Y-177768000D01*
X123412000Y-177106600D02*
X124372300Y-177106600D01*
X123412000Y-177106600D02*
X123412000Y-171958000D01*
X123412000Y-171958000D02*
X123412000Y-171595400D01*
X119445700Y-177784000D02*
X118105200Y-177784000D01*
X110368000Y-138811000D02*
X110368000Y-139786300D01*
X110368000Y-139786300D02*
X108528500Y-141625800D01*
X91694000Y-160274000D02*
X92882900Y-160274000D01*
X98381700Y-159893000D02*
X98044000Y-159893000D01*
X98044000Y-159893000D02*
X97368700Y-159893000D01*
X117971800Y-170808900D02*
X121285000Y-167495700D01*
X98044000Y-166640000D02*
X102212900Y-170808900D01*
X98044000Y-166640000D02*
X98044000Y-165814700D01*
X92882900Y-160645600D02*
X92882900Y-160274000D01*
X93700200Y-161462900D02*
X92882900Y-160645600D01*
X95873300Y-161462900D02*
X93700200Y-161462900D01*
X95873300Y-161388400D02*
X95873300Y-161462900D01*
X97368700Y-159893000D02*
X95873300Y-161388400D01*
X95873300Y-163644000D02*
X98044000Y-165814700D01*
X95873300Y-161462900D02*
X95873300Y-163644000D01*
X93066700Y-148694000D02*
X102616000Y-148694000D01*
X91948000Y-149812700D02*
X93066700Y-148694000D01*
X91948000Y-150638000D02*
X91948000Y-149812700D01*
X120396000Y-150384000D02*
X120396000Y-149558700D01*
X127025300Y-149558700D02*
X128820300Y-151353700D01*
X120396000Y-149558700D02*
X127025300Y-149558700D01*
X102616000Y-148574000D02*
X102616000Y-148634000D01*
X102616000Y-148634000D02*
X102616000Y-148694000D01*
X108331000Y-159258000D02*
X109156300Y-159258000D01*
X109156300Y-163702600D02*
X109791700Y-164338000D01*
X109156300Y-159258000D02*
X109156300Y-163702600D01*
X110617000Y-164338000D02*
X109791700Y-164338000D01*
X91535300Y-151463300D02*
X91948000Y-151463300D01*
X90976600Y-152022000D02*
X91535300Y-151463300D01*
X90976600Y-155827700D02*
X90976600Y-152022000D01*
X94234000Y-159085100D02*
X90976600Y-155827700D01*
X94234000Y-160274000D02*
X94234000Y-159085100D01*
X91948000Y-150638000D02*
X91948000Y-151463300D01*
X117602000Y-149558700D02*
X120396000Y-149558700D01*
X106402300Y-150695300D02*
X106402300Y-149755600D01*
X106771900Y-151064900D02*
X106402300Y-150695300D01*
X109223100Y-151064900D02*
X106771900Y-151064900D01*
X110039900Y-151881700D02*
X109223100Y-151064900D01*
X110039900Y-157549100D02*
X110039900Y-151881700D01*
X109156300Y-158432700D02*
X110039900Y-157549100D01*
X109156300Y-159258000D02*
X109156300Y-158432700D01*
X105340700Y-148694000D02*
X102616000Y-148694000D01*
X106402300Y-149755600D02*
X105340700Y-148694000D01*
X117208100Y-149952600D02*
X117602000Y-149558700D01*
X107714100Y-149952600D02*
X117208100Y-149952600D01*
X107517100Y-149755600D02*
X107714100Y-149952600D01*
X106402300Y-149755600D02*
X107517100Y-149755600D01*
X99252600Y-176772300D02*
X98994300Y-176514000D01*
X99473300Y-176772300D02*
X99252600Y-176772300D01*
X98044000Y-176514000D02*
X98994300Y-176514000D01*
X98044000Y-172466000D02*
X99314000Y-171196000D01*
X117479800Y-178938200D02*
X116840000Y-179578000D01*
X117479800Y-178938200D02*
X117479800Y-178053100D01*
X94605600Y-164002900D02*
X94234000Y-164002900D01*
X95422900Y-164820200D02*
X94605600Y-164002900D01*
X95422900Y-165606200D02*
X95422900Y-164820200D01*
X97631400Y-167814700D02*
X95422900Y-165606200D01*
X98044000Y-167814700D02*
X97631400Y-167814700D01*
X94234000Y-162814000D02*
X94234000Y-164002900D01*
X107170200Y-138912600D02*
X107170200Y-141738600D01*
X107804600Y-142372900D02*
X107170200Y-141738600D01*
X98044000Y-168227300D02*
X98044000Y-167814700D01*
X98044000Y-168227300D02*
X98044000Y-168640000D01*
X91948000Y-152638000D02*
X91948000Y-152225300D01*
X96411000Y-152225300D02*
X96585700Y-152400000D01*
X91948000Y-152225300D02*
X96411000Y-152225300D01*
X97536000Y-152400000D02*
X96585700Y-152400000D01*
X102616000Y-146574000D02*
X102616000Y-146161300D01*
X118094000Y-144272000D02*
X118094000Y-143321700D01*
X124961100Y-138912600D02*
X125479900Y-138912600D01*
X124961100Y-138912600D02*
X124442200Y-138912600D01*
X134640300Y-138912600D02*
X133602600Y-138912600D01*
X133602600Y-138912600D02*
X132564900Y-138912600D01*
X136890000Y-142200000D02*
X136890000Y-145542000D01*
X133602600Y-138912600D02*
X136890000Y-142200000D01*
X108608900Y-143177300D02*
X107804600Y-142372900D01*
X109768600Y-143177300D02*
X108608900Y-143177300D01*
X98044000Y-168640000D02*
X98044000Y-169465300D01*
X98044000Y-174514000D02*
X98044000Y-172466000D01*
X98044000Y-172466000D02*
X98044000Y-169465300D01*
X98568000Y-139700000D02*
X98568000Y-140175100D01*
X98568000Y-140175100D02*
X98568000Y-140650300D01*
X97858400Y-140175100D02*
X97383300Y-139700000D01*
X98568000Y-140175100D02*
X97858400Y-140175100D01*
X96708000Y-139700000D02*
X97383300Y-139700000D01*
X132031500Y-139446000D02*
X132564900Y-138912600D01*
X131252000Y-139446000D02*
X132031500Y-139446000D01*
X128848200Y-138470600D02*
X126943100Y-140375700D01*
X129854500Y-138470600D02*
X128848200Y-138470600D01*
X130576700Y-139192800D02*
X129854500Y-138470600D01*
X130576700Y-139446000D02*
X130576700Y-139192800D01*
X125479900Y-138912600D02*
X126943100Y-140375700D01*
X127040600Y-140473300D02*
X127040600Y-143177300D01*
X126943100Y-140375700D02*
X127040600Y-140473300D01*
X131252000Y-139446000D02*
X130576700Y-139446000D01*
X98044000Y-174514000D02*
X98044000Y-175339300D01*
X106585300Y-143592200D02*
X107804600Y-142372900D01*
X106585300Y-144638800D02*
X106585300Y-143592200D01*
X105949800Y-145274300D02*
X106585300Y-144638800D01*
X102616000Y-145274300D02*
X105949800Y-145274300D01*
X102616000Y-146161300D02*
X102616000Y-145274300D01*
X102616000Y-144698300D02*
X98568000Y-140650300D01*
X102616000Y-145274300D02*
X102616000Y-144698300D01*
X111384500Y-141561400D02*
X109768600Y-143177300D01*
X117368300Y-141561400D02*
X111384500Y-141561400D01*
X117368300Y-142596000D02*
X118094000Y-143321700D01*
X117368300Y-141561400D02*
X117368300Y-142596000D01*
X105950000Y-163322000D02*
X106362700Y-163322000D01*
X102521000Y-159639000D02*
X103346300Y-159639000D01*
X129318000Y-183642000D02*
X129730700Y-183642000D01*
X129730700Y-183642000D02*
X130143300Y-183642000D01*
X129064000Y-182975300D02*
X129064000Y-180594000D01*
X129730700Y-183642000D02*
X129064000Y-182975300D01*
X120396000Y-175784000D02*
X119445700Y-175784000D01*
X120586700Y-174768000D02*
X120396000Y-174958700D01*
X120586700Y-171958000D02*
X120586700Y-174768000D01*
X121412000Y-171958000D02*
X120586700Y-171958000D01*
X120396000Y-175784000D02*
X120396000Y-174958700D01*
X117368300Y-138912600D02*
X117368300Y-141561400D01*
X124442200Y-138912600D02*
X122366800Y-138912600D01*
X117368300Y-138912600D02*
X122366800Y-138912600D01*
X130143300Y-184054600D02*
X130143300Y-183642000D01*
X130681100Y-184592400D02*
X130143300Y-184054600D01*
X131965500Y-184592400D02*
X130681100Y-184592400D01*
X132143400Y-184414500D02*
X131965500Y-184592400D01*
X132143400Y-178285200D02*
X132143400Y-184414500D01*
X130113600Y-176255400D02*
X132143400Y-178285200D01*
X127421700Y-176255400D02*
X126934300Y-175768000D01*
X130113600Y-176255400D02*
X127421700Y-176255400D01*
X125984000Y-175768000D02*
X126934300Y-175768000D01*
X125984000Y-175768000D02*
X125984000Y-174942700D01*
X103346300Y-160305600D02*
X106362700Y-163322000D01*
X103346300Y-159639000D02*
X103346300Y-160305600D01*
X111791700Y-164750600D02*
X111791700Y-164338000D01*
X111247000Y-165295300D02*
X111791700Y-164750600D01*
X108336000Y-165295300D02*
X111247000Y-165295300D01*
X106362700Y-163322000D02*
X108336000Y-165295300D01*
X112617000Y-164338000D02*
X111791700Y-164338000D01*
X126116000Y-174810700D02*
X125984000Y-174942700D01*
X126116000Y-171958000D02*
X126116000Y-174810700D01*
X126116000Y-171958000D02*
X126116000Y-170982700D01*
X120396000Y-152384000D02*
X120871200Y-152384000D01*
X137414000Y-160274000D02*
X137414000Y-161462900D01*
X131064000Y-175305000D02*
X130113600Y-176255400D01*
X131064000Y-171926000D02*
X131064000Y-175305000D01*
X137042400Y-161462900D02*
X137414000Y-161462900D01*
X136225100Y-162280200D02*
X137042400Y-161462900D01*
X136225100Y-163166200D02*
X136225100Y-162280200D01*
X135388300Y-164003000D02*
X136225100Y-163166200D01*
X134535100Y-164003000D02*
X135388300Y-164003000D01*
X133216900Y-165321200D02*
X134535100Y-164003000D01*
X133216900Y-169360400D02*
X133216900Y-165321200D01*
X131476600Y-171100700D02*
X133216900Y-169360400D01*
X131064000Y-171100700D02*
X131476600Y-171100700D01*
X131064000Y-171926000D02*
X131064000Y-171100700D01*
X117479800Y-178053100D02*
X117479800Y-177242500D01*
X120020700Y-180594000D02*
X117479800Y-178053100D01*
X129064000Y-180594000D02*
X120020700Y-180594000D01*
X118938300Y-175784000D02*
X119445700Y-175784000D01*
X117479800Y-177242500D02*
X118938300Y-175784000D01*
X113949200Y-177242500D02*
X113792000Y-177085300D01*
X117479800Y-177242500D02*
X113949200Y-177242500D01*
X113792000Y-176260000D02*
X113792000Y-177085300D01*
X126238000Y-152384000D02*
X125287700Y-152384000D01*
X120871200Y-152384000D02*
X125287700Y-152384000D01*
X101699700Y-175339300D02*
X98044000Y-175339300D01*
X102108000Y-175747600D02*
X101699700Y-175339300D01*
X106426000Y-176006000D02*
X105475700Y-176006000D01*
X105217300Y-175747600D02*
X102108000Y-175747600D01*
X105475700Y-176006000D02*
X105217300Y-175747600D01*
X125984000Y-162814000D02*
X125984000Y-163764300D01*
X120396000Y-152384000D02*
X120396000Y-153209300D01*
X125984000Y-163775700D02*
X125984000Y-163764300D01*
X125668300Y-164091400D02*
X125984000Y-163775700D01*
X125730000Y-170596700D02*
X125730000Y-167386000D01*
X126116000Y-170982700D02*
X125730000Y-170596700D01*
X125668300Y-166374000D02*
X125668300Y-164091400D01*
X125730000Y-166435700D02*
X125668300Y-166374000D01*
X125730000Y-167386000D02*
X125730000Y-166910800D01*
X125730000Y-166910800D02*
X125730000Y-166435700D01*
X129189900Y-166910800D02*
X129222700Y-166878000D01*
X125730000Y-166910800D02*
X129189900Y-166910800D01*
X130048000Y-166878000D02*
X129222700Y-166878000D01*
X107934000Y-179324000D02*
X107934000Y-178092100D01*
X108940800Y-177085300D02*
X113792000Y-177085300D01*
X107934000Y-178092100D02*
X108940800Y-177085300D01*
X106673200Y-176831300D02*
X106426000Y-176831300D01*
X107934000Y-178092100D02*
X106673200Y-176831300D01*
X106426000Y-176006000D02*
X106426000Y-176831300D01*
X98486300Y-152542700D02*
X98486300Y-152400000D01*
X99157100Y-153213500D02*
X98486300Y-152542700D01*
X97536000Y-152400000D02*
X98486300Y-152400000D01*
X112617000Y-164338000D02*
X113442300Y-164338000D01*
X117112500Y-161666900D02*
X117112500Y-163090300D01*
X117920500Y-160858900D02*
X117112500Y-161666900D01*
X117920500Y-155684800D02*
X117920500Y-160858900D01*
X120396000Y-153209300D02*
X117920500Y-155684800D01*
X122964800Y-164091400D02*
X125668300Y-164091400D01*
X122814300Y-164241900D02*
X122964800Y-164091400D01*
X120080500Y-164241900D02*
X122814300Y-164241900D01*
X119623100Y-163784500D02*
X120080500Y-164241900D01*
X117806700Y-163784500D02*
X119623100Y-163784500D01*
X117112500Y-163090300D02*
X117806700Y-163784500D01*
X112649000Y-161671000D02*
X112649000Y-162621300D01*
X113469600Y-163441800D02*
X112649000Y-162621300D01*
X113821100Y-163090300D02*
X113469600Y-163441800D01*
X117112500Y-163090300D02*
X113821100Y-163090300D01*
X113442300Y-163469100D02*
X113442300Y-164338000D01*
X113469600Y-163441800D02*
X113442300Y-163469100D01*
X111156300Y-161003600D02*
X111823700Y-161671000D01*
X111156300Y-159258000D02*
X111156300Y-161003600D01*
X110331000Y-159258000D02*
X111156300Y-159258000D01*
X112649000Y-161671000D02*
X111823700Y-161671000D01*
X103378000Y-166304000D02*
X102402700Y-166304000D01*
X102257500Y-166449200D02*
X102217200Y-166449200D01*
X102402700Y-166304000D02*
X102257500Y-166449200D01*
X117295100Y-155117800D02*
X113328300Y-151151000D01*
X117295100Y-156485400D02*
X117295100Y-155117800D01*
X112242500Y-139786300D02*
X111099900Y-140928900D01*
X112268000Y-139786300D02*
X112242500Y-139786300D01*
X112268000Y-138811000D02*
X112268000Y-139786300D01*
X104243800Y-170137000D02*
X112271800Y-170137000D01*
X99944000Y-165837200D02*
X104243800Y-170137000D01*
X99944000Y-159893000D02*
X99944000Y-165837200D01*
X119385000Y-167132000D02*
X119385000Y-168107300D01*
X119385000Y-168107300D02*
X119159600Y-168332700D01*
X106426000Y-174006000D02*
X107376300Y-174006000D01*
X113792000Y-174260000D02*
X112841700Y-174260000D01*
X107376300Y-174060700D02*
X107555100Y-174239500D01*
X107376300Y-174006000D02*
X107376300Y-174060700D01*
X112821200Y-174239500D02*
X112841700Y-174260000D01*
X107555100Y-174239500D02*
X112821200Y-174239500D01*
X125730000Y-183830000D02*
X125730000Y-184167600D01*
X116628900Y-184167600D02*
X116545300Y-184084000D01*
X125730000Y-184167600D02*
X116628900Y-184167600D01*
X115570000Y-184084000D02*
X116545300Y-184084000D01*
X132653700Y-174242800D02*
X131723900Y-173313000D01*
X132653700Y-184541100D02*
X132653700Y-174242800D01*
X132144500Y-185050300D02*
X132653700Y-184541100D01*
X126275000Y-185050300D02*
X132144500Y-185050300D01*
X125730000Y-184505300D02*
X126275000Y-185050300D01*
X125730000Y-184167600D02*
X125730000Y-184505300D01*
X129352000Y-148082000D02*
X130027300Y-148082000D01*
X130110600Y-148165300D02*
X130027300Y-148082000D01*
X130110600Y-155317700D02*
X130110600Y-148165300D01*
X131064000Y-165068700D02*
X131064000Y-169926000D01*
X128809300Y-162814000D02*
X131064000Y-165068700D01*
X127984000Y-162814000D02*
X128809300Y-162814000D01*
X130114000Y-155321100D02*
X130114000Y-158750000D01*
X130110600Y-155317700D02*
X130114000Y-155321100D01*
X130114000Y-161509300D02*
X128809300Y-162814000D01*
X130114000Y-158750000D02*
X130114000Y-161509300D01*
X127158700Y-162401400D02*
X127158700Y-162814000D01*
X124965300Y-160208000D02*
X127158700Y-162401400D01*
X123190000Y-160208000D02*
X124965300Y-160208000D01*
X127984000Y-162814000D02*
X127158700Y-162814000D01*
X134890000Y-145542000D02*
X134890000Y-146017100D01*
X135316000Y-148336000D02*
X135316000Y-147360700D01*
X107946700Y-146568000D02*
X134890000Y-146568000D01*
X106507100Y-148007600D02*
X107946700Y-146568000D01*
X134890000Y-146017100D02*
X134890000Y-146568000D01*
X134890000Y-146934700D02*
X135316000Y-147360700D01*
X134890000Y-146568000D02*
X134890000Y-146934700D01*
X114649000Y-159914700D02*
X115178700Y-159385000D01*
X114649000Y-161671000D02*
X114649000Y-159914700D01*
X115178700Y-159385000D02*
X117226000Y-159385000D01*
X115178700Y-156376400D02*
X115178700Y-159385000D01*
X109205200Y-150402900D02*
X115178700Y-156376400D01*
X107047400Y-150402900D02*
X109205200Y-150402900D01*
X107027700Y-150383200D02*
X107047400Y-150402900D01*
X133604000Y-158654300D02*
X131994600Y-160263700D01*
X133604000Y-157226000D02*
X133604000Y-158654300D01*
X131223300Y-159492500D02*
X131994600Y-160263700D01*
X131223300Y-154882300D02*
X131223300Y-159492500D01*
X130561000Y-154220000D02*
X131223300Y-154882300D01*
X130561000Y-147749000D02*
X130561000Y-154220000D01*
X129918600Y-147106600D02*
X130561000Y-147749000D01*
X110193800Y-147106600D02*
X129918600Y-147106600D01*
X107973100Y-149327300D02*
X110193800Y-147106600D01*
X132048000Y-160333400D02*
X132048000Y-166878000D01*
X131998800Y-160284200D02*
X132048000Y-160333400D01*
X131998800Y-160268000D02*
X131998800Y-160284200D01*
X131994600Y-160263700D02*
X131998800Y-160268000D01*
X91694000Y-143952000D02*
X92669300Y-143952000D01*
X92685500Y-143935800D02*
X93200900Y-143935800D01*
X92669300Y-143952000D02*
X92685500Y-143935800D01*
X96664500Y-147399400D02*
X93200900Y-143935800D01*
X106231000Y-147399400D02*
X96664500Y-147399400D01*
X108404000Y-145226400D02*
X106231000Y-147399400D01*
X110218900Y-145226400D02*
X108404000Y-145226400D01*
X112268000Y-143177300D02*
X110218900Y-145226400D01*
X129540000Y-140609300D02*
X129352000Y-140421300D01*
X129540000Y-143177300D02*
X129540000Y-140609300D01*
X129352000Y-139446000D02*
X129352000Y-140421300D01*
X102394900Y-154292200D02*
X101801600Y-154292200D01*
X102402700Y-154300000D02*
X102394900Y-154292200D01*
X103378000Y-154300000D02*
X102402700Y-154300000D01*
X125393900Y-157626600D02*
X125542000Y-157774700D01*
X125393900Y-157582400D02*
X125393900Y-157626600D01*
X125542000Y-158750000D02*
X125542000Y-157774700D01*
X102616000Y-140939900D02*
X102487600Y-141068300D01*
X102616000Y-140142000D02*
X102616000Y-140939900D01*
X96868200Y-168778900D02*
X96868200Y-180594000D01*
X96868200Y-180594000D02*
X96868200Y-181216100D01*
X90998000Y-140680700D02*
X90998000Y-138938000D01*
X91694000Y-141376700D02*
X90998000Y-140680700D01*
X91694000Y-142052000D02*
X91694000Y-141714300D01*
X91694000Y-141714300D02*
X91694000Y-141376700D01*
X99060800Y-183408700D02*
X99314000Y-183408700D01*
X96868200Y-181216100D02*
X99060800Y-183408700D01*
X94713300Y-166624000D02*
X96868200Y-168778900D01*
X93800700Y-166624000D02*
X94713300Y-166624000D01*
X93045000Y-165868300D02*
X93800700Y-166624000D01*
X93045000Y-162460400D02*
X93045000Y-165868300D01*
X92128600Y-161544000D02*
X93045000Y-162460400D01*
X90736100Y-161544000D02*
X92128600Y-161544000D01*
X90505000Y-161312900D02*
X90736100Y-161544000D01*
X90505000Y-142903300D02*
X90505000Y-161312900D01*
X91694000Y-141714300D02*
X90505000Y-142903300D01*
X99314000Y-184084000D02*
X99314000Y-183746300D01*
X99314000Y-183746300D02*
X99314000Y-183408700D01*
X107907000Y-183746300D02*
X108244700Y-184084000D01*
X99314000Y-183746300D02*
X107907000Y-183746300D01*
X109220000Y-184084000D02*
X108244700Y-184084000D01*
X94132700Y-139497400D02*
X93573300Y-138938000D01*
X94132700Y-139700000D02*
X94132700Y-139497400D01*
X92898000Y-138938000D02*
X93573300Y-138938000D01*
X94808000Y-139700000D02*
X94132700Y-139700000D01*
X95788300Y-140005000D02*
X95828000Y-140005000D01*
X95483300Y-139700000D02*
X95788300Y-140005000D01*
X94808000Y-139700000D02*
X95483300Y-139700000D01*
X103886000Y-143357300D02*
X104800700Y-144272000D01*
X100980700Y-140452000D02*
X103886000Y-143357300D01*
X100568000Y-139700000D02*
X100980700Y-139700000D01*
X105476000Y-144272000D02*
X104800700Y-144272000D01*
X100980700Y-138902000D02*
X101640700Y-138242000D01*
X100980700Y-139700000D02*
X100980700Y-138902000D01*
X102616000Y-138242000D02*
X101640700Y-138242000D01*
X100980700Y-139700000D02*
X100980700Y-140452000D01*
X127442000Y-158750000D02*
X127442000Y-157774700D01*
X126238000Y-150384000D02*
X126238000Y-151209300D01*
X123698000Y-162814000D02*
X123022700Y-162814000D01*
X126650600Y-151209300D02*
X126238000Y-151209300D01*
X127576600Y-152135300D02*
X126650600Y-151209300D01*
X127576600Y-156633600D02*
X127576600Y-152135300D01*
X127342500Y-156867700D02*
X127576600Y-156633600D01*
X127442000Y-156967200D02*
X127342500Y-156867700D01*
X127442000Y-157774700D02*
X127442000Y-156967200D01*
X123022700Y-163067200D02*
X123022700Y-162814000D01*
X122300500Y-163789400D02*
X123022700Y-163067200D01*
X121291900Y-163789400D02*
X122300500Y-163789400D01*
X121105600Y-163603100D02*
X121291900Y-163789400D01*
X121105600Y-158929400D02*
X121105600Y-163603100D01*
X123167300Y-156867700D02*
X121105600Y-158929400D01*
X127342500Y-156867700D02*
X123167300Y-156867700D01*
X103378000Y-152400000D02*
X102402700Y-152400000D01*
X97536000Y-150400000D02*
X98486300Y-150400000D01*
X101444500Y-153358200D02*
X98486300Y-150400000D01*
X101444500Y-153358200D02*
X102402700Y-152400000D01*
X103793700Y-168910000D02*
X104526000Y-168910000D01*
X101156200Y-166272500D02*
X103793700Y-168910000D01*
X101156200Y-153646500D02*
X101156200Y-166272500D01*
X101444500Y-153358200D02*
X101156200Y-153646500D01*
X105934000Y-179324000D02*
X105108700Y-179324000D01*
X105108700Y-178938300D02*
X103699100Y-177528700D01*
X105108700Y-179324000D02*
X105108700Y-178938300D01*
X113679100Y-145861600D02*
X109216000Y-145861600D01*
X115268700Y-144272000D02*
X113679100Y-145861600D01*
X116094000Y-144272000D02*
X115268700Y-144272000D01*
X104521000Y-159639000D02*
X104521000Y-158688700D01*
X104739500Y-158688700D02*
X108427000Y-155001200D01*
X104521000Y-158688700D02*
X104739500Y-158688700D01*
X107950000Y-163322000D02*
X107950000Y-162371700D01*
X107505600Y-156913600D02*
X109414500Y-155004700D01*
X107505600Y-161927300D02*
X107505600Y-156913600D01*
X107950000Y-162371700D02*
X107505600Y-161927300D01*
X102448700Y-182184000D02*
X102514700Y-182118000D01*
X99314000Y-182184000D02*
X102448700Y-182184000D01*
X103190000Y-182118000D02*
X102514700Y-182118000D01*
X105090000Y-182118000D02*
X105765300Y-182118000D01*
X108178700Y-182118000D02*
X105765300Y-182118000D01*
X108244700Y-182184000D02*
X108178700Y-182118000D01*
X109220000Y-182184000D02*
X108244700Y-182184000D01*
X109220000Y-181400100D02*
X109356700Y-181263400D01*
X109220000Y-182184000D02*
X109220000Y-181400100D01*
X119446000Y-182118000D02*
X118770700Y-182118000D01*
X118704700Y-182184000D02*
X118770700Y-182118000D01*
X115570000Y-182184000D02*
X118704700Y-182184000D01*
X118770700Y-181082800D02*
X118775200Y-181078300D01*
X118770700Y-182118000D02*
X118770700Y-181082800D01*
X122209300Y-181930000D02*
X122021300Y-182118000D01*
X125730000Y-181930000D02*
X122209300Y-181930000D01*
X121346000Y-182118000D02*
X122021300Y-182118000D01*
X132842000Y-152588000D02*
X132842000Y-153263300D01*
X132689300Y-153416000D02*
X132842000Y-153263300D01*
X132689300Y-158750000D02*
X132689300Y-153416000D01*
X132014000Y-158750000D02*
X132689300Y-158750000D01*
X132842000Y-152588000D02*
X132842000Y-151912700D01*
X107376000Y-144272000D02*
X108051300Y-144272000D01*
X108085200Y-144305900D02*
X108051300Y-144272000D01*
X110248300Y-144305900D02*
X108085200Y-144305900D01*
X111142500Y-143411700D02*
X110248300Y-144305900D01*
X111142500Y-142678900D02*
X111142500Y-143411700D01*
X111809600Y-142011800D02*
X111142500Y-142678900D01*
X115473300Y-142011800D02*
X111809600Y-142011800D01*
X116974800Y-143513300D02*
X115473300Y-142011800D01*
X116974800Y-144819000D02*
X116974800Y-143513300D01*
X117378200Y-145222400D02*
X116974800Y-144819000D01*
X127573800Y-145222400D02*
X117378200Y-145222400D01*
X128204600Y-144591600D02*
X127573800Y-145222400D01*
X135564600Y-144591600D02*
X128204600Y-144591600D01*
X135999100Y-145026100D02*
X135564600Y-144591600D01*
X135999100Y-149193400D02*
X135999100Y-145026100D01*
X134091100Y-151101400D02*
X135999100Y-149193400D01*
X133279800Y-151912700D02*
X134091100Y-151101400D01*
X132842000Y-151912700D02*
X133279800Y-151912700D01*
X133416000Y-148336000D02*
X133416000Y-149311300D01*
X133416000Y-149438700D02*
X133416000Y-149311300D01*
X132842000Y-150012700D02*
X133416000Y-149438700D01*
X132842000Y-150688000D02*
X132842000Y-150012700D01*
X131865100Y-150686400D02*
X131866700Y-150688000D01*
X131280300Y-150686400D02*
X131865100Y-150686400D01*
X132842000Y-150688000D02*
X131866700Y-150688000D01*
X128016000Y-173634700D02*
X129286000Y-174904700D01*
X128016000Y-171958000D02*
X128016000Y-173634700D01*
X129286000Y-175580000D02*
X129286000Y-174904700D01*
X128016000Y-171958000D02*
X128016000Y-170982700D01*
X128717700Y-170281000D02*
X128717700Y-169432700D01*
X128016000Y-170982700D02*
X128717700Y-170281000D01*
X135504000Y-157226000D02*
X136179300Y-157226000D01*
X136179300Y-157226000D02*
X136370800Y-157226000D01*
X136692700Y-157226000D02*
X136946700Y-157480000D01*
X136370800Y-157226000D02*
X136692700Y-157226000D01*
X137922000Y-157480000D02*
X136946700Y-157480000D01*
X137922000Y-155580000D02*
X136946700Y-155580000D01*
X136834100Y-155467400D02*
X136770300Y-155467400D01*
X136946700Y-155580000D02*
X136834100Y-155467400D01*
X123190000Y-158308000D02*
X123190000Y-158983300D01*
X121798000Y-160124900D02*
X121798000Y-161838700D01*
X122939600Y-158983300D02*
X121798000Y-160124900D01*
X123190000Y-158983300D02*
X122939600Y-158983300D01*
X121798000Y-162814000D02*
X121798000Y-161838700D01*
X124976700Y-159740800D02*
X129348700Y-159740800D01*
X124219200Y-158983300D02*
X124976700Y-159740800D01*
X123190000Y-158983300D02*
X124219200Y-158983300D01*
X118110000Y-162560000D02*
X118110000Y-161884700D01*
X119126000Y-160868700D02*
X119126000Y-160360300D01*
X118110000Y-161884700D02*
X119126000Y-160868700D01*
X119126000Y-159385000D02*
X119126000Y-160360300D01*
X119126000Y-159385000D02*
X119801300Y-159385000D01*
X125352900Y-153833400D02*
X126925300Y-153833400D01*
X119801300Y-159385000D02*
X125352900Y-153833400D01*
X131313900Y-149057300D02*
X131252000Y-149057300D01*
X131682800Y-149426200D02*
X131313900Y-149057300D01*
X131252000Y-148082000D02*
X131252000Y-149057300D01*
X114335300Y-168910000D02*
X118110000Y-165135300D01*
X106426000Y-168910000D02*
X114335300Y-168910000D01*
X118110000Y-164460000D02*
X118110000Y-165135300D01*
X118110000Y-164460000D02*
X119085300Y-164460000D01*
X119343100Y-164717800D02*
X124002800Y-164717800D01*
X119085300Y-164460000D02*
X119343100Y-164717800D01*
X103378000Y-164404000D02*
X103378000Y-163728700D01*
X108709200Y-151843000D02*
X109113700Y-151843000D01*
X101695600Y-158856600D02*
X108709200Y-151843000D01*
X101695600Y-162046300D02*
X101695600Y-158856600D01*
X103378000Y-163728700D02*
X101695600Y-162046300D01*
D21*
G36*
X121911100Y-170266800D02*
X121968952Y-170557639D01*
X122072086Y-170711991D01*
X122038309Y-170698000D01*
X121697750Y-170698000D01*
X121539000Y-170856750D01*
X121539000Y-171831000D01*
X121559000Y-171831000D01*
X121559000Y-172085000D01*
X121539000Y-172085000D01*
X121539000Y-173059250D01*
X121697750Y-173218000D01*
X122038309Y-173218000D01*
X122271698Y-173121327D01*
X122412936Y-172980090D01*
X122447910Y-173034441D01*
X122652000Y-173173890D01*
X122652000Y-176346600D01*
X122023700Y-176346600D01*
X121732860Y-176404452D01*
X121629941Y-176473220D01*
X121656000Y-176410309D01*
X121656000Y-176069750D01*
X121497250Y-175911000D01*
X120523000Y-175911000D01*
X120523000Y-175931000D01*
X120269000Y-175931000D01*
X120269000Y-175911000D01*
X119294750Y-175911000D01*
X119136000Y-176069750D01*
X119136000Y-176410309D01*
X119232673Y-176643698D01*
X119373910Y-176784936D01*
X119319559Y-176819910D01*
X119180110Y-177024000D01*
X118667663Y-177024000D01*
X118635527Y-176991808D01*
X118291999Y-176849162D01*
X117920033Y-176848838D01*
X117576257Y-176990883D01*
X117313008Y-177253673D01*
X117170362Y-177597201D01*
X117170038Y-177969167D01*
X117312083Y-178312943D01*
X117574873Y-178576192D01*
X117918401Y-178718838D01*
X118290367Y-178719162D01*
X118634143Y-178577117D01*
X118667318Y-178544000D01*
X119183721Y-178544000D01*
X119306910Y-178735441D01*
X119519110Y-178880431D01*
X119771000Y-178931440D01*
X121021000Y-178931440D01*
X121256317Y-178887162D01*
X121472441Y-178748090D01*
X121617431Y-178535890D01*
X121627100Y-178488145D01*
X121637139Y-178486148D01*
X121883701Y-178321401D01*
X122338502Y-177866600D01*
X124057498Y-177866600D01*
X124496299Y-178305401D01*
X124742861Y-178470148D01*
X124749859Y-178471540D01*
X124755838Y-178503317D01*
X124894910Y-178719441D01*
X125107110Y-178864431D01*
X125359000Y-178915440D01*
X126609000Y-178915440D01*
X126844317Y-178871162D01*
X127060441Y-178732090D01*
X127165999Y-178577600D01*
X128671691Y-178577600D01*
X128748599Y-178692701D01*
X129389898Y-179334000D01*
X129349750Y-179334000D01*
X129191000Y-179492750D01*
X129191000Y-180467000D01*
X129211000Y-180467000D01*
X129211000Y-180721000D01*
X129191000Y-180721000D01*
X129191000Y-181695250D01*
X129349750Y-181854000D01*
X129690309Y-181854000D01*
X129923698Y-181757327D01*
X130064936Y-181616090D01*
X130099910Y-181670441D01*
X130312110Y-181815431D01*
X130359855Y-181825100D01*
X130361852Y-181835139D01*
X130526599Y-182081701D01*
X130558000Y-182113102D01*
X130558000Y-182429721D01*
X130366559Y-182552910D01*
X130320031Y-182621006D01*
X130177698Y-182478673D01*
X129944309Y-182382000D01*
X129603750Y-182382000D01*
X129445000Y-182540750D01*
X129445000Y-183515000D01*
X129465000Y-183515000D01*
X129465000Y-183769000D01*
X129445000Y-183769000D01*
X129445000Y-183789000D01*
X129191000Y-183789000D01*
X129191000Y-183769000D01*
X128341750Y-183769000D01*
X128183000Y-183927750D01*
X128183000Y-184290300D01*
X127005104Y-184290300D01*
X127027440Y-184180000D01*
X127027440Y-183480000D01*
X126983162Y-183244683D01*
X126844090Y-183028559D01*
X126642312Y-182890690D01*
X128183000Y-182890690D01*
X128183000Y-183356250D01*
X128341750Y-183515000D01*
X129191000Y-183515000D01*
X129191000Y-182540750D01*
X129032250Y-182382000D01*
X128691691Y-182382000D01*
X128458302Y-182478673D01*
X128279673Y-182657301D01*
X128183000Y-182890690D01*
X126642312Y-182890690D01*
X126631890Y-182883569D01*
X126618803Y-182880919D01*
X126831441Y-182744090D01*
X126976431Y-182531890D01*
X127027440Y-182280000D01*
X127027440Y-181580000D01*
X126983162Y-181344683D01*
X126844090Y-181128559D01*
X126631890Y-180983569D01*
X126380000Y-180932560D01*
X125080000Y-180932560D01*
X124844683Y-180976838D01*
X124628559Y-181115910D01*
X124591601Y-181170000D01*
X122258827Y-181170000D01*
X122160090Y-181016559D01*
X121959864Y-180879750D01*
X127929000Y-180879750D01*
X127929000Y-181345310D01*
X128025673Y-181578699D01*
X128204302Y-181757327D01*
X128437691Y-181854000D01*
X128778250Y-181854000D01*
X128937000Y-181695250D01*
X128937000Y-180721000D01*
X128087750Y-180721000D01*
X127929000Y-180879750D01*
X121959864Y-180879750D01*
X121947890Y-180871569D01*
X121696000Y-180820560D01*
X120996000Y-180820560D01*
X120760683Y-180864838D01*
X120544559Y-181003910D01*
X120399569Y-181216110D01*
X120396919Y-181229197D01*
X120260090Y-181016559D01*
X120047890Y-180871569D01*
X119796000Y-180820560D01*
X119680376Y-180820560D01*
X119568317Y-180549357D01*
X119305527Y-180286108D01*
X118961999Y-180143462D01*
X118590033Y-180143138D01*
X118246257Y-180285183D01*
X117983008Y-180547973D01*
X117840362Y-180891501D01*
X117840038Y-181263467D01*
X117906369Y-181424000D01*
X116710757Y-181424000D01*
X116684090Y-181382559D01*
X116471890Y-181237569D01*
X116220000Y-181186560D01*
X114920000Y-181186560D01*
X114684683Y-181230838D01*
X114468559Y-181369910D01*
X114323569Y-181582110D01*
X114272560Y-181834000D01*
X114272560Y-182534000D01*
X114316838Y-182769317D01*
X114455910Y-182985441D01*
X114668110Y-183130431D01*
X114681197Y-183133081D01*
X114468559Y-183269910D01*
X114323569Y-183482110D01*
X114272560Y-183734000D01*
X114272560Y-184434000D01*
X114316838Y-184669317D01*
X114455910Y-184885441D01*
X114668110Y-185030431D01*
X114710425Y-185039000D01*
X110095549Y-185039000D01*
X110105317Y-185037162D01*
X110321441Y-184898090D01*
X110466431Y-184685890D01*
X110517440Y-184434000D01*
X110517440Y-183734000D01*
X110473162Y-183498683D01*
X110334090Y-183282559D01*
X110121890Y-183137569D01*
X110108803Y-183134919D01*
X110321441Y-182998090D01*
X110466431Y-182785890D01*
X110517440Y-182534000D01*
X110517440Y-181834000D01*
X110473162Y-181598683D01*
X110334090Y-181382559D01*
X110291622Y-181353542D01*
X110291862Y-181078233D01*
X110149817Y-180734457D01*
X109887027Y-180471208D01*
X109543499Y-180328562D01*
X109171533Y-180328238D01*
X108827757Y-180470283D01*
X108564508Y-180733073D01*
X108421862Y-181076601D01*
X108421742Y-181214457D01*
X108334683Y-181230838D01*
X108137068Y-181358000D01*
X106066742Y-181358000D01*
X106043162Y-181232683D01*
X105904090Y-181016559D01*
X105691890Y-180871569D01*
X105440000Y-180820560D01*
X104740000Y-180820560D01*
X104504683Y-180864838D01*
X104288559Y-181003910D01*
X104143569Y-181216110D01*
X104140919Y-181229197D01*
X104004090Y-181016559D01*
X103791890Y-180871569D01*
X103540000Y-180820560D01*
X102840000Y-180820560D01*
X102604683Y-180864838D01*
X102388559Y-181003910D01*
X102243569Y-181216110D01*
X102201470Y-181424000D01*
X100454757Y-181424000D01*
X100428090Y-181382559D01*
X100215890Y-181237569D01*
X99964000Y-181186560D01*
X98664000Y-181186560D01*
X98428683Y-181230838D01*
X98212559Y-181369910D01*
X98165575Y-181438673D01*
X97803322Y-181076420D01*
X97803362Y-181030933D01*
X97661317Y-180687157D01*
X97628200Y-180653982D01*
X97628200Y-179191929D01*
X97750801Y-179242838D01*
X98122767Y-179243162D01*
X98466543Y-179101117D01*
X98729792Y-178838327D01*
X98872438Y-178494799D01*
X98872762Y-178122833D01*
X98730717Y-177779057D01*
X98665641Y-177713867D01*
X102763938Y-177713867D01*
X102905983Y-178057643D01*
X103168773Y-178320892D01*
X103512301Y-178463538D01*
X103559177Y-178463579D01*
X104348700Y-179253102D01*
X104348700Y-179324000D01*
X104406552Y-179614839D01*
X104571299Y-179861401D01*
X104798663Y-180013320D01*
X104830838Y-180184317D01*
X104969910Y-180400441D01*
X105182110Y-180545431D01*
X105434000Y-180596440D01*
X106434000Y-180596440D01*
X106669317Y-180552162D01*
X106885441Y-180413090D01*
X106931969Y-180344994D01*
X107074302Y-180487327D01*
X107307691Y-180584000D01*
X107648250Y-180584000D01*
X107807000Y-180425250D01*
X107807000Y-179451000D01*
X108061000Y-179451000D01*
X108061000Y-180425250D01*
X108219750Y-180584000D01*
X108560309Y-180584000D01*
X108793698Y-180487327D01*
X108972327Y-180308699D01*
X109069000Y-180075310D01*
X109069000Y-179842690D01*
X127929000Y-179842690D01*
X127929000Y-180308250D01*
X128087750Y-180467000D01*
X128937000Y-180467000D01*
X128937000Y-179492750D01*
X128778250Y-179334000D01*
X128437691Y-179334000D01*
X128204302Y-179430673D01*
X128025673Y-179609301D01*
X127929000Y-179842690D01*
X109069000Y-179842690D01*
X109069000Y-179609750D01*
X108910250Y-179451000D01*
X108061000Y-179451000D01*
X107807000Y-179451000D01*
X107787000Y-179451000D01*
X107787000Y-179197000D01*
X107807000Y-179197000D01*
X107807000Y-178222750D01*
X108061000Y-178222750D01*
X108061000Y-179197000D01*
X108910250Y-179197000D01*
X109069000Y-179038250D01*
X109069000Y-178572690D01*
X108972327Y-178339301D01*
X108793698Y-178160673D01*
X108560309Y-178064000D01*
X108219750Y-178064000D01*
X108061000Y-178222750D01*
X107807000Y-178222750D01*
X107648250Y-178064000D01*
X107307691Y-178064000D01*
X107074302Y-178160673D01*
X106933064Y-178301910D01*
X106898090Y-178247559D01*
X106685890Y-178102569D01*
X106434000Y-178051560D01*
X105434000Y-178051560D01*
X105318496Y-178073294D01*
X104634222Y-177389020D01*
X104634262Y-177343533D01*
X104492217Y-176999757D01*
X104229427Y-176736508D01*
X103885899Y-176593862D01*
X103513933Y-176593538D01*
X103170157Y-176735583D01*
X102906908Y-176998373D01*
X102764262Y-177341901D01*
X102763938Y-177713867D01*
X98665641Y-177713867D01*
X98613305Y-177661440D01*
X98669000Y-177661440D01*
X98904317Y-177617162D01*
X98969227Y-177575394D01*
X99286501Y-177707138D01*
X99658467Y-177707462D01*
X100002243Y-177565417D01*
X100265492Y-177302627D01*
X100408138Y-176959099D01*
X100408462Y-176587133D01*
X100286413Y-176291750D01*
X105166000Y-176291750D01*
X105166000Y-176632309D01*
X105262673Y-176865698D01*
X105441301Y-177044327D01*
X105674690Y-177141000D01*
X106140250Y-177141000D01*
X106299000Y-176982250D01*
X106299000Y-176133000D01*
X106553000Y-176133000D01*
X106553000Y-176982250D01*
X106711750Y-177141000D01*
X107177310Y-177141000D01*
X107410699Y-177044327D01*
X107589327Y-176865698D01*
X107686000Y-176632309D01*
X107686000Y-176545750D01*
X112532000Y-176545750D01*
X112532000Y-176886309D01*
X112628673Y-177119698D01*
X112807301Y-177298327D01*
X113040690Y-177395000D01*
X113506250Y-177395000D01*
X113665000Y-177236250D01*
X113665000Y-176387000D01*
X113919000Y-176387000D01*
X113919000Y-177236250D01*
X114077750Y-177395000D01*
X114543310Y-177395000D01*
X114776699Y-177298327D01*
X114955327Y-177119698D01*
X115052000Y-176886309D01*
X115052000Y-176545750D01*
X114893250Y-176387000D01*
X113919000Y-176387000D01*
X113665000Y-176387000D01*
X112690750Y-176387000D01*
X112532000Y-176545750D01*
X107686000Y-176545750D01*
X107686000Y-176291750D01*
X107527250Y-176133000D01*
X106553000Y-176133000D01*
X106299000Y-176133000D01*
X105324750Y-176133000D01*
X105166000Y-176291750D01*
X100286413Y-176291750D01*
X100266417Y-176243357D01*
X100003627Y-175980108D01*
X99660099Y-175837462D01*
X99323028Y-175837168D01*
X99285139Y-175811852D01*
X99278141Y-175810460D01*
X99272162Y-175778683D01*
X99133090Y-175562559D01*
X99064994Y-175516031D01*
X99207327Y-175373698D01*
X99304000Y-175140309D01*
X99304000Y-174799750D01*
X99145250Y-174641000D01*
X98171000Y-174641000D01*
X98171000Y-174661000D01*
X97917000Y-174661000D01*
X97917000Y-174641000D01*
X97897000Y-174641000D01*
X97897000Y-174387000D01*
X97917000Y-174387000D01*
X97917000Y-173537750D01*
X98171000Y-173537750D01*
X98171000Y-174387000D01*
X99145250Y-174387000D01*
X99304000Y-174228250D01*
X99304000Y-173887691D01*
X99207327Y-173654302D01*
X99059026Y-173506000D01*
X105153560Y-173506000D01*
X105153560Y-174506000D01*
X105197838Y-174741317D01*
X105336910Y-174957441D01*
X105405006Y-175003969D01*
X105262673Y-175146302D01*
X105166000Y-175379691D01*
X105166000Y-175720250D01*
X105324750Y-175879000D01*
X106299000Y-175879000D01*
X106299000Y-175859000D01*
X106553000Y-175859000D01*
X106553000Y-175879000D01*
X107527250Y-175879000D01*
X107686000Y-175720250D01*
X107686000Y-175379691D01*
X107601024Y-175174541D01*
X107740267Y-175174662D01*
X108084043Y-175032617D01*
X108117218Y-174999500D01*
X112566530Y-174999500D01*
X112702910Y-175211441D01*
X112771006Y-175257969D01*
X112628673Y-175400302D01*
X112532000Y-175633691D01*
X112532000Y-175974250D01*
X112690750Y-176133000D01*
X113665000Y-176133000D01*
X113665000Y-176113000D01*
X113919000Y-176113000D01*
X113919000Y-176133000D01*
X114893250Y-176133000D01*
X115052000Y-175974250D01*
X115052000Y-175633691D01*
X114955327Y-175400302D01*
X114814090Y-175259064D01*
X114868441Y-175224090D01*
X114913809Y-175157691D01*
X119136000Y-175157691D01*
X119136000Y-175498250D01*
X119294750Y-175657000D01*
X120269000Y-175657000D01*
X120269000Y-174807750D01*
X120523000Y-174807750D01*
X120523000Y-175657000D01*
X121497250Y-175657000D01*
X121656000Y-175498250D01*
X121656000Y-175157691D01*
X121559327Y-174924302D01*
X121380699Y-174745673D01*
X121147310Y-174649000D01*
X120681750Y-174649000D01*
X120523000Y-174807750D01*
X120269000Y-174807750D01*
X120110250Y-174649000D01*
X119644690Y-174649000D01*
X119411301Y-174745673D01*
X119232673Y-174924302D01*
X119136000Y-175157691D01*
X114913809Y-175157691D01*
X115013431Y-175011890D01*
X115064440Y-174760000D01*
X115064440Y-173760000D01*
X115020162Y-173524683D01*
X114881090Y-173308559D01*
X114668890Y-173163569D01*
X114417000Y-173112560D01*
X113167000Y-173112560D01*
X112931683Y-173156838D01*
X112715559Y-173295910D01*
X112590117Y-173479500D01*
X108117563Y-173479500D01*
X108085427Y-173447308D01*
X107741899Y-173304662D01*
X107668255Y-173304598D01*
X107667139Y-173303852D01*
X107660141Y-173302460D01*
X107654162Y-173270683D01*
X107515090Y-173054559D01*
X107302890Y-172909569D01*
X107051000Y-172858560D01*
X105801000Y-172858560D01*
X105565683Y-172902838D01*
X105349559Y-173041910D01*
X105204569Y-173254110D01*
X105153560Y-173506000D01*
X99059026Y-173506000D01*
X99028699Y-173475673D01*
X98795310Y-173379000D01*
X98329750Y-173379000D01*
X98171000Y-173537750D01*
X97917000Y-173537750D01*
X97758250Y-173379000D01*
X97628200Y-173379000D01*
X97628200Y-172243750D01*
X120277000Y-172243750D01*
X120277000Y-172709310D01*
X120373673Y-172942699D01*
X120552302Y-173121327D01*
X120785691Y-173218000D01*
X121126250Y-173218000D01*
X121285000Y-173059250D01*
X121285000Y-172085000D01*
X120435750Y-172085000D01*
X120277000Y-172243750D01*
X97628200Y-172243750D01*
X97628200Y-169775000D01*
X97758250Y-169775000D01*
X97917000Y-169616250D01*
X97917000Y-168767000D01*
X97897000Y-168767000D01*
X97897000Y-168513000D01*
X97917000Y-168513000D01*
X97917000Y-168493000D01*
X98171000Y-168493000D01*
X98171000Y-168513000D01*
X98191000Y-168513000D01*
X98191000Y-168767000D01*
X98171000Y-168767000D01*
X98171000Y-169616250D01*
X98329750Y-169775000D01*
X98795310Y-169775000D01*
X99028699Y-169678327D01*
X99207327Y-169499698D01*
X99304000Y-169266309D01*
X99304000Y-168974802D01*
X101675499Y-171346301D01*
X101922061Y-171511048D01*
X102212900Y-171568900D01*
X116531537Y-171568900D01*
X116563673Y-171601092D01*
X116907201Y-171743738D01*
X117279167Y-171744062D01*
X117622943Y-171602017D01*
X117656118Y-171568900D01*
X117971800Y-171568900D01*
X118262639Y-171511048D01*
X118509201Y-171346301D01*
X118648812Y-171206690D01*
X120277000Y-171206690D01*
X120277000Y-171672250D01*
X120435750Y-171831000D01*
X121285000Y-171831000D01*
X121285000Y-170856750D01*
X121126250Y-170698000D01*
X120785691Y-170698000D01*
X120552302Y-170794673D01*
X120373673Y-170973301D01*
X120277000Y-171206690D01*
X118648812Y-171206690D01*
X121426062Y-168429440D01*
X121635000Y-168429440D01*
X121870317Y-168385162D01*
X121878961Y-168379600D01*
X121911100Y-168379600D01*
X121911100Y-170266800D01*
X121911100Y-170266800D01*
G37*
X121911100Y-170266800D02*
X121968952Y-170557639D01*
X122072086Y-170711991D01*
X122038309Y-170698000D01*
X121697750Y-170698000D01*
X121539000Y-170856750D01*
X121539000Y-171831000D01*
X121559000Y-171831000D01*
X121559000Y-172085000D01*
X121539000Y-172085000D01*
X121539000Y-173059250D01*
X121697750Y-173218000D01*
X122038309Y-173218000D01*
X122271698Y-173121327D01*
X122412936Y-172980090D01*
X122447910Y-173034441D01*
X122652000Y-173173890D01*
X122652000Y-176346600D01*
X122023700Y-176346600D01*
X121732860Y-176404452D01*
X121629941Y-176473220D01*
X121656000Y-176410309D01*
X121656000Y-176069750D01*
X121497250Y-175911000D01*
X120523000Y-175911000D01*
X120523000Y-175931000D01*
X120269000Y-175931000D01*
X120269000Y-175911000D01*
X119294750Y-175911000D01*
X119136000Y-176069750D01*
X119136000Y-176410309D01*
X119232673Y-176643698D01*
X119373910Y-176784936D01*
X119319559Y-176819910D01*
X119180110Y-177024000D01*
X118667663Y-177024000D01*
X118635527Y-176991808D01*
X118291999Y-176849162D01*
X117920033Y-176848838D01*
X117576257Y-176990883D01*
X117313008Y-177253673D01*
X117170362Y-177597201D01*
X117170038Y-177969167D01*
X117312083Y-178312943D01*
X117574873Y-178576192D01*
X117918401Y-178718838D01*
X118290367Y-178719162D01*
X118634143Y-178577117D01*
X118667318Y-178544000D01*
X119183721Y-178544000D01*
X119306910Y-178735441D01*
X119519110Y-178880431D01*
X119771000Y-178931440D01*
X121021000Y-178931440D01*
X121256317Y-178887162D01*
X121472441Y-178748090D01*
X121617431Y-178535890D01*
X121627100Y-178488145D01*
X121637139Y-178486148D01*
X121883701Y-178321401D01*
X122338502Y-177866600D01*
X124057498Y-177866600D01*
X124496299Y-178305401D01*
X124742861Y-178470148D01*
X124749859Y-178471540D01*
X124755838Y-178503317D01*
X124894910Y-178719441D01*
X125107110Y-178864431D01*
X125359000Y-178915440D01*
X126609000Y-178915440D01*
X126844317Y-178871162D01*
X127060441Y-178732090D01*
X127165999Y-178577600D01*
X128671691Y-178577600D01*
X128748599Y-178692701D01*
X129389898Y-179334000D01*
X129349750Y-179334000D01*
X129191000Y-179492750D01*
X129191000Y-180467000D01*
X129211000Y-180467000D01*
X129211000Y-180721000D01*
X129191000Y-180721000D01*
X129191000Y-181695250D01*
X129349750Y-181854000D01*
X129690309Y-181854000D01*
X129923698Y-181757327D01*
X130064936Y-181616090D01*
X130099910Y-181670441D01*
X130312110Y-181815431D01*
X130359855Y-181825100D01*
X130361852Y-181835139D01*
X130526599Y-182081701D01*
X130558000Y-182113102D01*
X130558000Y-182429721D01*
X130366559Y-182552910D01*
X130320031Y-182621006D01*
X130177698Y-182478673D01*
X129944309Y-182382000D01*
X129603750Y-182382000D01*
X129445000Y-182540750D01*
X129445000Y-183515000D01*
X129465000Y-183515000D01*
X129465000Y-183769000D01*
X129445000Y-183769000D01*
X129445000Y-183789000D01*
X129191000Y-183789000D01*
X129191000Y-183769000D01*
X128341750Y-183769000D01*
X128183000Y-183927750D01*
X128183000Y-184290300D01*
X127005104Y-184290300D01*
X127027440Y-184180000D01*
X127027440Y-183480000D01*
X126983162Y-183244683D01*
X126844090Y-183028559D01*
X126642312Y-182890690D01*
X128183000Y-182890690D01*
X128183000Y-183356250D01*
X128341750Y-183515000D01*
X129191000Y-183515000D01*
X129191000Y-182540750D01*
X129032250Y-182382000D01*
X128691691Y-182382000D01*
X128458302Y-182478673D01*
X128279673Y-182657301D01*
X128183000Y-182890690D01*
X126642312Y-182890690D01*
X126631890Y-182883569D01*
X126618803Y-182880919D01*
X126831441Y-182744090D01*
X126976431Y-182531890D01*
X127027440Y-182280000D01*
X127027440Y-181580000D01*
X126983162Y-181344683D01*
X126844090Y-181128559D01*
X126631890Y-180983569D01*
X126380000Y-180932560D01*
X125080000Y-180932560D01*
X124844683Y-180976838D01*
X124628559Y-181115910D01*
X124591601Y-181170000D01*
X122258827Y-181170000D01*
X122160090Y-181016559D01*
X121959864Y-180879750D01*
X127929000Y-180879750D01*
X127929000Y-181345310D01*
X128025673Y-181578699D01*
X128204302Y-181757327D01*
X128437691Y-181854000D01*
X128778250Y-181854000D01*
X128937000Y-181695250D01*
X128937000Y-180721000D01*
X128087750Y-180721000D01*
X127929000Y-180879750D01*
X121959864Y-180879750D01*
X121947890Y-180871569D01*
X121696000Y-180820560D01*
X120996000Y-180820560D01*
X120760683Y-180864838D01*
X120544559Y-181003910D01*
X120399569Y-181216110D01*
X120396919Y-181229197D01*
X120260090Y-181016559D01*
X120047890Y-180871569D01*
X119796000Y-180820560D01*
X119680376Y-180820560D01*
X119568317Y-180549357D01*
X119305527Y-180286108D01*
X118961999Y-180143462D01*
X118590033Y-180143138D01*
X118246257Y-180285183D01*
X117983008Y-180547973D01*
X117840362Y-180891501D01*
X117840038Y-181263467D01*
X117906369Y-181424000D01*
X116710757Y-181424000D01*
X116684090Y-181382559D01*
X116471890Y-181237569D01*
X116220000Y-181186560D01*
X114920000Y-181186560D01*
X114684683Y-181230838D01*
X114468559Y-181369910D01*
X114323569Y-181582110D01*
X114272560Y-181834000D01*
X114272560Y-182534000D01*
X114316838Y-182769317D01*
X114455910Y-182985441D01*
X114668110Y-183130431D01*
X114681197Y-183133081D01*
X114468559Y-183269910D01*
X114323569Y-183482110D01*
X114272560Y-183734000D01*
X114272560Y-184434000D01*
X114316838Y-184669317D01*
X114455910Y-184885441D01*
X114668110Y-185030431D01*
X114710425Y-185039000D01*
X110095549Y-185039000D01*
X110105317Y-185037162D01*
X110321441Y-184898090D01*
X110466431Y-184685890D01*
X110517440Y-184434000D01*
X110517440Y-183734000D01*
X110473162Y-183498683D01*
X110334090Y-183282559D01*
X110121890Y-183137569D01*
X110108803Y-183134919D01*
X110321441Y-182998090D01*
X110466431Y-182785890D01*
X110517440Y-182534000D01*
X110517440Y-181834000D01*
X110473162Y-181598683D01*
X110334090Y-181382559D01*
X110291622Y-181353542D01*
X110291862Y-181078233D01*
X110149817Y-180734457D01*
X109887027Y-180471208D01*
X109543499Y-180328562D01*
X109171533Y-180328238D01*
X108827757Y-180470283D01*
X108564508Y-180733073D01*
X108421862Y-181076601D01*
X108421742Y-181214457D01*
X108334683Y-181230838D01*
X108137068Y-181358000D01*
X106066742Y-181358000D01*
X106043162Y-181232683D01*
X105904090Y-181016559D01*
X105691890Y-180871569D01*
X105440000Y-180820560D01*
X104740000Y-180820560D01*
X104504683Y-180864838D01*
X104288559Y-181003910D01*
X104143569Y-181216110D01*
X104140919Y-181229197D01*
X104004090Y-181016559D01*
X103791890Y-180871569D01*
X103540000Y-180820560D01*
X102840000Y-180820560D01*
X102604683Y-180864838D01*
X102388559Y-181003910D01*
X102243569Y-181216110D01*
X102201470Y-181424000D01*
X100454757Y-181424000D01*
X100428090Y-181382559D01*
X100215890Y-181237569D01*
X99964000Y-181186560D01*
X98664000Y-181186560D01*
X98428683Y-181230838D01*
X98212559Y-181369910D01*
X98165575Y-181438673D01*
X97803322Y-181076420D01*
X97803362Y-181030933D01*
X97661317Y-180687157D01*
X97628200Y-180653982D01*
X97628200Y-179191929D01*
X97750801Y-179242838D01*
X98122767Y-179243162D01*
X98466543Y-179101117D01*
X98729792Y-178838327D01*
X98872438Y-178494799D01*
X98872762Y-178122833D01*
X98730717Y-177779057D01*
X98665641Y-177713867D01*
X102763938Y-177713867D01*
X102905983Y-178057643D01*
X103168773Y-178320892D01*
X103512301Y-178463538D01*
X103559177Y-178463579D01*
X104348700Y-179253102D01*
X104348700Y-179324000D01*
X104406552Y-179614839D01*
X104571299Y-179861401D01*
X104798663Y-180013320D01*
X104830838Y-180184317D01*
X104969910Y-180400441D01*
X105182110Y-180545431D01*
X105434000Y-180596440D01*
X106434000Y-180596440D01*
X106669317Y-180552162D01*
X106885441Y-180413090D01*
X106931969Y-180344994D01*
X107074302Y-180487327D01*
X107307691Y-180584000D01*
X107648250Y-180584000D01*
X107807000Y-180425250D01*
X107807000Y-179451000D01*
X108061000Y-179451000D01*
X108061000Y-180425250D01*
X108219750Y-180584000D01*
X108560309Y-180584000D01*
X108793698Y-180487327D01*
X108972327Y-180308699D01*
X109069000Y-180075310D01*
X109069000Y-179842690D01*
X127929000Y-179842690D01*
X127929000Y-180308250D01*
X128087750Y-180467000D01*
X128937000Y-180467000D01*
X128937000Y-179492750D01*
X128778250Y-179334000D01*
X128437691Y-179334000D01*
X128204302Y-179430673D01*
X128025673Y-179609301D01*
X127929000Y-179842690D01*
X109069000Y-179842690D01*
X109069000Y-179609750D01*
X108910250Y-179451000D01*
X108061000Y-179451000D01*
X107807000Y-179451000D01*
X107787000Y-179451000D01*
X107787000Y-179197000D01*
X107807000Y-179197000D01*
X107807000Y-178222750D01*
X108061000Y-178222750D01*
X108061000Y-179197000D01*
X108910250Y-179197000D01*
X109069000Y-179038250D01*
X109069000Y-178572690D01*
X108972327Y-178339301D01*
X108793698Y-178160673D01*
X108560309Y-178064000D01*
X108219750Y-178064000D01*
X108061000Y-178222750D01*
X107807000Y-178222750D01*
X107648250Y-178064000D01*
X107307691Y-178064000D01*
X107074302Y-178160673D01*
X106933064Y-178301910D01*
X106898090Y-178247559D01*
X106685890Y-178102569D01*
X106434000Y-178051560D01*
X105434000Y-178051560D01*
X105318496Y-178073294D01*
X104634222Y-177389020D01*
X104634262Y-177343533D01*
X104492217Y-176999757D01*
X104229427Y-176736508D01*
X103885899Y-176593862D01*
X103513933Y-176593538D01*
X103170157Y-176735583D01*
X102906908Y-176998373D01*
X102764262Y-177341901D01*
X102763938Y-177713867D01*
X98665641Y-177713867D01*
X98613305Y-177661440D01*
X98669000Y-177661440D01*
X98904317Y-177617162D01*
X98969227Y-177575394D01*
X99286501Y-177707138D01*
X99658467Y-177707462D01*
X100002243Y-177565417D01*
X100265492Y-177302627D01*
X100408138Y-176959099D01*
X100408462Y-176587133D01*
X100286413Y-176291750D01*
X105166000Y-176291750D01*
X105166000Y-176632309D01*
X105262673Y-176865698D01*
X105441301Y-177044327D01*
X105674690Y-177141000D01*
X106140250Y-177141000D01*
X106299000Y-176982250D01*
X106299000Y-176133000D01*
X106553000Y-176133000D01*
X106553000Y-176982250D01*
X106711750Y-177141000D01*
X107177310Y-177141000D01*
X107410699Y-177044327D01*
X107589327Y-176865698D01*
X107686000Y-176632309D01*
X107686000Y-176545750D01*
X112532000Y-176545750D01*
X112532000Y-176886309D01*
X112628673Y-177119698D01*
X112807301Y-177298327D01*
X113040690Y-177395000D01*
X113506250Y-177395000D01*
X113665000Y-177236250D01*
X113665000Y-176387000D01*
X113919000Y-176387000D01*
X113919000Y-177236250D01*
X114077750Y-177395000D01*
X114543310Y-177395000D01*
X114776699Y-177298327D01*
X114955327Y-177119698D01*
X115052000Y-176886309D01*
X115052000Y-176545750D01*
X114893250Y-176387000D01*
X113919000Y-176387000D01*
X113665000Y-176387000D01*
X112690750Y-176387000D01*
X112532000Y-176545750D01*
X107686000Y-176545750D01*
X107686000Y-176291750D01*
X107527250Y-176133000D01*
X106553000Y-176133000D01*
X106299000Y-176133000D01*
X105324750Y-176133000D01*
X105166000Y-176291750D01*
X100286413Y-176291750D01*
X100266417Y-176243357D01*
X100003627Y-175980108D01*
X99660099Y-175837462D01*
X99323028Y-175837168D01*
X99285139Y-175811852D01*
X99278141Y-175810460D01*
X99272162Y-175778683D01*
X99133090Y-175562559D01*
X99064994Y-175516031D01*
X99207327Y-175373698D01*
X99304000Y-175140309D01*
X99304000Y-174799750D01*
X99145250Y-174641000D01*
X98171000Y-174641000D01*
X98171000Y-174661000D01*
X97917000Y-174661000D01*
X97917000Y-174641000D01*
X97897000Y-174641000D01*
X97897000Y-174387000D01*
X97917000Y-174387000D01*
X97917000Y-173537750D01*
X98171000Y-173537750D01*
X98171000Y-174387000D01*
X99145250Y-174387000D01*
X99304000Y-174228250D01*
X99304000Y-173887691D01*
X99207327Y-173654302D01*
X99059026Y-173506000D01*
X105153560Y-173506000D01*
X105153560Y-174506000D01*
X105197838Y-174741317D01*
X105336910Y-174957441D01*
X105405006Y-175003969D01*
X105262673Y-175146302D01*
X105166000Y-175379691D01*
X105166000Y-175720250D01*
X105324750Y-175879000D01*
X106299000Y-175879000D01*
X106299000Y-175859000D01*
X106553000Y-175859000D01*
X106553000Y-175879000D01*
X107527250Y-175879000D01*
X107686000Y-175720250D01*
X107686000Y-175379691D01*
X107601024Y-175174541D01*
X107740267Y-175174662D01*
X108084043Y-175032617D01*
X108117218Y-174999500D01*
X112566530Y-174999500D01*
X112702910Y-175211441D01*
X112771006Y-175257969D01*
X112628673Y-175400302D01*
X112532000Y-175633691D01*
X112532000Y-175974250D01*
X112690750Y-176133000D01*
X113665000Y-176133000D01*
X113665000Y-176113000D01*
X113919000Y-176113000D01*
X113919000Y-176133000D01*
X114893250Y-176133000D01*
X115052000Y-175974250D01*
X115052000Y-175633691D01*
X114955327Y-175400302D01*
X114814090Y-175259064D01*
X114868441Y-175224090D01*
X114913809Y-175157691D01*
X119136000Y-175157691D01*
X119136000Y-175498250D01*
X119294750Y-175657000D01*
X120269000Y-175657000D01*
X120269000Y-174807750D01*
X120523000Y-174807750D01*
X120523000Y-175657000D01*
X121497250Y-175657000D01*
X121656000Y-175498250D01*
X121656000Y-175157691D01*
X121559327Y-174924302D01*
X121380699Y-174745673D01*
X121147310Y-174649000D01*
X120681750Y-174649000D01*
X120523000Y-174807750D01*
X120269000Y-174807750D01*
X120110250Y-174649000D01*
X119644690Y-174649000D01*
X119411301Y-174745673D01*
X119232673Y-174924302D01*
X119136000Y-175157691D01*
X114913809Y-175157691D01*
X115013431Y-175011890D01*
X115064440Y-174760000D01*
X115064440Y-173760000D01*
X115020162Y-173524683D01*
X114881090Y-173308559D01*
X114668890Y-173163569D01*
X114417000Y-173112560D01*
X113167000Y-173112560D01*
X112931683Y-173156838D01*
X112715559Y-173295910D01*
X112590117Y-173479500D01*
X108117563Y-173479500D01*
X108085427Y-173447308D01*
X107741899Y-173304662D01*
X107668255Y-173304598D01*
X107667139Y-173303852D01*
X107660141Y-173302460D01*
X107654162Y-173270683D01*
X107515090Y-173054559D01*
X107302890Y-172909569D01*
X107051000Y-172858560D01*
X105801000Y-172858560D01*
X105565683Y-172902838D01*
X105349559Y-173041910D01*
X105204569Y-173254110D01*
X105153560Y-173506000D01*
X99059026Y-173506000D01*
X99028699Y-173475673D01*
X98795310Y-173379000D01*
X98329750Y-173379000D01*
X98171000Y-173537750D01*
X97917000Y-173537750D01*
X97758250Y-173379000D01*
X97628200Y-173379000D01*
X97628200Y-172243750D01*
X120277000Y-172243750D01*
X120277000Y-172709310D01*
X120373673Y-172942699D01*
X120552302Y-173121327D01*
X120785691Y-173218000D01*
X121126250Y-173218000D01*
X121285000Y-173059250D01*
X121285000Y-172085000D01*
X120435750Y-172085000D01*
X120277000Y-172243750D01*
X97628200Y-172243750D01*
X97628200Y-169775000D01*
X97758250Y-169775000D01*
X97917000Y-169616250D01*
X97917000Y-168767000D01*
X97897000Y-168767000D01*
X97897000Y-168513000D01*
X97917000Y-168513000D01*
X97917000Y-168493000D01*
X98171000Y-168493000D01*
X98171000Y-168513000D01*
X98191000Y-168513000D01*
X98191000Y-168767000D01*
X98171000Y-168767000D01*
X98171000Y-169616250D01*
X98329750Y-169775000D01*
X98795310Y-169775000D01*
X99028699Y-169678327D01*
X99207327Y-169499698D01*
X99304000Y-169266309D01*
X99304000Y-168974802D01*
X101675499Y-171346301D01*
X101922061Y-171511048D01*
X102212900Y-171568900D01*
X116531537Y-171568900D01*
X116563673Y-171601092D01*
X116907201Y-171743738D01*
X117279167Y-171744062D01*
X117622943Y-171602017D01*
X117656118Y-171568900D01*
X117971800Y-171568900D01*
X118262639Y-171511048D01*
X118509201Y-171346301D01*
X118648812Y-171206690D01*
X120277000Y-171206690D01*
X120277000Y-171672250D01*
X120435750Y-171831000D01*
X121285000Y-171831000D01*
X121285000Y-170856750D01*
X121126250Y-170698000D01*
X120785691Y-170698000D01*
X120552302Y-170794673D01*
X120373673Y-170973301D01*
X120277000Y-171206690D01*
X118648812Y-171206690D01*
X121426062Y-168429440D01*
X121635000Y-168429440D01*
X121870317Y-168385162D01*
X121878961Y-168379600D01*
X121911100Y-168379600D01*
X121911100Y-170266800D01*
G36*
X133362960Y-161137600D02*
X133407238Y-161372917D01*
X133546310Y-161589041D01*
X133758510Y-161734031D01*
X133802131Y-161742864D01*
X133784971Y-161754330D01*
X133460115Y-162240511D01*
X133346041Y-162814000D01*
X133460115Y-163387489D01*
X133784971Y-163873670D01*
X134099752Y-164084000D01*
X133784971Y-164294330D01*
X133460115Y-164780511D01*
X133346041Y-165354000D01*
X133460115Y-165927489D01*
X133784971Y-166413670D01*
X134099752Y-166624000D01*
X133784971Y-166834330D01*
X133460115Y-167320511D01*
X133346041Y-167894000D01*
X133460115Y-168467489D01*
X133784971Y-168953670D01*
X134099752Y-169164000D01*
X133784971Y-169374330D01*
X133460115Y-169860511D01*
X133346041Y-170434000D01*
X133460115Y-171007489D01*
X133784971Y-171493670D01*
X134099752Y-171704000D01*
X133784971Y-171914330D01*
X133460115Y-172400511D01*
X133346041Y-172974000D01*
X133460115Y-173547489D01*
X133784971Y-174033670D01*
X134099752Y-174244000D01*
X133784971Y-174454330D01*
X133460115Y-174940511D01*
X133413700Y-175173855D01*
X133413700Y-174242800D01*
X133355848Y-173951961D01*
X133191101Y-173705399D01*
X132659022Y-173173320D01*
X132659062Y-173127833D01*
X132517017Y-172784057D01*
X132312760Y-172579444D01*
X132324000Y-172552309D01*
X132324000Y-172211750D01*
X132165250Y-172053000D01*
X131191000Y-172053000D01*
X131191000Y-172073000D01*
X130937000Y-172073000D01*
X130937000Y-172053000D01*
X129962750Y-172053000D01*
X129804000Y-172211750D01*
X129804000Y-172552309D01*
X129900673Y-172785698D01*
X130079301Y-172964327D01*
X130312690Y-173061000D01*
X130778250Y-173061000D01*
X130843039Y-172996211D01*
X130789062Y-173126201D01*
X130788738Y-173498167D01*
X130930783Y-173841943D01*
X131193573Y-174105192D01*
X131537101Y-174247838D01*
X131583977Y-174247879D01*
X131893700Y-174557602D01*
X131893700Y-179425734D01*
X131815890Y-179372569D01*
X131768145Y-179362900D01*
X131766148Y-179352861D01*
X131601401Y-179106299D01*
X131354839Y-178941552D01*
X131095460Y-178889958D01*
X130432965Y-178227463D01*
X130532431Y-178081890D01*
X130583440Y-177830000D01*
X130583440Y-177130000D01*
X130539162Y-176894683D01*
X130400090Y-176678559D01*
X130187890Y-176533569D01*
X130174803Y-176530919D01*
X130387441Y-176394090D01*
X130532431Y-176181890D01*
X130583440Y-175930000D01*
X130583440Y-175230000D01*
X130539162Y-174994683D01*
X130400090Y-174778559D01*
X130187890Y-174633569D01*
X129972122Y-174589875D01*
X129823401Y-174367299D01*
X128776000Y-173319898D01*
X128776000Y-173098757D01*
X128817441Y-173072090D01*
X128962431Y-172859890D01*
X129013440Y-172608000D01*
X129013440Y-171308000D01*
X128974175Y-171099327D01*
X129255101Y-170818401D01*
X129419848Y-170571839D01*
X129477700Y-170281000D01*
X129477700Y-169995163D01*
X129509892Y-169963027D01*
X129652538Y-169619499D01*
X129652862Y-169247533D01*
X129510817Y-168903757D01*
X129248027Y-168640508D01*
X128904499Y-168497862D01*
X128532533Y-168497538D01*
X128188757Y-168639583D01*
X127925508Y-168902373D01*
X127782862Y-169245901D01*
X127782538Y-169617867D01*
X127924583Y-169961643D01*
X127943403Y-169980495D01*
X127478599Y-170445299D01*
X127313852Y-170691861D01*
X127293743Y-170792957D01*
X127214559Y-170843910D01*
X127069569Y-171056110D01*
X127062809Y-171089490D01*
X127004327Y-170948301D01*
X126825698Y-170769673D01*
X126592309Y-170673000D01*
X126401750Y-170673000D01*
X126243000Y-170831750D01*
X126243000Y-171831000D01*
X126263000Y-171831000D01*
X126263000Y-172085000D01*
X126243000Y-172085000D01*
X126243000Y-173084250D01*
X126401750Y-173243000D01*
X126592309Y-173243000D01*
X126825698Y-173146327D01*
X127004327Y-172967699D01*
X127060654Y-172831713D01*
X127062838Y-172843317D01*
X127201910Y-173059441D01*
X127256000Y-173096399D01*
X127256000Y-173634700D01*
X127313852Y-173925539D01*
X127478599Y-174172101D01*
X128139035Y-174832537D01*
X128039569Y-174978110D01*
X127988560Y-175230000D01*
X127988560Y-175930000D01*
X128032838Y-176165317D01*
X128171910Y-176381441D01*
X128384110Y-176526431D01*
X128397197Y-176529081D01*
X128184559Y-176665910D01*
X128039569Y-176878110D01*
X128003221Y-177057600D01*
X127216850Y-177057600D01*
X127212162Y-177032683D01*
X127073090Y-176816559D01*
X127004994Y-176770031D01*
X127147327Y-176627698D01*
X127244000Y-176394309D01*
X127244000Y-176053750D01*
X127085250Y-175895000D01*
X126111000Y-175895000D01*
X126111000Y-175915000D01*
X125857000Y-175915000D01*
X125857000Y-175895000D01*
X124882750Y-175895000D01*
X124724000Y-176053750D01*
X124724000Y-176394309D01*
X124753100Y-176464562D01*
X124663139Y-176404452D01*
X124372300Y-176346600D01*
X124172000Y-176346600D01*
X124172000Y-175141691D01*
X124724000Y-175141691D01*
X124724000Y-175482250D01*
X124882750Y-175641000D01*
X125857000Y-175641000D01*
X125857000Y-174791750D01*
X126111000Y-174791750D01*
X126111000Y-175641000D01*
X127085250Y-175641000D01*
X127244000Y-175482250D01*
X127244000Y-175141691D01*
X127147327Y-174908302D01*
X126968699Y-174729673D01*
X126735310Y-174633000D01*
X126269750Y-174633000D01*
X126111000Y-174791750D01*
X125857000Y-174791750D01*
X125698250Y-174633000D01*
X125232690Y-174633000D01*
X124999301Y-174729673D01*
X124820673Y-174908302D01*
X124724000Y-175141691D01*
X124172000Y-175141691D01*
X124172000Y-173170279D01*
X124363441Y-173047090D01*
X124508431Y-172834890D01*
X124559440Y-172583000D01*
X124559440Y-172243750D01*
X125131000Y-172243750D01*
X125131000Y-172734310D01*
X125227673Y-172967699D01*
X125406302Y-173146327D01*
X125639691Y-173243000D01*
X125830250Y-173243000D01*
X125989000Y-173084250D01*
X125989000Y-172085000D01*
X125289750Y-172085000D01*
X125131000Y-172243750D01*
X124559440Y-172243750D01*
X124559440Y-171333000D01*
X124530970Y-171181690D01*
X125131000Y-171181690D01*
X125131000Y-171672250D01*
X125289750Y-171831000D01*
X125989000Y-171831000D01*
X125989000Y-170831750D01*
X125830250Y-170673000D01*
X125639691Y-170673000D01*
X125406302Y-170769673D01*
X125227673Y-170948301D01*
X125131000Y-171181690D01*
X124530970Y-171181690D01*
X124515162Y-171097683D01*
X124376090Y-170881559D01*
X124163890Y-170736569D01*
X124116145Y-170726900D01*
X124114148Y-170716861D01*
X123949401Y-170470299D01*
X123431100Y-169951998D01*
X123431100Y-168658440D01*
X124230000Y-168658440D01*
X124465317Y-168614162D01*
X124681441Y-168475090D01*
X124727969Y-168406994D01*
X124870302Y-168549327D01*
X125103691Y-168646000D01*
X125444250Y-168646000D01*
X125603000Y-168487250D01*
X125603000Y-167513000D01*
X125857000Y-167513000D01*
X125857000Y-168487250D01*
X126015750Y-168646000D01*
X126356309Y-168646000D01*
X126589698Y-168549327D01*
X126768327Y-168370699D01*
X126865000Y-168137310D01*
X126865000Y-167671750D01*
X126706250Y-167513000D01*
X125857000Y-167513000D01*
X125603000Y-167513000D01*
X125583000Y-167513000D01*
X125583000Y-167259000D01*
X125603000Y-167259000D01*
X125603000Y-166284750D01*
X125857000Y-166284750D01*
X125857000Y-167259000D01*
X126706250Y-167259000D01*
X126801500Y-167163750D01*
X128913000Y-167163750D01*
X128913000Y-167629310D01*
X129009673Y-167862699D01*
X129188302Y-168041327D01*
X129421691Y-168138000D01*
X129762250Y-168138000D01*
X129921000Y-167979250D01*
X129921000Y-167005000D01*
X129071750Y-167005000D01*
X128913000Y-167163750D01*
X126801500Y-167163750D01*
X126865000Y-167100250D01*
X126865000Y-166634690D01*
X126768327Y-166401301D01*
X126589698Y-166222673D01*
X126357975Y-166126690D01*
X128913000Y-166126690D01*
X128913000Y-166592250D01*
X129071750Y-166751000D01*
X129921000Y-166751000D01*
X129921000Y-165776750D01*
X129762250Y-165618000D01*
X129421691Y-165618000D01*
X129188302Y-165714673D01*
X129009673Y-165893301D01*
X128913000Y-166126690D01*
X126357975Y-166126690D01*
X126356309Y-166126000D01*
X126015750Y-166126000D01*
X125857000Y-166284750D01*
X125603000Y-166284750D01*
X125444250Y-166126000D01*
X125103691Y-166126000D01*
X124870302Y-166222673D01*
X124729064Y-166363910D01*
X124694090Y-166309559D01*
X124481890Y-166164569D01*
X124230000Y-166113560D01*
X123230000Y-166113560D01*
X122994683Y-166157838D01*
X122778559Y-166296910D01*
X122633569Y-166509110D01*
X122595730Y-166695966D01*
X122367299Y-166848599D01*
X122356298Y-166859600D01*
X122282440Y-166859600D01*
X122282440Y-166482000D01*
X122238162Y-166246683D01*
X122099090Y-166030559D01*
X121886890Y-165885569D01*
X121635000Y-165834560D01*
X120935000Y-165834560D01*
X120699683Y-165878838D01*
X120483559Y-166017910D01*
X120338569Y-166230110D01*
X120335919Y-166243197D01*
X120199090Y-166030559D01*
X119986890Y-165885569D01*
X119735000Y-165834560D01*
X119035000Y-165834560D01*
X118799683Y-165878838D01*
X118583559Y-166017910D01*
X118438569Y-166230110D01*
X118387560Y-166482000D01*
X118387560Y-167782000D01*
X118387601Y-167782216D01*
X118367408Y-167802373D01*
X118224762Y-168145901D01*
X118224438Y-168517867D01*
X118366483Y-168861643D01*
X118605161Y-169100737D01*
X117656998Y-170048900D01*
X117656463Y-170048900D01*
X117624327Y-170016708D01*
X117280799Y-169874062D01*
X116908833Y-169873738D01*
X116565057Y-170015783D01*
X116531882Y-170048900D01*
X113206877Y-170048900D01*
X113206962Y-169951833D01*
X113090511Y-169670000D01*
X114335300Y-169670000D01*
X114626139Y-169612148D01*
X114872701Y-169447401D01*
X118647401Y-165672701D01*
X118795725Y-165450718D01*
X118995317Y-165413162D01*
X119019151Y-165397825D01*
X119052260Y-165419948D01*
X119343100Y-165477800D01*
X123440337Y-165477800D01*
X123472473Y-165509992D01*
X123816001Y-165652638D01*
X124187967Y-165652962D01*
X124531743Y-165510917D01*
X124794992Y-165248127D01*
X124937638Y-164904599D01*
X124937962Y-164532633D01*
X124795917Y-164188857D01*
X124533127Y-163925608D01*
X124508207Y-163915260D01*
X124644431Y-163715890D01*
X124695440Y-163464000D01*
X124695440Y-163099750D01*
X124849000Y-163099750D01*
X124849000Y-163565310D01*
X124945673Y-163798699D01*
X125124302Y-163977327D01*
X125357691Y-164074000D01*
X125698250Y-164074000D01*
X125857000Y-163915250D01*
X125857000Y-162941000D01*
X125007750Y-162941000D01*
X124849000Y-163099750D01*
X124695440Y-163099750D01*
X124695440Y-162164000D01*
X124651162Y-161928683D01*
X124512090Y-161712559D01*
X124299890Y-161567569D01*
X124048000Y-161516560D01*
X123348000Y-161516560D01*
X123112683Y-161560838D01*
X122896559Y-161699910D01*
X122751569Y-161912110D01*
X122748919Y-161925197D01*
X122612090Y-161712559D01*
X122558000Y-161675601D01*
X122558000Y-161205440D01*
X123840000Y-161205440D01*
X124075317Y-161161162D01*
X124291441Y-161022090D01*
X124328399Y-160968000D01*
X124650498Y-160968000D01*
X125271995Y-161589497D01*
X125124302Y-161650673D01*
X124945673Y-161829301D01*
X124849000Y-162062690D01*
X124849000Y-162528250D01*
X125007750Y-162687000D01*
X125857000Y-162687000D01*
X125857000Y-162667000D01*
X126111000Y-162667000D01*
X126111000Y-162687000D01*
X126131000Y-162687000D01*
X126131000Y-162941000D01*
X126111000Y-162941000D01*
X126111000Y-163915250D01*
X126269750Y-164074000D01*
X126610309Y-164074000D01*
X126843698Y-163977327D01*
X126984936Y-163836090D01*
X127019910Y-163890441D01*
X127232110Y-164035431D01*
X127484000Y-164086440D01*
X128484000Y-164086440D01*
X128719317Y-164042162D01*
X128867382Y-163946884D01*
X130304000Y-165383502D01*
X130304000Y-165647750D01*
X130175000Y-165776750D01*
X130175000Y-166751000D01*
X130195000Y-166751000D01*
X130195000Y-167005000D01*
X130175000Y-167005000D01*
X130175000Y-167979250D01*
X130304000Y-168108250D01*
X130304000Y-168803962D01*
X130203683Y-168822838D01*
X129987559Y-168961910D01*
X129842569Y-169174110D01*
X129791560Y-169426000D01*
X129791560Y-170426000D01*
X129835838Y-170661317D01*
X129974910Y-170877441D01*
X130043006Y-170923969D01*
X129900673Y-171066302D01*
X129804000Y-171299691D01*
X129804000Y-171640250D01*
X129962750Y-171799000D01*
X130937000Y-171799000D01*
X130937000Y-171779000D01*
X131191000Y-171779000D01*
X131191000Y-171799000D01*
X132165250Y-171799000D01*
X132324000Y-171640250D01*
X132324000Y-171299691D01*
X132227327Y-171066302D01*
X132086090Y-170925064D01*
X132140441Y-170890090D01*
X132285431Y-170677890D01*
X132336440Y-170426000D01*
X132336440Y-169426000D01*
X132292162Y-169190683D01*
X132153090Y-168974559D01*
X131940890Y-168829569D01*
X131824000Y-168805898D01*
X131824000Y-168150440D01*
X132548000Y-168150440D01*
X132783317Y-168106162D01*
X132999441Y-167967090D01*
X133144431Y-167754890D01*
X133195440Y-167503000D01*
X133195440Y-166253000D01*
X133151162Y-166017683D01*
X133012090Y-165801559D01*
X132808000Y-165662110D01*
X132808000Y-160525102D01*
X133362960Y-159970142D01*
X133362960Y-161137600D01*
X133362960Y-161137600D01*
G37*
X133362960Y-161137600D02*
X133407238Y-161372917D01*
X133546310Y-161589041D01*
X133758510Y-161734031D01*
X133802131Y-161742864D01*
X133784971Y-161754330D01*
X133460115Y-162240511D01*
X133346041Y-162814000D01*
X133460115Y-163387489D01*
X133784971Y-163873670D01*
X134099752Y-164084000D01*
X133784971Y-164294330D01*
X133460115Y-164780511D01*
X133346041Y-165354000D01*
X133460115Y-165927489D01*
X133784971Y-166413670D01*
X134099752Y-166624000D01*
X133784971Y-166834330D01*
X133460115Y-167320511D01*
X133346041Y-167894000D01*
X133460115Y-168467489D01*
X133784971Y-168953670D01*
X134099752Y-169164000D01*
X133784971Y-169374330D01*
X133460115Y-169860511D01*
X133346041Y-170434000D01*
X133460115Y-171007489D01*
X133784971Y-171493670D01*
X134099752Y-171704000D01*
X133784971Y-171914330D01*
X133460115Y-172400511D01*
X133346041Y-172974000D01*
X133460115Y-173547489D01*
X133784971Y-174033670D01*
X134099752Y-174244000D01*
X133784971Y-174454330D01*
X133460115Y-174940511D01*
X133413700Y-175173855D01*
X133413700Y-174242800D01*
X133355848Y-173951961D01*
X133191101Y-173705399D01*
X132659022Y-173173320D01*
X132659062Y-173127833D01*
X132517017Y-172784057D01*
X132312760Y-172579444D01*
X132324000Y-172552309D01*
X132324000Y-172211750D01*
X132165250Y-172053000D01*
X131191000Y-172053000D01*
X131191000Y-172073000D01*
X130937000Y-172073000D01*
X130937000Y-172053000D01*
X129962750Y-172053000D01*
X129804000Y-172211750D01*
X129804000Y-172552309D01*
X129900673Y-172785698D01*
X130079301Y-172964327D01*
X130312690Y-173061000D01*
X130778250Y-173061000D01*
X130843039Y-172996211D01*
X130789062Y-173126201D01*
X130788738Y-173498167D01*
X130930783Y-173841943D01*
X131193573Y-174105192D01*
X131537101Y-174247838D01*
X131583977Y-174247879D01*
X131893700Y-174557602D01*
X131893700Y-179425734D01*
X131815890Y-179372569D01*
X131768145Y-179362900D01*
X131766148Y-179352861D01*
X131601401Y-179106299D01*
X131354839Y-178941552D01*
X131095460Y-178889958D01*
X130432965Y-178227463D01*
X130532431Y-178081890D01*
X130583440Y-177830000D01*
X130583440Y-177130000D01*
X130539162Y-176894683D01*
X130400090Y-176678559D01*
X130187890Y-176533569D01*
X130174803Y-176530919D01*
X130387441Y-176394090D01*
X130532431Y-176181890D01*
X130583440Y-175930000D01*
X130583440Y-175230000D01*
X130539162Y-174994683D01*
X130400090Y-174778559D01*
X130187890Y-174633569D01*
X129972122Y-174589875D01*
X129823401Y-174367299D01*
X128776000Y-173319898D01*
X128776000Y-173098757D01*
X128817441Y-173072090D01*
X128962431Y-172859890D01*
X129013440Y-172608000D01*
X129013440Y-171308000D01*
X128974175Y-171099327D01*
X129255101Y-170818401D01*
X129419848Y-170571839D01*
X129477700Y-170281000D01*
X129477700Y-169995163D01*
X129509892Y-169963027D01*
X129652538Y-169619499D01*
X129652862Y-169247533D01*
X129510817Y-168903757D01*
X129248027Y-168640508D01*
X128904499Y-168497862D01*
X128532533Y-168497538D01*
X128188757Y-168639583D01*
X127925508Y-168902373D01*
X127782862Y-169245901D01*
X127782538Y-169617867D01*
X127924583Y-169961643D01*
X127943403Y-169980495D01*
X127478599Y-170445299D01*
X127313852Y-170691861D01*
X127293743Y-170792957D01*
X127214559Y-170843910D01*
X127069569Y-171056110D01*
X127062809Y-171089490D01*
X127004327Y-170948301D01*
X126825698Y-170769673D01*
X126592309Y-170673000D01*
X126401750Y-170673000D01*
X126243000Y-170831750D01*
X126243000Y-171831000D01*
X126263000Y-171831000D01*
X126263000Y-172085000D01*
X126243000Y-172085000D01*
X126243000Y-173084250D01*
X126401750Y-173243000D01*
X126592309Y-173243000D01*
X126825698Y-173146327D01*
X127004327Y-172967699D01*
X127060654Y-172831713D01*
X127062838Y-172843317D01*
X127201910Y-173059441D01*
X127256000Y-173096399D01*
X127256000Y-173634700D01*
X127313852Y-173925539D01*
X127478599Y-174172101D01*
X128139035Y-174832537D01*
X128039569Y-174978110D01*
X127988560Y-175230000D01*
X127988560Y-175930000D01*
X128032838Y-176165317D01*
X128171910Y-176381441D01*
X128384110Y-176526431D01*
X128397197Y-176529081D01*
X128184559Y-176665910D01*
X128039569Y-176878110D01*
X128003221Y-177057600D01*
X127216850Y-177057600D01*
X127212162Y-177032683D01*
X127073090Y-176816559D01*
X127004994Y-176770031D01*
X127147327Y-176627698D01*
X127244000Y-176394309D01*
X127244000Y-176053750D01*
X127085250Y-175895000D01*
X126111000Y-175895000D01*
X126111000Y-175915000D01*
X125857000Y-175915000D01*
X125857000Y-175895000D01*
X124882750Y-175895000D01*
X124724000Y-176053750D01*
X124724000Y-176394309D01*
X124753100Y-176464562D01*
X124663139Y-176404452D01*
X124372300Y-176346600D01*
X124172000Y-176346600D01*
X124172000Y-175141691D01*
X124724000Y-175141691D01*
X124724000Y-175482250D01*
X124882750Y-175641000D01*
X125857000Y-175641000D01*
X125857000Y-174791750D01*
X126111000Y-174791750D01*
X126111000Y-175641000D01*
X127085250Y-175641000D01*
X127244000Y-175482250D01*
X127244000Y-175141691D01*
X127147327Y-174908302D01*
X126968699Y-174729673D01*
X126735310Y-174633000D01*
X126269750Y-174633000D01*
X126111000Y-174791750D01*
X125857000Y-174791750D01*
X125698250Y-174633000D01*
X125232690Y-174633000D01*
X124999301Y-174729673D01*
X124820673Y-174908302D01*
X124724000Y-175141691D01*
X124172000Y-175141691D01*
X124172000Y-173170279D01*
X124363441Y-173047090D01*
X124508431Y-172834890D01*
X124559440Y-172583000D01*
X124559440Y-172243750D01*
X125131000Y-172243750D01*
X125131000Y-172734310D01*
X125227673Y-172967699D01*
X125406302Y-173146327D01*
X125639691Y-173243000D01*
X125830250Y-173243000D01*
X125989000Y-173084250D01*
X125989000Y-172085000D01*
X125289750Y-172085000D01*
X125131000Y-172243750D01*
X124559440Y-172243750D01*
X124559440Y-171333000D01*
X124530970Y-171181690D01*
X125131000Y-171181690D01*
X125131000Y-171672250D01*
X125289750Y-171831000D01*
X125989000Y-171831000D01*
X125989000Y-170831750D01*
X125830250Y-170673000D01*
X125639691Y-170673000D01*
X125406302Y-170769673D01*
X125227673Y-170948301D01*
X125131000Y-171181690D01*
X124530970Y-171181690D01*
X124515162Y-171097683D01*
X124376090Y-170881559D01*
X124163890Y-170736569D01*
X124116145Y-170726900D01*
X124114148Y-170716861D01*
X123949401Y-170470299D01*
X123431100Y-169951998D01*
X123431100Y-168658440D01*
X124230000Y-168658440D01*
X124465317Y-168614162D01*
X124681441Y-168475090D01*
X124727969Y-168406994D01*
X124870302Y-168549327D01*
X125103691Y-168646000D01*
X125444250Y-168646000D01*
X125603000Y-168487250D01*
X125603000Y-167513000D01*
X125857000Y-167513000D01*
X125857000Y-168487250D01*
X126015750Y-168646000D01*
X126356309Y-168646000D01*
X126589698Y-168549327D01*
X126768327Y-168370699D01*
X126865000Y-168137310D01*
X126865000Y-167671750D01*
X126706250Y-167513000D01*
X125857000Y-167513000D01*
X125603000Y-167513000D01*
X125583000Y-167513000D01*
X125583000Y-167259000D01*
X125603000Y-167259000D01*
X125603000Y-166284750D01*
X125857000Y-166284750D01*
X125857000Y-167259000D01*
X126706250Y-167259000D01*
X126801500Y-167163750D01*
X128913000Y-167163750D01*
X128913000Y-167629310D01*
X129009673Y-167862699D01*
X129188302Y-168041327D01*
X129421691Y-168138000D01*
X129762250Y-168138000D01*
X129921000Y-167979250D01*
X129921000Y-167005000D01*
X129071750Y-167005000D01*
X128913000Y-167163750D01*
X126801500Y-167163750D01*
X126865000Y-167100250D01*
X126865000Y-166634690D01*
X126768327Y-166401301D01*
X126589698Y-166222673D01*
X126357975Y-166126690D01*
X128913000Y-166126690D01*
X128913000Y-166592250D01*
X129071750Y-166751000D01*
X129921000Y-166751000D01*
X129921000Y-165776750D01*
X129762250Y-165618000D01*
X129421691Y-165618000D01*
X129188302Y-165714673D01*
X129009673Y-165893301D01*
X128913000Y-166126690D01*
X126357975Y-166126690D01*
X126356309Y-166126000D01*
X126015750Y-166126000D01*
X125857000Y-166284750D01*
X125603000Y-166284750D01*
X125444250Y-166126000D01*
X125103691Y-166126000D01*
X124870302Y-166222673D01*
X124729064Y-166363910D01*
X124694090Y-166309559D01*
X124481890Y-166164569D01*
X124230000Y-166113560D01*
X123230000Y-166113560D01*
X122994683Y-166157838D01*
X122778559Y-166296910D01*
X122633569Y-166509110D01*
X122595730Y-166695966D01*
X122367299Y-166848599D01*
X122356298Y-166859600D01*
X122282440Y-166859600D01*
X122282440Y-166482000D01*
X122238162Y-166246683D01*
X122099090Y-166030559D01*
X121886890Y-165885569D01*
X121635000Y-165834560D01*
X120935000Y-165834560D01*
X120699683Y-165878838D01*
X120483559Y-166017910D01*
X120338569Y-166230110D01*
X120335919Y-166243197D01*
X120199090Y-166030559D01*
X119986890Y-165885569D01*
X119735000Y-165834560D01*
X119035000Y-165834560D01*
X118799683Y-165878838D01*
X118583559Y-166017910D01*
X118438569Y-166230110D01*
X118387560Y-166482000D01*
X118387560Y-167782000D01*
X118387601Y-167782216D01*
X118367408Y-167802373D01*
X118224762Y-168145901D01*
X118224438Y-168517867D01*
X118366483Y-168861643D01*
X118605161Y-169100737D01*
X117656998Y-170048900D01*
X117656463Y-170048900D01*
X117624327Y-170016708D01*
X117280799Y-169874062D01*
X116908833Y-169873738D01*
X116565057Y-170015783D01*
X116531882Y-170048900D01*
X113206877Y-170048900D01*
X113206962Y-169951833D01*
X113090511Y-169670000D01*
X114335300Y-169670000D01*
X114626139Y-169612148D01*
X114872701Y-169447401D01*
X118647401Y-165672701D01*
X118795725Y-165450718D01*
X118995317Y-165413162D01*
X119019151Y-165397825D01*
X119052260Y-165419948D01*
X119343100Y-165477800D01*
X123440337Y-165477800D01*
X123472473Y-165509992D01*
X123816001Y-165652638D01*
X124187967Y-165652962D01*
X124531743Y-165510917D01*
X124794992Y-165248127D01*
X124937638Y-164904599D01*
X124937962Y-164532633D01*
X124795917Y-164188857D01*
X124533127Y-163925608D01*
X124508207Y-163915260D01*
X124644431Y-163715890D01*
X124695440Y-163464000D01*
X124695440Y-163099750D01*
X124849000Y-163099750D01*
X124849000Y-163565310D01*
X124945673Y-163798699D01*
X125124302Y-163977327D01*
X125357691Y-164074000D01*
X125698250Y-164074000D01*
X125857000Y-163915250D01*
X125857000Y-162941000D01*
X125007750Y-162941000D01*
X124849000Y-163099750D01*
X124695440Y-163099750D01*
X124695440Y-162164000D01*
X124651162Y-161928683D01*
X124512090Y-161712559D01*
X124299890Y-161567569D01*
X124048000Y-161516560D01*
X123348000Y-161516560D01*
X123112683Y-161560838D01*
X122896559Y-161699910D01*
X122751569Y-161912110D01*
X122748919Y-161925197D01*
X122612090Y-161712559D01*
X122558000Y-161675601D01*
X122558000Y-161205440D01*
X123840000Y-161205440D01*
X124075317Y-161161162D01*
X124291441Y-161022090D01*
X124328399Y-160968000D01*
X124650498Y-160968000D01*
X125271995Y-161589497D01*
X125124302Y-161650673D01*
X124945673Y-161829301D01*
X124849000Y-162062690D01*
X124849000Y-162528250D01*
X125007750Y-162687000D01*
X125857000Y-162687000D01*
X125857000Y-162667000D01*
X126111000Y-162667000D01*
X126111000Y-162687000D01*
X126131000Y-162687000D01*
X126131000Y-162941000D01*
X126111000Y-162941000D01*
X126111000Y-163915250D01*
X126269750Y-164074000D01*
X126610309Y-164074000D01*
X126843698Y-163977327D01*
X126984936Y-163836090D01*
X127019910Y-163890441D01*
X127232110Y-164035431D01*
X127484000Y-164086440D01*
X128484000Y-164086440D01*
X128719317Y-164042162D01*
X128867382Y-163946884D01*
X130304000Y-165383502D01*
X130304000Y-165647750D01*
X130175000Y-165776750D01*
X130175000Y-166751000D01*
X130195000Y-166751000D01*
X130195000Y-167005000D01*
X130175000Y-167005000D01*
X130175000Y-167979250D01*
X130304000Y-168108250D01*
X130304000Y-168803962D01*
X130203683Y-168822838D01*
X129987559Y-168961910D01*
X129842569Y-169174110D01*
X129791560Y-169426000D01*
X129791560Y-170426000D01*
X129835838Y-170661317D01*
X129974910Y-170877441D01*
X130043006Y-170923969D01*
X129900673Y-171066302D01*
X129804000Y-171299691D01*
X129804000Y-171640250D01*
X129962750Y-171799000D01*
X130937000Y-171799000D01*
X130937000Y-171779000D01*
X131191000Y-171779000D01*
X131191000Y-171799000D01*
X132165250Y-171799000D01*
X132324000Y-171640250D01*
X132324000Y-171299691D01*
X132227327Y-171066302D01*
X132086090Y-170925064D01*
X132140441Y-170890090D01*
X132285431Y-170677890D01*
X132336440Y-170426000D01*
X132336440Y-169426000D01*
X132292162Y-169190683D01*
X132153090Y-168974559D01*
X131940890Y-168829569D01*
X131824000Y-168805898D01*
X131824000Y-168150440D01*
X132548000Y-168150440D01*
X132783317Y-168106162D01*
X132999441Y-167967090D01*
X133144431Y-167754890D01*
X133195440Y-167503000D01*
X133195440Y-166253000D01*
X133151162Y-166017683D01*
X133012090Y-165801559D01*
X132808000Y-165662110D01*
X132808000Y-160525102D01*
X133362960Y-159970142D01*
X133362960Y-161137600D01*
G36*
X114418700Y-156691202D02*
X114418700Y-159070198D01*
X114111599Y-159377299D01*
X113946852Y-159623861D01*
X113889000Y-159914700D01*
X113889000Y-160458721D01*
X113697559Y-160581910D01*
X113651031Y-160650006D01*
X113508698Y-160507673D01*
X113275309Y-160411000D01*
X112934750Y-160411000D01*
X112776000Y-160569750D01*
X112776000Y-161544000D01*
X112796000Y-161544000D01*
X112796000Y-161798000D01*
X112776000Y-161798000D01*
X112776000Y-162772250D01*
X112934750Y-162931000D01*
X113275309Y-162931000D01*
X113508698Y-162834327D01*
X113649936Y-162693090D01*
X113684910Y-162747441D01*
X113897110Y-162892431D01*
X114149000Y-162943440D01*
X115149000Y-162943440D01*
X115384317Y-162899162D01*
X115600441Y-162760090D01*
X115745431Y-162547890D01*
X115796440Y-162296000D01*
X115796440Y-161046000D01*
X115752162Y-160810683D01*
X115613090Y-160594559D01*
X115409000Y-160455110D01*
X115409000Y-160229502D01*
X115493502Y-160145000D01*
X116249258Y-160145000D01*
X116272838Y-160270317D01*
X116411910Y-160486441D01*
X116624110Y-160631431D01*
X116876000Y-160682440D01*
X117576000Y-160682440D01*
X117811317Y-160638162D01*
X118027441Y-160499090D01*
X118172431Y-160286890D01*
X118175081Y-160273803D01*
X118311910Y-160486441D01*
X118366000Y-160523399D01*
X118366000Y-160553898D01*
X117572599Y-161347299D01*
X117424275Y-161569282D01*
X117224683Y-161606838D01*
X117008559Y-161745910D01*
X116863569Y-161958110D01*
X116812560Y-162210000D01*
X116812560Y-162910000D01*
X116856838Y-163145317D01*
X116995910Y-163361441D01*
X117208110Y-163506431D01*
X117221197Y-163509081D01*
X117008559Y-163645910D01*
X116863569Y-163858110D01*
X116812560Y-164110000D01*
X116812560Y-164810000D01*
X116856838Y-165045317D01*
X116961904Y-165208594D01*
X114020498Y-168150000D01*
X107402742Y-168150000D01*
X107379162Y-168024683D01*
X107240090Y-167808559D01*
X107027890Y-167663569D01*
X106776000Y-167612560D01*
X106076000Y-167612560D01*
X105840683Y-167656838D01*
X105624559Y-167795910D01*
X105479569Y-168008110D01*
X105476919Y-168021197D01*
X105340090Y-167808559D01*
X105127890Y-167663569D01*
X104876000Y-167612560D01*
X104176000Y-167612560D01*
X103940683Y-167656838D01*
X103742723Y-167784221D01*
X103259942Y-167301440D01*
X104028000Y-167301440D01*
X104263317Y-167257162D01*
X104479441Y-167118090D01*
X104624431Y-166905890D01*
X104675440Y-166654000D01*
X104675440Y-165954000D01*
X104631162Y-165718683D01*
X104492090Y-165502559D01*
X104279890Y-165357569D01*
X104266803Y-165354919D01*
X104479441Y-165218090D01*
X104624431Y-165005890D01*
X104675440Y-164754000D01*
X104675440Y-164054000D01*
X104631162Y-163818683D01*
X104495431Y-163607750D01*
X104815000Y-163607750D01*
X104815000Y-164073310D01*
X104911673Y-164306699D01*
X105090302Y-164485327D01*
X105323691Y-164582000D01*
X105664250Y-164582000D01*
X105823000Y-164423250D01*
X105823000Y-163449000D01*
X104973750Y-163449000D01*
X104815000Y-163607750D01*
X104495431Y-163607750D01*
X104492090Y-163602559D01*
X104279890Y-163457569D01*
X104064121Y-163413875D01*
X103915401Y-163191299D01*
X103294792Y-162570690D01*
X104815000Y-162570690D01*
X104815000Y-163036250D01*
X104973750Y-163195000D01*
X105823000Y-163195000D01*
X105823000Y-162220750D01*
X105664250Y-162062000D01*
X105323691Y-162062000D01*
X105090302Y-162158673D01*
X104911673Y-162337301D01*
X104815000Y-162570690D01*
X103294792Y-162570690D01*
X102455600Y-161731498D01*
X102455600Y-159492000D01*
X102648000Y-159492000D01*
X102648000Y-159512000D01*
X102668000Y-159512000D01*
X102668000Y-159766000D01*
X102648000Y-159766000D01*
X102648000Y-160740250D01*
X102806750Y-160899000D01*
X103147309Y-160899000D01*
X103380698Y-160802327D01*
X103521936Y-160661090D01*
X103556910Y-160715441D01*
X103769110Y-160860431D01*
X104021000Y-160911440D01*
X105021000Y-160911440D01*
X105256317Y-160867162D01*
X105472441Y-160728090D01*
X105617431Y-160515890D01*
X105668440Y-160264000D01*
X105668440Y-159014000D01*
X105640023Y-158862979D01*
X106745600Y-157757402D01*
X106745600Y-161927300D01*
X106790000Y-162150514D01*
X106576309Y-162062000D01*
X106235750Y-162062000D01*
X106077000Y-162220750D01*
X106077000Y-163195000D01*
X106097000Y-163195000D01*
X106097000Y-163449000D01*
X106077000Y-163449000D01*
X106077000Y-164423250D01*
X106235750Y-164582000D01*
X106576309Y-164582000D01*
X106809698Y-164485327D01*
X106950936Y-164344090D01*
X106985910Y-164398441D01*
X107198110Y-164543431D01*
X107450000Y-164594440D01*
X108450000Y-164594440D01*
X108685317Y-164550162D01*
X108833626Y-164454728D01*
X109254299Y-164875401D01*
X109481663Y-165027321D01*
X109513838Y-165198317D01*
X109652910Y-165414441D01*
X109865110Y-165559431D01*
X110117000Y-165610440D01*
X111117000Y-165610440D01*
X111352317Y-165566162D01*
X111568441Y-165427090D01*
X111614969Y-165358994D01*
X111757302Y-165501327D01*
X111990691Y-165598000D01*
X112331250Y-165598000D01*
X112490000Y-165439250D01*
X112490000Y-164465000D01*
X112744000Y-164465000D01*
X112744000Y-165439250D01*
X112902750Y-165598000D01*
X113243309Y-165598000D01*
X113476698Y-165501327D01*
X113655327Y-165322699D01*
X113752000Y-165089310D01*
X113752000Y-164623750D01*
X113593250Y-164465000D01*
X112744000Y-164465000D01*
X112490000Y-164465000D01*
X112470000Y-164465000D01*
X112470000Y-164211000D01*
X112490000Y-164211000D01*
X112490000Y-163236750D01*
X112744000Y-163236750D01*
X112744000Y-164211000D01*
X113593250Y-164211000D01*
X113752000Y-164052250D01*
X113752000Y-163586690D01*
X113655327Y-163353301D01*
X113476698Y-163174673D01*
X113243309Y-163078000D01*
X112902750Y-163078000D01*
X112744000Y-163236750D01*
X112490000Y-163236750D01*
X112331250Y-163078000D01*
X111990691Y-163078000D01*
X111757302Y-163174673D01*
X111616064Y-163315910D01*
X111581090Y-163261559D01*
X111368890Y-163116569D01*
X111117000Y-163065560D01*
X110117000Y-163065560D01*
X109916300Y-163103324D01*
X109916300Y-161956750D01*
X111514000Y-161956750D01*
X111514000Y-162422310D01*
X111610673Y-162655699D01*
X111789302Y-162834327D01*
X112022691Y-162931000D01*
X112363250Y-162931000D01*
X112522000Y-162772250D01*
X112522000Y-161798000D01*
X111672750Y-161798000D01*
X111514000Y-161956750D01*
X109916300Y-161956750D01*
X109916300Y-160919690D01*
X111514000Y-160919690D01*
X111514000Y-161385250D01*
X111672750Y-161544000D01*
X112522000Y-161544000D01*
X112522000Y-160569750D01*
X112363250Y-160411000D01*
X112022691Y-160411000D01*
X111789302Y-160507673D01*
X111610673Y-160686301D01*
X111514000Y-160919690D01*
X109916300Y-160919690D01*
X109916300Y-160518000D01*
X110045250Y-160518000D01*
X110204000Y-160359250D01*
X110204000Y-159385000D01*
X110458000Y-159385000D01*
X110458000Y-160359250D01*
X110616750Y-160518000D01*
X110957309Y-160518000D01*
X111190698Y-160421327D01*
X111369327Y-160242699D01*
X111466000Y-160009310D01*
X111466000Y-159543750D01*
X111307250Y-159385000D01*
X110458000Y-159385000D01*
X110204000Y-159385000D01*
X110184000Y-159385000D01*
X110184000Y-159131000D01*
X110204000Y-159131000D01*
X110204000Y-159111000D01*
X110458000Y-159111000D01*
X110458000Y-159131000D01*
X111307250Y-159131000D01*
X111466000Y-158972250D01*
X111466000Y-158506690D01*
X111369327Y-158273301D01*
X111190698Y-158094673D01*
X110957309Y-157998000D01*
X110636435Y-157998000D01*
X110742048Y-157839939D01*
X110799900Y-157549100D01*
X110799900Y-153072402D01*
X114418700Y-156691202D01*
X114418700Y-156691202D01*
G37*
X114418700Y-156691202D02*
X114418700Y-159070198D01*
X114111599Y-159377299D01*
X113946852Y-159623861D01*
X113889000Y-159914700D01*
X113889000Y-160458721D01*
X113697559Y-160581910D01*
X113651031Y-160650006D01*
X113508698Y-160507673D01*
X113275309Y-160411000D01*
X112934750Y-160411000D01*
X112776000Y-160569750D01*
X112776000Y-161544000D01*
X112796000Y-161544000D01*
X112796000Y-161798000D01*
X112776000Y-161798000D01*
X112776000Y-162772250D01*
X112934750Y-162931000D01*
X113275309Y-162931000D01*
X113508698Y-162834327D01*
X113649936Y-162693090D01*
X113684910Y-162747441D01*
X113897110Y-162892431D01*
X114149000Y-162943440D01*
X115149000Y-162943440D01*
X115384317Y-162899162D01*
X115600441Y-162760090D01*
X115745431Y-162547890D01*
X115796440Y-162296000D01*
X115796440Y-161046000D01*
X115752162Y-160810683D01*
X115613090Y-160594559D01*
X115409000Y-160455110D01*
X115409000Y-160229502D01*
X115493502Y-160145000D01*
X116249258Y-160145000D01*
X116272838Y-160270317D01*
X116411910Y-160486441D01*
X116624110Y-160631431D01*
X116876000Y-160682440D01*
X117576000Y-160682440D01*
X117811317Y-160638162D01*
X118027441Y-160499090D01*
X118172431Y-160286890D01*
X118175081Y-160273803D01*
X118311910Y-160486441D01*
X118366000Y-160523399D01*
X118366000Y-160553898D01*
X117572599Y-161347299D01*
X117424275Y-161569282D01*
X117224683Y-161606838D01*
X117008559Y-161745910D01*
X116863569Y-161958110D01*
X116812560Y-162210000D01*
X116812560Y-162910000D01*
X116856838Y-163145317D01*
X116995910Y-163361441D01*
X117208110Y-163506431D01*
X117221197Y-163509081D01*
X117008559Y-163645910D01*
X116863569Y-163858110D01*
X116812560Y-164110000D01*
X116812560Y-164810000D01*
X116856838Y-165045317D01*
X116961904Y-165208594D01*
X114020498Y-168150000D01*
X107402742Y-168150000D01*
X107379162Y-168024683D01*
X107240090Y-167808559D01*
X107027890Y-167663569D01*
X106776000Y-167612560D01*
X106076000Y-167612560D01*
X105840683Y-167656838D01*
X105624559Y-167795910D01*
X105479569Y-168008110D01*
X105476919Y-168021197D01*
X105340090Y-167808559D01*
X105127890Y-167663569D01*
X104876000Y-167612560D01*
X104176000Y-167612560D01*
X103940683Y-167656838D01*
X103742723Y-167784221D01*
X103259942Y-167301440D01*
X104028000Y-167301440D01*
X104263317Y-167257162D01*
X104479441Y-167118090D01*
X104624431Y-166905890D01*
X104675440Y-166654000D01*
X104675440Y-165954000D01*
X104631162Y-165718683D01*
X104492090Y-165502559D01*
X104279890Y-165357569D01*
X104266803Y-165354919D01*
X104479441Y-165218090D01*
X104624431Y-165005890D01*
X104675440Y-164754000D01*
X104675440Y-164054000D01*
X104631162Y-163818683D01*
X104495431Y-163607750D01*
X104815000Y-163607750D01*
X104815000Y-164073310D01*
X104911673Y-164306699D01*
X105090302Y-164485327D01*
X105323691Y-164582000D01*
X105664250Y-164582000D01*
X105823000Y-164423250D01*
X105823000Y-163449000D01*
X104973750Y-163449000D01*
X104815000Y-163607750D01*
X104495431Y-163607750D01*
X104492090Y-163602559D01*
X104279890Y-163457569D01*
X104064121Y-163413875D01*
X103915401Y-163191299D01*
X103294792Y-162570690D01*
X104815000Y-162570690D01*
X104815000Y-163036250D01*
X104973750Y-163195000D01*
X105823000Y-163195000D01*
X105823000Y-162220750D01*
X105664250Y-162062000D01*
X105323691Y-162062000D01*
X105090302Y-162158673D01*
X104911673Y-162337301D01*
X104815000Y-162570690D01*
X103294792Y-162570690D01*
X102455600Y-161731498D01*
X102455600Y-159492000D01*
X102648000Y-159492000D01*
X102648000Y-159512000D01*
X102668000Y-159512000D01*
X102668000Y-159766000D01*
X102648000Y-159766000D01*
X102648000Y-160740250D01*
X102806750Y-160899000D01*
X103147309Y-160899000D01*
X103380698Y-160802327D01*
X103521936Y-160661090D01*
X103556910Y-160715441D01*
X103769110Y-160860431D01*
X104021000Y-160911440D01*
X105021000Y-160911440D01*
X105256317Y-160867162D01*
X105472441Y-160728090D01*
X105617431Y-160515890D01*
X105668440Y-160264000D01*
X105668440Y-159014000D01*
X105640023Y-158862979D01*
X106745600Y-157757402D01*
X106745600Y-161927300D01*
X106790000Y-162150514D01*
X106576309Y-162062000D01*
X106235750Y-162062000D01*
X106077000Y-162220750D01*
X106077000Y-163195000D01*
X106097000Y-163195000D01*
X106097000Y-163449000D01*
X106077000Y-163449000D01*
X106077000Y-164423250D01*
X106235750Y-164582000D01*
X106576309Y-164582000D01*
X106809698Y-164485327D01*
X106950936Y-164344090D01*
X106985910Y-164398441D01*
X107198110Y-164543431D01*
X107450000Y-164594440D01*
X108450000Y-164594440D01*
X108685317Y-164550162D01*
X108833626Y-164454728D01*
X109254299Y-164875401D01*
X109481663Y-165027321D01*
X109513838Y-165198317D01*
X109652910Y-165414441D01*
X109865110Y-165559431D01*
X110117000Y-165610440D01*
X111117000Y-165610440D01*
X111352317Y-165566162D01*
X111568441Y-165427090D01*
X111614969Y-165358994D01*
X111757302Y-165501327D01*
X111990691Y-165598000D01*
X112331250Y-165598000D01*
X112490000Y-165439250D01*
X112490000Y-164465000D01*
X112744000Y-164465000D01*
X112744000Y-165439250D01*
X112902750Y-165598000D01*
X113243309Y-165598000D01*
X113476698Y-165501327D01*
X113655327Y-165322699D01*
X113752000Y-165089310D01*
X113752000Y-164623750D01*
X113593250Y-164465000D01*
X112744000Y-164465000D01*
X112490000Y-164465000D01*
X112470000Y-164465000D01*
X112470000Y-164211000D01*
X112490000Y-164211000D01*
X112490000Y-163236750D01*
X112744000Y-163236750D01*
X112744000Y-164211000D01*
X113593250Y-164211000D01*
X113752000Y-164052250D01*
X113752000Y-163586690D01*
X113655327Y-163353301D01*
X113476698Y-163174673D01*
X113243309Y-163078000D01*
X112902750Y-163078000D01*
X112744000Y-163236750D01*
X112490000Y-163236750D01*
X112331250Y-163078000D01*
X111990691Y-163078000D01*
X111757302Y-163174673D01*
X111616064Y-163315910D01*
X111581090Y-163261559D01*
X111368890Y-163116569D01*
X111117000Y-163065560D01*
X110117000Y-163065560D01*
X109916300Y-163103324D01*
X109916300Y-161956750D01*
X111514000Y-161956750D01*
X111514000Y-162422310D01*
X111610673Y-162655699D01*
X111789302Y-162834327D01*
X112022691Y-162931000D01*
X112363250Y-162931000D01*
X112522000Y-162772250D01*
X112522000Y-161798000D01*
X111672750Y-161798000D01*
X111514000Y-161956750D01*
X109916300Y-161956750D01*
X109916300Y-160919690D01*
X111514000Y-160919690D01*
X111514000Y-161385250D01*
X111672750Y-161544000D01*
X112522000Y-161544000D01*
X112522000Y-160569750D01*
X112363250Y-160411000D01*
X112022691Y-160411000D01*
X111789302Y-160507673D01*
X111610673Y-160686301D01*
X111514000Y-160919690D01*
X109916300Y-160919690D01*
X109916300Y-160518000D01*
X110045250Y-160518000D01*
X110204000Y-160359250D01*
X110204000Y-159385000D01*
X110458000Y-159385000D01*
X110458000Y-160359250D01*
X110616750Y-160518000D01*
X110957309Y-160518000D01*
X111190698Y-160421327D01*
X111369327Y-160242699D01*
X111466000Y-160009310D01*
X111466000Y-159543750D01*
X111307250Y-159385000D01*
X110458000Y-159385000D01*
X110204000Y-159385000D01*
X110184000Y-159385000D01*
X110184000Y-159131000D01*
X110204000Y-159131000D01*
X110204000Y-159111000D01*
X110458000Y-159111000D01*
X110458000Y-159131000D01*
X111307250Y-159131000D01*
X111466000Y-158972250D01*
X111466000Y-158506690D01*
X111369327Y-158273301D01*
X111190698Y-158094673D01*
X110957309Y-157998000D01*
X110636435Y-157998000D01*
X110742048Y-157839939D01*
X110799900Y-157549100D01*
X110799900Y-153072402D01*
X114418700Y-156691202D01*
G36*
X120345600Y-163603100D02*
X120403452Y-163893939D01*
X120446122Y-163957800D01*
X119657902Y-163957800D01*
X119622701Y-163922599D01*
X119376139Y-163757852D01*
X119275043Y-163737743D01*
X119224090Y-163658559D01*
X119011890Y-163513569D01*
X118998803Y-163510919D01*
X119211441Y-163374090D01*
X119356431Y-163161890D01*
X119407440Y-162910000D01*
X119407440Y-162210000D01*
X119363162Y-161974683D01*
X119258096Y-161811406D01*
X119663401Y-161406101D01*
X119828148Y-161159539D01*
X119886000Y-160868700D01*
X119886000Y-160525757D01*
X119927441Y-160499090D01*
X120072431Y-160286890D01*
X120116125Y-160071121D01*
X120338701Y-159922401D01*
X120345600Y-159915502D01*
X120345600Y-163603100D01*
X120345600Y-163603100D01*
G37*
X120345600Y-163603100D02*
X120403452Y-163893939D01*
X120446122Y-163957800D01*
X119657902Y-163957800D01*
X119622701Y-163922599D01*
X119376139Y-163757852D01*
X119275043Y-163737743D01*
X119224090Y-163658559D01*
X119011890Y-163513569D01*
X118998803Y-163510919D01*
X119211441Y-163374090D01*
X119356431Y-163161890D01*
X119407440Y-162910000D01*
X119407440Y-162210000D01*
X119363162Y-161974683D01*
X119258096Y-161811406D01*
X119663401Y-161406101D01*
X119828148Y-161159539D01*
X119886000Y-160868700D01*
X119886000Y-160525757D01*
X119927441Y-160499090D01*
X120072431Y-160286890D01*
X120116125Y-160071121D01*
X120338701Y-159922401D01*
X120345600Y-159915502D01*
X120345600Y-163603100D01*
G36*
X94361000Y-162687000D02*
X94381000Y-162687000D01*
X94381000Y-162941000D01*
X94361000Y-162941000D01*
X94361000Y-162961000D01*
X94107000Y-162961000D01*
X94107000Y-162941000D01*
X94087000Y-162941000D01*
X94087000Y-162687000D01*
X94107000Y-162687000D01*
X94107000Y-162667000D01*
X94361000Y-162667000D01*
X94361000Y-162687000D01*
X94361000Y-162687000D01*
G37*
X94361000Y-162687000D02*
X94381000Y-162687000D01*
X94381000Y-162941000D01*
X94361000Y-162941000D01*
X94361000Y-162961000D01*
X94107000Y-162961000D01*
X94107000Y-162941000D01*
X94087000Y-162941000D01*
X94087000Y-162687000D01*
X94107000Y-162687000D01*
X94107000Y-162667000D01*
X94361000Y-162667000D01*
X94361000Y-162687000D01*
G36*
X96314569Y-149648110D02*
X96263560Y-149900000D01*
X96263560Y-150900000D01*
X96307838Y-151135317D01*
X96446910Y-151351441D01*
X96515006Y-151397969D01*
X96372673Y-151540302D01*
X96276000Y-151773691D01*
X96276000Y-152114250D01*
X96434750Y-152273000D01*
X97409000Y-152273000D01*
X97409000Y-152253000D01*
X97663000Y-152253000D01*
X97663000Y-152273000D01*
X98637250Y-152273000D01*
X98796000Y-152114250D01*
X98796000Y-151784502D01*
X100439635Y-153428137D01*
X100396200Y-153646500D01*
X100396200Y-158616256D01*
X100294000Y-158595560D01*
X99594000Y-158595560D01*
X99358683Y-158639838D01*
X99142559Y-158778910D01*
X99020208Y-158957977D01*
X98965146Y-158957929D01*
X98858090Y-158791559D01*
X98645890Y-158646569D01*
X98394000Y-158595560D01*
X97694000Y-158595560D01*
X97458683Y-158639838D01*
X97242559Y-158778910D01*
X97097569Y-158991110D01*
X97053875Y-159206879D01*
X96831299Y-159355599D01*
X95724480Y-160462418D01*
X95761959Y-160274000D01*
X95647885Y-159700511D01*
X95323029Y-159214330D01*
X94973211Y-158980589D01*
X94938729Y-158807238D01*
X94936148Y-158794260D01*
X94771401Y-158547699D01*
X91736600Y-155512898D01*
X91736600Y-153698650D01*
X91821000Y-153614250D01*
X91821000Y-152765000D01*
X92075000Y-152765000D01*
X92075000Y-153614250D01*
X92233750Y-153773000D01*
X92465610Y-153773000D01*
X92465538Y-153855167D01*
X92607583Y-154198943D01*
X92870373Y-154462192D01*
X93213901Y-154604838D01*
X93585867Y-154605162D01*
X93929643Y-154463117D01*
X94192892Y-154200327D01*
X94335538Y-153856799D01*
X94335862Y-153484833D01*
X94193817Y-153141057D01*
X93931027Y-152877808D01*
X93587499Y-152735162D01*
X93215533Y-152734838D01*
X93076525Y-152792275D01*
X93049250Y-152765000D01*
X92075000Y-152765000D01*
X91821000Y-152765000D01*
X91801000Y-152765000D01*
X91801000Y-152685750D01*
X96276000Y-152685750D01*
X96276000Y-153026309D01*
X96372673Y-153259698D01*
X96551301Y-153438327D01*
X96784690Y-153535000D01*
X97250250Y-153535000D01*
X97409000Y-153376250D01*
X97409000Y-152527000D01*
X97663000Y-152527000D01*
X97663000Y-153376250D01*
X97821750Y-153535000D01*
X98287310Y-153535000D01*
X98520699Y-153438327D01*
X98699327Y-153259698D01*
X98796000Y-153026309D01*
X98796000Y-152685750D01*
X98637250Y-152527000D01*
X97663000Y-152527000D01*
X97409000Y-152527000D01*
X96434750Y-152527000D01*
X96276000Y-152685750D01*
X91801000Y-152685750D01*
X91801000Y-152511000D01*
X91821000Y-152511000D01*
X91821000Y-152491000D01*
X92075000Y-152491000D01*
X92075000Y-152511000D01*
X93049250Y-152511000D01*
X93208000Y-152352250D01*
X93208000Y-152011691D01*
X93111327Y-151778302D01*
X92970090Y-151637064D01*
X93024441Y-151602090D01*
X93169431Y-151389890D01*
X93220440Y-151138000D01*
X93220440Y-150138000D01*
X93176162Y-149902683D01*
X93080884Y-149754618D01*
X93381502Y-149454000D01*
X96447199Y-149454000D01*
X96314569Y-149648110D01*
X96314569Y-149648110D01*
G37*
X96314569Y-149648110D02*
X96263560Y-149900000D01*
X96263560Y-150900000D01*
X96307838Y-151135317D01*
X96446910Y-151351441D01*
X96515006Y-151397969D01*
X96372673Y-151540302D01*
X96276000Y-151773691D01*
X96276000Y-152114250D01*
X96434750Y-152273000D01*
X97409000Y-152273000D01*
X97409000Y-152253000D01*
X97663000Y-152253000D01*
X97663000Y-152273000D01*
X98637250Y-152273000D01*
X98796000Y-152114250D01*
X98796000Y-151784502D01*
X100439635Y-153428137D01*
X100396200Y-153646500D01*
X100396200Y-158616256D01*
X100294000Y-158595560D01*
X99594000Y-158595560D01*
X99358683Y-158639838D01*
X99142559Y-158778910D01*
X99020208Y-158957977D01*
X98965146Y-158957929D01*
X98858090Y-158791559D01*
X98645890Y-158646569D01*
X98394000Y-158595560D01*
X97694000Y-158595560D01*
X97458683Y-158639838D01*
X97242559Y-158778910D01*
X97097569Y-158991110D01*
X97053875Y-159206879D01*
X96831299Y-159355599D01*
X95724480Y-160462418D01*
X95761959Y-160274000D01*
X95647885Y-159700511D01*
X95323029Y-159214330D01*
X94973211Y-158980589D01*
X94938729Y-158807238D01*
X94936148Y-158794260D01*
X94771401Y-158547699D01*
X91736600Y-155512898D01*
X91736600Y-153698650D01*
X91821000Y-153614250D01*
X91821000Y-152765000D01*
X92075000Y-152765000D01*
X92075000Y-153614250D01*
X92233750Y-153773000D01*
X92465610Y-153773000D01*
X92465538Y-153855167D01*
X92607583Y-154198943D01*
X92870373Y-154462192D01*
X93213901Y-154604838D01*
X93585867Y-154605162D01*
X93929643Y-154463117D01*
X94192892Y-154200327D01*
X94335538Y-153856799D01*
X94335862Y-153484833D01*
X94193817Y-153141057D01*
X93931027Y-152877808D01*
X93587499Y-152735162D01*
X93215533Y-152734838D01*
X93076525Y-152792275D01*
X93049250Y-152765000D01*
X92075000Y-152765000D01*
X91821000Y-152765000D01*
X91801000Y-152765000D01*
X91801000Y-152685750D01*
X96276000Y-152685750D01*
X96276000Y-153026309D01*
X96372673Y-153259698D01*
X96551301Y-153438327D01*
X96784690Y-153535000D01*
X97250250Y-153535000D01*
X97409000Y-153376250D01*
X97409000Y-152527000D01*
X97663000Y-152527000D01*
X97663000Y-153376250D01*
X97821750Y-153535000D01*
X98287310Y-153535000D01*
X98520699Y-153438327D01*
X98699327Y-153259698D01*
X98796000Y-153026309D01*
X98796000Y-152685750D01*
X98637250Y-152527000D01*
X97663000Y-152527000D01*
X97409000Y-152527000D01*
X96434750Y-152527000D01*
X96276000Y-152685750D01*
X91801000Y-152685750D01*
X91801000Y-152511000D01*
X91821000Y-152511000D01*
X91821000Y-152491000D01*
X92075000Y-152491000D01*
X92075000Y-152511000D01*
X93049250Y-152511000D01*
X93208000Y-152352250D01*
X93208000Y-152011691D01*
X93111327Y-151778302D01*
X92970090Y-151637064D01*
X93024441Y-151602090D01*
X93169431Y-151389890D01*
X93220440Y-151138000D01*
X93220440Y-150138000D01*
X93176162Y-149902683D01*
X93080884Y-149754618D01*
X93381502Y-149454000D01*
X96447199Y-149454000D01*
X96314569Y-149648110D01*
G36*
X134689910Y-158327441D02*
X134902110Y-158472431D01*
X135154000Y-158523440D01*
X135854000Y-158523440D01*
X136089317Y-158479162D01*
X136305441Y-158340090D01*
X136427774Y-158161050D01*
X136555967Y-158161162D01*
X136598284Y-158143677D01*
X136655860Y-158182148D01*
X136756957Y-158202258D01*
X136807910Y-158281441D01*
X137020110Y-158426431D01*
X137272000Y-158477440D01*
X138572000Y-158477440D01*
X138807317Y-158433162D01*
X138811000Y-158430792D01*
X138811000Y-159775043D01*
X138696688Y-159499053D01*
X138302490Y-159067179D01*
X137773027Y-158819032D01*
X137541000Y-158939531D01*
X137541000Y-160147000D01*
X137561000Y-160147000D01*
X137561000Y-160401000D01*
X137541000Y-160401000D01*
X137541000Y-160421000D01*
X137287000Y-160421000D01*
X137287000Y-160401000D01*
X137267000Y-160401000D01*
X137267000Y-160147000D01*
X137287000Y-160147000D01*
X137287000Y-158939531D01*
X137054973Y-158819032D01*
X136525510Y-159067179D01*
X136355505Y-159253433D01*
X136340762Y-159175083D01*
X136201690Y-158958959D01*
X135989490Y-158813969D01*
X135737600Y-158762960D01*
X134342386Y-158762960D01*
X134364000Y-158654300D01*
X134364000Y-158366757D01*
X134405441Y-158340090D01*
X134550431Y-158127890D01*
X134553081Y-158114803D01*
X134689910Y-158327441D01*
X134689910Y-158327441D01*
G37*
X134689910Y-158327441D02*
X134902110Y-158472431D01*
X135154000Y-158523440D01*
X135854000Y-158523440D01*
X136089317Y-158479162D01*
X136305441Y-158340090D01*
X136427774Y-158161050D01*
X136555967Y-158161162D01*
X136598284Y-158143677D01*
X136655860Y-158182148D01*
X136756957Y-158202258D01*
X136807910Y-158281441D01*
X137020110Y-158426431D01*
X137272000Y-158477440D01*
X138572000Y-158477440D01*
X138807317Y-158433162D01*
X138811000Y-158430792D01*
X138811000Y-159775043D01*
X138696688Y-159499053D01*
X138302490Y-159067179D01*
X137773027Y-158819032D01*
X137541000Y-158939531D01*
X137541000Y-160147000D01*
X137561000Y-160147000D01*
X137561000Y-160401000D01*
X137541000Y-160401000D01*
X137541000Y-160421000D01*
X137287000Y-160421000D01*
X137287000Y-160401000D01*
X137267000Y-160401000D01*
X137267000Y-160147000D01*
X137287000Y-160147000D01*
X137287000Y-158939531D01*
X137054973Y-158819032D01*
X136525510Y-159067179D01*
X136355505Y-159253433D01*
X136340762Y-159175083D01*
X136201690Y-158958959D01*
X135989490Y-158813969D01*
X135737600Y-158762960D01*
X134342386Y-158762960D01*
X134364000Y-158654300D01*
X134364000Y-158366757D01*
X134405441Y-158340090D01*
X134550431Y-158127890D01*
X134553081Y-158114803D01*
X134689910Y-158327441D01*
G36*
X119123560Y-150884000D02*
X119167838Y-151119317D01*
X119306910Y-151335441D01*
X119375006Y-151381969D01*
X119232673Y-151524302D01*
X119136000Y-151757691D01*
X119136000Y-152098250D01*
X119294750Y-152257000D01*
X120269000Y-152257000D01*
X120269000Y-152237000D01*
X120523000Y-152237000D01*
X120523000Y-152257000D01*
X121497250Y-152257000D01*
X121656000Y-152098250D01*
X121656000Y-151757691D01*
X121559327Y-151524302D01*
X121418090Y-151383064D01*
X121472441Y-151348090D01*
X121617431Y-151135890D01*
X121668440Y-150884000D01*
X121668440Y-150318700D01*
X124965560Y-150318700D01*
X124965560Y-150884000D01*
X125009838Y-151119317D01*
X125148910Y-151335441D01*
X125217006Y-151381969D01*
X125074673Y-151524302D01*
X124978000Y-151757691D01*
X124978000Y-152098250D01*
X125136750Y-152257000D01*
X126111000Y-152257000D01*
X126111000Y-152237000D01*
X126365000Y-152237000D01*
X126365000Y-152257000D01*
X126385000Y-152257000D01*
X126385000Y-152511000D01*
X126365000Y-152511000D01*
X126365000Y-152531000D01*
X126111000Y-152531000D01*
X126111000Y-152511000D01*
X125136750Y-152511000D01*
X124978000Y-152669750D01*
X124978000Y-153010309D01*
X125035459Y-153149027D01*
X124815499Y-153295999D01*
X119873463Y-158238035D01*
X119727890Y-158138569D01*
X119476000Y-158087560D01*
X118776000Y-158087560D01*
X118540683Y-158131838D01*
X118324559Y-158270910D01*
X118179569Y-158483110D01*
X118176919Y-158496197D01*
X118040090Y-158283559D01*
X117827890Y-158138569D01*
X117576000Y-158087560D01*
X116876000Y-158087560D01*
X116640683Y-158131838D01*
X116424559Y-158270910D01*
X116279569Y-158483110D01*
X116250836Y-158625000D01*
X115938700Y-158625000D01*
X115938700Y-156376400D01*
X115880848Y-156085561D01*
X115716101Y-155838999D01*
X110589702Y-150712600D01*
X112497936Y-150712600D01*
X112393462Y-150964201D01*
X112393138Y-151336167D01*
X112535183Y-151679943D01*
X112797973Y-151943192D01*
X113141501Y-152085838D01*
X113188377Y-152085879D01*
X116535100Y-155432602D01*
X116535100Y-155922937D01*
X116502908Y-155955073D01*
X116360262Y-156298601D01*
X116359938Y-156670567D01*
X116501983Y-157014343D01*
X116764773Y-157277592D01*
X117108301Y-157420238D01*
X117480267Y-157420562D01*
X117824043Y-157278517D01*
X118087292Y-157015727D01*
X118229938Y-156672199D01*
X118230262Y-156300233D01*
X118088217Y-155956457D01*
X118055100Y-155923282D01*
X118055100Y-155117800D01*
X118042051Y-155052200D01*
X117997248Y-154826960D01*
X117832501Y-154580399D01*
X115921852Y-152669750D01*
X119136000Y-152669750D01*
X119136000Y-153010309D01*
X119232673Y-153243698D01*
X119411301Y-153422327D01*
X119644690Y-153519000D01*
X120110250Y-153519000D01*
X120269000Y-153360250D01*
X120269000Y-152511000D01*
X120523000Y-152511000D01*
X120523000Y-153360250D01*
X120681750Y-153519000D01*
X121147310Y-153519000D01*
X121380699Y-153422327D01*
X121559327Y-153243698D01*
X121656000Y-153010309D01*
X121656000Y-152669750D01*
X121497250Y-152511000D01*
X120523000Y-152511000D01*
X120269000Y-152511000D01*
X119294750Y-152511000D01*
X119136000Y-152669750D01*
X115921852Y-152669750D01*
X114263422Y-151011320D01*
X114263462Y-150965833D01*
X114158829Y-150712600D01*
X117208100Y-150712600D01*
X117498939Y-150654748D01*
X117739784Y-150493821D01*
X117787167Y-150493862D01*
X118130943Y-150351817D01*
X118164118Y-150318700D01*
X119123560Y-150318700D01*
X119123560Y-150884000D01*
X119123560Y-150884000D01*
G37*
X119123560Y-150884000D02*
X119167838Y-151119317D01*
X119306910Y-151335441D01*
X119375006Y-151381969D01*
X119232673Y-151524302D01*
X119136000Y-151757691D01*
X119136000Y-152098250D01*
X119294750Y-152257000D01*
X120269000Y-152257000D01*
X120269000Y-152237000D01*
X120523000Y-152237000D01*
X120523000Y-152257000D01*
X121497250Y-152257000D01*
X121656000Y-152098250D01*
X121656000Y-151757691D01*
X121559327Y-151524302D01*
X121418090Y-151383064D01*
X121472441Y-151348090D01*
X121617431Y-151135890D01*
X121668440Y-150884000D01*
X121668440Y-150318700D01*
X124965560Y-150318700D01*
X124965560Y-150884000D01*
X125009838Y-151119317D01*
X125148910Y-151335441D01*
X125217006Y-151381969D01*
X125074673Y-151524302D01*
X124978000Y-151757691D01*
X124978000Y-152098250D01*
X125136750Y-152257000D01*
X126111000Y-152257000D01*
X126111000Y-152237000D01*
X126365000Y-152237000D01*
X126365000Y-152257000D01*
X126385000Y-152257000D01*
X126385000Y-152511000D01*
X126365000Y-152511000D01*
X126365000Y-152531000D01*
X126111000Y-152531000D01*
X126111000Y-152511000D01*
X125136750Y-152511000D01*
X124978000Y-152669750D01*
X124978000Y-153010309D01*
X125035459Y-153149027D01*
X124815499Y-153295999D01*
X119873463Y-158238035D01*
X119727890Y-158138569D01*
X119476000Y-158087560D01*
X118776000Y-158087560D01*
X118540683Y-158131838D01*
X118324559Y-158270910D01*
X118179569Y-158483110D01*
X118176919Y-158496197D01*
X118040090Y-158283559D01*
X117827890Y-158138569D01*
X117576000Y-158087560D01*
X116876000Y-158087560D01*
X116640683Y-158131838D01*
X116424559Y-158270910D01*
X116279569Y-158483110D01*
X116250836Y-158625000D01*
X115938700Y-158625000D01*
X115938700Y-156376400D01*
X115880848Y-156085561D01*
X115716101Y-155838999D01*
X110589702Y-150712600D01*
X112497936Y-150712600D01*
X112393462Y-150964201D01*
X112393138Y-151336167D01*
X112535183Y-151679943D01*
X112797973Y-151943192D01*
X113141501Y-152085838D01*
X113188377Y-152085879D01*
X116535100Y-155432602D01*
X116535100Y-155922937D01*
X116502908Y-155955073D01*
X116360262Y-156298601D01*
X116359938Y-156670567D01*
X116501983Y-157014343D01*
X116764773Y-157277592D01*
X117108301Y-157420238D01*
X117480267Y-157420562D01*
X117824043Y-157278517D01*
X118087292Y-157015727D01*
X118229938Y-156672199D01*
X118230262Y-156300233D01*
X118088217Y-155956457D01*
X118055100Y-155923282D01*
X118055100Y-155117800D01*
X118042051Y-155052200D01*
X117997248Y-154826960D01*
X117832501Y-154580399D01*
X115921852Y-152669750D01*
X119136000Y-152669750D01*
X119136000Y-153010309D01*
X119232673Y-153243698D01*
X119411301Y-153422327D01*
X119644690Y-153519000D01*
X120110250Y-153519000D01*
X120269000Y-153360250D01*
X120269000Y-152511000D01*
X120523000Y-152511000D01*
X120523000Y-153360250D01*
X120681750Y-153519000D01*
X121147310Y-153519000D01*
X121380699Y-153422327D01*
X121559327Y-153243698D01*
X121656000Y-153010309D01*
X121656000Y-152669750D01*
X121497250Y-152511000D01*
X120523000Y-152511000D01*
X120269000Y-152511000D01*
X119294750Y-152511000D01*
X119136000Y-152669750D01*
X115921852Y-152669750D01*
X114263422Y-151011320D01*
X114263462Y-150965833D01*
X114158829Y-150712600D01*
X117208100Y-150712600D01*
X117498939Y-150654748D01*
X117739784Y-150493821D01*
X117787167Y-150493862D01*
X118130943Y-150351817D01*
X118164118Y-150318700D01*
X119123560Y-150318700D01*
X119123560Y-150884000D01*
G36*
X138811000Y-154630959D02*
X138572000Y-154582560D01*
X137272000Y-154582560D01*
X137138157Y-154607744D01*
X136957099Y-154532562D01*
X136585133Y-154532238D01*
X136241357Y-154674283D01*
X135978108Y-154937073D01*
X135835462Y-155280601D01*
X135835138Y-155652567D01*
X135957867Y-155949594D01*
X135854000Y-155928560D01*
X135154000Y-155928560D01*
X134918683Y-155972838D01*
X134702559Y-156111910D01*
X134557569Y-156324110D01*
X134554919Y-156337197D01*
X134418090Y-156124559D01*
X134205890Y-155979569D01*
X133954000Y-155928560D01*
X133449300Y-155928560D01*
X133449300Y-153696090D01*
X133527726Y-153578718D01*
X133727317Y-153541162D01*
X133943441Y-153402090D01*
X134088431Y-153189890D01*
X134139440Y-152938000D01*
X134139440Y-152238000D01*
X134121998Y-152145304D01*
X134230780Y-152036522D01*
X134276267Y-152036562D01*
X134620043Y-151894517D01*
X134883292Y-151631727D01*
X135025938Y-151288199D01*
X135025979Y-151241323D01*
X136536501Y-149730801D01*
X136701248Y-149484240D01*
X136714981Y-149415199D01*
X136759100Y-149193400D01*
X136759100Y-146647150D01*
X136763000Y-146643250D01*
X136763000Y-145669000D01*
X137017000Y-145669000D01*
X137017000Y-146643250D01*
X137175750Y-146802000D01*
X137516309Y-146802000D01*
X137749698Y-146705327D01*
X137928327Y-146526699D01*
X138025000Y-146293310D01*
X138025000Y-145827750D01*
X137866250Y-145669000D01*
X137017000Y-145669000D01*
X136763000Y-145669000D01*
X136759100Y-145669000D01*
X136759100Y-145415000D01*
X136763000Y-145415000D01*
X136763000Y-144440750D01*
X137017000Y-144440750D01*
X137017000Y-145415000D01*
X137866250Y-145415000D01*
X138025000Y-145256250D01*
X138025000Y-144790690D01*
X137928327Y-144557301D01*
X137749698Y-144378673D01*
X137516309Y-144282000D01*
X137175750Y-144282000D01*
X137017000Y-144440750D01*
X136763000Y-144440750D01*
X136604250Y-144282000D01*
X136329802Y-144282000D01*
X136102001Y-144054199D01*
X135855439Y-143889452D01*
X135564600Y-143831600D01*
X130822197Y-143831600D01*
X130974850Y-143463971D01*
X130975348Y-142893053D01*
X130757328Y-142365403D01*
X130353980Y-141961351D01*
X130300000Y-141938937D01*
X130300000Y-140609300D01*
X130259373Y-140405054D01*
X130298431Y-140347890D01*
X130305191Y-140314510D01*
X130363673Y-140455699D01*
X130542302Y-140634327D01*
X130775691Y-140731000D01*
X130966250Y-140731000D01*
X131125000Y-140572250D01*
X131125000Y-139573000D01*
X131379000Y-139573000D01*
X131379000Y-140572250D01*
X131537750Y-140731000D01*
X131728309Y-140731000D01*
X131961698Y-140634327D01*
X132140327Y-140455699D01*
X132237000Y-140222310D01*
X132237000Y-139731750D01*
X132078250Y-139573000D01*
X131379000Y-139573000D01*
X131125000Y-139573000D01*
X131105000Y-139573000D01*
X131105000Y-139319000D01*
X131125000Y-139319000D01*
X131125000Y-138319750D01*
X131379000Y-138319750D01*
X131379000Y-139319000D01*
X132078250Y-139319000D01*
X132237000Y-139160250D01*
X132237000Y-139039600D01*
X132255260Y-139039600D01*
X132255260Y-139790170D01*
X132485413Y-140693226D01*
X133043631Y-141439465D01*
X133844930Y-141915279D01*
X134142307Y-141995656D01*
X134513320Y-141885855D01*
X134513320Y-139039600D01*
X134767320Y-139039600D01*
X134767320Y-141885855D01*
X135138333Y-141995656D01*
X135435710Y-141915279D01*
X136237009Y-141439465D01*
X136795227Y-140693226D01*
X137025380Y-139790170D01*
X137025380Y-139039600D01*
X134767320Y-139039600D01*
X134513320Y-139039600D01*
X132255260Y-139039600D01*
X132237000Y-139039600D01*
X132237000Y-138669690D01*
X132140327Y-138436301D01*
X131961698Y-138257673D01*
X131728309Y-138161000D01*
X131537750Y-138161000D01*
X131379000Y-138319750D01*
X131125000Y-138319750D01*
X130966250Y-138161000D01*
X130775691Y-138161000D01*
X130542302Y-138257673D01*
X130363673Y-138436301D01*
X130307346Y-138572287D01*
X130305162Y-138560683D01*
X130166090Y-138344559D01*
X129953890Y-138199569D01*
X129702000Y-138148560D01*
X129002000Y-138148560D01*
X128766683Y-138192838D01*
X128550559Y-138331910D01*
X128405569Y-138544110D01*
X128354560Y-138796000D01*
X128354560Y-140096000D01*
X128398838Y-140331317D01*
X128537910Y-140547441D01*
X128629546Y-140610053D01*
X128649852Y-140712139D01*
X128780000Y-140906920D01*
X128780000Y-141938505D01*
X128728143Y-141959932D01*
X128324091Y-142363280D01*
X128296897Y-142428771D01*
X128294587Y-142423195D01*
X128048457Y-142349048D01*
X127220245Y-143177260D01*
X127234388Y-143191403D01*
X127054783Y-143371008D01*
X127040640Y-143356865D01*
X126212428Y-144185077D01*
X126286575Y-144431207D01*
X126373356Y-144462400D01*
X124829825Y-144462400D01*
X124998192Y-144294327D01*
X125140838Y-143950799D01*
X125141162Y-143578833D01*
X124999117Y-143235057D01*
X124736327Y-142971808D01*
X124708999Y-142960460D01*
X125593576Y-142960460D01*
X125620761Y-143530730D01*
X125786693Y-143931325D01*
X126032823Y-144005472D01*
X126861035Y-143177260D01*
X126032823Y-142349048D01*
X125786693Y-142423195D01*
X125593576Y-142960460D01*
X124708999Y-142960460D01*
X124392799Y-142829162D01*
X124020833Y-142828838D01*
X123677057Y-142970883D01*
X123413808Y-143233673D01*
X123271162Y-143577201D01*
X123270838Y-143949167D01*
X123412883Y-144292943D01*
X123582045Y-144462400D01*
X119133650Y-144462400D01*
X119070250Y-144399000D01*
X118221000Y-144399000D01*
X118221000Y-144419000D01*
X117967000Y-144419000D01*
X117967000Y-144399000D01*
X117947000Y-144399000D01*
X117947000Y-144145000D01*
X117967000Y-144145000D01*
X117967000Y-143170750D01*
X118221000Y-143170750D01*
X118221000Y-144145000D01*
X119070250Y-144145000D01*
X119229000Y-143986250D01*
X119229000Y-143520690D01*
X119132327Y-143287301D01*
X118953698Y-143108673D01*
X118720309Y-143012000D01*
X118379750Y-143012000D01*
X118221000Y-143170750D01*
X117967000Y-143170750D01*
X117808250Y-143012000D01*
X117536323Y-143012000D01*
X117512201Y-142975899D01*
X116705745Y-142169443D01*
X126212428Y-142169443D01*
X127040640Y-142997655D01*
X127868852Y-142169443D01*
X127794705Y-141923313D01*
X127257440Y-141730196D01*
X126687170Y-141757381D01*
X126286575Y-141923313D01*
X126212428Y-142169443D01*
X116705745Y-142169443D01*
X116274186Y-141737884D01*
X116572930Y-141915279D01*
X116870307Y-141995656D01*
X117241320Y-141885855D01*
X117241320Y-139039600D01*
X117495320Y-139039600D01*
X117495320Y-141885855D01*
X117866333Y-141995656D01*
X118163710Y-141915279D01*
X118965009Y-141439465D01*
X119523227Y-140693226D01*
X119753380Y-139790170D01*
X119753380Y-139039600D01*
X122057160Y-139039600D01*
X122057160Y-139790170D01*
X122287313Y-140693226D01*
X122845531Y-141439465D01*
X123646830Y-141915279D01*
X123944207Y-141995656D01*
X124315220Y-141885855D01*
X124315220Y-139039600D01*
X124569220Y-139039600D01*
X124569220Y-141885855D01*
X124940233Y-141995656D01*
X125237610Y-141915279D01*
X126038909Y-141439465D01*
X126597127Y-140693226D01*
X126827280Y-139790170D01*
X126827280Y-139039600D01*
X124569220Y-139039600D01*
X124315220Y-139039600D01*
X122057160Y-139039600D01*
X119753380Y-139039600D01*
X117495320Y-139039600D01*
X117241320Y-139039600D01*
X114983260Y-139039600D01*
X114983260Y-139790170D01*
X115213413Y-140693226D01*
X115658860Y-141288711D01*
X115473300Y-141251800D01*
X111978224Y-141251800D01*
X112034738Y-141115699D01*
X112034779Y-141068823D01*
X112728553Y-140375049D01*
X112805401Y-140323701D01*
X112970148Y-140077139D01*
X112990257Y-139976043D01*
X113069441Y-139925090D01*
X113214431Y-139712890D01*
X113265440Y-139461000D01*
X113265440Y-138161000D01*
X113241738Y-138035030D01*
X114983260Y-138035030D01*
X114983260Y-138785600D01*
X117241320Y-138785600D01*
X117241320Y-135939345D01*
X117495320Y-135939345D01*
X117495320Y-138785600D01*
X119753380Y-138785600D01*
X119753380Y-138035030D01*
X122057160Y-138035030D01*
X122057160Y-138785600D01*
X124315220Y-138785600D01*
X124315220Y-135939345D01*
X124569220Y-135939345D01*
X124569220Y-138785600D01*
X126827280Y-138785600D01*
X126827280Y-138035030D01*
X132255260Y-138035030D01*
X132255260Y-138785600D01*
X134513320Y-138785600D01*
X134513320Y-135939345D01*
X134767320Y-135939345D01*
X134767320Y-138785600D01*
X137025380Y-138785600D01*
X137025380Y-138035030D01*
X136795227Y-137131974D01*
X136237009Y-136385735D01*
X135435710Y-135909921D01*
X135138333Y-135829544D01*
X134767320Y-135939345D01*
X134513320Y-135939345D01*
X134142307Y-135829544D01*
X133844930Y-135909921D01*
X133043631Y-136385735D01*
X132485413Y-137131974D01*
X132255260Y-138035030D01*
X126827280Y-138035030D01*
X126597127Y-137131974D01*
X126038909Y-136385735D01*
X125237610Y-135909921D01*
X124940233Y-135829544D01*
X124569220Y-135939345D01*
X124315220Y-135939345D01*
X123944207Y-135829544D01*
X123646830Y-135909921D01*
X122845531Y-136385735D01*
X122287313Y-137131974D01*
X122057160Y-138035030D01*
X119753380Y-138035030D01*
X119523227Y-137131974D01*
X118965009Y-136385735D01*
X118163710Y-135909921D01*
X117866333Y-135829544D01*
X117495320Y-135939345D01*
X117241320Y-135939345D01*
X116870307Y-135829544D01*
X116572930Y-135909921D01*
X115771631Y-136385735D01*
X115213413Y-137131974D01*
X114983260Y-138035030D01*
X113241738Y-138035030D01*
X113221162Y-137925683D01*
X113082090Y-137709559D01*
X112869890Y-137564569D01*
X112618000Y-137513560D01*
X111918000Y-137513560D01*
X111682683Y-137557838D01*
X111466559Y-137696910D01*
X111321569Y-137909110D01*
X111318919Y-137922197D01*
X111182090Y-137709559D01*
X110969890Y-137564569D01*
X110718000Y-137513560D01*
X110018000Y-137513560D01*
X109782683Y-137557838D01*
X109566559Y-137696910D01*
X109495581Y-137800789D01*
X109325127Y-137131974D01*
X108766909Y-136385735D01*
X107965610Y-135909921D01*
X107668233Y-135829544D01*
X107297220Y-135939345D01*
X107297220Y-138785600D01*
X107317220Y-138785600D01*
X107317220Y-139039600D01*
X107297220Y-139039600D01*
X107297220Y-141885855D01*
X107668233Y-141995656D01*
X107669507Y-141995312D01*
X107735383Y-142154743D01*
X107998173Y-142417992D01*
X108341701Y-142560638D01*
X108465251Y-142560746D01*
X108321576Y-142960460D01*
X108346214Y-143477308D01*
X108329162Y-143386683D01*
X108190090Y-143170559D01*
X107977890Y-143025569D01*
X107726000Y-142974560D01*
X107026000Y-142974560D01*
X106790683Y-143018838D01*
X106574559Y-143157910D01*
X106429569Y-143370110D01*
X106426919Y-143383197D01*
X106290090Y-143170559D01*
X106077890Y-143025569D01*
X105826000Y-142974560D01*
X105126000Y-142974560D01*
X104890683Y-143018838D01*
X104785728Y-143086375D01*
X104679117Y-142828357D01*
X104416327Y-142565108D01*
X104072799Y-142422462D01*
X104025923Y-142422421D01*
X103240927Y-141637425D01*
X103279792Y-141598627D01*
X103422438Y-141255099D01*
X103422564Y-141109980D01*
X103501317Y-141095162D01*
X103717441Y-140956090D01*
X103862431Y-140743890D01*
X103913440Y-140492000D01*
X103913440Y-139792000D01*
X103869162Y-139556683D01*
X103730090Y-139340559D01*
X103517890Y-139195569D01*
X103504803Y-139192919D01*
X103717441Y-139056090D01*
X103728708Y-139039600D01*
X104785160Y-139039600D01*
X104785160Y-139790170D01*
X105015313Y-140693226D01*
X105573531Y-141439465D01*
X106374830Y-141915279D01*
X106672207Y-141995656D01*
X107043220Y-141885855D01*
X107043220Y-139039600D01*
X104785160Y-139039600D01*
X103728708Y-139039600D01*
X103862431Y-138843890D01*
X103913440Y-138592000D01*
X103913440Y-138035030D01*
X104785160Y-138035030D01*
X104785160Y-138785600D01*
X107043220Y-138785600D01*
X107043220Y-135939345D01*
X106672207Y-135829544D01*
X106374830Y-135909921D01*
X105573531Y-136385735D01*
X105015313Y-137131974D01*
X104785160Y-138035030D01*
X103913440Y-138035030D01*
X103913440Y-137892000D01*
X103869162Y-137656683D01*
X103730090Y-137440559D01*
X103517890Y-137295569D01*
X103266000Y-137244560D01*
X101966000Y-137244560D01*
X101730683Y-137288838D01*
X101514559Y-137427910D01*
X101451947Y-137519546D01*
X101349861Y-137539852D01*
X101103299Y-137704599D01*
X100443299Y-138364599D01*
X100401230Y-138427560D01*
X100068000Y-138427560D01*
X99832683Y-138471838D01*
X99616559Y-138610910D01*
X99570031Y-138679006D01*
X99427698Y-138536673D01*
X99194309Y-138440000D01*
X98853750Y-138440000D01*
X98695000Y-138598750D01*
X98695000Y-139573000D01*
X98715000Y-139573000D01*
X98715000Y-139827000D01*
X98695000Y-139827000D01*
X98695000Y-140801250D01*
X98853750Y-140960000D01*
X99194309Y-140960000D01*
X99427698Y-140863327D01*
X99568936Y-140722090D01*
X99603910Y-140776441D01*
X99816110Y-140921431D01*
X100068000Y-140972440D01*
X100431966Y-140972440D01*
X100443299Y-140989401D01*
X102950878Y-143496980D01*
X102950838Y-143542467D01*
X103092883Y-143886243D01*
X103355673Y-144149492D01*
X103699201Y-144292138D01*
X103746077Y-144292179D01*
X104263299Y-144809401D01*
X104485282Y-144957725D01*
X104522838Y-145157317D01*
X104661910Y-145373441D01*
X104874110Y-145518431D01*
X105126000Y-145569440D01*
X105826000Y-145569440D01*
X106061317Y-145525162D01*
X106277441Y-145386090D01*
X106422431Y-145173890D01*
X106425081Y-145160803D01*
X106561910Y-145373441D01*
X106774110Y-145518431D01*
X106992867Y-145562731D01*
X105916198Y-146639400D01*
X96979302Y-146639400D01*
X96287593Y-145947691D01*
X101356000Y-145947691D01*
X101356000Y-146288250D01*
X101514750Y-146447000D01*
X102489000Y-146447000D01*
X102489000Y-145597750D01*
X102743000Y-145597750D01*
X102743000Y-146447000D01*
X103717250Y-146447000D01*
X103876000Y-146288250D01*
X103876000Y-145947691D01*
X103779327Y-145714302D01*
X103600699Y-145535673D01*
X103367310Y-145439000D01*
X102901750Y-145439000D01*
X102743000Y-145597750D01*
X102489000Y-145597750D01*
X102330250Y-145439000D01*
X101864690Y-145439000D01*
X101631301Y-145535673D01*
X101452673Y-145714302D01*
X101356000Y-145947691D01*
X96287593Y-145947691D01*
X94136022Y-143796120D01*
X94136062Y-143750633D01*
X93994017Y-143406857D01*
X93731227Y-143143608D01*
X93387699Y-143000962D01*
X93015733Y-143000638D01*
X92749607Y-143110599D01*
X92595890Y-143005569D01*
X92582803Y-143002919D01*
X92795441Y-142866090D01*
X92940431Y-142653890D01*
X92991440Y-142402000D01*
X92991440Y-141702000D01*
X92947162Y-141466683D01*
X92808090Y-141250559D01*
X92595890Y-141105569D01*
X92380121Y-141061875D01*
X92231401Y-140839299D01*
X91758000Y-140365898D01*
X91758000Y-140078757D01*
X91799441Y-140052090D01*
X91944431Y-139839890D01*
X91947081Y-139826803D01*
X92083910Y-140039441D01*
X92296110Y-140184431D01*
X92548000Y-140235440D01*
X93248000Y-140235440D01*
X93483317Y-140191162D01*
X93540022Y-140154673D01*
X93595299Y-140237401D01*
X93817282Y-140385725D01*
X93854838Y-140585317D01*
X93993910Y-140801441D01*
X94206110Y-140946431D01*
X94458000Y-140997440D01*
X95158000Y-140997440D01*
X95393317Y-140953162D01*
X95503124Y-140882503D01*
X95641201Y-140939838D01*
X96013167Y-140940162D01*
X96068373Y-140917351D01*
X96231691Y-140985000D01*
X96422250Y-140985000D01*
X96581000Y-140826250D01*
X96581000Y-140574451D01*
X96620192Y-140535327D01*
X96762838Y-140191799D01*
X96763155Y-139827000D01*
X96835000Y-139827000D01*
X96835000Y-140826250D01*
X96993750Y-140985000D01*
X97184309Y-140985000D01*
X97417698Y-140888327D01*
X97575500Y-140730526D01*
X97708302Y-140863327D01*
X97941691Y-140960000D01*
X98282250Y-140960000D01*
X98441000Y-140801250D01*
X98441000Y-139827000D01*
X97591750Y-139827000D01*
X97563000Y-139855750D01*
X97534250Y-139827000D01*
X96835000Y-139827000D01*
X96763155Y-139827000D01*
X96763162Y-139819833D01*
X96621117Y-139476057D01*
X96581000Y-139435870D01*
X96581000Y-138573750D01*
X96835000Y-138573750D01*
X96835000Y-139573000D01*
X97534250Y-139573000D01*
X97563000Y-139544250D01*
X97591750Y-139573000D01*
X98441000Y-139573000D01*
X98441000Y-138598750D01*
X98282250Y-138440000D01*
X97941691Y-138440000D01*
X97708302Y-138536673D01*
X97575500Y-138669474D01*
X97417698Y-138511673D01*
X97184309Y-138415000D01*
X96993750Y-138415000D01*
X96835000Y-138573750D01*
X96581000Y-138573750D01*
X96422250Y-138415000D01*
X96231691Y-138415000D01*
X95998302Y-138511673D01*
X95819673Y-138690301D01*
X95763346Y-138826287D01*
X95761162Y-138814683D01*
X95622090Y-138598559D01*
X95409890Y-138453569D01*
X95158000Y-138402560D01*
X94458000Y-138402560D01*
X94222683Y-138446838D01*
X94182681Y-138472579D01*
X94110701Y-138400599D01*
X93888718Y-138252275D01*
X93851162Y-138052683D01*
X93712090Y-137836559D01*
X93499890Y-137691569D01*
X93248000Y-137640560D01*
X92548000Y-137640560D01*
X92312683Y-137684838D01*
X92096559Y-137823910D01*
X91951569Y-138036110D01*
X91948919Y-138049197D01*
X91812090Y-137836559D01*
X91599890Y-137691569D01*
X91348000Y-137640560D01*
X90648000Y-137640560D01*
X90412683Y-137684838D01*
X90297000Y-137759278D01*
X90297000Y-135255000D01*
X138811000Y-135255000D01*
X138811000Y-154630959D01*
X138811000Y-154630959D01*
G37*
X138811000Y-154630959D02*
X138572000Y-154582560D01*
X137272000Y-154582560D01*
X137138157Y-154607744D01*
X136957099Y-154532562D01*
X136585133Y-154532238D01*
X136241357Y-154674283D01*
X135978108Y-154937073D01*
X135835462Y-155280601D01*
X135835138Y-155652567D01*
X135957867Y-155949594D01*
X135854000Y-155928560D01*
X135154000Y-155928560D01*
X134918683Y-155972838D01*
X134702559Y-156111910D01*
X134557569Y-156324110D01*
X134554919Y-156337197D01*
X134418090Y-156124559D01*
X134205890Y-155979569D01*
X133954000Y-155928560D01*
X133449300Y-155928560D01*
X133449300Y-153696090D01*
X133527726Y-153578718D01*
X133727317Y-153541162D01*
X133943441Y-153402090D01*
X134088431Y-153189890D01*
X134139440Y-152938000D01*
X134139440Y-152238000D01*
X134121998Y-152145304D01*
X134230780Y-152036522D01*
X134276267Y-152036562D01*
X134620043Y-151894517D01*
X134883292Y-151631727D01*
X135025938Y-151288199D01*
X135025979Y-151241323D01*
X136536501Y-149730801D01*
X136701248Y-149484240D01*
X136714981Y-149415199D01*
X136759100Y-149193400D01*
X136759100Y-146647150D01*
X136763000Y-146643250D01*
X136763000Y-145669000D01*
X137017000Y-145669000D01*
X137017000Y-146643250D01*
X137175750Y-146802000D01*
X137516309Y-146802000D01*
X137749698Y-146705327D01*
X137928327Y-146526699D01*
X138025000Y-146293310D01*
X138025000Y-145827750D01*
X137866250Y-145669000D01*
X137017000Y-145669000D01*
X136763000Y-145669000D01*
X136759100Y-145669000D01*
X136759100Y-145415000D01*
X136763000Y-145415000D01*
X136763000Y-144440750D01*
X137017000Y-144440750D01*
X137017000Y-145415000D01*
X137866250Y-145415000D01*
X138025000Y-145256250D01*
X138025000Y-144790690D01*
X137928327Y-144557301D01*
X137749698Y-144378673D01*
X137516309Y-144282000D01*
X137175750Y-144282000D01*
X137017000Y-144440750D01*
X136763000Y-144440750D01*
X136604250Y-144282000D01*
X136329802Y-144282000D01*
X136102001Y-144054199D01*
X135855439Y-143889452D01*
X135564600Y-143831600D01*
X130822197Y-143831600D01*
X130974850Y-143463971D01*
X130975348Y-142893053D01*
X130757328Y-142365403D01*
X130353980Y-141961351D01*
X130300000Y-141938937D01*
X130300000Y-140609300D01*
X130259373Y-140405054D01*
X130298431Y-140347890D01*
X130305191Y-140314510D01*
X130363673Y-140455699D01*
X130542302Y-140634327D01*
X130775691Y-140731000D01*
X130966250Y-140731000D01*
X131125000Y-140572250D01*
X131125000Y-139573000D01*
X131379000Y-139573000D01*
X131379000Y-140572250D01*
X131537750Y-140731000D01*
X131728309Y-140731000D01*
X131961698Y-140634327D01*
X132140327Y-140455699D01*
X132237000Y-140222310D01*
X132237000Y-139731750D01*
X132078250Y-139573000D01*
X131379000Y-139573000D01*
X131125000Y-139573000D01*
X131105000Y-139573000D01*
X131105000Y-139319000D01*
X131125000Y-139319000D01*
X131125000Y-138319750D01*
X131379000Y-138319750D01*
X131379000Y-139319000D01*
X132078250Y-139319000D01*
X132237000Y-139160250D01*
X132237000Y-139039600D01*
X132255260Y-139039600D01*
X132255260Y-139790170D01*
X132485413Y-140693226D01*
X133043631Y-141439465D01*
X133844930Y-141915279D01*
X134142307Y-141995656D01*
X134513320Y-141885855D01*
X134513320Y-139039600D01*
X134767320Y-139039600D01*
X134767320Y-141885855D01*
X135138333Y-141995656D01*
X135435710Y-141915279D01*
X136237009Y-141439465D01*
X136795227Y-140693226D01*
X137025380Y-139790170D01*
X137025380Y-139039600D01*
X134767320Y-139039600D01*
X134513320Y-139039600D01*
X132255260Y-139039600D01*
X132237000Y-139039600D01*
X132237000Y-138669690D01*
X132140327Y-138436301D01*
X131961698Y-138257673D01*
X131728309Y-138161000D01*
X131537750Y-138161000D01*
X131379000Y-138319750D01*
X131125000Y-138319750D01*
X130966250Y-138161000D01*
X130775691Y-138161000D01*
X130542302Y-138257673D01*
X130363673Y-138436301D01*
X130307346Y-138572287D01*
X130305162Y-138560683D01*
X130166090Y-138344559D01*
X129953890Y-138199569D01*
X129702000Y-138148560D01*
X129002000Y-138148560D01*
X128766683Y-138192838D01*
X128550559Y-138331910D01*
X128405569Y-138544110D01*
X128354560Y-138796000D01*
X128354560Y-140096000D01*
X128398838Y-140331317D01*
X128537910Y-140547441D01*
X128629546Y-140610053D01*
X128649852Y-140712139D01*
X128780000Y-140906920D01*
X128780000Y-141938505D01*
X128728143Y-141959932D01*
X128324091Y-142363280D01*
X128296897Y-142428771D01*
X128294587Y-142423195D01*
X128048457Y-142349048D01*
X127220245Y-143177260D01*
X127234388Y-143191403D01*
X127054783Y-143371008D01*
X127040640Y-143356865D01*
X126212428Y-144185077D01*
X126286575Y-144431207D01*
X126373356Y-144462400D01*
X124829825Y-144462400D01*
X124998192Y-144294327D01*
X125140838Y-143950799D01*
X125141162Y-143578833D01*
X124999117Y-143235057D01*
X124736327Y-142971808D01*
X124708999Y-142960460D01*
X125593576Y-142960460D01*
X125620761Y-143530730D01*
X125786693Y-143931325D01*
X126032823Y-144005472D01*
X126861035Y-143177260D01*
X126032823Y-142349048D01*
X125786693Y-142423195D01*
X125593576Y-142960460D01*
X124708999Y-142960460D01*
X124392799Y-142829162D01*
X124020833Y-142828838D01*
X123677057Y-142970883D01*
X123413808Y-143233673D01*
X123271162Y-143577201D01*
X123270838Y-143949167D01*
X123412883Y-144292943D01*
X123582045Y-144462400D01*
X119133650Y-144462400D01*
X119070250Y-144399000D01*
X118221000Y-144399000D01*
X118221000Y-144419000D01*
X117967000Y-144419000D01*
X117967000Y-144399000D01*
X117947000Y-144399000D01*
X117947000Y-144145000D01*
X117967000Y-144145000D01*
X117967000Y-143170750D01*
X118221000Y-143170750D01*
X118221000Y-144145000D01*
X119070250Y-144145000D01*
X119229000Y-143986250D01*
X119229000Y-143520690D01*
X119132327Y-143287301D01*
X118953698Y-143108673D01*
X118720309Y-143012000D01*
X118379750Y-143012000D01*
X118221000Y-143170750D01*
X117967000Y-143170750D01*
X117808250Y-143012000D01*
X117536323Y-143012000D01*
X117512201Y-142975899D01*
X116705745Y-142169443D01*
X126212428Y-142169443D01*
X127040640Y-142997655D01*
X127868852Y-142169443D01*
X127794705Y-141923313D01*
X127257440Y-141730196D01*
X126687170Y-141757381D01*
X126286575Y-141923313D01*
X126212428Y-142169443D01*
X116705745Y-142169443D01*
X116274186Y-141737884D01*
X116572930Y-141915279D01*
X116870307Y-141995656D01*
X117241320Y-141885855D01*
X117241320Y-139039600D01*
X117495320Y-139039600D01*
X117495320Y-141885855D01*
X117866333Y-141995656D01*
X118163710Y-141915279D01*
X118965009Y-141439465D01*
X119523227Y-140693226D01*
X119753380Y-139790170D01*
X119753380Y-139039600D01*
X122057160Y-139039600D01*
X122057160Y-139790170D01*
X122287313Y-140693226D01*
X122845531Y-141439465D01*
X123646830Y-141915279D01*
X123944207Y-141995656D01*
X124315220Y-141885855D01*
X124315220Y-139039600D01*
X124569220Y-139039600D01*
X124569220Y-141885855D01*
X124940233Y-141995656D01*
X125237610Y-141915279D01*
X126038909Y-141439465D01*
X126597127Y-140693226D01*
X126827280Y-139790170D01*
X126827280Y-139039600D01*
X124569220Y-139039600D01*
X124315220Y-139039600D01*
X122057160Y-139039600D01*
X119753380Y-139039600D01*
X117495320Y-139039600D01*
X117241320Y-139039600D01*
X114983260Y-139039600D01*
X114983260Y-139790170D01*
X115213413Y-140693226D01*
X115658860Y-141288711D01*
X115473300Y-141251800D01*
X111978224Y-141251800D01*
X112034738Y-141115699D01*
X112034779Y-141068823D01*
X112728553Y-140375049D01*
X112805401Y-140323701D01*
X112970148Y-140077139D01*
X112990257Y-139976043D01*
X113069441Y-139925090D01*
X113214431Y-139712890D01*
X113265440Y-139461000D01*
X113265440Y-138161000D01*
X113241738Y-138035030D01*
X114983260Y-138035030D01*
X114983260Y-138785600D01*
X117241320Y-138785600D01*
X117241320Y-135939345D01*
X117495320Y-135939345D01*
X117495320Y-138785600D01*
X119753380Y-138785600D01*
X119753380Y-138035030D01*
X122057160Y-138035030D01*
X122057160Y-138785600D01*
X124315220Y-138785600D01*
X124315220Y-135939345D01*
X124569220Y-135939345D01*
X124569220Y-138785600D01*
X126827280Y-138785600D01*
X126827280Y-138035030D01*
X132255260Y-138035030D01*
X132255260Y-138785600D01*
X134513320Y-138785600D01*
X134513320Y-135939345D01*
X134767320Y-135939345D01*
X134767320Y-138785600D01*
X137025380Y-138785600D01*
X137025380Y-138035030D01*
X136795227Y-137131974D01*
X136237009Y-136385735D01*
X135435710Y-135909921D01*
X135138333Y-135829544D01*
X134767320Y-135939345D01*
X134513320Y-135939345D01*
X134142307Y-135829544D01*
X133844930Y-135909921D01*
X133043631Y-136385735D01*
X132485413Y-137131974D01*
X132255260Y-138035030D01*
X126827280Y-138035030D01*
X126597127Y-137131974D01*
X126038909Y-136385735D01*
X125237610Y-135909921D01*
X124940233Y-135829544D01*
X124569220Y-135939345D01*
X124315220Y-135939345D01*
X123944207Y-135829544D01*
X123646830Y-135909921D01*
X122845531Y-136385735D01*
X122287313Y-137131974D01*
X122057160Y-138035030D01*
X119753380Y-138035030D01*
X119523227Y-137131974D01*
X118965009Y-136385735D01*
X118163710Y-135909921D01*
X117866333Y-135829544D01*
X117495320Y-135939345D01*
X117241320Y-135939345D01*
X116870307Y-135829544D01*
X116572930Y-135909921D01*
X115771631Y-136385735D01*
X115213413Y-137131974D01*
X114983260Y-138035030D01*
X113241738Y-138035030D01*
X113221162Y-137925683D01*
X113082090Y-137709559D01*
X112869890Y-137564569D01*
X112618000Y-137513560D01*
X111918000Y-137513560D01*
X111682683Y-137557838D01*
X111466559Y-137696910D01*
X111321569Y-137909110D01*
X111318919Y-137922197D01*
X111182090Y-137709559D01*
X110969890Y-137564569D01*
X110718000Y-137513560D01*
X110018000Y-137513560D01*
X109782683Y-137557838D01*
X109566559Y-137696910D01*
X109495581Y-137800789D01*
X109325127Y-137131974D01*
X108766909Y-136385735D01*
X107965610Y-135909921D01*
X107668233Y-135829544D01*
X107297220Y-135939345D01*
X107297220Y-138785600D01*
X107317220Y-138785600D01*
X107317220Y-139039600D01*
X107297220Y-139039600D01*
X107297220Y-141885855D01*
X107668233Y-141995656D01*
X107669507Y-141995312D01*
X107735383Y-142154743D01*
X107998173Y-142417992D01*
X108341701Y-142560638D01*
X108465251Y-142560746D01*
X108321576Y-142960460D01*
X108346214Y-143477308D01*
X108329162Y-143386683D01*
X108190090Y-143170559D01*
X107977890Y-143025569D01*
X107726000Y-142974560D01*
X107026000Y-142974560D01*
X106790683Y-143018838D01*
X106574559Y-143157910D01*
X106429569Y-143370110D01*
X106426919Y-143383197D01*
X106290090Y-143170559D01*
X106077890Y-143025569D01*
X105826000Y-142974560D01*
X105126000Y-142974560D01*
X104890683Y-143018838D01*
X104785728Y-143086375D01*
X104679117Y-142828357D01*
X104416327Y-142565108D01*
X104072799Y-142422462D01*
X104025923Y-142422421D01*
X103240927Y-141637425D01*
X103279792Y-141598627D01*
X103422438Y-141255099D01*
X103422564Y-141109980D01*
X103501317Y-141095162D01*
X103717441Y-140956090D01*
X103862431Y-140743890D01*
X103913440Y-140492000D01*
X103913440Y-139792000D01*
X103869162Y-139556683D01*
X103730090Y-139340559D01*
X103517890Y-139195569D01*
X103504803Y-139192919D01*
X103717441Y-139056090D01*
X103728708Y-139039600D01*
X104785160Y-139039600D01*
X104785160Y-139790170D01*
X105015313Y-140693226D01*
X105573531Y-141439465D01*
X106374830Y-141915279D01*
X106672207Y-141995656D01*
X107043220Y-141885855D01*
X107043220Y-139039600D01*
X104785160Y-139039600D01*
X103728708Y-139039600D01*
X103862431Y-138843890D01*
X103913440Y-138592000D01*
X103913440Y-138035030D01*
X104785160Y-138035030D01*
X104785160Y-138785600D01*
X107043220Y-138785600D01*
X107043220Y-135939345D01*
X106672207Y-135829544D01*
X106374830Y-135909921D01*
X105573531Y-136385735D01*
X105015313Y-137131974D01*
X104785160Y-138035030D01*
X103913440Y-138035030D01*
X103913440Y-137892000D01*
X103869162Y-137656683D01*
X103730090Y-137440559D01*
X103517890Y-137295569D01*
X103266000Y-137244560D01*
X101966000Y-137244560D01*
X101730683Y-137288838D01*
X101514559Y-137427910D01*
X101451947Y-137519546D01*
X101349861Y-137539852D01*
X101103299Y-137704599D01*
X100443299Y-138364599D01*
X100401230Y-138427560D01*
X100068000Y-138427560D01*
X99832683Y-138471838D01*
X99616559Y-138610910D01*
X99570031Y-138679006D01*
X99427698Y-138536673D01*
X99194309Y-138440000D01*
X98853750Y-138440000D01*
X98695000Y-138598750D01*
X98695000Y-139573000D01*
X98715000Y-139573000D01*
X98715000Y-139827000D01*
X98695000Y-139827000D01*
X98695000Y-140801250D01*
X98853750Y-140960000D01*
X99194309Y-140960000D01*
X99427698Y-140863327D01*
X99568936Y-140722090D01*
X99603910Y-140776441D01*
X99816110Y-140921431D01*
X100068000Y-140972440D01*
X100431966Y-140972440D01*
X100443299Y-140989401D01*
X102950878Y-143496980D01*
X102950838Y-143542467D01*
X103092883Y-143886243D01*
X103355673Y-144149492D01*
X103699201Y-144292138D01*
X103746077Y-144292179D01*
X104263299Y-144809401D01*
X104485282Y-144957725D01*
X104522838Y-145157317D01*
X104661910Y-145373441D01*
X104874110Y-145518431D01*
X105126000Y-145569440D01*
X105826000Y-145569440D01*
X106061317Y-145525162D01*
X106277441Y-145386090D01*
X106422431Y-145173890D01*
X106425081Y-145160803D01*
X106561910Y-145373441D01*
X106774110Y-145518431D01*
X106992867Y-145562731D01*
X105916198Y-146639400D01*
X96979302Y-146639400D01*
X96287593Y-145947691D01*
X101356000Y-145947691D01*
X101356000Y-146288250D01*
X101514750Y-146447000D01*
X102489000Y-146447000D01*
X102489000Y-145597750D01*
X102743000Y-145597750D01*
X102743000Y-146447000D01*
X103717250Y-146447000D01*
X103876000Y-146288250D01*
X103876000Y-145947691D01*
X103779327Y-145714302D01*
X103600699Y-145535673D01*
X103367310Y-145439000D01*
X102901750Y-145439000D01*
X102743000Y-145597750D01*
X102489000Y-145597750D01*
X102330250Y-145439000D01*
X101864690Y-145439000D01*
X101631301Y-145535673D01*
X101452673Y-145714302D01*
X101356000Y-145947691D01*
X96287593Y-145947691D01*
X94136022Y-143796120D01*
X94136062Y-143750633D01*
X93994017Y-143406857D01*
X93731227Y-143143608D01*
X93387699Y-143000962D01*
X93015733Y-143000638D01*
X92749607Y-143110599D01*
X92595890Y-143005569D01*
X92582803Y-143002919D01*
X92795441Y-142866090D01*
X92940431Y-142653890D01*
X92991440Y-142402000D01*
X92991440Y-141702000D01*
X92947162Y-141466683D01*
X92808090Y-141250559D01*
X92595890Y-141105569D01*
X92380121Y-141061875D01*
X92231401Y-140839299D01*
X91758000Y-140365898D01*
X91758000Y-140078757D01*
X91799441Y-140052090D01*
X91944431Y-139839890D01*
X91947081Y-139826803D01*
X92083910Y-140039441D01*
X92296110Y-140184431D01*
X92548000Y-140235440D01*
X93248000Y-140235440D01*
X93483317Y-140191162D01*
X93540022Y-140154673D01*
X93595299Y-140237401D01*
X93817282Y-140385725D01*
X93854838Y-140585317D01*
X93993910Y-140801441D01*
X94206110Y-140946431D01*
X94458000Y-140997440D01*
X95158000Y-140997440D01*
X95393317Y-140953162D01*
X95503124Y-140882503D01*
X95641201Y-140939838D01*
X96013167Y-140940162D01*
X96068373Y-140917351D01*
X96231691Y-140985000D01*
X96422250Y-140985000D01*
X96581000Y-140826250D01*
X96581000Y-140574451D01*
X96620192Y-140535327D01*
X96762838Y-140191799D01*
X96763155Y-139827000D01*
X96835000Y-139827000D01*
X96835000Y-140826250D01*
X96993750Y-140985000D01*
X97184309Y-140985000D01*
X97417698Y-140888327D01*
X97575500Y-140730526D01*
X97708302Y-140863327D01*
X97941691Y-140960000D01*
X98282250Y-140960000D01*
X98441000Y-140801250D01*
X98441000Y-139827000D01*
X97591750Y-139827000D01*
X97563000Y-139855750D01*
X97534250Y-139827000D01*
X96835000Y-139827000D01*
X96763155Y-139827000D01*
X96763162Y-139819833D01*
X96621117Y-139476057D01*
X96581000Y-139435870D01*
X96581000Y-138573750D01*
X96835000Y-138573750D01*
X96835000Y-139573000D01*
X97534250Y-139573000D01*
X97563000Y-139544250D01*
X97591750Y-139573000D01*
X98441000Y-139573000D01*
X98441000Y-138598750D01*
X98282250Y-138440000D01*
X97941691Y-138440000D01*
X97708302Y-138536673D01*
X97575500Y-138669474D01*
X97417698Y-138511673D01*
X97184309Y-138415000D01*
X96993750Y-138415000D01*
X96835000Y-138573750D01*
X96581000Y-138573750D01*
X96422250Y-138415000D01*
X96231691Y-138415000D01*
X95998302Y-138511673D01*
X95819673Y-138690301D01*
X95763346Y-138826287D01*
X95761162Y-138814683D01*
X95622090Y-138598559D01*
X95409890Y-138453569D01*
X95158000Y-138402560D01*
X94458000Y-138402560D01*
X94222683Y-138446838D01*
X94182681Y-138472579D01*
X94110701Y-138400599D01*
X93888718Y-138252275D01*
X93851162Y-138052683D01*
X93712090Y-137836559D01*
X93499890Y-137691569D01*
X93248000Y-137640560D01*
X92548000Y-137640560D01*
X92312683Y-137684838D01*
X92096559Y-137823910D01*
X91951569Y-138036110D01*
X91948919Y-138049197D01*
X91812090Y-137836559D01*
X91599890Y-137691569D01*
X91348000Y-137640560D01*
X90648000Y-137640560D01*
X90412683Y-137684838D01*
X90297000Y-137759278D01*
X90297000Y-135255000D01*
X138811000Y-135255000D01*
X138811000Y-154630959D01*
G36*
X109962388Y-143163118D02*
X109948245Y-143177260D01*
X109962388Y-143191403D01*
X109782783Y-143371008D01*
X109768640Y-143356865D01*
X109754498Y-143371008D01*
X109574893Y-143191403D01*
X109589035Y-143177260D01*
X109574893Y-143163118D01*
X109754498Y-142983513D01*
X109768640Y-142997655D01*
X109782783Y-142983513D01*
X109962388Y-143163118D01*
X109962388Y-143163118D01*
G37*
X109962388Y-143163118D02*
X109948245Y-143177260D01*
X109962388Y-143191403D01*
X109782783Y-143371008D01*
X109768640Y-143356865D01*
X109754498Y-143371008D01*
X109574893Y-143191403D01*
X109589035Y-143177260D01*
X109574893Y-143163118D01*
X109754498Y-142983513D01*
X109768640Y-142997655D01*
X109782783Y-142983513D01*
X109962388Y-143163118D01*
M02*
