M48
;DRILL file {KiCad 4.0.1-stable} date 5/9/2016 12:29:28 PM
;FORMAT={-:-/ absolute / inch / decimal}
FMAT,2
INCH,TZ
T1C0.016
T2C0.039
T3C0.040
T4C0.087
%
G90
G05
M72
T1
X3.6472Y-5.7079
X3.8066Y-5.5778
X3.8246Y-6.2667
X3.9066Y-6.8639
X3.9172Y-5.7706
X3.9359Y-6.9395
X4.0172Y-6.0685
X4.023Y-5.5636
X4.1682Y-7.0127
X4.2113Y-6.0117
X4.2175Y-5.7553
X4.2211Y-6.1022
X4.2349Y-6.2242
X4.2374Y-6.141
X4.2405Y-5.9909
X4.2462Y-6.8612
X4.2893Y-5.9203
X4.3054Y-7.1369
X4.3459Y-5.7168
X4.3659Y-5.5233
X4.4559Y-7.2495
X4.4598Y-6.5445
X4.4614Y-5.9535
X4.4798Y-5.688
X4.4802Y-5.7514
X4.491Y-6.4667
X4.5Y-7.1
X4.5302Y-6.9485
X4.6223Y-7.1567
X4.6332Y-6.6702
X4.6668Y-5.8919
X4.7051Y-6.4748
X4.8294Y-6.1906
X4.8849Y-5.9923
X4.9036Y-6.41
X4.9136Y-6.503
X4.9316Y-6.2022
X5.0171Y-6.2954
X5.0387Y-6.7243
X5.0989Y-6.4553
X5.1059Y-6.2046
X5.1289Y-6.2961
X5.1583Y-5.8756
X5.1715Y-5.9808
X5.1766Y-6.3435
X5.1794Y-5.9278
X5.333Y-6.1437
X5.4015Y-6.0822
T2
X4.3216Y-5.6369
X4.42Y-5.6369
X5.0016Y-5.6369
X5.1Y-5.6369
T3
X3.61Y-6.31
X3.61Y-6.41
X3.61Y-6.51
X3.61Y-6.61
X3.61Y-6.71
X3.61Y-6.81
X3.61Y-6.91
X3.61Y-7.01
X3.61Y-7.11
X3.61Y-7.21
X3.71Y-6.31
X3.71Y-6.41
X3.71Y-6.51
X3.71Y-6.61
X3.71Y-6.71
X3.71Y-6.81
X3.71Y-6.91
X3.71Y-7.01
X3.71Y-7.11
X3.71Y-7.21
X5.31Y-6.31
X5.31Y-6.41
X5.31Y-6.51
X5.31Y-6.61
X5.31Y-6.71
X5.31Y-6.81
X5.31Y-6.91
X5.31Y-7.01
X5.31Y-7.11
X5.31Y-7.21
X5.41Y-6.31
X5.41Y-6.41
X5.41Y-6.51
X5.41Y-6.61
X5.41Y-6.71
X5.41Y-6.81
X5.41Y-6.91
X5.41Y-7.01
X5.41Y-7.11
X5.41Y-7.21
T4
X4.2193Y-5.469
X4.6208Y-5.469
X4.8993Y-5.469
X5.3008Y-5.469
T0
M30
