G04 #@! TF.FileFunction,Legend,Bot*
%FSLAX46Y46*%
G04 Gerber Fmt 4.6, Leading zero omitted, Abs format (unit mm)*
G04 Created by KiCad (PCBNEW 4.0.1-stable) date Monday, May 09, 2016 'AMt' 09:31:45 AM*
%MOMM*%
G01*
G04 APERTURE LIST*
%ADD10C,0.100000*%
%ADD11C,0.150000*%
G04 APERTURE END LIST*
D10*
D11*
X98894000Y-175014000D02*
X98894000Y-176014000D01*
X97194000Y-176014000D02*
X97194000Y-175014000D01*
X96686000Y-151900000D02*
X96686000Y-150900000D01*
X98386000Y-150900000D02*
X98386000Y-151900000D01*
X125388000Y-151884000D02*
X125388000Y-150884000D01*
X127088000Y-150884000D02*
X127088000Y-151884000D01*
X99068000Y-138850000D02*
X100068000Y-138850000D01*
X100068000Y-140550000D02*
X99068000Y-140550000D01*
X114642000Y-174760000D02*
X114642000Y-175760000D01*
X112942000Y-175760000D02*
X112942000Y-174760000D01*
X107276000Y-174506000D02*
X107276000Y-175506000D01*
X105576000Y-175506000D02*
X105576000Y-174506000D01*
X107434000Y-180174000D02*
X106434000Y-180174000D01*
X106434000Y-178474000D02*
X107434000Y-178474000D01*
X125134000Y-177268000D02*
X125134000Y-176268000D01*
X126834000Y-176268000D02*
X126834000Y-177268000D01*
X119546000Y-177284000D02*
X119546000Y-176284000D01*
X121246000Y-176284000D02*
X121246000Y-177284000D01*
X121246000Y-150884000D02*
X121246000Y-151884000D01*
X119546000Y-151884000D02*
X119546000Y-150884000D01*
X92798000Y-151138000D02*
X92798000Y-152138000D01*
X91098000Y-152138000D02*
X91098000Y-151138000D01*
X101766000Y-148074000D02*
X101766000Y-147074000D01*
X103466000Y-147074000D02*
X103466000Y-148074000D01*
X112117000Y-165188000D02*
X111117000Y-165188000D01*
X111117000Y-163488000D02*
X112117000Y-163488000D01*
X125230000Y-168236000D02*
X124230000Y-168236000D01*
X124230000Y-166536000D02*
X125230000Y-166536000D01*
X121912000Y-171108000D02*
X122912000Y-171108000D01*
X122912000Y-172808000D02*
X121912000Y-172808000D01*
X126484000Y-161964000D02*
X127484000Y-161964000D01*
X127484000Y-163664000D02*
X126484000Y-163664000D01*
X136390000Y-146392000D02*
X135390000Y-146392000D01*
X135390000Y-144692000D02*
X136390000Y-144692000D01*
X130214000Y-171426000D02*
X130214000Y-170426000D01*
X131914000Y-170426000D02*
X131914000Y-171426000D01*
X113149000Y-160821000D02*
X114149000Y-160821000D01*
X114149000Y-162521000D02*
X113149000Y-162521000D01*
X130548000Y-166028000D02*
X131548000Y-166028000D01*
X131548000Y-167728000D02*
X130548000Y-167728000D01*
X116594000Y-143422000D02*
X117594000Y-143422000D01*
X117594000Y-145122000D02*
X116594000Y-145122000D01*
X109831000Y-160108000D02*
X108831000Y-160108000D01*
X108831000Y-158408000D02*
X109831000Y-158408000D01*
X104021000Y-160489000D02*
X103021000Y-160489000D01*
X103021000Y-158789000D02*
X104021000Y-158789000D01*
X97194000Y-168140000D02*
X97194000Y-167140000D01*
X98894000Y-167140000D02*
X98894000Y-168140000D01*
X107450000Y-164172000D02*
X106450000Y-164172000D01*
X106450000Y-162472000D02*
X107450000Y-162472000D01*
X129564000Y-179744000D02*
X130564000Y-179744000D01*
X130564000Y-181444000D02*
X129564000Y-181444000D01*
X129818000Y-182792000D02*
X130818000Y-182792000D01*
X130818000Y-184492000D02*
X129818000Y-184492000D01*
X104253000Y-153950000D02*
X104253000Y-152750000D01*
X102503000Y-152750000D02*
X102503000Y-153950000D01*
X125892000Y-159625000D02*
X127092000Y-159625000D01*
X127092000Y-157875000D02*
X125892000Y-157875000D01*
X103491000Y-139792000D02*
X103491000Y-138592000D01*
X101741000Y-138592000D02*
X101741000Y-139792000D01*
X104740000Y-181243000D02*
X103540000Y-181243000D01*
X103540000Y-182993000D02*
X104740000Y-182993000D01*
X120996000Y-181243000D02*
X119796000Y-181243000D01*
X119796000Y-182993000D02*
X120996000Y-182993000D01*
X108345000Y-182534000D02*
X108345000Y-183734000D01*
X110095000Y-183734000D02*
X110095000Y-182534000D01*
X114695000Y-182534000D02*
X114695000Y-183734000D01*
X116445000Y-183734000D02*
X116445000Y-182534000D01*
X100189000Y-183734000D02*
X100189000Y-182534000D01*
X98439000Y-182534000D02*
X98439000Y-183734000D01*
X124855000Y-182280000D02*
X124855000Y-183480000D01*
X126605000Y-183480000D02*
X126605000Y-182280000D01*
X92548000Y-138063000D02*
X91348000Y-138063000D01*
X91348000Y-139813000D02*
X92548000Y-139813000D01*
X96358000Y-138825000D02*
X95158000Y-138825000D01*
X95158000Y-140575000D02*
X96358000Y-140575000D01*
X92569000Y-143602000D02*
X92569000Y-142402000D01*
X90819000Y-142402000D02*
X90819000Y-143602000D01*
X130464000Y-159625000D02*
X131664000Y-159625000D01*
X131664000Y-157875000D02*
X130464000Y-157875000D01*
X105826000Y-145147000D02*
X107026000Y-145147000D01*
X107026000Y-143397000D02*
X105826000Y-143397000D01*
X133717000Y-152238000D02*
X133717000Y-151038000D01*
X131967000Y-151038000D02*
X131967000Y-152238000D01*
X130161000Y-177130000D02*
X130161000Y-175930000D01*
X128411000Y-175930000D02*
X128411000Y-177130000D01*
X126466000Y-172833000D02*
X127666000Y-172833000D01*
X127666000Y-171083000D02*
X126466000Y-171083000D01*
X134966000Y-147461000D02*
X133766000Y-147461000D01*
X133766000Y-149211000D02*
X134966000Y-149211000D01*
X130902000Y-138571000D02*
X129702000Y-138571000D01*
X129702000Y-140321000D02*
X130902000Y-140321000D01*
X137047000Y-155930000D02*
X137047000Y-157130000D01*
X138797000Y-157130000D02*
X138797000Y-155930000D01*
X117576000Y-160260000D02*
X118776000Y-160260000D01*
X118776000Y-158510000D02*
X117576000Y-158510000D01*
X118985000Y-164110000D02*
X118985000Y-162910000D01*
X117235000Y-162910000D02*
X117235000Y-164110000D01*
X133954000Y-158101000D02*
X135154000Y-158101000D01*
X135154000Y-156351000D02*
X133954000Y-156351000D01*
X123348000Y-161939000D02*
X122148000Y-161939000D01*
X122148000Y-163689000D02*
X123348000Y-163689000D01*
X124065000Y-159858000D02*
X124065000Y-158658000D01*
X122315000Y-158658000D02*
X122315000Y-159858000D01*
X129702000Y-148957000D02*
X130902000Y-148957000D01*
X130902000Y-147207000D02*
X129702000Y-147207000D01*
X104876000Y-169785000D02*
X106076000Y-169785000D01*
X106076000Y-168035000D02*
X104876000Y-168035000D01*
X98394000Y-160768000D02*
X99594000Y-160768000D01*
X99594000Y-159018000D02*
X98394000Y-159018000D01*
X119735000Y-168007000D02*
X120935000Y-168007000D01*
X120935000Y-166257000D02*
X119735000Y-166257000D01*
X104253000Y-165954000D02*
X104253000Y-164754000D01*
X102503000Y-164754000D02*
X102503000Y-165954000D01*
X110718000Y-139686000D02*
X111918000Y-139686000D01*
X111918000Y-137936000D02*
X110718000Y-137936000D01*
X100501143Y-175347334D02*
X100548762Y-175299715D01*
X100596381Y-175156858D01*
X100596381Y-175061620D01*
X100548762Y-174918762D01*
X100453524Y-174823524D01*
X100358286Y-174775905D01*
X100167810Y-174728286D01*
X100024952Y-174728286D01*
X99834476Y-174775905D01*
X99739238Y-174823524D01*
X99644000Y-174918762D01*
X99596381Y-175061620D01*
X99596381Y-175156858D01*
X99644000Y-175299715D01*
X99691619Y-175347334D01*
X100596381Y-176299715D02*
X100596381Y-175728286D01*
X100596381Y-176014000D02*
X99596381Y-176014000D01*
X99739238Y-175918762D01*
X99834476Y-175823524D01*
X99882095Y-175728286D01*
X95793143Y-151233334D02*
X95840762Y-151185715D01*
X95888381Y-151042858D01*
X95888381Y-150947620D01*
X95840762Y-150804762D01*
X95745524Y-150709524D01*
X95650286Y-150661905D01*
X95459810Y-150614286D01*
X95316952Y-150614286D01*
X95126476Y-150661905D01*
X95031238Y-150709524D01*
X94936000Y-150804762D01*
X94888381Y-150947620D01*
X94888381Y-151042858D01*
X94936000Y-151185715D01*
X94983619Y-151233334D01*
X94983619Y-151614286D02*
X94936000Y-151661905D01*
X94888381Y-151757143D01*
X94888381Y-151995239D01*
X94936000Y-152090477D01*
X94983619Y-152138096D01*
X95078857Y-152185715D01*
X95174095Y-152185715D01*
X95316952Y-152138096D01*
X95888381Y-151566667D01*
X95888381Y-152185715D01*
X124495143Y-151217334D02*
X124542762Y-151169715D01*
X124590381Y-151026858D01*
X124590381Y-150931620D01*
X124542762Y-150788762D01*
X124447524Y-150693524D01*
X124352286Y-150645905D01*
X124161810Y-150598286D01*
X124018952Y-150598286D01*
X123828476Y-150645905D01*
X123733238Y-150693524D01*
X123638000Y-150788762D01*
X123590381Y-150931620D01*
X123590381Y-151026858D01*
X123638000Y-151169715D01*
X123685619Y-151217334D01*
X123590381Y-151550667D02*
X123590381Y-152169715D01*
X123971333Y-151836381D01*
X123971333Y-151979239D01*
X124018952Y-152074477D01*
X124066571Y-152122096D01*
X124161810Y-152169715D01*
X124399905Y-152169715D01*
X124495143Y-152122096D01*
X124542762Y-152074477D01*
X124590381Y-151979239D01*
X124590381Y-151693524D01*
X124542762Y-151598286D01*
X124495143Y-151550667D01*
X99734666Y-137957143D02*
X99782285Y-138004762D01*
X99925142Y-138052381D01*
X100020380Y-138052381D01*
X100163238Y-138004762D01*
X100258476Y-137909524D01*
X100306095Y-137814286D01*
X100353714Y-137623810D01*
X100353714Y-137480952D01*
X100306095Y-137290476D01*
X100258476Y-137195238D01*
X100163238Y-137100000D01*
X100020380Y-137052381D01*
X99925142Y-137052381D01*
X99782285Y-137100000D01*
X99734666Y-137147619D01*
X98877523Y-137385714D02*
X98877523Y-138052381D01*
X99115619Y-137004762D02*
X99353714Y-137719048D01*
X98734666Y-137719048D01*
X116249143Y-175093334D02*
X116296762Y-175045715D01*
X116344381Y-174902858D01*
X116344381Y-174807620D01*
X116296762Y-174664762D01*
X116201524Y-174569524D01*
X116106286Y-174521905D01*
X115915810Y-174474286D01*
X115772952Y-174474286D01*
X115582476Y-174521905D01*
X115487238Y-174569524D01*
X115392000Y-174664762D01*
X115344381Y-174807620D01*
X115344381Y-174902858D01*
X115392000Y-175045715D01*
X115439619Y-175093334D01*
X115344381Y-175998096D02*
X115344381Y-175521905D01*
X115820571Y-175474286D01*
X115772952Y-175521905D01*
X115725333Y-175617143D01*
X115725333Y-175855239D01*
X115772952Y-175950477D01*
X115820571Y-175998096D01*
X115915810Y-176045715D01*
X116153905Y-176045715D01*
X116249143Y-175998096D01*
X116296762Y-175950477D01*
X116344381Y-175855239D01*
X116344381Y-175617143D01*
X116296762Y-175521905D01*
X116249143Y-175474286D01*
X108883143Y-174839334D02*
X108930762Y-174791715D01*
X108978381Y-174648858D01*
X108978381Y-174553620D01*
X108930762Y-174410762D01*
X108835524Y-174315524D01*
X108740286Y-174267905D01*
X108549810Y-174220286D01*
X108406952Y-174220286D01*
X108216476Y-174267905D01*
X108121238Y-174315524D01*
X108026000Y-174410762D01*
X107978381Y-174553620D01*
X107978381Y-174648858D01*
X108026000Y-174791715D01*
X108073619Y-174839334D01*
X107978381Y-175696477D02*
X107978381Y-175506000D01*
X108026000Y-175410762D01*
X108073619Y-175363143D01*
X108216476Y-175267905D01*
X108406952Y-175220286D01*
X108787905Y-175220286D01*
X108883143Y-175267905D01*
X108930762Y-175315524D01*
X108978381Y-175410762D01*
X108978381Y-175601239D01*
X108930762Y-175696477D01*
X108883143Y-175744096D01*
X108787905Y-175791715D01*
X108549810Y-175791715D01*
X108454571Y-175744096D01*
X108406952Y-175696477D01*
X108359333Y-175601239D01*
X108359333Y-175410762D01*
X108406952Y-175315524D01*
X108454571Y-175267905D01*
X108549810Y-175220286D01*
X107100666Y-181781143D02*
X107148285Y-181828762D01*
X107291142Y-181876381D01*
X107386380Y-181876381D01*
X107529238Y-181828762D01*
X107624476Y-181733524D01*
X107672095Y-181638286D01*
X107719714Y-181447810D01*
X107719714Y-181304952D01*
X107672095Y-181114476D01*
X107624476Y-181019238D01*
X107529238Y-180924000D01*
X107386380Y-180876381D01*
X107291142Y-180876381D01*
X107148285Y-180924000D01*
X107100666Y-180971619D01*
X106767333Y-180876381D02*
X106100666Y-180876381D01*
X106529238Y-181876381D01*
X124241143Y-176601334D02*
X124288762Y-176553715D01*
X124336381Y-176410858D01*
X124336381Y-176315620D01*
X124288762Y-176172762D01*
X124193524Y-176077524D01*
X124098286Y-176029905D01*
X123907810Y-175982286D01*
X123764952Y-175982286D01*
X123574476Y-176029905D01*
X123479238Y-176077524D01*
X123384000Y-176172762D01*
X123336381Y-176315620D01*
X123336381Y-176410858D01*
X123384000Y-176553715D01*
X123431619Y-176601334D01*
X123764952Y-177172762D02*
X123717333Y-177077524D01*
X123669714Y-177029905D01*
X123574476Y-176982286D01*
X123526857Y-176982286D01*
X123431619Y-177029905D01*
X123384000Y-177077524D01*
X123336381Y-177172762D01*
X123336381Y-177363239D01*
X123384000Y-177458477D01*
X123431619Y-177506096D01*
X123526857Y-177553715D01*
X123574476Y-177553715D01*
X123669714Y-177506096D01*
X123717333Y-177458477D01*
X123764952Y-177363239D01*
X123764952Y-177172762D01*
X123812571Y-177077524D01*
X123860190Y-177029905D01*
X123955429Y-176982286D01*
X124145905Y-176982286D01*
X124241143Y-177029905D01*
X124288762Y-177077524D01*
X124336381Y-177172762D01*
X124336381Y-177363239D01*
X124288762Y-177458477D01*
X124241143Y-177506096D01*
X124145905Y-177553715D01*
X123955429Y-177553715D01*
X123860190Y-177506096D01*
X123812571Y-177458477D01*
X123764952Y-177363239D01*
X118653143Y-176617334D02*
X118700762Y-176569715D01*
X118748381Y-176426858D01*
X118748381Y-176331620D01*
X118700762Y-176188762D01*
X118605524Y-176093524D01*
X118510286Y-176045905D01*
X118319810Y-175998286D01*
X118176952Y-175998286D01*
X117986476Y-176045905D01*
X117891238Y-176093524D01*
X117796000Y-176188762D01*
X117748381Y-176331620D01*
X117748381Y-176426858D01*
X117796000Y-176569715D01*
X117843619Y-176617334D01*
X118748381Y-177093524D02*
X118748381Y-177284000D01*
X118700762Y-177379239D01*
X118653143Y-177426858D01*
X118510286Y-177522096D01*
X118319810Y-177569715D01*
X117938857Y-177569715D01*
X117843619Y-177522096D01*
X117796000Y-177474477D01*
X117748381Y-177379239D01*
X117748381Y-177188762D01*
X117796000Y-177093524D01*
X117843619Y-177045905D01*
X117938857Y-176998286D01*
X118176952Y-176998286D01*
X118272190Y-177045905D01*
X118319810Y-177093524D01*
X118367429Y-177188762D01*
X118367429Y-177379239D01*
X118319810Y-177474477D01*
X118272190Y-177522096D01*
X118176952Y-177569715D01*
X122853143Y-150741143D02*
X122900762Y-150693524D01*
X122948381Y-150550667D01*
X122948381Y-150455429D01*
X122900762Y-150312571D01*
X122805524Y-150217333D01*
X122710286Y-150169714D01*
X122519810Y-150122095D01*
X122376952Y-150122095D01*
X122186476Y-150169714D01*
X122091238Y-150217333D01*
X121996000Y-150312571D01*
X121948381Y-150455429D01*
X121948381Y-150550667D01*
X121996000Y-150693524D01*
X122043619Y-150741143D01*
X122948381Y-151693524D02*
X122948381Y-151122095D01*
X122948381Y-151407809D02*
X121948381Y-151407809D01*
X122091238Y-151312571D01*
X122186476Y-151217333D01*
X122234095Y-151122095D01*
X121948381Y-152312571D02*
X121948381Y-152407810D01*
X121996000Y-152503048D01*
X122043619Y-152550667D01*
X122138857Y-152598286D01*
X122329333Y-152645905D01*
X122567429Y-152645905D01*
X122757905Y-152598286D01*
X122853143Y-152550667D01*
X122900762Y-152503048D01*
X122948381Y-152407810D01*
X122948381Y-152312571D01*
X122900762Y-152217333D01*
X122853143Y-152169714D01*
X122757905Y-152122095D01*
X122567429Y-152074476D01*
X122329333Y-152074476D01*
X122138857Y-152122095D01*
X122043619Y-152169714D01*
X121996000Y-152217333D01*
X121948381Y-152312571D01*
X94405143Y-150995143D02*
X94452762Y-150947524D01*
X94500381Y-150804667D01*
X94500381Y-150709429D01*
X94452762Y-150566571D01*
X94357524Y-150471333D01*
X94262286Y-150423714D01*
X94071810Y-150376095D01*
X93928952Y-150376095D01*
X93738476Y-150423714D01*
X93643238Y-150471333D01*
X93548000Y-150566571D01*
X93500381Y-150709429D01*
X93500381Y-150804667D01*
X93548000Y-150947524D01*
X93595619Y-150995143D01*
X94500381Y-151947524D02*
X94500381Y-151376095D01*
X94500381Y-151661809D02*
X93500381Y-151661809D01*
X93643238Y-151566571D01*
X93738476Y-151471333D01*
X93786095Y-151376095D01*
X94500381Y-152899905D02*
X94500381Y-152328476D01*
X94500381Y-152614190D02*
X93500381Y-152614190D01*
X93643238Y-152518952D01*
X93738476Y-152423714D01*
X93786095Y-152328476D01*
X100873143Y-146931143D02*
X100920762Y-146883524D01*
X100968381Y-146740667D01*
X100968381Y-146645429D01*
X100920762Y-146502571D01*
X100825524Y-146407333D01*
X100730286Y-146359714D01*
X100539810Y-146312095D01*
X100396952Y-146312095D01*
X100206476Y-146359714D01*
X100111238Y-146407333D01*
X100016000Y-146502571D01*
X99968381Y-146645429D01*
X99968381Y-146740667D01*
X100016000Y-146883524D01*
X100063619Y-146931143D01*
X100968381Y-147883524D02*
X100968381Y-147312095D01*
X100968381Y-147597809D02*
X99968381Y-147597809D01*
X100111238Y-147502571D01*
X100206476Y-147407333D01*
X100254095Y-147312095D01*
X100063619Y-148264476D02*
X100016000Y-148312095D01*
X99968381Y-148407333D01*
X99968381Y-148645429D01*
X100016000Y-148740667D01*
X100063619Y-148788286D01*
X100158857Y-148835905D01*
X100254095Y-148835905D01*
X100396952Y-148788286D01*
X100968381Y-148216857D01*
X100968381Y-148835905D01*
X112259857Y-166795143D02*
X112307476Y-166842762D01*
X112450333Y-166890381D01*
X112545571Y-166890381D01*
X112688429Y-166842762D01*
X112783667Y-166747524D01*
X112831286Y-166652286D01*
X112878905Y-166461810D01*
X112878905Y-166318952D01*
X112831286Y-166128476D01*
X112783667Y-166033238D01*
X112688429Y-165938000D01*
X112545571Y-165890381D01*
X112450333Y-165890381D01*
X112307476Y-165938000D01*
X112259857Y-165985619D01*
X111307476Y-166890381D02*
X111878905Y-166890381D01*
X111593191Y-166890381D02*
X111593191Y-165890381D01*
X111688429Y-166033238D01*
X111783667Y-166128476D01*
X111878905Y-166176095D01*
X110974143Y-165890381D02*
X110355095Y-165890381D01*
X110688429Y-166271333D01*
X110545571Y-166271333D01*
X110450333Y-166318952D01*
X110402714Y-166366571D01*
X110355095Y-166461810D01*
X110355095Y-166699905D01*
X110402714Y-166795143D01*
X110450333Y-166842762D01*
X110545571Y-166890381D01*
X110831286Y-166890381D01*
X110926524Y-166842762D01*
X110974143Y-166795143D01*
X125372857Y-169843143D02*
X125420476Y-169890762D01*
X125563333Y-169938381D01*
X125658571Y-169938381D01*
X125801429Y-169890762D01*
X125896667Y-169795524D01*
X125944286Y-169700286D01*
X125991905Y-169509810D01*
X125991905Y-169366952D01*
X125944286Y-169176476D01*
X125896667Y-169081238D01*
X125801429Y-168986000D01*
X125658571Y-168938381D01*
X125563333Y-168938381D01*
X125420476Y-168986000D01*
X125372857Y-169033619D01*
X124420476Y-169938381D02*
X124991905Y-169938381D01*
X124706191Y-169938381D02*
X124706191Y-168938381D01*
X124801429Y-169081238D01*
X124896667Y-169176476D01*
X124991905Y-169224095D01*
X123563333Y-169271714D02*
X123563333Y-169938381D01*
X123801429Y-168890762D02*
X124039524Y-169605048D01*
X123420476Y-169605048D01*
X123054857Y-170215143D02*
X123102476Y-170262762D01*
X123245333Y-170310381D01*
X123340571Y-170310381D01*
X123483429Y-170262762D01*
X123578667Y-170167524D01*
X123626286Y-170072286D01*
X123673905Y-169881810D01*
X123673905Y-169738952D01*
X123626286Y-169548476D01*
X123578667Y-169453238D01*
X123483429Y-169358000D01*
X123340571Y-169310381D01*
X123245333Y-169310381D01*
X123102476Y-169358000D01*
X123054857Y-169405619D01*
X122102476Y-170310381D02*
X122673905Y-170310381D01*
X122388191Y-170310381D02*
X122388191Y-169310381D01*
X122483429Y-169453238D01*
X122578667Y-169548476D01*
X122673905Y-169596095D01*
X121197714Y-169310381D02*
X121673905Y-169310381D01*
X121721524Y-169786571D01*
X121673905Y-169738952D01*
X121578667Y-169691333D01*
X121340571Y-169691333D01*
X121245333Y-169738952D01*
X121197714Y-169786571D01*
X121150095Y-169881810D01*
X121150095Y-170119905D01*
X121197714Y-170215143D01*
X121245333Y-170262762D01*
X121340571Y-170310381D01*
X121578667Y-170310381D01*
X121673905Y-170262762D01*
X121721524Y-170215143D01*
X127626857Y-161071143D02*
X127674476Y-161118762D01*
X127817333Y-161166381D01*
X127912571Y-161166381D01*
X128055429Y-161118762D01*
X128150667Y-161023524D01*
X128198286Y-160928286D01*
X128245905Y-160737810D01*
X128245905Y-160594952D01*
X128198286Y-160404476D01*
X128150667Y-160309238D01*
X128055429Y-160214000D01*
X127912571Y-160166381D01*
X127817333Y-160166381D01*
X127674476Y-160214000D01*
X127626857Y-160261619D01*
X126674476Y-161166381D02*
X127245905Y-161166381D01*
X126960191Y-161166381D02*
X126960191Y-160166381D01*
X127055429Y-160309238D01*
X127150667Y-160404476D01*
X127245905Y-160452095D01*
X125817333Y-160166381D02*
X126007810Y-160166381D01*
X126103048Y-160214000D01*
X126150667Y-160261619D01*
X126245905Y-160404476D01*
X126293524Y-160594952D01*
X126293524Y-160975905D01*
X126245905Y-161071143D01*
X126198286Y-161118762D01*
X126103048Y-161166381D01*
X125912571Y-161166381D01*
X125817333Y-161118762D01*
X125769714Y-161071143D01*
X125722095Y-160975905D01*
X125722095Y-160737810D01*
X125769714Y-160642571D01*
X125817333Y-160594952D01*
X125912571Y-160547333D01*
X126103048Y-160547333D01*
X126198286Y-160594952D01*
X126245905Y-160642571D01*
X126293524Y-160737810D01*
X136532857Y-147999143D02*
X136580476Y-148046762D01*
X136723333Y-148094381D01*
X136818571Y-148094381D01*
X136961429Y-148046762D01*
X137056667Y-147951524D01*
X137104286Y-147856286D01*
X137151905Y-147665810D01*
X137151905Y-147522952D01*
X137104286Y-147332476D01*
X137056667Y-147237238D01*
X136961429Y-147142000D01*
X136818571Y-147094381D01*
X136723333Y-147094381D01*
X136580476Y-147142000D01*
X136532857Y-147189619D01*
X135580476Y-148094381D02*
X136151905Y-148094381D01*
X135866191Y-148094381D02*
X135866191Y-147094381D01*
X135961429Y-147237238D01*
X136056667Y-147332476D01*
X136151905Y-147380095D01*
X135247143Y-147094381D02*
X134580476Y-147094381D01*
X135009048Y-148094381D01*
X129321143Y-170283143D02*
X129368762Y-170235524D01*
X129416381Y-170092667D01*
X129416381Y-169997429D01*
X129368762Y-169854571D01*
X129273524Y-169759333D01*
X129178286Y-169711714D01*
X128987810Y-169664095D01*
X128844952Y-169664095D01*
X128654476Y-169711714D01*
X128559238Y-169759333D01*
X128464000Y-169854571D01*
X128416381Y-169997429D01*
X128416381Y-170092667D01*
X128464000Y-170235524D01*
X128511619Y-170283143D01*
X129416381Y-171235524D02*
X129416381Y-170664095D01*
X129416381Y-170949809D02*
X128416381Y-170949809D01*
X128559238Y-170854571D01*
X128654476Y-170759333D01*
X128702095Y-170664095D01*
X128844952Y-171806952D02*
X128797333Y-171711714D01*
X128749714Y-171664095D01*
X128654476Y-171616476D01*
X128606857Y-171616476D01*
X128511619Y-171664095D01*
X128464000Y-171711714D01*
X128416381Y-171806952D01*
X128416381Y-171997429D01*
X128464000Y-172092667D01*
X128511619Y-172140286D01*
X128606857Y-172187905D01*
X128654476Y-172187905D01*
X128749714Y-172140286D01*
X128797333Y-172092667D01*
X128844952Y-171997429D01*
X128844952Y-171806952D01*
X128892571Y-171711714D01*
X128940190Y-171664095D01*
X129035429Y-171616476D01*
X129225905Y-171616476D01*
X129321143Y-171664095D01*
X129368762Y-171711714D01*
X129416381Y-171806952D01*
X129416381Y-171997429D01*
X129368762Y-172092667D01*
X129321143Y-172140286D01*
X129225905Y-172187905D01*
X129035429Y-172187905D01*
X128940190Y-172140286D01*
X128892571Y-172092667D01*
X128844952Y-171997429D01*
X114291857Y-159928143D02*
X114339476Y-159975762D01*
X114482333Y-160023381D01*
X114577571Y-160023381D01*
X114720429Y-159975762D01*
X114815667Y-159880524D01*
X114863286Y-159785286D01*
X114910905Y-159594810D01*
X114910905Y-159451952D01*
X114863286Y-159261476D01*
X114815667Y-159166238D01*
X114720429Y-159071000D01*
X114577571Y-159023381D01*
X114482333Y-159023381D01*
X114339476Y-159071000D01*
X114291857Y-159118619D01*
X113339476Y-160023381D02*
X113910905Y-160023381D01*
X113625191Y-160023381D02*
X113625191Y-159023381D01*
X113720429Y-159166238D01*
X113815667Y-159261476D01*
X113910905Y-159309095D01*
X112863286Y-160023381D02*
X112672810Y-160023381D01*
X112577571Y-159975762D01*
X112529952Y-159928143D01*
X112434714Y-159785286D01*
X112387095Y-159594810D01*
X112387095Y-159213857D01*
X112434714Y-159118619D01*
X112482333Y-159071000D01*
X112577571Y-159023381D01*
X112768048Y-159023381D01*
X112863286Y-159071000D01*
X112910905Y-159118619D01*
X112958524Y-159213857D01*
X112958524Y-159451952D01*
X112910905Y-159547190D01*
X112863286Y-159594810D01*
X112768048Y-159642429D01*
X112577571Y-159642429D01*
X112482333Y-159594810D01*
X112434714Y-159547190D01*
X112387095Y-159451952D01*
X131690857Y-165135143D02*
X131738476Y-165182762D01*
X131881333Y-165230381D01*
X131976571Y-165230381D01*
X132119429Y-165182762D01*
X132214667Y-165087524D01*
X132262286Y-164992286D01*
X132309905Y-164801810D01*
X132309905Y-164658952D01*
X132262286Y-164468476D01*
X132214667Y-164373238D01*
X132119429Y-164278000D01*
X131976571Y-164230381D01*
X131881333Y-164230381D01*
X131738476Y-164278000D01*
X131690857Y-164325619D01*
X131309905Y-164325619D02*
X131262286Y-164278000D01*
X131167048Y-164230381D01*
X130928952Y-164230381D01*
X130833714Y-164278000D01*
X130786095Y-164325619D01*
X130738476Y-164420857D01*
X130738476Y-164516095D01*
X130786095Y-164658952D01*
X131357524Y-165230381D01*
X130738476Y-165230381D01*
X130119429Y-164230381D02*
X130024190Y-164230381D01*
X129928952Y-164278000D01*
X129881333Y-164325619D01*
X129833714Y-164420857D01*
X129786095Y-164611333D01*
X129786095Y-164849429D01*
X129833714Y-165039905D01*
X129881333Y-165135143D01*
X129928952Y-165182762D01*
X130024190Y-165230381D01*
X130119429Y-165230381D01*
X130214667Y-165182762D01*
X130262286Y-165135143D01*
X130309905Y-165039905D01*
X130357524Y-164849429D01*
X130357524Y-164611333D01*
X130309905Y-164420857D01*
X130262286Y-164325619D01*
X130214667Y-164278000D01*
X130119429Y-164230381D01*
X117736857Y-142529143D02*
X117784476Y-142576762D01*
X117927333Y-142624381D01*
X118022571Y-142624381D01*
X118165429Y-142576762D01*
X118260667Y-142481524D01*
X118308286Y-142386286D01*
X118355905Y-142195810D01*
X118355905Y-142052952D01*
X118308286Y-141862476D01*
X118260667Y-141767238D01*
X118165429Y-141672000D01*
X118022571Y-141624381D01*
X117927333Y-141624381D01*
X117784476Y-141672000D01*
X117736857Y-141719619D01*
X117355905Y-141719619D02*
X117308286Y-141672000D01*
X117213048Y-141624381D01*
X116974952Y-141624381D01*
X116879714Y-141672000D01*
X116832095Y-141719619D01*
X116784476Y-141814857D01*
X116784476Y-141910095D01*
X116832095Y-142052952D01*
X117403524Y-142624381D01*
X116784476Y-142624381D01*
X115832095Y-142624381D02*
X116403524Y-142624381D01*
X116117810Y-142624381D02*
X116117810Y-141624381D01*
X116213048Y-141767238D01*
X116308286Y-141862476D01*
X116403524Y-141910095D01*
X109973857Y-161715143D02*
X110021476Y-161762762D01*
X110164333Y-161810381D01*
X110259571Y-161810381D01*
X110402429Y-161762762D01*
X110497667Y-161667524D01*
X110545286Y-161572286D01*
X110592905Y-161381810D01*
X110592905Y-161238952D01*
X110545286Y-161048476D01*
X110497667Y-160953238D01*
X110402429Y-160858000D01*
X110259571Y-160810381D01*
X110164333Y-160810381D01*
X110021476Y-160858000D01*
X109973857Y-160905619D01*
X109592905Y-160905619D02*
X109545286Y-160858000D01*
X109450048Y-160810381D01*
X109211952Y-160810381D01*
X109116714Y-160858000D01*
X109069095Y-160905619D01*
X109021476Y-161000857D01*
X109021476Y-161096095D01*
X109069095Y-161238952D01*
X109640524Y-161810381D01*
X109021476Y-161810381D01*
X108640524Y-160905619D02*
X108592905Y-160858000D01*
X108497667Y-160810381D01*
X108259571Y-160810381D01*
X108164333Y-160858000D01*
X108116714Y-160905619D01*
X108069095Y-161000857D01*
X108069095Y-161096095D01*
X108116714Y-161238952D01*
X108688143Y-161810381D01*
X108069095Y-161810381D01*
X104163857Y-162096143D02*
X104211476Y-162143762D01*
X104354333Y-162191381D01*
X104449571Y-162191381D01*
X104592429Y-162143762D01*
X104687667Y-162048524D01*
X104735286Y-161953286D01*
X104782905Y-161762810D01*
X104782905Y-161619952D01*
X104735286Y-161429476D01*
X104687667Y-161334238D01*
X104592429Y-161239000D01*
X104449571Y-161191381D01*
X104354333Y-161191381D01*
X104211476Y-161239000D01*
X104163857Y-161286619D01*
X103782905Y-161286619D02*
X103735286Y-161239000D01*
X103640048Y-161191381D01*
X103401952Y-161191381D01*
X103306714Y-161239000D01*
X103259095Y-161286619D01*
X103211476Y-161381857D01*
X103211476Y-161477095D01*
X103259095Y-161619952D01*
X103830524Y-162191381D01*
X103211476Y-162191381D01*
X102878143Y-161191381D02*
X102259095Y-161191381D01*
X102592429Y-161572333D01*
X102449571Y-161572333D01*
X102354333Y-161619952D01*
X102306714Y-161667571D01*
X102259095Y-161762810D01*
X102259095Y-162000905D01*
X102306714Y-162096143D01*
X102354333Y-162143762D01*
X102449571Y-162191381D01*
X102735286Y-162191381D01*
X102830524Y-162143762D01*
X102878143Y-162096143D01*
X96301143Y-166997143D02*
X96348762Y-166949524D01*
X96396381Y-166806667D01*
X96396381Y-166711429D01*
X96348762Y-166568571D01*
X96253524Y-166473333D01*
X96158286Y-166425714D01*
X95967810Y-166378095D01*
X95824952Y-166378095D01*
X95634476Y-166425714D01*
X95539238Y-166473333D01*
X95444000Y-166568571D01*
X95396381Y-166711429D01*
X95396381Y-166806667D01*
X95444000Y-166949524D01*
X95491619Y-166997143D01*
X95491619Y-167378095D02*
X95444000Y-167425714D01*
X95396381Y-167520952D01*
X95396381Y-167759048D01*
X95444000Y-167854286D01*
X95491619Y-167901905D01*
X95586857Y-167949524D01*
X95682095Y-167949524D01*
X95824952Y-167901905D01*
X96396381Y-167330476D01*
X96396381Y-167949524D01*
X95729714Y-168806667D02*
X96396381Y-168806667D01*
X95348762Y-168568571D02*
X96063048Y-168330476D01*
X96063048Y-168949524D01*
X107592857Y-165779143D02*
X107640476Y-165826762D01*
X107783333Y-165874381D01*
X107878571Y-165874381D01*
X108021429Y-165826762D01*
X108116667Y-165731524D01*
X108164286Y-165636286D01*
X108211905Y-165445810D01*
X108211905Y-165302952D01*
X108164286Y-165112476D01*
X108116667Y-165017238D01*
X108021429Y-164922000D01*
X107878571Y-164874381D01*
X107783333Y-164874381D01*
X107640476Y-164922000D01*
X107592857Y-164969619D01*
X107211905Y-164969619D02*
X107164286Y-164922000D01*
X107069048Y-164874381D01*
X106830952Y-164874381D01*
X106735714Y-164922000D01*
X106688095Y-164969619D01*
X106640476Y-165064857D01*
X106640476Y-165160095D01*
X106688095Y-165302952D01*
X107259524Y-165874381D01*
X106640476Y-165874381D01*
X105735714Y-164874381D02*
X106211905Y-164874381D01*
X106259524Y-165350571D01*
X106211905Y-165302952D01*
X106116667Y-165255333D01*
X105878571Y-165255333D01*
X105783333Y-165302952D01*
X105735714Y-165350571D01*
X105688095Y-165445810D01*
X105688095Y-165683905D01*
X105735714Y-165779143D01*
X105783333Y-165826762D01*
X105878571Y-165874381D01*
X106116667Y-165874381D01*
X106211905Y-165826762D01*
X106259524Y-165779143D01*
X130706857Y-178851143D02*
X130754476Y-178898762D01*
X130897333Y-178946381D01*
X130992571Y-178946381D01*
X131135429Y-178898762D01*
X131230667Y-178803524D01*
X131278286Y-178708286D01*
X131325905Y-178517810D01*
X131325905Y-178374952D01*
X131278286Y-178184476D01*
X131230667Y-178089238D01*
X131135429Y-177994000D01*
X130992571Y-177946381D01*
X130897333Y-177946381D01*
X130754476Y-177994000D01*
X130706857Y-178041619D01*
X130325905Y-178041619D02*
X130278286Y-177994000D01*
X130183048Y-177946381D01*
X129944952Y-177946381D01*
X129849714Y-177994000D01*
X129802095Y-178041619D01*
X129754476Y-178136857D01*
X129754476Y-178232095D01*
X129802095Y-178374952D01*
X130373524Y-178946381D01*
X129754476Y-178946381D01*
X128897333Y-177946381D02*
X129087810Y-177946381D01*
X129183048Y-177994000D01*
X129230667Y-178041619D01*
X129325905Y-178184476D01*
X129373524Y-178374952D01*
X129373524Y-178755905D01*
X129325905Y-178851143D01*
X129278286Y-178898762D01*
X129183048Y-178946381D01*
X128992571Y-178946381D01*
X128897333Y-178898762D01*
X128849714Y-178851143D01*
X128802095Y-178755905D01*
X128802095Y-178517810D01*
X128849714Y-178422571D01*
X128897333Y-178374952D01*
X128992571Y-178327333D01*
X129183048Y-178327333D01*
X129278286Y-178374952D01*
X129325905Y-178422571D01*
X129373524Y-178517810D01*
X130960857Y-181899143D02*
X131008476Y-181946762D01*
X131151333Y-181994381D01*
X131246571Y-181994381D01*
X131389429Y-181946762D01*
X131484667Y-181851524D01*
X131532286Y-181756286D01*
X131579905Y-181565810D01*
X131579905Y-181422952D01*
X131532286Y-181232476D01*
X131484667Y-181137238D01*
X131389429Y-181042000D01*
X131246571Y-180994381D01*
X131151333Y-180994381D01*
X131008476Y-181042000D01*
X130960857Y-181089619D01*
X130579905Y-181089619D02*
X130532286Y-181042000D01*
X130437048Y-180994381D01*
X130198952Y-180994381D01*
X130103714Y-181042000D01*
X130056095Y-181089619D01*
X130008476Y-181184857D01*
X130008476Y-181280095D01*
X130056095Y-181422952D01*
X130627524Y-181994381D01*
X130008476Y-181994381D01*
X129675143Y-180994381D02*
X129008476Y-180994381D01*
X129437048Y-181994381D01*
X101730381Y-153183334D02*
X101254190Y-152850000D01*
X101730381Y-152611905D02*
X100730381Y-152611905D01*
X100730381Y-152992858D01*
X100778000Y-153088096D01*
X100825619Y-153135715D01*
X100920857Y-153183334D01*
X101063714Y-153183334D01*
X101158952Y-153135715D01*
X101206571Y-153088096D01*
X101254190Y-152992858D01*
X101254190Y-152611905D01*
X101730381Y-154135715D02*
X101730381Y-153564286D01*
X101730381Y-153850000D02*
X100730381Y-153850000D01*
X100873238Y-153754762D01*
X100968476Y-153659524D01*
X101016095Y-153564286D01*
X126658666Y-157102381D02*
X126992000Y-156626190D01*
X127230095Y-157102381D02*
X127230095Y-156102381D01*
X126849142Y-156102381D01*
X126753904Y-156150000D01*
X126706285Y-156197619D01*
X126658666Y-156292857D01*
X126658666Y-156435714D01*
X126706285Y-156530952D01*
X126753904Y-156578571D01*
X126849142Y-156626190D01*
X127230095Y-156626190D01*
X126277714Y-156197619D02*
X126230095Y-156150000D01*
X126134857Y-156102381D01*
X125896761Y-156102381D01*
X125801523Y-156150000D01*
X125753904Y-156197619D01*
X125706285Y-156292857D01*
X125706285Y-156388095D01*
X125753904Y-156530952D01*
X126325333Y-157102381D01*
X125706285Y-157102381D01*
X100968381Y-139025334D02*
X100492190Y-138692000D01*
X100968381Y-138453905D02*
X99968381Y-138453905D01*
X99968381Y-138834858D01*
X100016000Y-138930096D01*
X100063619Y-138977715D01*
X100158857Y-139025334D01*
X100301714Y-139025334D01*
X100396952Y-138977715D01*
X100444571Y-138930096D01*
X100492190Y-138834858D01*
X100492190Y-138453905D01*
X99968381Y-139358667D02*
X99968381Y-139977715D01*
X100349333Y-139644381D01*
X100349333Y-139787239D01*
X100396952Y-139882477D01*
X100444571Y-139930096D01*
X100539810Y-139977715D01*
X100777905Y-139977715D01*
X100873143Y-139930096D01*
X100920762Y-139882477D01*
X100968381Y-139787239D01*
X100968381Y-139501524D01*
X100920762Y-139406286D01*
X100873143Y-139358667D01*
X104306666Y-184670381D02*
X104640000Y-184194190D01*
X104878095Y-184670381D02*
X104878095Y-183670381D01*
X104497142Y-183670381D01*
X104401904Y-183718000D01*
X104354285Y-183765619D01*
X104306666Y-183860857D01*
X104306666Y-184003714D01*
X104354285Y-184098952D01*
X104401904Y-184146571D01*
X104497142Y-184194190D01*
X104878095Y-184194190D01*
X103449523Y-184003714D02*
X103449523Y-184670381D01*
X103687619Y-183622762D02*
X103925714Y-184337048D01*
X103306666Y-184337048D01*
X120562666Y-184670381D02*
X120896000Y-184194190D01*
X121134095Y-184670381D02*
X121134095Y-183670381D01*
X120753142Y-183670381D01*
X120657904Y-183718000D01*
X120610285Y-183765619D01*
X120562666Y-183860857D01*
X120562666Y-184003714D01*
X120610285Y-184098952D01*
X120657904Y-184146571D01*
X120753142Y-184194190D01*
X121134095Y-184194190D01*
X119657904Y-183670381D02*
X120134095Y-183670381D01*
X120181714Y-184146571D01*
X120134095Y-184098952D01*
X120038857Y-184051333D01*
X119800761Y-184051333D01*
X119705523Y-184098952D01*
X119657904Y-184146571D01*
X119610285Y-184241810D01*
X119610285Y-184479905D01*
X119657904Y-184575143D01*
X119705523Y-184622762D01*
X119800761Y-184670381D01*
X120038857Y-184670381D01*
X120134095Y-184622762D01*
X120181714Y-184575143D01*
X111772381Y-182967334D02*
X111296190Y-182634000D01*
X111772381Y-182395905D02*
X110772381Y-182395905D01*
X110772381Y-182776858D01*
X110820000Y-182872096D01*
X110867619Y-182919715D01*
X110962857Y-182967334D01*
X111105714Y-182967334D01*
X111200952Y-182919715D01*
X111248571Y-182872096D01*
X111296190Y-182776858D01*
X111296190Y-182395905D01*
X110772381Y-183824477D02*
X110772381Y-183634000D01*
X110820000Y-183538762D01*
X110867619Y-183491143D01*
X111010476Y-183395905D01*
X111200952Y-183348286D01*
X111581905Y-183348286D01*
X111677143Y-183395905D01*
X111724762Y-183443524D01*
X111772381Y-183538762D01*
X111772381Y-183729239D01*
X111724762Y-183824477D01*
X111677143Y-183872096D01*
X111581905Y-183919715D01*
X111343810Y-183919715D01*
X111248571Y-183872096D01*
X111200952Y-183824477D01*
X111153333Y-183729239D01*
X111153333Y-183538762D01*
X111200952Y-183443524D01*
X111248571Y-183395905D01*
X111343810Y-183348286D01*
X118122381Y-182967334D02*
X117646190Y-182634000D01*
X118122381Y-182395905D02*
X117122381Y-182395905D01*
X117122381Y-182776858D01*
X117170000Y-182872096D01*
X117217619Y-182919715D01*
X117312857Y-182967334D01*
X117455714Y-182967334D01*
X117550952Y-182919715D01*
X117598571Y-182872096D01*
X117646190Y-182776858D01*
X117646190Y-182395905D01*
X117122381Y-183300667D02*
X117122381Y-183967334D01*
X118122381Y-183538762D01*
X97666381Y-182967334D02*
X97190190Y-182634000D01*
X97666381Y-182395905D02*
X96666381Y-182395905D01*
X96666381Y-182776858D01*
X96714000Y-182872096D01*
X96761619Y-182919715D01*
X96856857Y-182967334D01*
X96999714Y-182967334D01*
X97094952Y-182919715D01*
X97142571Y-182872096D01*
X97190190Y-182776858D01*
X97190190Y-182395905D01*
X97094952Y-183538762D02*
X97047333Y-183443524D01*
X96999714Y-183395905D01*
X96904476Y-183348286D01*
X96856857Y-183348286D01*
X96761619Y-183395905D01*
X96714000Y-183443524D01*
X96666381Y-183538762D01*
X96666381Y-183729239D01*
X96714000Y-183824477D01*
X96761619Y-183872096D01*
X96856857Y-183919715D01*
X96904476Y-183919715D01*
X96999714Y-183872096D01*
X97047333Y-183824477D01*
X97094952Y-183729239D01*
X97094952Y-183538762D01*
X97142571Y-183443524D01*
X97190190Y-183395905D01*
X97285429Y-183348286D01*
X97475905Y-183348286D01*
X97571143Y-183395905D01*
X97618762Y-183443524D01*
X97666381Y-183538762D01*
X97666381Y-183729239D01*
X97618762Y-183824477D01*
X97571143Y-183872096D01*
X97475905Y-183919715D01*
X97285429Y-183919715D01*
X97190190Y-183872096D01*
X97142571Y-183824477D01*
X97094952Y-183729239D01*
X128282381Y-182713334D02*
X127806190Y-182380000D01*
X128282381Y-182141905D02*
X127282381Y-182141905D01*
X127282381Y-182522858D01*
X127330000Y-182618096D01*
X127377619Y-182665715D01*
X127472857Y-182713334D01*
X127615714Y-182713334D01*
X127710952Y-182665715D01*
X127758571Y-182618096D01*
X127806190Y-182522858D01*
X127806190Y-182141905D01*
X128282381Y-183189524D02*
X128282381Y-183380000D01*
X128234762Y-183475239D01*
X128187143Y-183522858D01*
X128044286Y-183618096D01*
X127853810Y-183665715D01*
X127472857Y-183665715D01*
X127377619Y-183618096D01*
X127330000Y-183570477D01*
X127282381Y-183475239D01*
X127282381Y-183284762D01*
X127330000Y-183189524D01*
X127377619Y-183141905D01*
X127472857Y-183094286D01*
X127710952Y-183094286D01*
X127806190Y-183141905D01*
X127853810Y-183189524D01*
X127901429Y-183284762D01*
X127901429Y-183475239D01*
X127853810Y-183570477D01*
X127806190Y-183618096D01*
X127710952Y-183665715D01*
X92590857Y-141490381D02*
X92924191Y-141014190D01*
X93162286Y-141490381D02*
X93162286Y-140490381D01*
X92781333Y-140490381D01*
X92686095Y-140538000D01*
X92638476Y-140585619D01*
X92590857Y-140680857D01*
X92590857Y-140823714D01*
X92638476Y-140918952D01*
X92686095Y-140966571D01*
X92781333Y-141014190D01*
X93162286Y-141014190D01*
X91638476Y-141490381D02*
X92209905Y-141490381D01*
X91924191Y-141490381D02*
X91924191Y-140490381D01*
X92019429Y-140633238D01*
X92114667Y-140728476D01*
X92209905Y-140776095D01*
X91019429Y-140490381D02*
X90924190Y-140490381D01*
X90828952Y-140538000D01*
X90781333Y-140585619D01*
X90733714Y-140680857D01*
X90686095Y-140871333D01*
X90686095Y-141109429D01*
X90733714Y-141299905D01*
X90781333Y-141395143D01*
X90828952Y-141442762D01*
X90924190Y-141490381D01*
X91019429Y-141490381D01*
X91114667Y-141442762D01*
X91162286Y-141395143D01*
X91209905Y-141299905D01*
X91257524Y-141109429D01*
X91257524Y-140871333D01*
X91209905Y-140680857D01*
X91162286Y-140585619D01*
X91114667Y-140538000D01*
X91019429Y-140490381D01*
X96400857Y-142252381D02*
X96734191Y-141776190D01*
X96972286Y-142252381D02*
X96972286Y-141252381D01*
X96591333Y-141252381D01*
X96496095Y-141300000D01*
X96448476Y-141347619D01*
X96400857Y-141442857D01*
X96400857Y-141585714D01*
X96448476Y-141680952D01*
X96496095Y-141728571D01*
X96591333Y-141776190D01*
X96972286Y-141776190D01*
X95448476Y-142252381D02*
X96019905Y-142252381D01*
X95734191Y-142252381D02*
X95734191Y-141252381D01*
X95829429Y-141395238D01*
X95924667Y-141490476D01*
X96019905Y-141538095D01*
X94496095Y-142252381D02*
X95067524Y-142252381D01*
X94781810Y-142252381D02*
X94781810Y-141252381D01*
X94877048Y-141395238D01*
X94972286Y-141490476D01*
X95067524Y-141538095D01*
X90046381Y-142359143D02*
X89570190Y-142025809D01*
X90046381Y-141787714D02*
X89046381Y-141787714D01*
X89046381Y-142168667D01*
X89094000Y-142263905D01*
X89141619Y-142311524D01*
X89236857Y-142359143D01*
X89379714Y-142359143D01*
X89474952Y-142311524D01*
X89522571Y-142263905D01*
X89570190Y-142168667D01*
X89570190Y-141787714D01*
X90046381Y-143311524D02*
X90046381Y-142740095D01*
X90046381Y-143025809D02*
X89046381Y-143025809D01*
X89189238Y-142930571D01*
X89284476Y-142835333D01*
X89332095Y-142740095D01*
X89141619Y-143692476D02*
X89094000Y-143740095D01*
X89046381Y-143835333D01*
X89046381Y-144073429D01*
X89094000Y-144168667D01*
X89141619Y-144216286D01*
X89236857Y-144263905D01*
X89332095Y-144263905D01*
X89474952Y-144216286D01*
X90046381Y-143644857D01*
X90046381Y-144263905D01*
X131706857Y-157102381D02*
X132040191Y-156626190D01*
X132278286Y-157102381D02*
X132278286Y-156102381D01*
X131897333Y-156102381D01*
X131802095Y-156150000D01*
X131754476Y-156197619D01*
X131706857Y-156292857D01*
X131706857Y-156435714D01*
X131754476Y-156530952D01*
X131802095Y-156578571D01*
X131897333Y-156626190D01*
X132278286Y-156626190D01*
X130754476Y-157102381D02*
X131325905Y-157102381D01*
X131040191Y-157102381D02*
X131040191Y-156102381D01*
X131135429Y-156245238D01*
X131230667Y-156340476D01*
X131325905Y-156388095D01*
X130421143Y-156102381D02*
X129802095Y-156102381D01*
X130135429Y-156483333D01*
X129992571Y-156483333D01*
X129897333Y-156530952D01*
X129849714Y-156578571D01*
X129802095Y-156673810D01*
X129802095Y-156911905D01*
X129849714Y-157007143D01*
X129897333Y-157054762D01*
X129992571Y-157102381D01*
X130278286Y-157102381D01*
X130373524Y-157054762D01*
X130421143Y-157007143D01*
X107068857Y-142624381D02*
X107402191Y-142148190D01*
X107640286Y-142624381D02*
X107640286Y-141624381D01*
X107259333Y-141624381D01*
X107164095Y-141672000D01*
X107116476Y-141719619D01*
X107068857Y-141814857D01*
X107068857Y-141957714D01*
X107116476Y-142052952D01*
X107164095Y-142100571D01*
X107259333Y-142148190D01*
X107640286Y-142148190D01*
X106116476Y-142624381D02*
X106687905Y-142624381D01*
X106402191Y-142624381D02*
X106402191Y-141624381D01*
X106497429Y-141767238D01*
X106592667Y-141862476D01*
X106687905Y-141910095D01*
X105259333Y-141957714D02*
X105259333Y-142624381D01*
X105497429Y-141576762D02*
X105735524Y-142291048D01*
X105116476Y-142291048D01*
X131194381Y-150995143D02*
X130718190Y-150661809D01*
X131194381Y-150423714D02*
X130194381Y-150423714D01*
X130194381Y-150804667D01*
X130242000Y-150899905D01*
X130289619Y-150947524D01*
X130384857Y-150995143D01*
X130527714Y-150995143D01*
X130622952Y-150947524D01*
X130670571Y-150899905D01*
X130718190Y-150804667D01*
X130718190Y-150423714D01*
X131194381Y-151947524D02*
X131194381Y-151376095D01*
X131194381Y-151661809D02*
X130194381Y-151661809D01*
X130337238Y-151566571D01*
X130432476Y-151471333D01*
X130480095Y-151376095D01*
X130194381Y-152852286D02*
X130194381Y-152376095D01*
X130670571Y-152328476D01*
X130622952Y-152376095D01*
X130575333Y-152471333D01*
X130575333Y-152709429D01*
X130622952Y-152804667D01*
X130670571Y-152852286D01*
X130765810Y-152899905D01*
X131003905Y-152899905D01*
X131099143Y-152852286D01*
X131146762Y-152804667D01*
X131194381Y-152709429D01*
X131194381Y-152471333D01*
X131146762Y-152376095D01*
X131099143Y-152328476D01*
X127638381Y-175887143D02*
X127162190Y-175553809D01*
X127638381Y-175315714D02*
X126638381Y-175315714D01*
X126638381Y-175696667D01*
X126686000Y-175791905D01*
X126733619Y-175839524D01*
X126828857Y-175887143D01*
X126971714Y-175887143D01*
X127066952Y-175839524D01*
X127114571Y-175791905D01*
X127162190Y-175696667D01*
X127162190Y-175315714D01*
X127638381Y-176839524D02*
X127638381Y-176268095D01*
X127638381Y-176553809D02*
X126638381Y-176553809D01*
X126781238Y-176458571D01*
X126876476Y-176363333D01*
X126924095Y-176268095D01*
X126638381Y-177696667D02*
X126638381Y-177506190D01*
X126686000Y-177410952D01*
X126733619Y-177363333D01*
X126876476Y-177268095D01*
X127066952Y-177220476D01*
X127447905Y-177220476D01*
X127543143Y-177268095D01*
X127590762Y-177315714D01*
X127638381Y-177410952D01*
X127638381Y-177601429D01*
X127590762Y-177696667D01*
X127543143Y-177744286D01*
X127447905Y-177791905D01*
X127209810Y-177791905D01*
X127114571Y-177744286D01*
X127066952Y-177696667D01*
X127019333Y-177601429D01*
X127019333Y-177410952D01*
X127066952Y-177315714D01*
X127114571Y-177268095D01*
X127209810Y-177220476D01*
X127708857Y-170310381D02*
X128042191Y-169834190D01*
X128280286Y-170310381D02*
X128280286Y-169310381D01*
X127899333Y-169310381D01*
X127804095Y-169358000D01*
X127756476Y-169405619D01*
X127708857Y-169500857D01*
X127708857Y-169643714D01*
X127756476Y-169738952D01*
X127804095Y-169786571D01*
X127899333Y-169834190D01*
X128280286Y-169834190D01*
X126756476Y-170310381D02*
X127327905Y-170310381D01*
X127042191Y-170310381D02*
X127042191Y-169310381D01*
X127137429Y-169453238D01*
X127232667Y-169548476D01*
X127327905Y-169596095D01*
X126423143Y-169310381D02*
X125756476Y-169310381D01*
X126185048Y-170310381D01*
X135008857Y-150888381D02*
X135342191Y-150412190D01*
X135580286Y-150888381D02*
X135580286Y-149888381D01*
X135199333Y-149888381D01*
X135104095Y-149936000D01*
X135056476Y-149983619D01*
X135008857Y-150078857D01*
X135008857Y-150221714D01*
X135056476Y-150316952D01*
X135104095Y-150364571D01*
X135199333Y-150412190D01*
X135580286Y-150412190D01*
X134056476Y-150888381D02*
X134627905Y-150888381D01*
X134342191Y-150888381D02*
X134342191Y-149888381D01*
X134437429Y-150031238D01*
X134532667Y-150126476D01*
X134627905Y-150174095D01*
X133485048Y-150316952D02*
X133580286Y-150269333D01*
X133627905Y-150221714D01*
X133675524Y-150126476D01*
X133675524Y-150078857D01*
X133627905Y-149983619D01*
X133580286Y-149936000D01*
X133485048Y-149888381D01*
X133294571Y-149888381D01*
X133199333Y-149936000D01*
X133151714Y-149983619D01*
X133104095Y-150078857D01*
X133104095Y-150126476D01*
X133151714Y-150221714D01*
X133199333Y-150269333D01*
X133294571Y-150316952D01*
X133485048Y-150316952D01*
X133580286Y-150364571D01*
X133627905Y-150412190D01*
X133675524Y-150507429D01*
X133675524Y-150697905D01*
X133627905Y-150793143D01*
X133580286Y-150840762D01*
X133485048Y-150888381D01*
X133294571Y-150888381D01*
X133199333Y-150840762D01*
X133151714Y-150793143D01*
X133104095Y-150697905D01*
X133104095Y-150507429D01*
X133151714Y-150412190D01*
X133199333Y-150364571D01*
X133294571Y-150316952D01*
X130944857Y-141998381D02*
X131278191Y-141522190D01*
X131516286Y-141998381D02*
X131516286Y-140998381D01*
X131135333Y-140998381D01*
X131040095Y-141046000D01*
X130992476Y-141093619D01*
X130944857Y-141188857D01*
X130944857Y-141331714D01*
X130992476Y-141426952D01*
X131040095Y-141474571D01*
X131135333Y-141522190D01*
X131516286Y-141522190D01*
X129992476Y-141998381D02*
X130563905Y-141998381D01*
X130278191Y-141998381D02*
X130278191Y-140998381D01*
X130373429Y-141141238D01*
X130468667Y-141236476D01*
X130563905Y-141284095D01*
X129516286Y-141998381D02*
X129325810Y-141998381D01*
X129230571Y-141950762D01*
X129182952Y-141903143D01*
X129087714Y-141760286D01*
X129040095Y-141569810D01*
X129040095Y-141188857D01*
X129087714Y-141093619D01*
X129135333Y-141046000D01*
X129230571Y-140998381D01*
X129421048Y-140998381D01*
X129516286Y-141046000D01*
X129563905Y-141093619D01*
X129611524Y-141188857D01*
X129611524Y-141426952D01*
X129563905Y-141522190D01*
X129516286Y-141569810D01*
X129421048Y-141617429D01*
X129230571Y-141617429D01*
X129135333Y-141569810D01*
X129087714Y-141522190D01*
X129040095Y-141426952D01*
X140474381Y-155887143D02*
X139998190Y-155553809D01*
X140474381Y-155315714D02*
X139474381Y-155315714D01*
X139474381Y-155696667D01*
X139522000Y-155791905D01*
X139569619Y-155839524D01*
X139664857Y-155887143D01*
X139807714Y-155887143D01*
X139902952Y-155839524D01*
X139950571Y-155791905D01*
X139998190Y-155696667D01*
X139998190Y-155315714D01*
X139569619Y-156268095D02*
X139522000Y-156315714D01*
X139474381Y-156410952D01*
X139474381Y-156649048D01*
X139522000Y-156744286D01*
X139569619Y-156791905D01*
X139664857Y-156839524D01*
X139760095Y-156839524D01*
X139902952Y-156791905D01*
X140474381Y-156220476D01*
X140474381Y-156839524D01*
X139474381Y-157458571D02*
X139474381Y-157553810D01*
X139522000Y-157649048D01*
X139569619Y-157696667D01*
X139664857Y-157744286D01*
X139855333Y-157791905D01*
X140093429Y-157791905D01*
X140283905Y-157744286D01*
X140379143Y-157696667D01*
X140426762Y-157649048D01*
X140474381Y-157553810D01*
X140474381Y-157458571D01*
X140426762Y-157363333D01*
X140379143Y-157315714D01*
X140283905Y-157268095D01*
X140093429Y-157220476D01*
X139855333Y-157220476D01*
X139664857Y-157268095D01*
X139569619Y-157315714D01*
X139522000Y-157363333D01*
X139474381Y-157458571D01*
X118818857Y-157737381D02*
X119152191Y-157261190D01*
X119390286Y-157737381D02*
X119390286Y-156737381D01*
X119009333Y-156737381D01*
X118914095Y-156785000D01*
X118866476Y-156832619D01*
X118818857Y-156927857D01*
X118818857Y-157070714D01*
X118866476Y-157165952D01*
X118914095Y-157213571D01*
X119009333Y-157261190D01*
X119390286Y-157261190D01*
X118437905Y-156832619D02*
X118390286Y-156785000D01*
X118295048Y-156737381D01*
X118056952Y-156737381D01*
X117961714Y-156785000D01*
X117914095Y-156832619D01*
X117866476Y-156927857D01*
X117866476Y-157023095D01*
X117914095Y-157165952D01*
X118485524Y-157737381D01*
X117866476Y-157737381D01*
X116914095Y-157737381D02*
X117485524Y-157737381D01*
X117199810Y-157737381D02*
X117199810Y-156737381D01*
X117295048Y-156880238D01*
X117390286Y-156975476D01*
X117485524Y-157023095D01*
X116462381Y-162867143D02*
X115986190Y-162533809D01*
X116462381Y-162295714D02*
X115462381Y-162295714D01*
X115462381Y-162676667D01*
X115510000Y-162771905D01*
X115557619Y-162819524D01*
X115652857Y-162867143D01*
X115795714Y-162867143D01*
X115890952Y-162819524D01*
X115938571Y-162771905D01*
X115986190Y-162676667D01*
X115986190Y-162295714D01*
X115557619Y-163248095D02*
X115510000Y-163295714D01*
X115462381Y-163390952D01*
X115462381Y-163629048D01*
X115510000Y-163724286D01*
X115557619Y-163771905D01*
X115652857Y-163819524D01*
X115748095Y-163819524D01*
X115890952Y-163771905D01*
X116462381Y-163200476D01*
X116462381Y-163819524D01*
X115557619Y-164200476D02*
X115510000Y-164248095D01*
X115462381Y-164343333D01*
X115462381Y-164581429D01*
X115510000Y-164676667D01*
X115557619Y-164724286D01*
X115652857Y-164771905D01*
X115748095Y-164771905D01*
X115890952Y-164724286D01*
X116462381Y-164152857D01*
X116462381Y-164771905D01*
X135196857Y-155578381D02*
X135530191Y-155102190D01*
X135768286Y-155578381D02*
X135768286Y-154578381D01*
X135387333Y-154578381D01*
X135292095Y-154626000D01*
X135244476Y-154673619D01*
X135196857Y-154768857D01*
X135196857Y-154911714D01*
X135244476Y-155006952D01*
X135292095Y-155054571D01*
X135387333Y-155102190D01*
X135768286Y-155102190D01*
X134815905Y-154673619D02*
X134768286Y-154626000D01*
X134673048Y-154578381D01*
X134434952Y-154578381D01*
X134339714Y-154626000D01*
X134292095Y-154673619D01*
X134244476Y-154768857D01*
X134244476Y-154864095D01*
X134292095Y-155006952D01*
X134863524Y-155578381D01*
X134244476Y-155578381D01*
X133911143Y-154578381D02*
X133292095Y-154578381D01*
X133625429Y-154959333D01*
X133482571Y-154959333D01*
X133387333Y-155006952D01*
X133339714Y-155054571D01*
X133292095Y-155149810D01*
X133292095Y-155387905D01*
X133339714Y-155483143D01*
X133387333Y-155530762D01*
X133482571Y-155578381D01*
X133768286Y-155578381D01*
X133863524Y-155530762D01*
X133911143Y-155483143D01*
X123390857Y-165366381D02*
X123724191Y-164890190D01*
X123962286Y-165366381D02*
X123962286Y-164366381D01*
X123581333Y-164366381D01*
X123486095Y-164414000D01*
X123438476Y-164461619D01*
X123390857Y-164556857D01*
X123390857Y-164699714D01*
X123438476Y-164794952D01*
X123486095Y-164842571D01*
X123581333Y-164890190D01*
X123962286Y-164890190D01*
X123009905Y-164461619D02*
X122962286Y-164414000D01*
X122867048Y-164366381D01*
X122628952Y-164366381D01*
X122533714Y-164414000D01*
X122486095Y-164461619D01*
X122438476Y-164556857D01*
X122438476Y-164652095D01*
X122486095Y-164794952D01*
X123057524Y-165366381D01*
X122438476Y-165366381D01*
X121581333Y-164699714D02*
X121581333Y-165366381D01*
X121819429Y-164318762D02*
X122057524Y-165033048D01*
X121438476Y-165033048D01*
X121542381Y-158615143D02*
X121066190Y-158281809D01*
X121542381Y-158043714D02*
X120542381Y-158043714D01*
X120542381Y-158424667D01*
X120590000Y-158519905D01*
X120637619Y-158567524D01*
X120732857Y-158615143D01*
X120875714Y-158615143D01*
X120970952Y-158567524D01*
X121018571Y-158519905D01*
X121066190Y-158424667D01*
X121066190Y-158043714D01*
X120637619Y-158996095D02*
X120590000Y-159043714D01*
X120542381Y-159138952D01*
X120542381Y-159377048D01*
X120590000Y-159472286D01*
X120637619Y-159519905D01*
X120732857Y-159567524D01*
X120828095Y-159567524D01*
X120970952Y-159519905D01*
X121542381Y-158948476D01*
X121542381Y-159567524D01*
X120542381Y-160472286D02*
X120542381Y-159996095D01*
X121018571Y-159948476D01*
X120970952Y-159996095D01*
X120923333Y-160091333D01*
X120923333Y-160329429D01*
X120970952Y-160424667D01*
X121018571Y-160472286D01*
X121113810Y-160519905D01*
X121351905Y-160519905D01*
X121447143Y-160472286D01*
X121494762Y-160424667D01*
X121542381Y-160329429D01*
X121542381Y-160091333D01*
X121494762Y-159996095D01*
X121447143Y-159948476D01*
X130944857Y-146434381D02*
X131278191Y-145958190D01*
X131516286Y-146434381D02*
X131516286Y-145434381D01*
X131135333Y-145434381D01*
X131040095Y-145482000D01*
X130992476Y-145529619D01*
X130944857Y-145624857D01*
X130944857Y-145767714D01*
X130992476Y-145862952D01*
X131040095Y-145910571D01*
X131135333Y-145958190D01*
X131516286Y-145958190D01*
X130563905Y-145529619D02*
X130516286Y-145482000D01*
X130421048Y-145434381D01*
X130182952Y-145434381D01*
X130087714Y-145482000D01*
X130040095Y-145529619D01*
X129992476Y-145624857D01*
X129992476Y-145720095D01*
X130040095Y-145862952D01*
X130611524Y-146434381D01*
X129992476Y-146434381D01*
X129135333Y-145434381D02*
X129325810Y-145434381D01*
X129421048Y-145482000D01*
X129468667Y-145529619D01*
X129563905Y-145672476D01*
X129611524Y-145862952D01*
X129611524Y-146243905D01*
X129563905Y-146339143D01*
X129516286Y-146386762D01*
X129421048Y-146434381D01*
X129230571Y-146434381D01*
X129135333Y-146386762D01*
X129087714Y-146339143D01*
X129040095Y-146243905D01*
X129040095Y-146005810D01*
X129087714Y-145910571D01*
X129135333Y-145862952D01*
X129230571Y-145815333D01*
X129421048Y-145815333D01*
X129516286Y-145862952D01*
X129563905Y-145910571D01*
X129611524Y-146005810D01*
X106118857Y-167262381D02*
X106452191Y-166786190D01*
X106690286Y-167262381D02*
X106690286Y-166262381D01*
X106309333Y-166262381D01*
X106214095Y-166310000D01*
X106166476Y-166357619D01*
X106118857Y-166452857D01*
X106118857Y-166595714D01*
X106166476Y-166690952D01*
X106214095Y-166738571D01*
X106309333Y-166786190D01*
X106690286Y-166786190D01*
X105737905Y-166357619D02*
X105690286Y-166310000D01*
X105595048Y-166262381D01*
X105356952Y-166262381D01*
X105261714Y-166310000D01*
X105214095Y-166357619D01*
X105166476Y-166452857D01*
X105166476Y-166548095D01*
X105214095Y-166690952D01*
X105785524Y-167262381D01*
X105166476Y-167262381D01*
X104833143Y-166262381D02*
X104166476Y-166262381D01*
X104595048Y-167262381D01*
X99636857Y-158245381D02*
X99970191Y-157769190D01*
X100208286Y-158245381D02*
X100208286Y-157245381D01*
X99827333Y-157245381D01*
X99732095Y-157293000D01*
X99684476Y-157340619D01*
X99636857Y-157435857D01*
X99636857Y-157578714D01*
X99684476Y-157673952D01*
X99732095Y-157721571D01*
X99827333Y-157769190D01*
X100208286Y-157769190D01*
X99255905Y-157340619D02*
X99208286Y-157293000D01*
X99113048Y-157245381D01*
X98874952Y-157245381D01*
X98779714Y-157293000D01*
X98732095Y-157340619D01*
X98684476Y-157435857D01*
X98684476Y-157531095D01*
X98732095Y-157673952D01*
X99303524Y-158245381D01*
X98684476Y-158245381D01*
X98113048Y-157673952D02*
X98208286Y-157626333D01*
X98255905Y-157578714D01*
X98303524Y-157483476D01*
X98303524Y-157435857D01*
X98255905Y-157340619D01*
X98208286Y-157293000D01*
X98113048Y-157245381D01*
X97922571Y-157245381D01*
X97827333Y-157293000D01*
X97779714Y-157340619D01*
X97732095Y-157435857D01*
X97732095Y-157483476D01*
X97779714Y-157578714D01*
X97827333Y-157626333D01*
X97922571Y-157673952D01*
X98113048Y-157673952D01*
X98208286Y-157721571D01*
X98255905Y-157769190D01*
X98303524Y-157864429D01*
X98303524Y-158054905D01*
X98255905Y-158150143D01*
X98208286Y-158197762D01*
X98113048Y-158245381D01*
X97922571Y-158245381D01*
X97827333Y-158197762D01*
X97779714Y-158150143D01*
X97732095Y-158054905D01*
X97732095Y-157864429D01*
X97779714Y-157769190D01*
X97827333Y-157721571D01*
X97922571Y-157673952D01*
X120977857Y-165484381D02*
X121311191Y-165008190D01*
X121549286Y-165484381D02*
X121549286Y-164484381D01*
X121168333Y-164484381D01*
X121073095Y-164532000D01*
X121025476Y-164579619D01*
X120977857Y-164674857D01*
X120977857Y-164817714D01*
X121025476Y-164912952D01*
X121073095Y-164960571D01*
X121168333Y-165008190D01*
X121549286Y-165008190D01*
X120596905Y-164579619D02*
X120549286Y-164532000D01*
X120454048Y-164484381D01*
X120215952Y-164484381D01*
X120120714Y-164532000D01*
X120073095Y-164579619D01*
X120025476Y-164674857D01*
X120025476Y-164770095D01*
X120073095Y-164912952D01*
X120644524Y-165484381D01*
X120025476Y-165484381D01*
X119549286Y-165484381D02*
X119358810Y-165484381D01*
X119263571Y-165436762D01*
X119215952Y-165389143D01*
X119120714Y-165246286D01*
X119073095Y-165055810D01*
X119073095Y-164674857D01*
X119120714Y-164579619D01*
X119168333Y-164532000D01*
X119263571Y-164484381D01*
X119454048Y-164484381D01*
X119549286Y-164532000D01*
X119596905Y-164579619D01*
X119644524Y-164674857D01*
X119644524Y-164912952D01*
X119596905Y-165008190D01*
X119549286Y-165055810D01*
X119454048Y-165103429D01*
X119263571Y-165103429D01*
X119168333Y-165055810D01*
X119120714Y-165008190D01*
X119073095Y-164912952D01*
X101730381Y-164711143D02*
X101254190Y-164377809D01*
X101730381Y-164139714D02*
X100730381Y-164139714D01*
X100730381Y-164520667D01*
X100778000Y-164615905D01*
X100825619Y-164663524D01*
X100920857Y-164711143D01*
X101063714Y-164711143D01*
X101158952Y-164663524D01*
X101206571Y-164615905D01*
X101254190Y-164520667D01*
X101254190Y-164139714D01*
X100730381Y-165044476D02*
X100730381Y-165663524D01*
X101111333Y-165330190D01*
X101111333Y-165473048D01*
X101158952Y-165568286D01*
X101206571Y-165615905D01*
X101301810Y-165663524D01*
X101539905Y-165663524D01*
X101635143Y-165615905D01*
X101682762Y-165568286D01*
X101730381Y-165473048D01*
X101730381Y-165187333D01*
X101682762Y-165092095D01*
X101635143Y-165044476D01*
X100730381Y-166282571D02*
X100730381Y-166377810D01*
X100778000Y-166473048D01*
X100825619Y-166520667D01*
X100920857Y-166568286D01*
X101111333Y-166615905D01*
X101349429Y-166615905D01*
X101539905Y-166568286D01*
X101635143Y-166520667D01*
X101682762Y-166473048D01*
X101730381Y-166377810D01*
X101730381Y-166282571D01*
X101682762Y-166187333D01*
X101635143Y-166139714D01*
X101539905Y-166092095D01*
X101349429Y-166044476D01*
X101111333Y-166044476D01*
X100920857Y-166092095D01*
X100825619Y-166139714D01*
X100778000Y-166187333D01*
X100730381Y-166282571D01*
X111960857Y-137163381D02*
X112294191Y-136687190D01*
X112532286Y-137163381D02*
X112532286Y-136163381D01*
X112151333Y-136163381D01*
X112056095Y-136211000D01*
X112008476Y-136258619D01*
X111960857Y-136353857D01*
X111960857Y-136496714D01*
X112008476Y-136591952D01*
X112056095Y-136639571D01*
X112151333Y-136687190D01*
X112532286Y-136687190D01*
X111627524Y-136163381D02*
X111008476Y-136163381D01*
X111341810Y-136544333D01*
X111198952Y-136544333D01*
X111103714Y-136591952D01*
X111056095Y-136639571D01*
X111008476Y-136734810D01*
X111008476Y-136972905D01*
X111056095Y-137068143D01*
X111103714Y-137115762D01*
X111198952Y-137163381D01*
X111484667Y-137163381D01*
X111579905Y-137115762D01*
X111627524Y-137068143D01*
X110056095Y-137163381D02*
X110627524Y-137163381D01*
X110341810Y-137163381D02*
X110341810Y-136163381D01*
X110437048Y-136306238D01*
X110532286Y-136401476D01*
X110627524Y-136449095D01*
M02*
